<svg xmlns="http://www.w3.org/2000/svg" xmlns:xlink="http://www.w3.org/1999/xlink" height="300" width="600" xmlns:v="https://vecta.io/nano"><style><![CDATA[.B{fill:#e1e1e1}.C{fill:#1a2e35}.D{fill:#ff4f5b}.E{fill:#375a64}.F{fill:#ececec}.G{fill:#f5f5f5}.H{fill:#fafafa}]]></style><defs><clipPath id="A"><path d="M0 500h750V0H0z"/></clipPath><clipPath id="B"><path d="M0 500h750V0H0z"/></clipPath><clipPath id="C"><path d="M0 500h750V0H0z"/></clipPath><clipPath id="D"><path d="M0 500h750V0H0z"/></clipPath><clipPath id="E"><path d="M223.466 279.342h294.25v-48.208h-294.25z"/></clipPath><clipPath id="F"><path d="M223.466 279.342h294.25v-.25h-294.25z"/></clipPath><clipPath id="G"><path d="M223.466 269.75h294.25v-.25h-294.25z"/></clipPath><clipPath id="H"><path d="M223.466 260.16h294.25v-.25h-294.25z"/></clipPath><clipPath id="I"><path d="M223.466 250.568h294.25v-.25h-294.25z"/></clipPath><clipPath id="J"><path d="M223.466 240.976h294.25v-.25h-294.25z"/></clipPath><clipPath id="K"><path d="M223.466 231.384h294.25v-.25h-294.25z"/></clipPath><clipPath id="L"><path d="M190.525 433.02h371.033v-62.708H190.525z"/></clipPath><clipPath id="M"><path d="M0 500h750V0H0z"/></clipPath><clipPath id="N"><path d="M557.808 117.742h36.316v-13.968h-36.316z"/></clipPath><clipPath id="O"><path d="M515.78 177.764h107.185V88.4H515.78z"/></clipPath><clipPath id="P"><path d="M577.128 56.466h50.09V35.354h-50.09z"/></clipPath><clipPath id="Q"><path d="M539.243 148.08h6.98v-46.4h-6.98z"/></clipPath><clipPath id="R"><path d="M0 500h750V0H0z"/></clipPath><path id="S" d="M157.572 151.41c-.14 0-.25 3.29-.25 7.345l.25 7.345c.14 0 .25-3.288.25-7.345l-.25-7.345"/><path id="T" d="M693.977 408.976c0-.134-3.14-.243-7.012-.243l-7.012.243c0 .134 3.138.243 7.012.243l7.012-.243"/><path id="U" d="M230.4 218.642l.225.256c.194-.286.455-.44.772-.44.44 0 .664.26.664.788v2.167h-1.308v.327h1.68v-2.48c0-.756-.357-1.13-1.043-1.13-.403 0-.77.184-.99.51"/><path id="V" d="M235.16 218.97v.44h-.844c-.52 0-.7-.204-.7-.48 0-.312.25-.506.68-.506.41 0 .7.194.854.547m.362.858v-1.666h-.347v.42c-.163-.275-.48-.444-.925-.444-.61 0-.982.316-.982.782 0 .414.266.762 1.038.762h.854v.163c0 .46-.26.71-.762.71a1.37 1.37 0 0 1-.894-.317l-.164.27c.27.23.67.362 1.093.362.696 0 1.09-.347 1.09-1.043"/><path id="W" d="M238.987 219.72v-1.56h-.363v1.524c0 .567-.297.858-.808.858-.578 0-.94-.357-.94-.97v-1.412h-.364v2.69h.348v-.495c.194.327.558.515 1.023.515.654 0 1.104-.378 1.104-1.15"/><path id="X" d="M318.164 220.87v-.353c-.03 0-.06.005-.087.005-.56 0-.904-.357-.904-.99v-1.37h-.363v2.688h.347v-.526c.17.36.512.547 1.007.547"/><path id="Y" d="M349.16 219.425l-.858 1.922-.86-1.922zm.14-.307h-1.994l-.43-.956h-.395l1.636 3.578h.374l1.636-3.578h-.4z"/><path id="Z" d="M431.773 220.85v-2.688h-.348v.5c-.188-.326-.536-.516-.965-.516-.685 0-1.135.383-1.135 1.155v1.56h.363v-1.523c0-.573.296-.864.808-.864.56 0 .915.363.915.977v1.4z"/><path id="a" d="M213.36 220.306c0 .656-.295 1.018-.723 1.018s-.723-.362-.723-1.018.295-1.018.723-1.018.723.362.723 1.018m-1.702 0c0 .782.4 1.25.98 1.25s.983-.467.983-1.25-.414-1.25-.983-1.25-.98.467-.98 1.25"/><path id="b" d="M153.594 267.432c-.207 0-.375.168-.375.375v4.124c0 .207.168.375.375.375s.375-.168.375-.375v-4.124c0-.207-.168-.375-.375-.375"/><path id="c" d="M403.64 132.398c0-.993-.692-1.77-2.12-1.77-.843 0-1.644.292-2.095.75l.292.476c.376-.393 1.044-.676 1.795-.676.993 0 1.52.485 1.52 1.194 0 .75-.467 1.218-1.954 1.218h-1.243l.3 2.93h3.196v-.534h-2.67l-.2-1.86h.75c1.76 0 2.43-.694 2.43-1.728"/><path id="d" d="M410.037 132.222c0 .75-.35 1.2-.9 1.2-.543 0-.902-.45-.902-1.2s.36-1.2.902-1.2c.55 0 .9.46.9 1.2m-2.22 0c0 .952.542 1.586 1.32 1.586.784 0 1.318-.634 1.318-1.586s-.534-1.586-1.318-1.586c-.777 0-1.32.635-1.32 1.586m1.277 4.3h.493l-4-5.843h-.493zm-2.638-1.544c0 .76-.358 1.2-.9 1.2-.55 0-.902-.46-.902-1.2s.35-1.21.902-1.21c.543 0 .9.45.9 1.21m-2.22 0c0 .95.534 1.586 1.32 1.586.776 0 1.32-.626 1.32-1.586s-.543-1.586-1.32-1.586c-.785 0-1.32.634-1.32 1.586"/><path id="e" d="M540.786 266.116h0a2.08 2.08 0 0 0-2.081 2.082v39.06a2.08 2.08 0 1 0 4.163 0v-39.06a2.08 2.08 0 0 0-2.082-2.082"/><path id="f" d="M565.754 266.116h0a2.08 2.08 0 0 0-2.082 2.082v39.06a2.08 2.08 0 1 0 4.163 0v-39.06a2.08 2.08 0 0 0-2.081-2.082"/><path id="g" d="M576.745 262.566c0 .928-.416 1.44-1.02 1.44s-1.022-.51-1.022-1.44.417-1.438 1.022-1.438 1.02.51 1.02 1.438m-2.405 0c0 1.107.58 1.767 1.384 1.767s1.388-.66 1.388-1.767-.585-1.766-1.388-1.766-1.384.66-1.384 1.766"/><path id="h" d="M584.94 262.566c0 .928-.417 1.44-1.022 1.44s-1.022-.51-1.022-1.44.417-1.438 1.022-1.438 1.022.51 1.022 1.438m-2.406 0c0 1.107.58 1.767 1.384 1.767s1.39-.66 1.39-1.767-.586-1.766-1.39-1.766-1.384.66-1.384 1.766"/><path id="i" d="M617.77 237.484c0-.144-17.762-.26-39.667-.26l-39.67.26c0 .144 17.758.26 39.67.26l39.667-.26"/><path id="j" d="M316.406 388.732c7.7 6.036 14.505 13.457 23.342 17.657 15.192 7.222 33.125 3.56 49.342-.913s33.347-9.647 49.53-5.05c14.996 4.26 26.933 17.44 30.266 32.595h-278.36c3.704-30.776 26.907-56.155 57.745-61.488l1.93-.3c23.212-3.452 47.735 3.034 66.206 17.5"/><path id="k" d="M505.313 404.472c7.837-7.115 19.266-9.05 29.78-7.833 7.074.817 14.27 3.074 19.38 8.033 5.794 5.622 8.176 14.35 6.618 22.27-.414 2.104-1.095 4.14-1.993 6.077h-57.96c-6.416-8.388-3.65-21.445 4.175-28.548"/><path id="l" d="M451.408 327.07c0-1.452-1.013-2.588-3.1-2.588-1.233 0-2.405.427-3.064 1.1l.428.695c.55-.573 1.525-.988 2.624-.988 1.452 0 2.22.708 2.22 1.746 0 1.098-.683 1.78-2.856 1.78h-1.82l.44 4.285h4.676v-.78h-3.906l-.293-2.723h1.098c2.575 0 3.552-1.012 3.552-2.526"/><path id="m" d="M458.44 328.828c0 2.282-1.025 3.54-2.514 3.54s-2.515-1.258-2.515-3.54 1.025-3.54 2.515-3.54 2.514 1.258 2.514 3.54m-5.92 0c0 2.722 1.428 4.346 3.406 4.346s3.418-1.624 3.418-4.346-1.44-4.346-3.418-4.346-3.406 1.624-3.406 4.346"/><path id="n" d="M482.543 325.337v-.78h-5.994v.623l3.553 3.478c.964.952 1.147 1.526 1.147 2.112 0 .99-.696 1.6-2.002 1.6-1 0-1.77-.304-2.33-.952l-.623.537c.66.78 1.72 1.22 3.027 1.22 1.734 0 2.832-.88 2.832-2.308 0-.817-.255-1.55-1.404-2.673l-2.904-2.856z"/><path id="o" d="M489.515 328.828c0 2.282-1.025 3.54-2.516 3.54s-2.513-1.258-2.513-3.54 1.025-3.54 2.513-3.54 2.516 1.258 2.516 3.54m-5.92 0c0 2.722 1.43 4.346 3.405 4.346s3.418-1.624 3.418-4.346-1.44-4.346-3.418-4.346-3.405 1.624-3.405 4.346"/><path id="p" d="M398.213 308.7h-79.15a9.57 9.57 0 0 0-9.565 9.565v27.276a9.57 9.57 0 0 0 9.565 9.566h79.15a9.57 9.57 0 0 0 9.565-9.566v-27.276a9.57 9.57 0 0 0-9.565-9.565"/><path id="q" d="M369.656 322.75c0-.208-.05-.366-.17-.708l-.513-1.685h-.586l.416 1.77c-.257.072-.44.305-.44.622 0 .378.28.66.648.66.377 0 .646-.293.646-.66"/><path id="r" d="M595.504 140.425c-.562 1.027-3.134 1.627-4.078.934-.686-.95-.703-2.35.012-3.28s2.128-1.258 3.15-.687 1.477 2.005.915 3.032"/><path id="s" d="M585.95 56.467l39.826-11.14c2.307-.812 1.92-9.262-1.67-9.132-1.697.063-29.4-1.032-32.912-.812s-14.065 4.382-14.065 4.382z"/></defs><g transform="matrix(1.333333 0 0 -1.333333 0 666.66667)"><path d="M149.972 315.002H83.498v30.657h66.474z" class="G"/><path d="M85.433 316.86h62.544v26.772H85.433zm62.957-.414H85.02v27.6h63.37zm17.82-1.444h-16.24v30.657h16.24z" class="B"/><g transform="matrix(.432764 0 0 .432764 59.816793 280.26359)"><g clip-path="url(#A)"><g class="B"><path d="M58.715 127.648H204.19c.248 0 .25.385 0 .385H58.715c-.248 0-.25-.385 0-.385"/><path d="M131.928 127.84c.436 6.288.4 12.948.05 19.242-.013.252-.378.253-.4 0-.34-6.294-.387-12.954.05-19.242.013-.187.28-.188.292 0m39.155 9.622a1.982 1.982 0 1 0-3.964 0 1.98 1.98 0 0 0 1.982 1.982c1.094 0 1.982-.887 1.982-1.982m-76.347 0a1.981 1.981 0 1 0-3.963 0 1.981 1.981 0 1 0 3.963 0m38.696-21.965a1.981 1.981 0 1 0-3.963 0 1.981 1.981 0 1 0 3.963 0M73.086 80.272l-7.9-44.476h4.45l14.58 44.476zm124.37 0l6.613-44.553h-4.448l-13.286 44.553zm29.693 0l7.493-44.553h-4.448L216.03 80.272zM133.3 95.45a1.98 1.98 0 0 0-1.982-1.982c-1.094 0-1.982.887-1.982 1.982a1.98 1.98 0 0 0 3.964-.001"/><path d="M58.715 105.712H204.2c.248 0 .25.385 0 .385H58.715c-.248 0-.25-.385 0-.385m56.808 69.193l-.05 9.454 46.442.252.05-9.454z"/></g><path d="M115.782 151.03l-.078 14.7 51.763.282.078-14.69z" class="G"/><g class="B"><use xlink:href="#S"/><path d="M159.747 151.4c-.14 0-.25 3.3-.25 7.345l.25 7.345c.14 0 .25-3.288.25-7.345l-.25-7.345m-36.177 0c-.14 0-.25 3.3-.25 7.345l.25 7.345c.14 0 .25-3.288.25-7.345l-.25-7.345"/><path d="M125.744 151.4c-.14 0-.25 3.3-.25 7.345l.25 7.345c.14 0 .25-3.288.25-7.345l-.25-7.345m4.746 7.1c0 .14 5.222.255 11.663.255s11.664-.114 11.664-.255-5.22-.254-11.664-.254-11.663.113-11.663.254"/></g><path d="M123.11 165.74l-.05 9.454 63.874.347.05-9.454z" class="F"/><g class="B"><path d="M177.838 167.256c-1.667 0-3.018 1.37-3.018 3.058s1.35 3.057 3.018 3.057 3.02-1.368 3.02-3.057-1.352-3.058-3.02-3.058m-51.06 4.002h42.757v-1.9h-42.757zM671.402 368.46l-9.024-.048-.242 44.9 9.026.048z"/></g><path d="M607.453 388.46l-23.372-.125-.133 24.792 23.372.126z" class="F"/><path d="M630.714 388.585l-23.37-.125-.133 24.793 23.372.125z" class="G"/><path d="M583.985 406.28l46.633.214c.32.005.317.495-.003.497-15.532.086-31.103.01-46.633-.285-.273-.006-.27-.424.003-.426" class="B"/><path d="M611.947 368.67l-42.463-.228-.107 20.205 42.463.227z" class="F"/><path d="M654.2 368.896l-42.463-.227-.108 20.204 42.463.228z" class="G"/><g class="B"><path d="M569.406 383.027c28.2-.32 56.518-.033 84.726.418.32.006.317.496-.003.497-28.2.15-56.52.132-84.725-.5-.273-.007-.272-.423.002-.426m148.636-21.822H553.526v7.238h164.516z"/><path d="M587.14 340.263h-6.68v24.7h6.68zm99.696 0h-6.68v24.7h6.68z"/></g><path d="M680.3 368.35l-9.025-.048-.33 61.765 9.025.05z" class="F"/><path d="M694.34 368.565l-14.023-.075-.27 50.054 14.023.075z" class="G"/><g class="B"><use xlink:href="#T"/><path d="M693.977 411.08c0-.134-3.14-.243-7.012-.243l-7.012.243c0 .134 3.138.243 7.012.243l7.012-.243m0-34.984c0-.134-3.14-.243-7.012-.243l-7.012.243c0 .134 3.138.243 7.012.243l7.012-.243"/><path d="M693.977 378.198c0-.134-3.14-.243-7.012-.243l-7.012.243c0 .134 3.138.243 7.012.243l7.012-.243m-6.787 4.588c-.135 0-.243 5.05-.243 11.278s.108 11.28.243 11.28.242-5.05.242-11.28-.108-11.278-.242-11.278"/></g><path d="M709.394 368.547h-15.266v37.78h15.266z" class="F"/><g class="B"><path d="M677.918 419.572c0-1.433-1.16-2.594-2.594-2.594a2.59 2.59 0 0 0-2.593 2.594c0 1.434 1.16 2.594 2.593 2.594s2.594-1.16 2.594-2.594m-1.792-43.88h-1.604v36.744h1.604z"/></g><path d="M695.43 233.763s-10.412 5.62-20.293-18.966-13.2-38.553-13.2-38.553-2.727-5.2-6.4-2.292-9.124 11.64-14.73 9.48c-5.813-2.24-7.182-9.073-5.17-18.756s5.643-31.057 5.964-33c.315-1.9-.528-4.813-3.35-3.226s-19.626 17.242-26.578 8.823 3.087-34.47 4.13-37.34.58-4.176-.75-5.03-6.484 4.944-11.447 9.2-11.463 8.322-15.066 3.128-3.1-25.37 18.903-56.246l11.133-13.64 17.5 2.55c37.118 7.736 51.182 22.2 52.062 28.47s-6.654 7.687-13.187 7.93-14.252-.515-14.652 1.015.15 2.802 2.863 4.202 27.768 13.714 28.38 24.615-22.358 10.814-25.506 11.563-1.788 3.46-.268 4.642l26.774 20.177c8.05 5.743 11.683 11.69 8.934 17.282-2.65 5.4-12.574 2.688-17.25 3.037s-3.143 6.028-3.143 6.028 7.038 12.515 16.47 37.277-2.33 27.718-2.33 27.718" class="F"/><g class="B"><path d="M619.128 41.017l27.876 70.752 28.033 70.672 11.28 28.8.227.508s-.048-.182-.17-.53l-.553-1.533-2.18-5.875-8.205-21.536-27.87-70.74-28.04-70.683"/><path d="M647.933 170.925c.04.016.235-.394.56-1.146l1.293-3.215c1.048-2.732 2.4-6.54 3.8-10.774l4.656-14.13c.26-.774.387-1.2.35-1.225s-.24.4-.568 1.14-.763 1.854-1.277 3.224c-1.022 2.742-2.323 6.568-3.732 10.8l-3.64 10.82-1.1 3.277c-.255.777-.378 1.214-.34 1.23m12.313-30.66c-.06.155 7.67 3.3 17.264 7s17.423 6.595 17.482 6.44-7.668-3.3-17.265-7.002-17.42-6.593-17.48-6.438m-18.805-41.593c-.002.04.456.105 1.288.186l3.52.3c2.97.265 7.07.644 11.58 1.224 4.512.57 8.578 1.225 11.52 1.72l3.485.58c.825.132 1.285.185 1.293.145s-.435-.172-1.247-.374a85.26 85.26 0 0 0-3.453-.77 154.74 154.74 0 0 0-11.521-1.899 157.68 157.68 0 0 0-11.628-1.052c-1.492-.072-2.7-.115-3.536-.12s-1.3.007-1.3.05m-17.235 25.28c.034.024.312-.303.783-.913l1.952-2.62 6.255-8.774 6.112-8.877 1.794-2.73c.414-.652.625-1.024.6-1.048s-.3.302-.783.913a131.21 131.21 0 0 0-1.952 2.619l-6.256 8.776-6.1 8.876-1.796 2.73-.6 1.048m-21.265-34.61c.034.024.384-.396.988-1.18l2.513-3.35 8.103-11.183 7.96-11.287 2.357-3.46.797-1.317s-.384.397-1 1.18l-2.5 3.35-8.105 11.186-7.96 11.285-2.356 3.46-.797 1.316m22.39-30.865c-.004.04.575.137 1.626.274l4.448.553 14.642 2.024c5.705.88 10.848 1.813 14.568 2.5l4.406.82c1.042.188 1.623.273 1.632.232s-.554-.203-1.582-.462a142.63 142.63 0 0 0-4.372-1.01c-3.702-.805-8.844-1.804-14.56-2.7a255.56 255.56 0 0 0-14.689-1.851l-4.472-.363c-1.058-.064-1.644-.08-1.648-.04"/></g></g><g clip-path="url(#B)" class="F"><path d="M686.36 403.572c-22.784 27.472-47.63 36.714-81.244 46.348s-72.396 2.687-98.233-20.878c-41.42-37.78-45.085-109.35-94.1-136.545-25.217-13.99-56.962-5.538-85.174.434-35.084 7.428-55.5 36.617-91.172 40.3-61.42 6.345-87.822-11.863-116.268-33.7C71.696 262.33 73.307 183.767 86.84 134.16c14.44-52.93 78.488-98.767 162.488-103.004l179.955-.68c113.643.68 181.766 14.07 231.625 55.596s68.784 105.908 68.784 192.062c0 46.457-21 98.522-43.333 125.438"/></g><g clip-path="url(#C)" class="C"><path d="M709.64 35.9c0-.144-149.836-.26-334.625-.26l-334.658.26c0 .145 149.804.26 334.658.26l334.625-.26"/></g><g clip-path="url(#D)"><path d="M630.19 76.78H142.605a8.69 8.69 0 0 0-8.687 8.687v338.866a8.69 8.69 0 0 0 8.687 8.687H630.19a8.69 8.69 0 0 0 8.688-8.687V85.467a8.69 8.69 0 0 0-8.688-8.687" class="H"/><path d="M531.95 351.083a6.23 6.23 0 0 1-6.221-6.221V155.824a6.23 6.23 0 0 1 6.221-6.221h89.946a6.23 6.23 0 0 1 6.221 6.221v189.038a6.23 6.23 0 0 1-6.221 6.221zm89.946-202.48H531.95a7.23 7.23 0 0 0-7.221 7.221v189.038a7.23 7.23 0 0 0 7.221 7.221h89.946a7.23 7.23 0 0 0 7.221-7.221V155.824a7.23 7.23 0 0 0-7.221-7.221" class="B"/><path d="M170.97 76.496h-27.607a9.65 9.65 0 0 0-9.646 9.646V423.01a9.65 9.65 0 0 0 9.646 9.646h27.607a9.65 9.65 0 0 0 9.646-9.646V86.142a9.65 9.65 0 0 0-9.646-9.646" class="D"/><path d="M178.1 279.127h-36.047c-1.542 0-2.793-1.25-2.793-2.793v-28.428c0-1.543 1.25-2.793 2.793-2.793h39.02c1.657 0 2.95 1.435 2.777 3.083l3.515 31.117z" class="H"/><path d="M575.735 399.423c-.04-.015.092.06.245.147.155.094.372.258.58.533.445.548.762 1.506.796 2.8.062.64.13 1.356.387 2.1.237.728.754 1.555 1.655 1.888.863.295 1.925.278 2.766-.36.815-.66 1.143-1.7 1.306-2.667.074-.445.103-.887.116-1.32.003-.458.002-.794.146-1.156.268-.704.802-1.312 1.347-1.76l.538-.44-.685.002-6.75.175-2.447.07 2.714.07 6.483.175-.146-.44c-.628.506-1.2 1.13-1.534 1.97-.177.4-.184.932-.185 1.32-.014.417-.042.838-.11 1.253-.15.92-.464 1.83-1.1 2.35-.64.51-1.564.545-2.28.3-.726-.254-1.176-.913-1.416-1.584-.253-.675-.345-1.365-.428-1.992-.07-.626-.14-1.23-.33-1.724-.18-.494-.423-.887-.677-1.16s-.507-.427-.69-.496c-.1-.036-.156-.053-.198-.044-.05.002-.085-.008-.093-.01" class="C"/><g fill-rule="evenodd"><path d="M580.983 405.547c0-1.09.885-1.975 1.975-1.975s1.974.884 1.974 1.975-.884 1.975-1.974 1.975-1.975-.885-1.975-1.975" class="D"/><path d="M579.1 398.168h2.714s.04-1.428-1.48-1.38-1.233 1.38-1.233 1.38" class="C"/><g class="D"><path d="M612.194 391.268H600.3c-2.493 0-4.514 2.02-4.514 4.514v11.894c0 2.493 2.02 4.514 4.514 4.514h11.894c2.493 0 4.515-2.02 4.515-4.514v-11.894c0-2.493-2.022-4.514-4.515-4.514"/></g></g><path d="M373.028 230.464c-8.963 0-12.967 7.058-16.84 13.882-3.196 5.635-6.498 11.455-11.906 11.455-6.048 0-9.013-2.272-12.447-4.903-3.74-2.867-7.974-6.113-16.296-6.113-9.125 0-12.9 8.558-16.917 17.618-3.085 6.977-6.58 14.88-11.825 14.88s-8.738-7.902-11.82-14.874c-4.008-9.063-7.793-17.623-16.92-17.623-8.592 0-12.832 4.55-16.572 8.566-3.43 3.68-6.39 6.857-12.17 6.857v.852c6.15 0 9.23-3.303 12.794-7.127 3.623-3.89 7.728-8.295 15.95-8.295 8.57 0 12.247 8.312 16.138 17.114 3.19 7.21 6.803 15.383 12.602 15.383s9.415-8.172 12.603-15.383c3.893-8.803 7.57-17.114 16.14-17.114 8.032 0 12.146 3.152 15.775 5.934 3.56 2.728 6.63 5.082 12.968 5.082 5.904 0 9.33-6.04 12.645-11.882 3.754-6.618 7.635-13.454 16.1-13.454 8.438 0 12.324 6.406 16.083 12.604 3.457 5.697 6.723 11.08 12.656 11.08 6.133 0 9.213-3.42 12.78-7.384 3.624-4.027 7.728-8.59 15.97-8.59 8.598 0 12.267 8.857 16.15 18.235 3.2 7.72 6.822 16.466 12.598 16.466 5.862 0 9.3-6.722 12.63-13.222 3.742-7.312 7.6-14.87 16.125-14.87 8.223 0 12.33 4.406 15.954 8.294 3.566 3.825 6.645 7.128 12.8 7.128v-.852c-5.785 0-8.746-3.178-12.176-6.857-3.743-4.015-7.984-8.566-16.578-8.566-9.037 0-13.025 7.794-16.883 15.33-3.212 6.275-6.53 12.76-11.87 12.76-5.207 0-8.715-8.466-11.808-15.936-3.998-9.652-7.774-18.764-16.94-18.764-8.62 0-12.86 4.71-16.6 8.868-3.433 3.814-6.395 7.105-12.148 7.105-5.454 0-8.598-5.184-11.927-10.67-3.88-6.4-7.895-13.015-16.812-13.015" class="D"/><g class="B"><use xlink:href="#U"/><use xlink:href="#V"/><use xlink:href="#W"/><path d="M269.455 221.413v-1.405h1.85v-.327h-1.85v-1.52h-.378v3.578h2.453v-.327zm2.783-1.748h1.907c-.046.526-.43.895-.956.895-.52 0-.904-.37-.95-.895m2.25-.27h-2.25c.04-.562.47-.935 1.06-.935a1.06 1.06 0 0 1 .823.352l.204-.235c-.24-.286-.613-.44-1.038-.44-.838 0-1.4.572-1.4 1.37s.556 1.364 1.313 1.364 1.304-.557 1.304-1.364l-.005-.113m3.097.113c0 .628-.434 1.048-1 1.048-.573 0-1.002-.42-1.002-1.048s.43-1.048 1.002-1.048 1 .42 1 1.048m.363 0c0-.813-.572-1.37-1.34-1.37-.445 0-.818.194-1.038.557v-.532h-.347v3.793h.363v-1.615c.225.348.593.53 1.022.53.767 0 1.34-.552 1.34-1.364m34.738 2.234v-3.578h-.363v2.862l-1.406-2.407h-.178L309.344 221v-2.848h-.362v3.578h.312l1.553-2.653 1.54 2.653zm2.76-2.77v.44h-.844c-.52 0-.7-.204-.7-.48 0-.312.25-.506.68-.506.4 0 .7.194.854.547m.362.858v-1.666h-.347v.42c-.163-.275-.48-.444-.925-.444-.6 0-.982.316-.982.782 0 .414.266.762 1.038.762h.854v.163c0 .46-.26.7-.762.7a1.37 1.37 0 0 1-.894-.317l-.164.27c.27.23.67.362 1.093.362.696 0 1.1-.347 1.1-1.043"/><use xlink:href="#X"/><use xlink:href="#Y"/><path d="M353.006 219.507c0 .623-.434 1.048-1 1.048-.573 0-1.002-.425-1.002-1.048 0-.63.43-1.048 1.002-1.048s1 .42 1 1.048m.363 0c0-.818-.572-1.37-1.34-1.37-.43 0-.797.183-1.022.53v-1.497h-.363v3.68h.347v-.532c.22.358.593.552 1.038.552.767 0 1.34-.552 1.34-1.364m2.1 1.364v-.353c-.03 0-.06.005-.087.005-.56 0-.904-.357-.904-1v-1.37h-.363v2.688h.347v-.526c.17.36.512.547 1.007.547m37.04.87v-3.578h-.363v2.862l-1.406-2.407h-.178L389.154 221v-2.848h-.362v3.578h.312l1.553-2.653 1.54 2.653zm2.76-2.77v.44h-.844c-.52 0-.7-.204-.7-.48 0-.312.25-.506.68-.506.4 0 .7.194.854.547m.362.858v-1.666h-.347v.42c-.163-.275-.48-.444-.925-.444-.6 0-.982.316-.982.782 0 .414.266.762 1.038.762h.854v.163c0 .46-.26.7-.762.7a1.37 1.37 0 0 1-.894-.317l-.164.27c.27.23.67.362 1.093.362.696 0 1.1-.347 1.1-1.043m3.21 1.022l-1.345-3c-.224-.526-.5-.695-.894-.695-.25 0-.5.082-.655.246l.17.27a.67.67 0 0 1 .491-.205c.24 0 .404.113.557.45l.117.26-1.2 2.684h.38l1.012-2.284 1.012 2.284zm27.426-2.208l.225.256c.194-.286.455-.44.772-.44.44 0 .664.26.664.788v2.167h-1.308v.327h1.68v-2.48c0-.756-.357-1.13-1.043-1.13-.403 0-.77.184-1 .5"/><use xlink:href="#Z"/><path d="M435.268 219.72v-1.56h-.363v1.524c0 .567-.297.858-.808.858-.578 0-.94-.357-.94-.97v-1.412h-.364v2.7h.348v-.495c.194.327.558.515 1.023.515.654 0 1.104-.378 1.104-1.15m30.892-1.078l.225.256c.194-.286.455-.44.772-.44.44 0 .664.26.664.788v2.167h-1.308v.327h1.68v-2.48c0-.756-.357-1.13-1.043-1.13-.403 0-.77.184-1 .5m5.518 2.2v-2.688h-.348v.5c-.188-.326-.536-.516-.965-.516-.685 0-1.135.383-1.135 1.155v1.56h.363v-1.523c0-.573.296-.864.808-.864.56 0 .915.363.915.977v1.4zm1.022 1.105h.363v-3.793h-.363zm34.246-2.53l-.858 1.922-.86-1.922zm.14-.307h-1.994l-.43-.956h-.395l1.636 3.578h.374l1.636-3.578h-.4zm3.717 1.732v-2.688h-.348v.5c-.188-.326-.536-.516-.965-.516-.685 0-1.135.383-1.135 1.155v1.56h.363v-1.523c0-.573.296-.864.808-.864.56 0 .915.363.915.977v1.4zm3.157-1.277c0 .582-.43.98-1.022.98s-1.017-.4-1.017-.98.424-.987 1.017-.987 1.022.404 1.022.987m.353 1.277v-2.36c0-.925-.456-1.345-1.344-1.345-.5 0-.972.15-1.253.414l.184.277c.255-.23.644-.368 1.058-.368.68 0 .992.3.992.976v.343c-.225-.343-.608-.522-1.048-.522-.766 0-1.35.537-1.35 1.3s.583 1.298 1.35 1.298c.45 0 .838-.184 1.063-.536v.515z"/><use xlink:href="#a"/><path d="M209.432 233.16v-2.457h-.253v2.232h-.58v.225zm2.288-1.228c0 .656-.295 1.018-.723 1.018s-.723-.362-.723-1.018.295-1.018.723-1.018.723.362.723 1.018m-1.702 0c0 .782.4 1.25.98 1.25s.983-.467.983-1.25-.414-1.25-.983-1.25-.98.467-.98 1.25m.412 8.6v-.225h-1.724v.18l1.022 1c.277.275.33.44.33.608 0 .284-.2.46-.576.46-.287 0-.5-.087-.67-.273l-.18.154c.2.225.494.35.87.35.498 0 .815-.253.815-.663 0-.236-.075-.445-.405-.77l-.835-.82zm2.002 1.004c0 .656-.295 1.018-.723 1.018s-.723-.362-.723-1.018.295-1.018.723-1.018.723.362.723 1.018m-1.702 0c0 .782.4 1.25.98 1.25s.983-.467.983-1.25-.414-1.25-.983-1.25-.98.467-.98 1.25m-.353 9.424c0-.4-.3-.727-.892-.727-.354 0-.695.123-.884.317l.123.2c.158-.165.442-.284.76-.284.408 0 .632.2.632.494 0 .295-.207.488-.663.488h-.176v.186l.68.853H208.7v.225h1.58v-.18l-.695-.874c.526-.027.8-.304.8-.698m2.046.522c0 .656-.295 1.018-.723 1.018s-.723-.362-.723-1.018.295-1.018.723-1.018.723.362.723 1.018m-1.702 0c0 .782.4 1.25.98 1.25s.983-.467.983-1.25-.414-1.25-.983-1.25-.98.467-.98 1.25m.1 9.03h-.5v-.646h-.253v.646H208.7v.183l1.302 1.63h.28l-1.257-1.587h1.067v.568h.246v-.568h.5z"/><path d="M212.773 261.105c0 .656-.295 1.018-.723 1.018s-.723-.362-.723-1.018.295-1.018.723-1.018.723.362.723 1.018m-1.702 0c0 .782.4 1.25.98 1.25s.983-.467.983-1.25-.414-1.25-.983-1.25-.98.467-.98 1.25m-.65 8.717c0-.417-.3-.744-.892-.744-.354 0-.7.123-.88.316l.123.2c.158-.165.438-.284.753-.284.418 0 .64.203.64.502 0 .316-.197.512-.82.512h-.524l.127 1.232h1.344v-.224h-1.123l-.084-.783h.316c.74 0 1.02-.3 1.02-.727m2.02.505c0 .656-.295 1.018-.723 1.018s-.723-.362-.723-1.018.295-1.018.723-1.018.723.362.723 1.018m-1.702 0c0 .782.4 1.25.98 1.25s.983-.467.983-1.25-.414-1.25-.983-1.25-.98.467-.98 1.25m-.4 9.11c0 .323-.238.53-.617.53s-.632-.232-.632-.537c0-.27.225-.526.648-.526.355 0 .6.207.6.533m.25.007c0-.46-.36-.755-.84-.755-.652 0-1.007.453-1.007 1.228 0 .836.456 1.27 1.123 1.27.22 0 .428-.038.582-.133l-.1-.204c-.126.084-.295.116-.478.116-.53 0-.87-.34-.87-1.008a2.2 2.2 0 0 1 .011-.199c.123.27.4.42.75.42.488 0 .828-.288.828-.737m1.994.497c0 .656-.295 1.018-.723 1.018s-.723-.362-.723-1.018.295-1.018.723-1.018.723.362.723 1.018m-1.702 0c0 .782.4 1.25.98 1.25s.983-.467.983-1.25-.414-1.25-.983-1.25-.98.467-.98 1.25"/></g><g opacity=".62" clip-path="url(#E)" class="B"><g clip-path="url(#F)"><path d="M517.716 279.092h-294.25v.25h294.25z"/></g><g clip-path="url(#G)"><path d="M517.716 269.5h-294.25v.25h294.25z"/></g><g clip-path="url(#H)"><path d="M517.716 259.91h-294.25v.25h294.25z"/></g><g clip-path="url(#I)"><path d="M517.716 250.318h-294.25v.25h294.25z"/></g><g clip-path="url(#J)"><path d="M517.716 240.726h-294.25v.25h294.25z"/></g><g clip-path="url(#K)"><path d="M517.716 231.134h-294.25v.25h294.25z"/></g></g><path d="M289.625 277.283c0 1.615-1.31 2.924-2.924 2.924s-2.923-1.31-2.923-2.924 1.31-2.923 2.923-2.923 2.924 1.308 2.924 2.923" class="D"/><path d="M375.684 231.166c0 1.614-1.31 2.924-2.924 2.924s-2.924-1.3-2.924-2.924 1.31-2.924 2.924-2.924 2.924 1.31 2.924 2.924" class="E"/><g class="H"><path d="M164.142 356.537a.37.37 0 0 0-.251.097l-6.726 6.087-6.725-6.087c-.153-.14-.39-.13-.53.027s-.128.4.026.53l6.977 6.315c.143.13.36.13.503 0l6.976-6.315c.154-.14.166-.376.027-.53-.074-.082-.176-.124-.278-.124"/><path d="M162.23 351.208H152.1c-.207 0-.375.168-.375.375v7.048c0 .207.168.375.375.375s.375-.168.375-.375v-6.673h9.38v6.673c0 .207.168.375.375.375s.375-.168.375-.375v-7.048c0-.207-.168-.375-.375-.375m-11.6-42.918h12.452v5.33c0 .63-.514 1.144-1.144 1.144h-4.422c-.15 0-.287.1-.345.23l-.687 1.637a1.38 1.38 0 0 1-1.277.849h-3.433c-.63 0-1.144-.513-1.144-1.144zm12.827-.75h-13.202c-.207 0-.375.168-.375.375v8.42c0 1.044.85 1.894 1.894 1.894h3.433c.862 0 1.635-.513 1.968-1.3l.6-1.407h4.172c1.044 0 1.894-.85 1.894-1.894v-5.705c0-.207-.168-.375-.375-.375m-6.6-152.168a1 1 0 0 0 .453-.108l3.167-1.6a.24.24 0 0 1 .258.022c.038.026.122.103.1.24l-.552 3.5c-.05.314.055.636.28.86l2.508 2.515c.097.097.075.2.06.253s-.062.147-.197.17l-3.5.56a1 1 0 0 0-.733.532l-1.616 3.163c-.062.123-.176.136-.22.136s-.16-.013-.222-.136l-1.616-3.164a1 1 0 0 0-.733-.531l-3.508-.56c-.135-.022-.183-.125-.197-.17s-.037-.156.06-.253l2.5-2.516a1 1 0 0 0 .28-.859l-.553-3.5a.24.24 0 0 1 .1-.239c.037-.028.136-.083.26-.022l3.167 1.6a1 1 0 0 0 .453.108m-3.733-2.495a1 1 0 0 0-.587.19c-.305.222-.458.6-.4.964l.553 3.5a.25.25 0 0 1-.07.213l-2.5 2.516c-.266.267-.36.656-.243 1.014s.42.618.793.678l3.5.56c.078.013.146.062.18.132l1.617 3.165c.343.67 1.436.67 1.78 0l1.617-3.164a.25.25 0 0 1 .182-.133l3.5-.56c.372-.06.676-.32.792-.677a1 1 0 0 0-.242-1.015l-2.5-2.515a.25.25 0 0 1-.07-.214l.552-3.5a.99.99 0 0 0-.4-.964 1 1 0 0 0-1.04-.082l-3.167 1.6c-.07.035-.155.035-.225 0l-3.168-1.6a1 1 0 0 0-.453-.109m-3.316 53.47h14.078v8.6h-14.078zm14.453-.75h-14.828c-.207 0-.375.168-.375.375v9.348c0 .207.168.375.375.375h14.828c.207 0 .375-.168.375-.375v-9.348c0-.207-.168-.375-.375-.375"/><path d="M157.038 208.213c-.09 0-.177.03-.25.094l-7.594 6.72c-.156.138-.17.375-.032.53s.374.17.53.033l7.34-6.496 6.984 6.49c.15.142.388.133.53-.02s.132-.39-.02-.53l-7.233-6.72c-.07-.068-.163-.1-.255-.1"/><path d="M149.656 205.993a.37.37 0 0 0-.265.11c-.147.147-.147.385 0 .532l4.5 4.5c.146.147.383.147.53 0s.146-.384 0-.53l-4.5-4.5c-.073-.073-.17-.1-.265-.1m14.712-.303a.37.37 0 0 0-.265.11l-4.82 4.822c-.147.146-.147.384 0 .53s.383.146.53 0l4.82-4.82c.147-.147.147-.385 0-.532-.073-.073-.17-.1-.265-.1"/></g><g class="D"><path d="M158.263 263.374h-2.195v2.195h2.195zm4.127 0h-2.194v2.195h2.194zm-8.255 0h-2.195v2.195h2.195zm8.255-3.45h-2.195v2.194h2.195zm-4.127 0h-2.195v2.194h2.195zm-4.128 0h-2.195v2.194h2.195zm-4.37-2.99h14.803v12.037h-14.803zm15.178-.75H149.4c-.207 0-.375.168-.375.375v12.787c0 .207.168.375.375.375h15.553c.207 0 .375-.168.375-.375V256.56c0-.207-.168-.375-.375-.375"/><use xlink:href="#b"/><path d="M160.353 267.432c-.207 0-.375.168-.375.375v4.124c0 .207.168.375.375.375s.375-.168.375-.375v-4.124c0-.207-.168-.375-.375-.375m111.9-135.7h-4.985v-16.698h4.985z"/><path d="M230.616 134.16h-4.985v-19.117h4.985zm10.41 3.985h-4.984v-23.102h4.984zm10.41-1.267h-4.985v-21.834h4.985zm10.41 7.386h-4.984v-29.22h4.984zm20.817-.142h-4.984v-29.078h4.984zm10.4-9.55h-4.985v-19.528h4.985zm10.4 8.268h-4.985v-27.798h4.985zm10.408 6.263h-4.985v-34.06h4.985zm10.41-6.12h-4.985v-27.94h4.985z"/></g><g class="B"><path d="M212.105 186.887c-5.03 0-9.123-4.092-9.123-9.122V104.46c0-5.03 4.093-9.122 9.123-9.122h122.6c5.03 0 9.122 4.092 9.122 9.122v73.305c0 5.03-4.092 9.122-9.122 9.122zm122.6-92.55h-122.6c-5.582 0-10.123 4.54-10.123 10.122v73.305c0 5.58 4.54 10.122 10.123 10.122h122.6c5.58 0 10.122-4.54 10.122-10.122V104.46c0-5.58-4.54-10.122-10.122-10.122m-52.812 69.177c0-.144-14.183-.26-31.675-.26l-31.678.26c0 .145 14.18.26 31.678.26l31.675-.26"/></g><path d="M410.683 119.925c-1.268-.734-2.637-1.308-4.075-1.7-1.4-.382-2.868-.584-4.377-.584-1.52 0-2.988.202-4.387.584a16.68 16.68 0 0 0-4.075 1.69c-1.278.745-2.466 1.64-3.502 2.687-1.046 1.036-1.942 2.223-2.687 3.5a16.71 16.71 0 0 0-1.69 4.076 17.03 17.03 0 0 0-.573 4.386 17.02 17.02 0 0 0 .573 4.377c.383 1.44.956 2.808 1.7 4.076.745 1.288 1.64 2.464 2.687 3.5 1.036 1.046 2.224 1.942 3.502 2.686a16.6 16.6 0 0 0 4.075 1.69c1.4.383 2.867.584 4.387.584v3.33a20.43 20.43 0 0 1-5.242-.684c-1.73-.463-3.37-1.148-4.89-2.023-1.53-.895-2.948-1.972-4.195-3.22s-2.324-2.657-3.2-4.197c-.886-1.52-1.57-3.15-2.032-4.88-.444-1.68-.685-3.43-.685-5.243 0-1.82.24-3.572.685-5.242a19.87 19.87 0 0 1 2.032-4.89c.886-1.54 1.962-2.95 3.2-4.196s2.666-2.324 4.195-3.2c1.52-.885 3.16-1.57 4.89-2.032 1.67-.443 3.42-.684 5.242-.684 1.81 0 3.56.24 5.242.684 1.73.463 3.36 1.147 4.88 2.032a19.97 19.97 0 0 1 4.156 3.18l-2.365 2.364a16.47 16.47 0 0 0-3.461-2.656" class="D"/><path d="M421.792 139.817a20.26 20.26 0 0 1-2.022 4.88c-.896 1.54-1.973 2.948-3.22 4.196s-2.656 2.324-4.196 3.22a20.26 20.26 0 0 1-4.88 2.022 20.51 20.51 0 0 1-5.243.684v-3.33c1.51 0 2.98-.2 4.377-.584a16.61 16.61 0 0 0 4.076-1.691 16.58 16.58 0 0 0 3.501-2.686c1.046-1.036 1.942-2.213 2.687-3.5.734-1.268 1.308-2.637 1.7-4.075.372-1.4.574-2.868.574-4.377 0-1.52-.202-2.988-.574-4.387a17.09 17.09 0 0 0-1.7-4.075c-.745-1.278-1.64-2.466-2.687-3.502-.01-.01-.03-.03-.04-.03l2.365-2.365c.01 0 .03.02.04.03a20.52 20.52 0 0 1 3.22 4.195c.875 1.52 1.56 3.16 2.022 4.89a20.43 20.43 0 0 1 .684 5.242c0 1.81-.242 3.56-.684 5.242" class="B"/><g class="C"><path d="M398.388 132.406c0 .77-.567 1.26-1.47 1.26-.892 0-1.502-.55-1.502-1.278 0-.642.534-1.252 1.544-1.252.843 0 1.427.493 1.427 1.27m.593.017c0-1.093-.86-1.794-1.995-1.794-1.552 0-2.396 1.076-2.396 2.92 0 1.986 1.086 3.02 2.67 3.02.526 0 1.02-.092 1.386-.317l-.242-.484c-.3.2-.702.276-1.135.276-1.26 0-2.07-.8-2.07-2.396a5.05 5.05 0 0 1 .025-.475c.292.642.976 1 1.786 1 1.16 0 1.97-.685 1.97-1.753"/><use xlink:href="#c"/><use xlink:href="#d"/></g><path d="M480.802 134.565c0-1.812-.242-3.567-.685-5.235-.463-1.735-1.148-3.37-2.032-4.882a20.15 20.15 0 0 0-3.214-4.197 20.11 20.11 0 0 0-4.196-3.214c-1.514-.884-3.148-1.57-4.882-2.033-1.668-.44-3.424-.684-5.246-.684-1.81 0-3.567.243-5.235.684-1.735.464-3.37 1.15-4.882 2.033-1.535.883-2.95 1.965-4.197 3.214s-2.33 2.662-3.214 4.197a19.79 19.79 0 0 0-2.032 4.882c-.33 1.236-.54 2.517-.64 3.832h3.358c.088-1.016.254-2 .508-2.97.387-1.447.96-2.816 1.7-4.075.75-1.28 1.645-2.463 2.695-3.5a16.97 16.97 0 0 1 3.501-2.696 16.85 16.85 0 0 1 4.075-1.689c1.402-.376 2.86-.574 4.374-.574a16.85 16.85 0 0 1 8.46 2.263 16.97 16.97 0 0 1 3.501 2.696c1.05 1.038 1.943 2.22 2.694 3.5a16.76 16.76 0 0 1 1.691 4.075 16.86 16.86 0 0 1 .574 4.374 16.89 16.89 0 0 1-.574 4.384 16.78 16.78 0 0 1-1.691 4.076c-.75 1.28-1.645 2.463-2.694 3.5-1.038 1.05-2.22 1.943-3.5 2.694-1.26.73-2.63 1.304-4.075 1.69-1.403.375-2.86.574-4.385.574v3.335a20.4 20.4 0 0 0 5.246-.685c1.734-.464 3.368-1.148 4.882-2.032a20.18 20.18 0 0 0 4.196-3.214c1.248-1.248 2.33-2.66 3.214-4.197a19.78 19.78 0 0 0 2.032-4.881 20.4 20.4 0 0 0 .685-5.246" class="B"/><g class="C"><path d="M455.983 136.853v-.426L453.537 131h-.65l2.404 5.3h-3.005v-1.094h-.592v1.628zm4.6-4.123c0-.993-.692-1.77-2.12-1.77-.843 0-1.644.292-2.095.75l.292.476c.376-.393 1.044-.676 1.795-.676.993 0 1.52.485 1.52 1.194 0 .75-.467 1.218-1.954 1.218h-1.243l.3 2.93h3.196v-.534h-2.67l-.2-1.86h.75c1.76 0 2.43-.694 2.43-1.728m6.395-.176c0 .75-.35 1.2-.9 1.2-.543 0-.902-.45-.902-1.2s.36-1.2.902-1.2c.55 0 .9.46.9 1.2m-2.22 0c0 .952.542 1.586 1.32 1.586.784 0 1.318-.634 1.318-1.586s-.534-1.586-1.318-1.586c-.777 0-1.32.635-1.32 1.586m1.277 4.3h.493l-4-5.843h-.493zM463.4 135.3c0 .76-.358 1.2-.9 1.2-.55 0-.902-.46-.902-1.2s.35-1.2.902-1.2c.543 0 .9.45.9 1.2m-2.22 0c0 .95.534 1.586 1.32 1.586.776 0 1.32-.626 1.32-1.586s-.543-1.586-1.32-1.586c-.785 0-1.32.634-1.32 1.586"/></g><path d="M477.467 134.565a16.86 16.86 0 0 0-.574-4.374 16.76 16.76 0 0 0-1.691-4.075c-.75-1.28-1.645-2.463-2.694-3.5a16.97 16.97 0 0 0-3.501-2.696 16.85 16.85 0 0 0-8.46-2.263c-1.514 0-2.972.198-4.374.574a16.85 16.85 0 0 0-4.075 1.689 16.97 16.97 0 0 0-3.501 2.696c-1.05 1.038-1.944 2.22-2.695 3.5-.73 1.26-1.303 2.628-1.7 4.075-.254.96-.42 1.955-.508 2.97h-.002l-.065 1.408c0 1.515.202 2.98.575 4.378.387 1.445.96 2.813 1.693 4.078a17.01 17.01 0 0 0 6.191 6.191c1.265.732 2.633 1.306 4.078 1.693 1.397.373 2.863.575 4.378.575v3.34c-1.814 0-3.57-.242-5.242-.7a20.1 20.1 0 0 1-4.884-2.026 20.34 20.34 0 0 1-4.195-3.217c-1.247-1.247-2.327-2.66-3.217-4.195a20.06 20.06 0 0 1-2.026-4.884c-.448-1.673-.7-3.43-.7-5.242l.05-1.408h-.003a20.85 20.85 0 0 1 .641-3.832 19.79 19.79 0 0 1 2.032-4.882c.884-1.535 1.966-2.95 3.214-4.197s2.662-2.33 4.197-3.214c1.513-.884 3.147-1.57 4.882-2.033 1.668-.44 3.424-.684 5.235-.684 1.822 0 3.578.243 5.246.684 1.734.464 3.368 1.15 4.882 2.033a20.11 20.11 0 0 1 4.196 3.214 20.15 20.15 0 0 1 3.214 4.197c.884 1.513 1.57 3.147 2.032 4.882.443 1.668.685 3.423.685 5.235z" class="D"/><g class="B"><path d="M366.025 185.603a7.81 7.81 0 0 1-7.797-7.797V104.42a7.81 7.81 0 0 1 7.797-7.797h130.73a7.81 7.81 0 0 1 7.797 7.797v73.386a7.81 7.81 0 0 1-7.797 7.797zm130.73-89.98h-130.73a8.81 8.81 0 0 0-8.797 8.797v73.386a8.81 8.81 0 0 0 8.797 8.797h130.73a8.81 8.81 0 0 0 8.797-8.797V104.42a8.81 8.81 0 0 0-8.797-8.797m-63.995 70.364c0-.144-13.67-.26-30.528-.26l-30.53.26c0 .144 13.666.26 30.53.26l30.528-.26"/><use xlink:href="#e"/></g><path d="M540.786 265.932h0a2.08 2.08 0 0 0-2.081 2.082v25.18a2.08 2.08 0 1 0 4.163 0v-25.18a2.08 2.08 0 0 0-2.082-2.082" class="D"/><g class="C"><path d="M539.476 264.302v-3.472h-.357v3.155h-.82v.317zm3.234-1.736c0 .928-.416 1.44-1.02 1.44s-1.022-.5-1.022-1.44.416-1.438 1.022-1.438 1.02.5 1.02 1.438m-2.405 0c0 1.107.58 1.767 1.384 1.767s1.388-.66 1.388-1.767-.585-1.766-1.388-1.766-1.384.66-1.384 1.766"/></g><path d="M549.108 266.116h0a2.08 2.08 0 0 0-2.081 2.082v39.06a2.08 2.08 0 1 0 4.163 0v-39.06a2.08 2.08 0 0 0-2.082-2.082" class="B"/><path d="M549.108 265.932h0a2.08 2.08 0 0 0-2.081 2.082v33.1a2.08 2.08 0 1 0 4.163 0v-33.1a2.08 2.08 0 0 0-2.082-2.082" class="D"/><g class="C"><path d="M548.612 261.148v-.317h-2.435v.253l1.444 1.414c.4.386.466.62.466.858 0 .4-.284.65-.814.65-.407 0-.72-.125-.947-.387l-.253.218c.268.317.7.497 1.23.497.704 0 1.15-.358 1.15-.938 0-.332-.105-.63-.57-1.086l-1.18-1.16zm2.83 1.418c0 .928-.416 1.44-1.02 1.44s-1.023-.5-1.023-1.44.417-1.438 1.023-1.438 1.02.5 1.02 1.438m-2.405 0c0 1.107.58 1.767 1.384 1.767s1.388-.66 1.388-1.767-.585-1.766-1.388-1.766-1.384.66-1.384 1.766"/></g><path d="M557.43 266.116h0a2.08 2.08 0 0 0-2.081 2.082v39.06a2.08 2.08 0 1 0 4.163 0v-39.06a2.08 2.08 0 0 0-2.082-2.082" class="B"/><path d="M557.43 265.932h0a2.08 2.08 0 0 0-2.081 2.082v19.23c0 1.15.932 2.083 2.08 2.083s2.082-.933 2.082-2.083v-19.23a2.08 2.08 0 0 0-2.082-2.082" class="D"/><g class="C"><path d="M556.9 261.827c0-.58-.422-1.027-1.26-1.027-.5 0-.982.174-1.25.447l.174.282c.223-.233.625-.402 1.076-.402.575 0 .893.268.893.7 0 .417-.293.7-.938.7h-.248v.263l.963 1.206h-1.776v.317h2.232v-.253l-.982-1.235c.744-.04 1.116-.43 1.116-.987m2.895.738c0 .928-.417 1.44-1.02 1.44s-1.023-.5-1.023-1.44.417-1.438 1.023-1.438 1.02.5 1.02 1.438m-2.406 0c0 1.107.58 1.767 1.385 1.767s1.388-.66 1.388-1.767-.586-1.766-1.388-1.766-1.385.66-1.385 1.766"/></g><use xlink:href="#f" class="B"/><path d="M565.754 265.932h0a2.08 2.08 0 0 0-2.082 2.082v33.1a2.08 2.08 0 1 0 4.163 0v-33.1a2.08 2.08 0 0 0-2.081-2.082" class="D"/><g class="C"><path d="M565.77 261.743h-.694v-.913h-.357v.913h-1.96V262l1.84 2.302h.397l-1.776-2.243h1.508v.804h.347v-.804h.694z"/><path d="M568.5 262.566c0 .928-.416 1.44-1.02 1.44s-1.023-.51-1.023-1.44.417-1.438 1.023-1.438 1.02.51 1.02 1.438m-2.405 0c0 1.107.58 1.767 1.384 1.767s1.388-.66 1.388-1.767-.586-1.766-1.388-1.766-1.384.66-1.384 1.766"/></g><path d="M574.076 266.116h0a2.08 2.08 0 0 0-2.082 2.082v39.06a2.08 2.08 0 1 0 4.163 0v-39.06a2.08 2.08 0 0 0-2.081-2.082" class="B"/><path d="M574.076 265.932h0a2.08 2.08 0 0 0-2.082 2.082v26.766a2.08 2.08 0 1 0 4.163 0v-26.766a2.08 2.08 0 0 0-2.081-2.082" class="D"/><g class="C"><path d="M573.9 261.852c0-.6-.41-1.052-1.26-1.052-.5 0-.976.175-1.245.448l.174.282c.223-.234.62-.402 1.066-.402.6 0 .903.287.903.7 0 .446-.278.724-1.16.724h-.74l.18 1.74h1.9v-.318h-1.587l-.12-1.106h.447c1.047 0 1.443-.412 1.443-1.027"/><use xlink:href="#g"/></g><path d="M582.398 266.116h0a2.08 2.08 0 0 0-2.082 2.082v39.06a2.08 2.08 0 1 0 4.163 0v-39.06a2.08 2.08 0 0 0-2.081-2.082" class="B"/><path d="M582.398 266.116h0c-1.15 0-2.082.932-2.082 1.898v19.232c0 1.334.932 2.266 2.082 2.266a2.08 2.08 0 0 0 2.081-2.082v-19.232a2.08 2.08 0 0 0-2.081-2.082" class="D"/><g class="C"><path d="M581.773 261.857c0 .457-.338.75-.873.75s-.894-.328-.894-.76c0-.382.32-.744.918-.744.5 0 .85.293.85.754m.352.01c0-.65-.51-1.066-1.186-1.066-.922 0-1.423.64-1.423 1.737 0 1.18.645 1.795 1.587 1.795.313 0 .606-.055.823-.188l-.143-.288c-.18.12-.417.163-.675.163-.75 0-1.23-.48-1.23-1.423a3.07 3.07 0 0 1 .016-.282c.173.38.58.594 1.06.594.7 0 1.17-.406 1.17-1.042"/><use xlink:href="#h"/></g><path d="M590.72 266.116h0a2.08 2.08 0 0 0-2.082 2.082v39.06a2.08 2.08 0 1 0 4.163 0v-39.06a2.08 2.08 0 0 0-2.081-2.082" class="B"/><path d="M590.72 265.932h0a2.08 2.08 0 0 0-2.082 2.082v35.093a2.08 2.08 0 1 0 4.163 0v-35.093a2.08 2.08 0 0 0-2.081-2.082" class="D"/><g class="C"><path d="M590.276 264.302v-.253l-1.453-3.22h-.387l1.43 3.155h-1.786v-.65h-.352v.967zm2.774-1.736c0 .928-.416 1.44-1.02 1.44s-1.022-.5-1.022-1.44.417-1.438 1.022-1.438 1.02.5 1.02 1.438m-2.405 0c0 1.107.58 1.767 1.384 1.767s1.388-.66 1.388-1.767-.585-1.766-1.388-1.766-1.384.66-1.384 1.766"/></g><path d="M599.043 266.116h0a2.08 2.08 0 0 0-2.082 2.082v39.06a2.08 2.08 0 1 0 4.163 0v-39.06a2.08 2.08 0 0 0-2.081-2.082" class="B"/><path d="M599.043 265.932h0a2.08 2.08 0 0 0-2.082 2.082v15.266a2.08 2.08 0 1 0 4.163 0v-15.266a2.08 2.08 0 0 0-2.081-2.082" class="D"/><g class="C"><path d="M597.28 262.78c.54 0 .863.243.863.62 0 .392-.342.63-.863.63s-.857-.238-.857-.625.317-.625.857-.625m.982-.977c0 .426-.367.695-.982.695s-.978-.27-.978-.695c0-.432.363-.7.978-.7s.982.267.982.7m.368-.005c0-.616-.522-.997-1.35-.997s-1.34.38-1.34.997c0 .417.238.7.67.853-.35.14-.545.402-.545.764 0 .565.482.918 1.215.918s1.226-.353 1.226-.918c0-.362-.2-.625-.556-.764.436-.144.68-.44.68-.853m2.897.768c0 .928-.416 1.44-1.02 1.44s-1.022-.5-1.022-1.44.417-1.438 1.022-1.438 1.02.5 1.02 1.438m-2.405 0c0 1.107.58 1.767 1.384 1.767s1.388-.66 1.388-1.767-.585-1.766-1.388-1.766-1.384.66-1.384 1.766"/></g><path d="M607.365 266.116h0a2.08 2.08 0 0 0-2.082 2.082v39.06a2.08 2.08 0 0 0 2.082 2.082c1.15 0 2.082-.932 2.082-2.082v-39.06c0-1.15-.933-2.082-2.082-2.082" class="B"/><path d="M607.365 266.116h0c-1.15 0-2.082.932-2.082 1.898v5.353c0 1.334.932 2.266 2.082 2.266s2.082-.932 2.082-2.082v-5.353c0-1.15-.933-2.082-2.082-2.082" class="D"/><g class="C"><path d="M606.248 263.286c0 .38-.318.744-.918.744-.5 0-.85-.293-.85-.754s.338-.75.873-.75.894.327.894.76m.5-.7c0-1.18-.644-1.796-1.587-1.796-.312 0-.605.055-.823.2l.144.287c.178-.118.417-.162.674-.162.75 0 1.23.48 1.23 1.423a3.06 3.06 0 0 1-.015.282c-.174-.382-.58-.595-1.06-.595-.7 0-1.17.407-1.17 1.042 0 .65.512 1.066 1.186 1.066.922 0 1.423-.64 1.423-1.736m2.908-.02c0 .928-.416 1.44-1.02 1.44s-1.022-.5-1.022-1.44.417-1.438 1.022-1.438 1.02.5 1.02 1.438m-2.405 0c0 1.107.58 1.767 1.384 1.767s1.388-.66 1.388-1.767-.585-1.766-1.388-1.766-1.384.66-1.384 1.766"/></g><path d="M615.687 266.116h0c-1.15 0-2.082.932-2.082 2.082v39.06c0 1.15.933 2.082 2.082 2.082s2.082-.932 2.082-2.082v-39.06c0-1.15-.933-2.082-2.082-2.082" class="B"/><path d="M615.687 266.116h0c-1.15 0-2.082.932-2.082 1.898v19.232c0 1.334.933 2.266 2.082 2.266s2.082-.932 2.082-2.082v-19.232c0-1.15-.933-2.082-2.082-2.082" class="D"/><g class="C"><path d="M612.705 264.302v-3.472h-.357v3.155h-.82v.317zm3.232-1.736c0 .928-.417 1.44-1.022 1.44s-1.022-.5-1.022-1.44.417-1.438 1.022-1.438 1.022.5 1.022 1.438m-2.406 0c0 1.107.58 1.767 1.384 1.767s1.4-.66 1.4-1.767-.586-1.766-1.4-1.766-1.384.66-1.384 1.766m5.686 0c0 .928-.416 1.44-1.02 1.44s-1.022-.5-1.022-1.44.417-1.438 1.022-1.438 1.02.5 1.02 1.438m-2.405 0c0 1.107.58 1.767 1.384 1.767s1.388-.66 1.388-1.767-.585-1.766-1.388-1.766-1.384.66-1.384 1.766"/></g><g class="B"><path d="M598.954 328.86c0-.144-13.55-.26-30.26-.26l-30.262.26c0 .144 13.545.26 30.262.26l30.26-.26"/><use xlink:href="#i"/><path d="M617.77 223.853c0-.144-17.762-.26-39.667-.26l-39.67.26c0 .144 17.758.26 39.67.26l39.667-.26m0-13.63c0-.144-17.762-.26-39.667-.26l-39.67.26c0 .144 17.758.26 39.67.26l39.667-.26m0-13.63c0-.144-17.762-.26-39.667-.26l-39.67.26c0 .144 17.758.26 39.67.26l39.667-.26m0-13.632c0-.144-17.762-.26-39.667-.26l-39.67.26c0 .144 17.758.26 39.67.26l39.667-.26"/></g><g class="D"><path d="M614.625 137.574H539.96c-7.932 0-14.36-6.43-14.36-14.36V112.09c0-7.93 6.43-14.36 14.36-14.36h74.665c7.93 0 14.36 6.43 14.36 14.36v11.125c0 7.93-6.43 14.36-14.36 14.36m0-1c7.367 0 13.36-5.993 13.36-13.36V112.09c0-7.368-5.993-13.36-13.36-13.36H539.96a13.38 13.38 0 0 0-13.361 13.361v11.125a13.38 13.38 0 0 0 13.361 13.361h74.665m-6.263-20.046c0-.144-13.912-.26-31.068-.26l-31.072.26c0 .144 13.9.26 31.072.26l31.068-.26"/><use xlink:href="#j"/><use xlink:href="#k"/></g><g opacity=".8" clip-path="url(#L)" fill="#fff"><use xlink:href="#j"/><use xlink:href="#k"/></g><g class="C"><path d="M562.664 403.5c-.002.03.155.087.453.06a1.78 1.78 0 0 0 1.11-.593c.373-.403.618-1.117.394-1.848a2.01 2.01 0 0 0-1.835-1.4c-.895-.035-1.673.568-1.924 1.28-.273.713-.068 1.444.275 1.868a1.77 1.77 0 0 0 1.07.663c.296.046.456 0 .456-.03.034-.092-.703-.07-1.227-.847a1.6 1.6 0 0 1-.127-1.478 1.55 1.55 0 0 1 1.458-.936c.665.018 1.215.488 1.4 1.03a1.6 1.6 0 0 1-.224 1.465c-.575.74-1.305.678-1.28.767m.49 2.242c-.017-.022-.16.275-.426.9l.1-.053-1.62-.27.114.12-.072-1.078-.088-.04c-.296-.13-.596-.306-.878-.533l-.08-.063-.098.042-.908.4.225.056-.98-1.318-.006.256.73-.852-.05-.123c-.118-.292-.2-.63-.25-.98l-.016-.133-.128-.05-.927-.354.15.25.23-1.626-.22.2.988-.082.15-.012.058-.14a3.82 3.82 0 0 1 .509-.865l.094-.12-.064-.14-.408-.903-.078.308 1.3-1-.323-.008.76.638.12.102.146-.06a3.85 3.85 0 0 1 .967-.255l.212-.167.001-.001v-.001l.002-.004.002-.008.006-.014.01-.03.022-.058.043-.117.088-.233.172-.463-.278.166 1.627.22-.222-.233.1.988.015.155.142.06a3.78 3.78 0 0 1 .867.502l.122.093.138-.063.9-.415-.3-.075 1 1.3.006-.3-.63.764-.092.1.055.13c.133.318.22.647.265.974l.02.137 1.056.386-.138-.232-.203 1.63.18-.172-.986.1-.115.012-.04.102a3.92 3.92 0 0 1-.502.892l-.064.085.043.1.427.895.047-.186-1.283 1.024.145.003-.823-.644-.045.02c-.65.285-1 .312-1.002.35.01.01.085.022.27 0a3.37 3.37 0 0 0 .796-.196l-.086-.013.807.722.08-.057 1.426-1.036-.05-.115-.395-.9-.02.176c.22-.274.418-.6.576-.958l-.156.114 1.147-.086.023-.16.262-1.794-.163-.063-.926-.355.144.183a4.2 4.2 0 0 0-.281-1.096l-.037.24.766-.902-.117-.154-1.106-1.47-1.086.5.26.03a4.23 4.23 0 0 0-.981-.576l.157.213-.103-1.193-2.037-.278-.377 1.008-.02.058-.01.03-.006.014-.003.008v.003l-.001.002v.001l.2-.167h-.001c-.4.048-.766.152-1.1.3l.267.04-.92-.77-1.63 1.245.085.185.415.9.03-.258a4.27 4.27 0 0 0-.569.983l.206-.15-1.18.1-.025.2-.233 1.814.173.063.93.34-.144-.182c.052.392.16.766.298 1.1l.033-.22-.735.895 1.202 1.54.13-.063.898-.424-.176-.02a4.15 4.15 0 0 0 .97.545l-.094-.127.12 1.094.102.01 1.703.18.02-.06.27-.958M630.2 76.78l.278.02c.185.02.465.005.827.07.727.087 1.83.326 3.103 1.03 1.25.7 2.707 1.935 3.616 3.902a8.63 8.63 0 0 1 .802 3.36l.01 4-.05 49.75-.1 284.097c.014 1.4.026 2.75-.456 4.037-.446 1.275-1.17 2.47-2.168 3.4-1 .927-2.2 1.66-3.5 2.018-1.315.4-2.706.33-4.12.335l-485.767-.047c-1.8-.006-3.574-.56-5.008-1.63-1.458-1.037-2.52-2.578-3.073-4.267-.553-1.697-.348-3.55-.387-5.4l-.023-334.848c0-.794-.022-1.574.1-2.324.082-.764.328-1.496.612-2.203.616-1.398 1.603-2.63 2.85-3.508a8.38 8.38 0 0 1 4.232-1.541l4.654-.035 483.6-.234-483.6-.235c-1.563.015-3.096-.036-4.692.035a8.84 8.84 0 0 0-4.468 1.625c-1.316.93-2.36 2.226-3 3.705-.3.745-.56 1.52-.647 2.325-.118.807-.094 1.6-.095 2.4l-.023 337.6c.01.94.134 1.888.4 2.793.586 1.795 1.716 3.43 3.262 4.532 1.52 1.136 3.422 1.725 5.316 1.73l485.767-.046c1.387-.005 2.848.07 4.238-.353 1.388-.378 2.647-1.146 3.686-2.122 1.046-.976 1.8-2.23 2.276-3.57.504-1.34.492-2.813.475-4.173l-.18-337.858a8.71 8.71 0 0 0-.822-3.39c-.926-1.98-2.4-3.207-3.662-3.915-1.287-.7-2.395-.93-3.125-1s-1.1-.064-1.1-.064"/></g><path d="M505.38 308.955h-79.15a9.57 9.57 0 0 0-9.566 9.565v27.276a9.57 9.57 0 0 0 9.566 9.566h79.15a9.57 9.57 0 0 0 9.565-9.566V318.52a9.57 9.57 0 0 0-9.565-9.565" class="B"/><g class="C"><path d="M443.57 333.1v-8.545h-.88v7.764h-2.015v.78z"/><use xlink:href="#l"/><use xlink:href="#m"/><path d="M466.523 328.828c0 2.282-1.025 3.54-2.514 3.54s-2.515-1.258-2.515-3.54 1.025-3.54 2.515-3.54 2.514 1.258 2.514 3.54m-5.92 0c0 2.722 1.428 4.346 3.406 4.346s3.418-1.624 3.418-4.346-1.44-4.346-3.418-4.346-3.406 1.624-3.406 4.346m15.347-2.026h-1.7v-2.246h-.88v2.246h-4.82v.635l4.528 5.664h.977l-4.37-5.518h3.7v1.978h.854v-1.978h1.7z"/><use xlink:href="#n"/><use xlink:href="#o"/><path d="M474.352 341.893c0-.144-9.504-.26-21.225-.26l-21.227.26c0 .144 9.502.26 21.227.26l21.225-.26"/></g><use xlink:href="#p" class="B"/><g class="C"><path d="M334.48 324.35c0 .965-.892 1.295-1.94 1.55v-3.052c1.342.098 1.94.72 1.94 1.5m-2.552 2.564v3.05c-1.257-.1-1.82-.756-1.82-1.525 0-.928.818-1.27 1.82-1.526m.6-4.834v-1.404h-.6v1.392c-1.196.06-2.32.5-2.917 1.1l.354.696c.56-.55 1.538-.963 2.563-1.025v3.2c-1.343.33-2.7.745-2.7 2.356 0 1.172.842 2.185 2.7 2.33v1.405h.6v-1.392c.916-.036 1.83-.305 2.478-.757l-.306-.72a4.53 4.53 0 0 1-2.172.709v-3.236c1.38-.33 2.832-.72 2.832-2.356 0-1.184-.9-2.2-2.832-2.32m13.077.867v-.78h-5.994v.623l3.553 3.478c.964.952 1.147 1.526 1.147 2.112 0 1-.696 1.6-2.002 1.6-1 0-1.77-.304-2.33-.952l-.623.537c.66.78 1.72 1.22 3.027 1.22 1.734 0 2.832-.88 2.832-2.308 0-.817-.255-1.55-1.404-2.673l-2.904-2.856zm6.752 1.67c0-1.428-1.038-2.526-3.102-2.526-1.232 0-2.416.426-3.076 1.098l.428.696c.55-.574 1.538-1 2.648-1 1.416 0 2.198.66 2.198 1.72 0 1.025-.72 1.697-2.307 1.697h-.6v.647l2.368 2.967h-4.37v.78h5.493v-.623l-2.417-3.04c1.83-.098 2.747-1.063 2.747-2.43m6.9.066c0-1.452-1.013-2.588-3.1-2.588-1.233 0-2.405.427-3.064 1.1l.428.695c.55-.573 1.525-.988 2.624-.988 1.452 0 2.22.708 2.22 1.746 0 1.098-.683 1.78-2.856 1.78h-1.82l.44 4.285h4.676v-.78h-3.906l-.293-2.723h1.098c2.575 0 3.552-1.012 3.552-2.526m7.024 1.757c0 2.282-1.025 3.54-2.516 3.54s-2.513-1.258-2.513-3.54 1.025-3.54 2.513-3.54 2.516 1.258 2.516 3.54m-5.92 0c0 2.722 1.43 4.346 3.405 4.346s3.418-1.624 3.418-4.346-1.44-4.346-3.418-4.346-3.405 1.624-3.405 4.346"/><use xlink:href="#q"/><path d="M376.713 326.413c0 2.282-1.025 3.54-2.514 3.54s-2.515-1.258-2.515-3.54 1.025-3.54 2.515-3.54 2.514 1.258 2.514 3.54m-5.92 0c0 2.722 1.428 4.346 3.406 4.346s3.418-1.624 3.418-4.346-1.44-4.346-3.418-4.346-3.406 1.624-3.406 4.346m14.002 0c0 2.282-1.025 3.54-2.514 3.54s-2.515-1.258-2.515-3.54 1.025-3.54 2.515-3.54 2.514 1.258 2.514 3.54m-5.92 0c0 2.722 1.428 4.346 3.406 4.346s3.418-1.624 3.418-4.346-1.44-4.346-3.418-4.346-3.406 1.624-3.406 4.346m-12.817 14.25c0-.144-8.6-.26-19.232-.26l-19.233.26c0 .144 8.6.26 19.233.26l19.232-.26"/></g><path d="M290.664 308.7h-79.15a9.57 9.57 0 0 0-9.565 9.565v27.276a9.57 9.57 0 0 0 9.565 9.566h79.15a9.57 9.57 0 0 0 9.565-9.566v-27.276a9.57 9.57 0 0 0-9.565-9.565" class="D"/><g fill="#fff"><path d="M226.125 324.35c0 .965-.9 1.295-1.94 1.55v-3.052c1.342.098 1.94.72 1.94 1.5m-2.55 2.564v3.05c-1.258-.1-1.818-.756-1.818-1.525 0-.928.817-1.27 1.818-1.526m.6-4.834v-1.404h-.6v1.392c-1.196.06-2.32.5-2.918 1.1l.355.696c.56-.55 1.538-.963 2.563-1.025v3.2c-1.343.33-2.7.745-2.7 2.356 0 1.172.843 2.185 2.7 2.33v1.405h.6v-1.392c.915-.036 1.83-.305 2.477-.757l-.305-.72a4.53 4.53 0 0 1-2.172.709v-3.236c1.38-.33 2.832-.72 2.832-2.356 0-1.184-.892-2.2-2.832-2.32m13.075.865v-.78h-5.993v.623l3.552 3.478c.963.952 1.147 1.526 1.147 2.112 0 1-.695 1.6-2.002 1.6-1 0-1.77-.304-2.332-.952l-.622.537c.66.78 1.722 1.22 3.027 1.22 1.734 0 2.832-.88 2.832-2.308 0-.817-.256-1.55-1.403-2.673l-2.906-2.856zm3.468 7.765v-8.545h-.88v7.764h-2.014v.78zm7.962-4.273c0 2.282-1.025 3.54-2.516 3.54s-2.513-1.258-2.513-3.54 1.025-3.54 2.513-3.54 2.516 1.258 2.516 3.54m-5.92 0c0 2.722 1.43 4.346 3.405 4.346s3.418-1.624 3.418-4.346-1.44-4.346-3.418-4.346-3.405 1.624-3.405 4.346m14 0c0 2.282-1.025 3.54-2.516 3.54s-2.513-1.258-2.513-3.54 1.025-3.54 2.513-3.54 2.516 1.258 2.516 3.54m-5.92 0c0 2.722 1.43 4.346 3.405 4.346s3.418-1.624 3.418-4.346-1.44-4.346-3.418-4.346-3.405 1.624-3.405 4.346m9.267-3.662c0-.208-.05-.366-.17-.708l-.513-1.685h-.586l.416 1.77c-.257.072-.44.305-.44.622 0 .378.28.66.648.66.377 0 .646-.293.646-.66m6.225 5.434c0 .94-.78 1.83-2.258 1.83-1.233 0-2.088-.72-2.088-1.855 0-1.123.83-1.843 2.15-1.843 1.306 0 2.197.806 2.197 1.868m1.2-1.697c0-2.906-1.588-4.42-3.906-4.42-.77 0-1.5.134-2.028.464l.355.708c.44-.293 1.025-.404 1.66-.404 1.843 0 3.027 1.185 3.027 3.504a7.73 7.73 0 0 1-.036.696c-.427-.94-1.428-1.465-2.613-1.465-1.696 0-2.88 1.002-2.88 2.564 0 1.6 1.258 2.624 2.918 2.624 2.27 0 3.504-1.575 3.504-4.272m7.19-.073c0 2.282-1.025 3.54-2.516 3.54s-2.513-1.258-2.513-3.54 1.025-3.54 2.513-3.54 2.516 1.258 2.516 3.54m-5.92 0c0 2.722 1.43 4.346 3.405 4.346s3.418-1.624 3.418-4.346-1.44-4.346-3.418-4.346-3.405 1.624-3.405 4.346M254.6 340.664c0-.144-7.9-.26-17.666-.26s-17.668.116-17.668.26 7.9.26 17.668.26 17.666-.117 17.666-.26m-97.434 52.45h0c-4.723 0-8.552 3.83-8.552 8.552s3.83 8.552 8.552 8.552 8.55-3.83 8.55-8.552-3.828-8.552-8.55-8.552"/></g></g><g clip-path="url(#M)"><g class="D"><path d="M608.233 180.924s9.572-3.16 13.662-26.997c3.88-22.612 12.303-33.855 12.303-33.855l32.28-5.627-15.204-26.856-43.9 15.378-2.296 44.902zm-58.26.58s-14.458-1.9-18.518-16.55-8.485-49.153-8.485-49.153l-26.44-44.757 17.55-10.907 26.207 35.492c3 4.074 5.085 8.798 5.8 13.813.258 1.835.355 3.738.242 5.772l-.63 10.975z"/><path d="M546.463 180.728l-5.224-36.23c-.755-5.24-.38-10.58 1.104-15.66l6.44-22.07s-5.52-12.395 1.7-16.727c1.417-.85 36.856-1.418 36.856-1.418h15.593l5.66 54.94-.358 37.358s-13.008 4.742-18.11 5.31c-3.2.355-17.064.8-28.418-.232z"/></g><g class="C"><path d="M532.086 109.192c-.13-.094-1.52 2.13-4.082 3.973-1.273.9-2.53 1.6-3.507 1.94-.958.4-1.547.667-1.527.736s.648-.084 1.66-.392c1.026-.258 2.364-.92 3.68-1.862 2.664-1.92 3.9-4.352 3.775-4.394m12.48 52.64c.034-.013-.132-.6-.458-1.678l-.56-1.954-.64-2.6c-.456-1.94-.82-4.288-1.102-6.904a66.78 66.78 0 0 1-.198-8.555c.265-6.08 1.316-11.515 2.16-15.412l1.08-4.606c.265-1.086.395-1.7.36-1.7s-.23.577-.556 1.65c-.333 1.07-.758 2.63-1.24 4.575-.94 3.886-2.056 9.343-2.323 15.472a62.41 62.41 0 0 0 .242 8.625c.308 2.637.716 4.997 1.22 6.94.212.98.5 1.844.722 2.608.215.768.446 1.413.646 1.938.386 1.052.616 1.626.65 1.614m63.5-2.094c.036.001.074-.602.113-1.7l.085-4.615a297.98 297.98 0 0 0-.315-15.22 300.7 300.7 0 0 0-1.084-15.19l-.5-4.587c-.14-1.08-.232-1.676-.27-1.673s-.01.607.068 1.694l.343 4.597.93 15.182c.272 5.932.402 11.308.468 15.2l.08 4.6c.023 1.088.053 1.7.1 1.7"/></g><g opacity=".3" clip-path="url(#N)"><path d="M593.908 116.678c.734-1.206-.413-3.492-3.277-5.914-1.425-1.214-3.285-2.412-5.48-3.493-2.2-1.057-4.74-1.982-7.488-2.616a36.2 36.2 0 0 0-7.885-.881c-2.445.025-4.642.3-6.45.778-3.63.944-5.654 2.51-5.514 3.914.14 1.453 2.31 2.506 5.49 3.45 3.197.94 7.416 1.85 12.047 2.894 4.625 1.06 8.823 2.066 12.11 2.602 3.276.525 5.688.514 6.444-.735"/></g><g class="C"><path d="M595.366 115.273c.026-.024-.37-.464-1.114-1.24a14.11 14.11 0 0 0-1.418-1.351l-2.012-1.64-1.222-.9c-.427-.305-.908-.57-1.386-.873-.948-.626-2.04-1.15-3.174-1.734-2.312-1.073-4.957-2.038-7.83-2.688-2.883-.612-5.7-.844-8.24-.838l-3.608.246-1.625.213-1.482.298c-.952.16-1.78.444-2.514.648a14.35 14.35 0 0 0-1.854.633l-1.53.66c.043.12 2.228-.852 5.972-1.58l1.472-.26c.5-.087 1.053-.117 1.6-.18 1.1-.152 2.3-.154 3.565-.196a40.72 40.72 0 0 1 8.123.867c2.833.64 5.446 1.58 7.738 2.612l3.156 1.67 1.386.838 1.227.853c3.095 2.23 4.673 4.026 4.76 3.935m14.83 64.494c.13-.096-1.357-2.05-2.397-4.848-1.068-2.787-1.243-5.238-1.404-5.222-.127-.012-.184 2.526.916 5.406 1.077 2.9 2.798 4.756 2.885 4.664"/></g><g opacity=".5" clip-path="url(#O)" fill="#fff"><path d="M613.686 143.32c-2.088-.76-1.223-.5-2.126-2.274s-1.18-3.97-.23-5.7c.82-1.502 2.408-2.43 4.02-3.002 1.93-.684 4.245-.905 5.88.327 1.658 1.25 2.07 3.67 1.48 5.66-.56 1.893-1.917 3.536-3.67 4.445a7.46 7.46 0 0 1-5.746.443m-25.272-21.01c-.743 1.36-4.146 2.15-5.396 1.235-.906-1.256-.93-3.1.017-4.337s2.816-1.665 4.17-.9 1.954 2.653 1.2 4.012M541.02 118.6c-.744 1.36-4.146 2.15-5.396 1.235-.907-1.256-.93-3.1.016-4.338s2.816-1.664 4.17-.9 1.954 2.653 1.2 4.012m12.432 59.164c-3.856-.514-7.4-3.024-9.145-6.496-.557-1.103-.947-2.328-.847-3.56s.76-2.463 1.866-3c1.642-.814 3.6.05 5.172.974 1.38.808 2.737 1.684 3.846 2.835s1.955 2.6 2.128 4.197-.416 3.3-1.7 4.252-3.265.95-4.393-.18m-24.59-74.982c-3.856-.514-7.4-3.025-9.145-6.497-.557-1.103-.947-2.328-.847-3.56s.76-2.463 1.866-3c1.642-.814 3.6.048 5.172.974 1.38.807 2.737 1.684 3.846 2.834s1.956 2.6 2.128 4.198-.416 3.3-1.7 4.252-3.265.95-4.393-.182m72.565 76.468c-2.087-.76-1.223-.5-2.125-2.274s-1.182-3.972-.23-5.712c.82-1.5 2.4-2.43 4.02-3 1.93-.685 4.245-.905 5.88.327 1.657 1.25 2.07 3.67 1.48 5.66-.56 1.893-1.916 3.535-3.668 4.445s-3.876 1.073-5.746.442M586.9 151.5c.16-1.552.138-.92 1.186-1.837s2.502-1.484 3.85-1.134c1.163.302 2.067 1.225 2.733 2.226.794 1.197 1.34 2.737.782 4.06-.568 1.343-2.146 2.038-3.602 1.977a5.24 5.24 0 0 1-4.939-5.577m-58.438-15.865c.16-1.552.138-.92 1.186-1.837s2.502-1.483 3.85-1.134c1.163.302 2.067 1.225 2.732 2.226.795 1.197 1.342 2.737.783 4.06-.568 1.342-2.146 2.037-3.602 1.976a5.24 5.24 0 0 1-4.939-5.577m44.432 19.75c-.304.612-1.054.896-1.735.854s-1.317-.348-1.93-.647l-.74-1.42c.652-1.303 2.562-1.757 3.73-.888.642.477 1.03 1.386.675 2.102m-32.874.633c-.305.612-1.054.896-1.735.854s-1.317-.348-1.93-.647l-.74-1.42c.653-1.302 2.563-1.757 3.732-.888.642.477 1.03 1.386.675 2.102m63.608-27.195c-.305.612-1.054.896-1.735.854s-1.317-.348-1.93-.647l-.74-1.42c.653-1.303 2.562-1.757 3.732-.9.642.478 1.03 1.387.675 2.103M554.7 97.542c-.304.6-1.054.896-1.735.853s-1.317-.347-1.93-.647l-.74-1.42c.652-1.302 2.562-1.756 3.73-.888.642.477 1.03 1.387.675 2.103m25.365 41.87c-1.538 1.956-3.978 3.004-6.415 3.505-2.92-.103-5.028-2-7.042-4.118-.897-.945-1.662-2.156-1.57-3.455.1-1.432 1.2-2.592 2.402-3.4a11.72 11.72 0 0 1 9.604-1.5c1.288.37 2.55 1 3.384 2.05 1.546 1.95 1.175 4.953-.363 6.908"/><use xlink:href="#r"/><path d="M577.822 96.352c-.562 1.027-3.134 1.626-4.078.934-.686-.95-.703-2.35.013-3.28s2.128-1.258 3.15-.687 1.477 2.004.915 3.032m40.076 63.534c-.562 1.027-3.134 1.627-4.078.934-.686-.95-.703-2.35.012-3.28s2.128-1.258 3.15-.687 1.477 2.005.915 3.032M557.83 123.32c-.723.634-1.732.9-2.68.818l.034.017c-1.858.015-3.4-.734-3.564-2.48s.55-3.548 1.862-4.7c1.008-.9 2.494-1.396 3.723-.85.97.432 1.588 1.43 1.863 2.457.447 1.663.058 3.6-1.237 4.745m44.022-18.185c-.4 1.298-1.2 2.556-2.46 3.085-1.274.54-2.8.2-3.93-.6s-1.913-2.002-2.492-3.258c-.668-1.448-1.103-3.034-1.005-4.625s2.48-3.395 4.33-2.87l-.018.01c1.326-.102 2.716.28 3.742 1.135 1.994 1.66 2.6 4.633 1.833 7.112m-50.983 48.31c-2.087-.76-1.223-.5-2.125-2.274s-1.182-3.97-.23-5.7c.82-1.502 2.408-2.43 4.02-3.002 1.93-.684 4.245-.905 5.88.327 1.657 1.25 2.07 3.67 1.48 5.66-.56 1.893-1.916 3.536-3.668 4.445a7.46 7.46 0 0 1-5.746.443"/></g><use xlink:href="#s" class="D"/><g class="C"><path d="M601.9 41.856c.192-.026.45 2 1.687 4.1 1.207 2.13 2.828 3.372 2.7 3.526-.068.147-1.97-.932-3.263-3.205-1.317-2.26-1.294-4.448-1.133-4.43m-3.993 1.82c.187-.032.576 1.778 1.596 3.778 1 2 2.222 3.4 2.085 3.532-.106.125-1.602-1.127-2.66-3.244-1.07-2.108-1.185-4.055-1.022-4.066m-3.743 1.004c.192.013.046 1.925.896 4.046.813 2.136 2.218 3.44 2.084 3.58-.076.145-1.793-1.038-2.682-3.347-.912-2.3-.453-4.334-.298-4.28"/><path d="M594.843 49.615c.068-.018.407 1.052.4 2.85a13.37 13.37 0 0 1-.388 3.123c-.14.577-.33 1.174-.57 1.776-.124.305-.265.654-.613.94-.358.32-1.008.254-1.316-.065-.35-.306-.462-.737-.51-1.083-.04-.352-.06-.68-.05-1.012.01-.658.095-1.3.237-1.874.282-1.17.738-2.15 1.178-2.926.892-1.554 1.666-2.35 1.72-2.306.087.06-.555.953-1.32 2.515-.377.78-.77 1.74-1.005 2.846-.118.553-.183 1.142-.183 1.75.016.588.008 1.323.352 1.607.183.15.347.16.506.042.17-.13.31-.39.42-.67.237-.573.43-1.14.58-1.7a15.35 15.35 0 0 0 .507-2.99l.042-2.832"/><path d="M594.796 50.005c.018.07-.906.388-2.47.398a11.16 11.16 0 0 1-2.717-.333c-.496-.133-1.03-.262-1.564-.576-.524-.266-1.073-.994-.865-1.75.164-.712.773-1.2 1.38-1.367.6-.17 1.2-.1 1.717.005 1.05.24 1.87.76 2.488 1.224 1.227.962 1.826 1.7 1.78 1.752-.067.082-.792-.548-2.04-1.38-.628-.402-1.413-.835-2.35-1.017-.465-.1-.966-.117-1.42.02-.45.124-.825.467-.93.9-.1.428.15.82.568 1.068.4.255.918.4 1.4.542a12.79 12.79 0 0 0 2.58.45l2.454.055m12.977-8.55c.2.02.002 1.658.755 3.453.717 1.8 1.995 2.85 1.875 2.998-.064.155-1.664-.752-2.47-2.756-.826-1.995-.315-3.762-.16-3.695m-26.718-1.768c-.017-.04.5-.286 1.48-.697.984-.37 2.424-.892 4.26-1.32 3.662-.922 8.883-1.446 14.618-1.385s10.9.325 14.66.474l4.437.236c1.047.07 1.625.13 1.624.173s-.582.07-1.632.076l-4.443-.032-14.65-.286c-5.7-.06-10.867.387-14.514 1.187-3.66.752-5.798 1.694-5.843 1.575"/><path d="M579.934 38.805c.052-.088 1.1.524 2.868 1.3 1.75.75 4.37 1.65 7.246 1.204 2.886-.44 4.93-2.38 6.263-3.726l2.207-2.254c.058.05-.596 1.066-1.874 2.562-.647.74-1.466 1.598-2.54 2.374-1.06.78-2.427 1.443-3.956 1.677-3.086.472-5.807-.56-7.537-1.426-1.757-.9-2.717-1.65-2.678-1.71"/></g><g opacity=".3" clip-path="url(#P)"><use xlink:href="#s"/></g><path d="M551.958 89.787l-12.466-14.503s-41.502 12.62-51.96 12.04-19.022-4.77-21.055-13.263-2.312-20.21 9.888-28.344 72.83-12.626 72.83-12.626h23.992L612.4 84.795l-3.442 2.838z" class="C"/><path d="M560.305 56.242c-.001-.018-.27-.013-.787.014l-2.252.175c-1.952.194-4.76.7-8.133 1.678-3.377.97-7.278 2.506-11.47 4.487s-8.67 4.416-13.375 6.94c-4.705 2.52-9.26 4.783-13.546 6.498s-8.286 2.9-11.72 3.505c-3.433.616-6.266.77-8.217.717-.977.02-1.73-.083-2.247-.088-.514-.025-.786-.03-.788-.01s.266.057.78.115c.514.04 1.27.176 2.25.186 1.96.116 4.818.018 8.285-.557 3.472-.56 7.515-1.723 11.834-3.42s8.904-3.962 13.617-6.485c4.707-2.527 9.167-4.972 13.334-6.966s8.03-3.56 11.37-4.567c3.337-1.02 6.117-1.576 8.052-1.83.964-.167 1.725-.197 2.235-.273.51-.06.78-.1.78-.118" class="E"/><path d="M588.663 37.31c7.707 3.028 50.097 16.516 65.103 33.856 12.494 14.44-7.38 27.366-7.38 27.366s-13.94.445-18.6 0-71.166-45.4-71.166-45.4 11.62-22.657 11.328-23.528z" class="C"/><g class="E"><path d="M609.54 87.6c.005-.008-.057-.057-.18-.145l-.56-.38-2.175-1.418-8.052-5.13-26.67-16.76-14.486-9.032.094.297 7.596-18.276 2.135-5.245.55-1.402.164-.493s-.093.152-.237.462l-.62 1.373-2.26 5.192-7.85 18.4.175.1 14.466 9.065 26.75 16.63 8.14 5 2.226 1.335.587.336c.133.074.204.107.2.1M550.97 67.592c-.025-.06-.792.187-1.97.74s-2.75 1.436-4.354 2.6-2.92 2.4-3.802 3.363-1.35 1.6-1.3 1.652c.12.1 2.24-2.292 5.4-4.595 3.154-2.325 6.084-3.622 6.016-3.77m18.128 21.432c.077-.004.078-1.02.1-2.654L569.5 80l.837-6.326.378-2.628c-.066-.016-.373.954-.74 2.557s-.767 3.846-.994 6.35-.233 4.78-.163 6.423.202 2.653.268 2.65m5.878-2.256c.003.024.197.048.52-.07s.757-.406 1.103-.927c.326-.515.583-1.3.314-2.136-.25-.855-1.18-1.482-2.15-1.514-.968-.064-1.97.472-2.273 1.325-.313.837-.046 1.636.296 2.142.36.518.825.785 1.16.863s.528.022.527 0c.035-.087-.813-.08-1.376-1.06-.262-.458-.427-1.144-.164-1.764.245-.626 1.005-1.032 1.804-.987.8.035 1.5.506 1.723 1.152.236.64.07 1.32-.178 1.8-.54.985-1.35 1.1-1.307 1.187m-16.456 1.844c.026.01.182-.258.364-.787s.353-1.336.35-2.346-.217-2.218-.773-3.44c-.548-1.22-1.476-2.44-2.767-3.325-1.308-.864-2.787-1.262-4.125-1.3s-2.545.202-3.48.582-1.62.836-2.04 1.207-.612.614-.592.634c.068.1.92-.858 2.76-1.495.908-.32 2.06-.525 3.326-.448 1.264.07 2.644.46 3.86 1.263 1.2.822 2.08 1.953 2.624 3.097s.793 2.287.84 3.25c.102 1.944-.453 3.093-.345 3.12m39.55-7.897c-.003-.06-.63-.102-1.573.222-.934.3-2.177 1.07-3.026 2.366s-1.04 2.743-.95 3.723c.084.995.375 1.55.43 1.53.08-.023-.076-.604-.062-1.54.007-.93.247-2.24 1.02-3.426s1.88-1.93 2.725-2.3c.854-.4 1.45-.48 1.437-.562"/></g><g fill="#b66955"><path d="M642.13 109.515s6.48 9.354 7.898 10.146 13.407 3.224 14.33 2.772 14.325-4.896 12.497-6.29-11.155 1.84-11.155 1.84l-1.384-.448s8.086-2.582 9.678-3.856c1.466-1.172.616-3.055-.878-2.667s-8.484 2.877-8.958 2.647 7.54-3.134 8.35-3.795c1.1-.9.886-3.036-.608-2.702-.882.197-8.37 3.394-8.37 3.394s5.818-3.32 6.305-3.948c.798-1.027-.146-2.26-1.44-1.76-.888.343-4.937 3.087-6.128 3.543 0 0-1.197-.134-2.594-2.302s-9.803-6.923-9.803-6.923z"/><path d="M645.254 108.897c.72-.906 2.128-.924 3.198-.482s1.96 1.23 2.995 1.748c3.098 1.546 7.058.464 10.078 2.157.42.236.867.66.725 1.12-.13.428-.663.555-1.106.61l-11.375 1.45"/></g><g fill="#8e3823"><path d="M649.768 115.504c.006.044.45.03 1.246-.03l3.367-.324 4.985-.566 1.438-.172c.453-.1 1.083-.006 1.612-.598.25-.3.22-.8.025-1.084-.182-.296-.425-.488-.68-.647-.5-.275-1-.504-1.555-.66-2.188-.634-4.304-.5-6.128-.786-.913-.134-1.76-.355-2.487-.704s-1.36-.8-2-1.174c-1.232-.796-2.57-.943-3.356-.643-.814.3-1.02.786-.992.784.045.05.314-.357 1.06-.54.745-.2 1.892-.014 3.046.792.6.374 1.2.864 2 1.266s1.684.657 2.633.814c1.894.334 4.012.22 6.03.816a7.11 7.11 0 0 1 1.41.592c.4.24.653.6.476.796-.163.23-.686.298-1.173.356l-1.437.194-4.966.705-3.34.53c-.787.14-1.22.238-1.214.283m27.042.6c.013-.078-.976-.325-2.612-.312-.816.01-1.8.093-2.853.313l-3.342.965-2.5.765.157-.01-6.216-.96c-.032.143 2.525.796 6.095 1.572l.072.016.085-.026 2.494-.73 3.295-1.006a18.73 18.73 0 0 1 2.744-.44l2.6-.15"/></g><path d="M618.015 212.786c-2.67 3.2-5.934 6.478-6.047 10.643-.06 2.213.745 4.7-.582 6.474-1.154 1.543-3.45 1.787-4.748 3.212-1.732 1.9-.984 4.91-1.58 7.41-.647 2.723-2.98 4.823-5.606 5.79s-5.514.95-8.293.627l-2.61-57.357c1.274 1.392 4.585 1.977 6.348 1.305s3.417-1.76 5.297-1.914c4.22-.345 7.19 3.873 10.8 6.09 3.442 2.117 8.17 2.792 10.064 6.363 1.952 3.68-.374 8.157-3.043 11.356" class="C"/><path d="M610.125 194.63c-.016.058.586.034 1.407.58.4.27.84.705 1.11 1.33.27.616.33 1.443.035 2.24-.27.83-1.02 1.42-1.91 1.992-.435.298-.91.628-1.28 1.117a2.74 2.74 0 0 0-.537 1.773c.072 1.29.736 2.412 1.16 3.596.217.59.388 1.206.384 1.824a3.28 3.28 0 0 1-.548 1.776c-.707 1.093-1.812 1.873-2.843 2.627-1.045.742-2.084 1.512-2.87 2.442-1.605 1.83-2.42 3.93-2.75 5.712-.345 1.794-.205 3.288-.013 4.276.098.497.203.875.3 1.125.086.25.138.38.156.375.056-.016-.13-.545-.255-1.532-.127-.98-.207-2.44.174-4.17.365-1.72 1.192-3.73 2.75-5.468.762-.88 1.746-1.6 2.807-2.344 1.038-.757 2.19-1.542 2.988-2.765.393-.606.626-1.33.624-2.047s-.195-1.392-.423-2.007c-.456-1.225-1.095-2.328-1.158-3.438-.034-.546.124-1.068.425-1.482s.734-.733 1.16-1.035.86-.6 1.225-.965.633-.81.783-1.257c.307-.9.21-1.8-.116-2.483-.324-.68-.823-1.12-1.264-1.382a3.02 3.02 0 0 0-1.108-.403c-.266-.038-.408-.018-.41-.005" class="E"/><path d="M589.214 181.884l-.178 9.625s9.563 1.414 11.76 13.818c1.093 6.17.962 16.32.587 24.62-.338 7.47-8.246 15.066-15.696 14.412l-24.2-4.16.01-4.016.667-54.713a13.53 13.53 0 0 1 13.527-13.363 13.53 13.53 0 0 1 13.525 13.777" fill="#b66955"/><g class="C"><path d="M597.542 221.325c.015-.843-.687-1.55-1.567-1.582s-1.604.625-1.62 1.468.687 1.55 1.565 1.583 1.606-.625 1.62-1.47m1.548 3.384c-.2-.204-1.395.712-3.1.737-1.715.05-3-.8-3.173-.596-.1.094.118.466.674.856.548.4 1.475.76 2.545.735s1.96-.434 2.47-.846c.52-.414.693-.794.594-.886m-17.308-2.934c.015-.843-.687-1.55-1.567-1.582s-1.604.624-1.62 1.467.687 1.552 1.565 1.584 1.606-.626 1.62-1.47m.43 2.914c-.202-.204-1.396.712-3.1.737-1.715.05-3-.8-3.173-.596-.1.094.116.466.674.856.547.4 1.474.76 2.544.735s1.962-.434 2.472-.846c.52-.415.693-.794.594-.886m6.002-12.842c-.006.098 1.064.263 2.798.453.438.037.855.117.934.415.1.316-.066.8-.27 1.305l-1.237 3.36-2.757 8.783c.193.068 1.74-3.755 3.457-8.54l1.182-3.38c.158-.5.433-1.07.198-1.724-.124-.325-.45-.558-.733-.628-.283-.08-.53-.08-.747-.1-1.74-.062-2.82-.05-2.826.047"/></g><g fill="#8e3823"><path d="M589.036 191.5s-8.38-.4-16.58 4.74c0 0 4.166-8.7 16.637-7.746zm-1.624 16.2c-.604.827-1.677 1.295-2.753 1.198-.747-.066-1.506-.413-1.97-1s-.574-1.458-.173-2.044c.452-.66 1.417-.828 2.24-.6s1.538.745 2.217 1.27c.188.145.38.297.5.5s.15.467.01.638"/></g><g class="C"><path d="M583.137 210.747c.28.012.25-1.852 1.82-3.203s3.56-1.18 3.57-1.442c.024-.117-.45-.354-1.287-.362a4.64 4.64 0 0 0-2.981 1.099c-.96.828-1.358 1.918-1.408 2.683-.058.78.16 1.24.286 1.225m-.367 20.66c-.178-.463-1.888-.2-3.906-.418-2.023-.167-3.657-.728-3.917-.305-.115.203.176.637.84 1.077s1.705.85 2.917.963 2.315-.1 3.043-.412c.734-.3 1.1-.684 1.023-.905m15.775-1.72c-.3-.385-1.484.04-2.906.085-1.42.094-2.63-.215-2.902.197-.117.2.08.588.612.947.525.36 1.398.644 2.375.597s1.817-.416 2.304-.824c.496-.4.654-.815.517-1.002"/></g><path d="M567.828 225.54c4.092 5.018 15.726 14.032 21.397 16.524.91.4 1.753 1.24 2.3 1.24 0 0 1.77-.884 3.336-2.255 3.02-2.643 5.418-8.86 6.58-12.7 1.678 4.783 1.133 11.652-2.2 15.48s-6.857 5.943-11.92 6.194-8.87-.882-13.187-3.542c-1.7-1.053-7.876-6.178-9.6-9.13z" class="E"/><g class="C"><path d="M589.606 249.766c.838-.093-4.8 4.538-8.327 5.17s-7.273-.152-10.243-2.142c-2-1.348-3.7-3.228-5.918-4.174-1.698-.722-3.585-.844-5.354-1.37-4.678-1.387-8.273-5.85-8.635-10.716-.153-2.065.224-4.13.255-6.202s-.348-4.277-1.75-5.8c-1.215-1.322-3-1.928-4.517-2.884-3.6-2.273-5.65-6.8-4.96-11 .37-2.262 1.442-4.6.66-6.742-.516-1.42-1.746-2.44-2.577-3.7-1.657-2.5-1.542-6.06.274-8.457 2.106-.232 3.767-1.812 5.404-3.158s3.732-2.588 5.764-2c2.638.776 3.9 4.303 6.612 4.692 2.665.38 4.614-2.452 7.132-3.404 2.872-1.087 6.233.548 7.967 3.082s2.16 5.735 2.222 8.804c.078 3.86-.416 7.937-2.702 11.048-1.64 2.23-4.242 4.143-4.28 6.9-.036 2.652 2.38 4.75 2.786 7.373.356 2.3-.88 4.5-1.836 6.623s-2.72 5.257-1.38 7.16c0 0 9.17 12.47 23.402 10.887m1.12-2.064c.037.045.436-.2.77-.85a3.27 3.27 0 0 0 .066-2.776 3.27 3.27 0 0 0-2.134-1.778c-.7-.176-1.156-.036-1.146.02.002.083.43.085 1.032.33.594.23 1.372.77 1.774 1.643.394.878.286 1.818.07 2.417-.213.613-.495.937-.433.994"/><path d="M594.2 242.373c-.038-.133-.864.02-1.656.646s-1.14 1.388-1.02 1.457c.125.082.622-.5 1.34-1.047.712-.566 1.385-.914 1.335-1.056m-8.216 3.257c.025.147.758.124 1.6.354.844.217 1.467.602 1.563.486.1-.097-.458-.734-1.43-.988-.97-.262-1.77.015-1.732.148m.093 2.27c.02.142.745.15 1.615.017s1.56-.356 1.538-.497-.745-.15-1.616-.018-1.558.355-1.537.498m8.41-.76c.01-.144-.28-.282-.65-.3s-.678.067-.7.2.28.283.65.3.676-.066.687-.2"/><path d="M594.592 245.718c0-.144-.428-.26-.955-.26s-.956.116-.956.26.428.26.956.26.955-.117.955-.26m-21.912-8.368c.105-.1-1.195-1.45-2.508-3.32l-2.292-3.473c-.126.047.506 1.86 1.866 3.773 1.35 1.92 2.848 3.123 2.934 3.02m.456 3.702c.117-.1-1.4-1.977-2.95-4.5l-2.698-4.655c-.126.046.667 2.368 2.254 4.928 1.577 2.568 3.296 4.32 3.393 4.227m-33.545-17.73c-.014-.012-.116.095-.3.313-.16.233-.406.587-.57 1.1-.347 1.007-.447 2.776.7 4.443 1.107 1.676 3.704 2.668 6.247 1.955 1.302-.317 2.387-1.23 3.498-1.966.562-.372 1.158-.7 1.794-.86.63-.13 1.317-.03 1.83.384.522.397.86 1.02 1.036 1.656s.17 1.322.1 1.986l-.5 3.94c-.14 2.556.5 4.948 1.764 6.475 1.246 1.537 2.817 2.182 3.885 2.317a4.37 4.37 0 0 0 1.246.004c.28-.056.423-.094.42-.112-.005-.06-.6.112-1.633-.092-1.015-.2-2.484-.86-3.63-2.346-1.154-1.466-1.736-3.746-1.574-6.222.046-1.248.363-2.5.538-3.9.178-1.36-.034-3.078-1.327-4.1-.637-.513-1.508-.64-2.257-.477-.75.178-1.386.555-1.965.94-1.157.78-2.157 1.63-3.346 1.93-2.354.685-4.77-.196-5.82-1.708-1.094-1.516-1.07-3.193-.796-4.17.28-1.015.732-1.448.678-1.482m76.446-.93c-.01-.026-.15.043-.423.03-.266-.014-.675-.167-.983-.584-.313-.4-.5-1.108-.004-1.66.437-.54 1.383-.82 2.197-.473.824.357 1.428 1.307 1.546 2.373.127 1.08-.206 2.256-.64 3.438-.44 1.154-1.064 2.4-2.172 3.096-.55.337-1.208.46-1.885.396s-1.37-.273-2.1-.467-1.468-.373-2.25-.3-1.53.466-2 1.06c-.956 1.2-1.086 2.716-.938 3.996l.457 3.588c.01 1.104-.22 2.133-.6 3-.75 1.754-1.938 2.844-2.803 3.448-.888.6-1.466.787-1.446.835.006.017.15-.022.424-.115s.662-.268 1.132-.55c.923-.568 2.2-1.652 3.03-3.468.42-.898.687-1.978.696-3.154-.001-1.174-.3-2.38-.4-3.63-.135-1.225.025-2.606.85-3.622.405-.5 1.002-.8 1.66-.87s1.358.097 2.063.3 1.423.412 2.18.48c.754.074 1.555-.075 2.196-.477 1.284-.826 1.904-2.166 2.357-3.365.427-1.212.775-2.455.617-3.657-.153-1.185-.844-2.254-1.83-2.66-1-.4-2.057-.033-2.57.63-.258.33-.372.74-.318 1.1a1.67 1.67 0 0 0 .392.868c.37.447.845.583 1.14.564s.424-.135.424-.135m-81.738-16.365c.013.025.138-.067.394-.068.25-.005.64.163.893.578.116.204.207.47.138.737s-.26.534-.55.697c-.576.348-1.48.307-2.086-.325-.6-.6-.975-1.586-.996-2.607-.002-.5.103-1.04.4-1.48.28-.44.742-.765 1.282-.916 1.092-.312 2.397.045 3.192 1.024.82.953 1.204 2.296 1.226 3.654.03 1.373-.227 2.723-.382 4.05s-.22 2.66.094 3.894c.303 1.24.998 2.277 1.777 3.065.788.8 1.664 1.36 2.502 1.78 1.7.82 3.178 1.13 4.185 1.35l1.586.255c.008-.038-.544-.186-1.54-.453-.987-.28-2.446-.643-4.063-1.48-.8-.425-1.627-.992-2.36-1.754-.726-.76-1.354-1.732-1.62-2.877-.28-1.145-.217-2.418-.054-3.72s.427-2.676.395-4.125c-.024-1.44-.43-2.903-1.36-3.975a3.65 3.65 0 0 0-1.725-1.14 3.56 3.56 0 0 0-1.986-.01c-.633.182-1.202.587-1.536 1.133s-.445 1.162-.433 1.732c.048 1.135.452 2.18 1.175 2.868.72.717 1.836.753 2.5.305.342-.2.576-.547.64-.893.07-.357-.063-.672-.2-.9-.318-.46-.783-.613-1.067-.573-.292.04-.4.173-.4.173m34.67 47.444c-.023-.004-.056.144-.162.393s-.37.577-.836.794c-.46.213-1.125.292-1.823.105-.697-.176-1.423-.737-1.536-1.642-.322-1.776 1.735-4.017 4.178-3.583 1.2.157 2.384.78 3.406 1.642s1.892 1.992 2.777 3.15 1.782 2.313 2.88 3.212c1.082.897 2.36 1.562 3.7 1.692 1.332.142 2.594-.294 3.558-.93.974-.64 1.704-1.465 2.222-2.295 1.02-1.683 1.32-3.26 1.508-4.3l.157-1.228c.022-.282.024-.43.006-.433-.04-.006-.132.58-.362 1.622-.246 1.028-.6 2.564-1.62 4.15-.513.778-1.224 1.546-2.145 2.13-.915.58-2.072.956-3.275.815-1.204-.13-2.388-.747-3.414-1.607-1.038-.858-1.906-1.977-2.792-3.137s-1.772-2.313-2.864-3.225c-1.08-.9-2.348-1.566-3.672-1.727-1.317-.192-2.662.276-3.487 1.126-.85.815-1.3 1.97-1.116 2.994.085.5.336.97.686 1.278s.75.5 1.14.585c.78.178 1.494.058 1.987-.206.5-.267.76-.658.843-.935s.077-.433.065-.433"/></g><path d="M584.3 250.055c-.01-.001-.038.066-.087.196s-.103.33-.263.55c-.277.455-.9.994-1.86 1.35-.958.35-2.222.572-3.68.522-.725-.027-1.51-.108-2.285-.35-.77-.24-1.507-.732-2.226-1.29-1.427-1.145-2.828-2.646-3.95-4.48-.263-.466-.533-.945-.72-1.458a4.3 4.3 0 0 0-.916-1.539c-.834-.892-1.94-1.52-3.15-1.89-.592-.195-1.267-.273-1.846-.376-.596-.125-1.183-.325-1.746-.594-1.123-.533-2.154-1.35-2.88-2.415-.745-1.056-1.078-2.36-1.052-3.7 0-1.348.263-2.72.492-4.12.217-1.4.433-2.836.19-4.26-.19-1.43-.98-2.733-2-3.65-2.06-1.862-4.642-2.616-6.45-4.21-.908-.775-1.676-1.702-2.02-2.756-.363-1.056-.187-2.17.27-3.128.438-.973 1.052-1.84 1.477-2.794.417-.938.676-1.98.438-2.955-.24-.986-.974-1.665-1.644-2.156-.68-.505-1.354-.912-1.868-1.414-1.077-.99-1.217-2.36-1.137-3.357.085-1.023.313-1.8.45-2.328l.21-.808c-.01-.003-.04.062-.093.192l-.217.585c-.17.52-.432 1.293-.552 2.342-.053.522-.058 1.12.094 1.756a3.75 3.75 0 0 0 1.041 1.826c.537.54 1.218.967 1.872 1.47.65.493 1.29 1.12 1.486 1.978s-.037 1.81-.446 2.704c-.41.9-1.034 1.763-1.503 2.78-.493.997-.713 2.273-.313 3.447.377 1.174 1.2 2.163 2.145 2.98 1.903 1.68 4.5 2.453 6.415 4.222.955.87 1.657 2.035 1.835 3.36.224 1.315.023 2.703-.195 4.09-.226 1.393-.496 2.788-.495 4.206-.03 1.406.34 2.863 1.15 3.998.788 1.147 1.9 2.012 3.087 2.575.598.284 1.224.494 1.86.624.66.114 1.227.172 1.807.357 1.135.34 2.185.934 2.95 1.74.386.41.646.86.838 1.39.205.545.487 1.037.765 1.518a17.66 17.66 0 0 0 4.093 4.549c.748.566 1.516 1.07 2.354 1.317.83.244 1.63.31 2.378.325 1.494.023 2.78-.234 3.758-.624.983-.396 1.62-.992 1.88-1.485a1.67 1.67 0 0 0 .224-.589c.032-.138.044-.208.035-.2" class="E"/><g opacity=".3" clip-path="url(#Q)"><path d="M543.827 101.68c-5.547 14.556-5.726 31.2-2.322 46.4-.823-8.112.437-16.165 2.124-24.142 1.58-7.48 3.49-7.562 2.13-15.874-.185-1.133-.482-2.245-.862-3.33z"/></g><path d="M558.957 50.084L519.13 38.946c-2.307-.812-1.92-9.263 1.67-9.132 1.698.063 29.41-1.032 32.913-.813s12.924 3.942 12.924 3.942z" class="D"/><g class="C"><path d="M543.007 35.473c-.193-.026-.452 2-1.687 4.1-1.207 2.13-2.828 3.37-2.7 3.525.068.148 1.97-.932 3.263-3.205 1.316-2.26 1.294-4.447 1.133-4.43m3.994 1.81c-.187-.032-.576 1.777-1.596 3.777-1 2-2.222 3.4-2.085 3.532.106.126 1.602-1.126 2.658-3.244 1.07-2.107 1.186-4.055 1.023-4.065m3.743 1.003c-.192.012-.046 1.925-.896 4.046-.813 2.135-2.218 3.44-2.084 3.58.076.145 1.793-1.038 2.68-3.348.913-2.3.454-4.333.3-4.278"/><path d="M550.063 43.233c-.068-.018-.407 1.052-.4 2.85a13.37 13.37 0 0 0 .388 3.122 13.07 13.07 0 0 0 .569 1.777c.124.304.265.654.613.94.358.32 1.008.254 1.316-.065.35-.307.462-.737.51-1.083.04-.352.06-.68.05-1.012-.01-.66-.095-1.29-.237-1.874-.282-1.17-.74-2.15-1.178-2.927-.892-1.554-1.666-2.348-1.72-2.305-.087.06.555.953 1.32 2.515.377.78.77 1.74 1.005 2.846a8.39 8.39 0 0 1 .183 1.749c-.016.59-.008 1.324-.352 1.608-.183.15-.347.16-.506.042-.17-.13-.312-.392-.42-.67-.237-.573-.43-1.14-.58-1.7a15.35 15.35 0 0 1-.507-2.99l-.042-2.832"/><path d="M550.1 43.622c-.018.07.906.4 2.47.4a11.16 11.16 0 0 0 2.717-.333c.496-.133 1.028-.262 1.564-.577.524-.265 1.073-.994.865-1.75-.164-.712-.773-1.2-1.38-1.366-.6-.17-1.2-.1-1.717.005-1.05.24-1.87.758-2.488 1.223-1.227.962-1.826 1.7-1.78 1.753.067.08.792-.55 2.04-1.38.628-.402 1.413-.835 2.35-1.017.465-.1.966-.117 1.42.02.45.124.826.467.932.9.1.427-.15.82-.568 1.068-.4.254-.918.4-1.4.54a12.65 12.65 0 0 1-2.58.45c-1.498.105-2.437-.05-2.454.054m-12.978-8.55c-.2.022-.002 1.66-.755 3.454-.717 1.8-1.995 2.85-1.875 2.997.064.156 1.664-.75 2.47-2.755.826-1.995.315-3.763.16-3.696m26.717-1.766c.017-.04-.5-.287-1.48-.697-.984-.37-2.424-.892-4.26-1.32-3.662-.922-8.883-1.446-14.62-1.385s-10.9.324-14.66.474l-4.437.236c-1.047.07-1.625.13-1.624.172s.582.07 1.632.077l4.443-.032 14.65-.287c5.7-.06 10.867.388 14.514 1.187 3.66.753 5.798 1.694 5.843 1.576"/><path d="M564.972 32.423c-.052-.1-1.1.523-2.87 1.3-1.748.75-4.368 1.648-7.245 1.204-2.886-.44-4.93-2.38-6.263-3.726l-2.207-2.254c-.058.048.596 1.066 1.874 2.562.647.74 1.466 1.598 2.54 2.374 1.06.78 2.427 1.442 3.956 1.677 3.086.472 5.806-.56 7.537-1.426 1.757-.9 2.717-1.65 2.678-1.7m-38.412-1.657c-.07.047.257.553.56 1.447.304.885.538 2.198.28 3.6s-.946 2.543-1.547 3.26c-.6.728-1.087 1.084-1.04 1.152.03.052.602-.2 1.3-.904.706-.7 1.506-1.894 1.788-3.415s-.04-2.93-.45-3.827-.855-1.35-.9-1.313"/></g><path d="M566.517 89.64h0a1.24 1.24 0 0 0 1.223 1.238l35.56.45 14.042 43.53c.473 1.466 1.857 2.444 3.396 2.4l53.98-1.515a3.47 3.47 0 0 0 3.147-4.688l-16.956-44.98-93.185 2.33c-.672.016-1.207.565-1.207 1.237" class="E"/><path d="M646.276 112.894c-.632 1.17-3.306 1.562-4.59.592-.806-.484-1.44-1.242-1.672-2.152-.364-1.438.45-3.13 1.862-3.586 1.37-.442 2.895.31 3.793 1.432.83 1.04 1.24 2.544.608 3.714" fill="#fff"/></g><g clip-path="url(#R)"><path d="M58.2 319.558a6.73 6.73 0 0 0 .08.464l.286 1.35 1.147 5.187 4.317 19.074L78.757 409.8l.57-2.515 14.422-64.06L98.06 323.8l1.147-5.287.285-1.378.08-.473s-.054.154-.132.46l-.336 1.367-1.242 5.265-4.474 19.39L78.5 408.57h.508l-14.623-63.017-4.48-19.037-1.24-5.165-.336-1.34-.13-.452" class="C"/><path d="M58.19 300.83v15.83h42.232v-15.83c0-10.177-8.25-18.428-18.428-18.428h-5.376c-10.178 0-18.428 8.25-18.428 18.428" class="E"/><g class="C"><path d="M58.2 316.66c.015.01.18-.22.48-.665l1.288-1.96 4.654-7.26 15.297-24.232-.443-.004 14.732 24.192 4.5 7.293 1.25 1.97.465.668s-.115-.257-.376-.722l-1.165-2.02-4.37-7.38-14.82-24.633-.225.36-.107.17L64.3 306.58l-4.514 7.35-1.205 2.012-.4.72m25.317 92.164c0-2.547-2.065-4.612-4.612-4.612a4.61 4.61 0 1 0 0 9.224c2.546 0 4.612-2.065 4.612-4.612"/><path d="M78.886 487.317c.144 0 .26-17.766.26-39.676l-.26-39.68c-.144 0-.26 17.762-.26 39.68l.26 39.676m2.394-206.633a1.97 1.97 0 0 0-1.975-1.975c-1.09 0-1.974.885-1.974 1.975s.884 1.975 1.974 1.975 1.975-.885 1.975-1.975"/><path d="M78.43 279.946l.317.158c-1.152-.65-1.816-1.956-1.994-3.266s.06-2.64.338-3.932c.088-.412.304-.923.724-.897.378.022.557.472.62.846a8.25 8.25 0 0 1 .061 2.369c-.05-1.002.282-2.017.915-2.795.124-.15.3-.308.5-.257.18.047.26.253.306.433.174.662.274 1.343.297 2.028.103-.588.223-1.21.63-1.65s1.2-.567 1.573-.1c.25.312.223.756.168 1.15-.33 2.354-1.293 4.617-2.76 6.486"/></g><path d="M60.847 316.66s-18.973 21.872-16.865 22.663 18.973-11.33 18.973-11.33-14.493 32.412-11.595 34.783 18.183-28.723 18.183-28.723-2.372 45.325 0 45.852S80.61 334.58 80.61 334.58s12.912 41.9 16.6 41.9-3.953-40.318-3.953-40.318 15.284 25.825 17.656 22.4S100.11 327.2 100.11 327.2s19.236 16.074 20.027 13.966S99.32 316.66 99.32 316.66z" class="D"/><g class="C"><path d="M58.2 349.6c.13.06 3.497-7.156 7.516-16.113l7.042-16.328c-.13-.06-3.496 7.154-7.517 16.114S58.068 349.54 58.2 349.6m15.327-4.03c.144.01.703-6.35 1.25-14.202s.874-14.23.73-14.24-.703 6.347-1.25 14.203-.873 14.228-.73 14.238m21.143 20.298c.017-.005-.022-.182-.112-.514l-.416-1.44-1.587-5.28-4.968-17.5-4.408-17.645-1.255-5.368-.356-1.457c-.087-.332-.142-.505-.16-.5s.002.183.056.522l.26 1.478 1.094 5.407c.97 4.556 2.432 10.827 4.263 17.698a363.93 363.93 0 0 0 5.12 17.467l1.746 5.233.5 1.4c.122.32.194.487.2.48m9.153-23.363c.118-.083-3.585-5.604-8.27-12.332s-8.58-12.118-8.7-12.036 3.584 5.603 8.272 12.333 8.58 12.117 8.698 12.035"/><path d="M67.25 317.125c-.044-.053-.687.388-1.66 1.185s-2.27 1.96-3.6 3.334l-3.242 3.693c-.772.993-1.197 1.647-1.143 1.7.12.095 2.093-2.294 4.758-5.02l4.897-4.882m11.513 8.688c.144.013.445-2.007.673-4.5s.298-4.546.154-4.56-.444 2.007-.673 4.512-.297 4.545-.154 4.558"/></g><g fill="#fff"><path d="M100.42 306.797c.005-.036-.576-.154-1.632-.338l-4.488-.7c-3.796-.524-9.068-1.124-14.923-1.327-5.858-.196-11.17.125-14.976.626-1.903.246-3.437.496-4.486.72-1.05.215-1.628.35-1.62.386s.596-.033 1.655-.186c1.057-.163 2.594-.357 4.494-.555 3.8-.405 9.084-.666 14.916-.47 5.83.202 11.093.74 14.895 1.172l4.505.523c1.064.122 1.656.173 1.66.138m0-4.71c.005-.036-.576-.154-1.632-.338l-4.488-.688c-3.796-.525-9.068-1.125-14.923-1.328-5.858-.196-11.17.125-14.976.626-1.903.246-3.437.497-4.486.72-1.05.215-1.628.35-1.62.386s.596-.033 1.655-.186c1.057-.163 2.594-.357 4.494-.555 3.8-.405 9.084-.666 14.916-.47 5.83.202 11.093.742 14.895 1.172l4.505.523c1.064.123 1.656.174 1.66.138"/></g></g></g></g></svg>