<svg xmlns="http://www.w3.org/2000/svg" xmlns:xlink="http://www.w3.org/1999/xlink" height="300" width="600" xmlns:v="https://vecta.io/nano"><style><![CDATA[.B{fill:#007cff}.C{fill:#fff}.D{fill:#e1e1e1}.E{opacity:.3}.F{fill:#fe8a7b}.G{fill:#f5f5f5}.H{fill:#fafafa}.I{opacity:.2}.J{opacity:.7}.K{fill:#1a2e35}.L{fill:#e7e7e7}.M{fill:#f0f0f0}]]></style><defs><clipPath id="A"><path d="M0 500h500V0H0z"/></clipPath><clipPath id="B"><path d="M0 500h500V0H0z"/></clipPath><clipPath id="C"><path d="M71.188 405.278H415.54V189.522H71.188z"/></clipPath><clipPath id="D"><path d="M0 500h500V0H0z"/></clipPath><clipPath id="E"><path d="M0 500h500V0H0z"/></clipPath><clipPath id="F"><path d="M54.456 326.142h108.35v-108.35H54.456z"/></clipPath><clipPath id="G"><path d="M63.138 317.46h90.985v-90.985H63.138z"/></clipPath><clipPath id="H"><path d="M67.836 313.84h87.337v-87.338H67.836z"/></clipPath><clipPath id="I"><path d="M87.7 300.2h41.856v-56.506H87.7z"/></clipPath><clipPath id="J"><path d="M157.522 377.262h75.6v-75.61h-75.6z"/></clipPath><clipPath id="K"><path d="M163.58 371.203h63.494V307.71H163.58z"/></clipPath><clipPath id="L"><path d="M166.068 367.9h60.948v-60.948h-60.948z"/></clipPath><clipPath id="M"><path d="M180.56 359.116h29.545V319.84H180.56z"/></clipPath><clipPath id="N"><path d="M0 500h500V0H0z"/></clipPath><clipPath id="O"><path d="M102.257 111.027h1V99.74h-1z"/></clipPath><clipPath id="P"><path d="M0 500h500V0H0z"/></clipPath><clipPath id="Q"><path d="M396.743 200.475h1V185h-1z"/></clipPath><clipPath id="R"><path d="M396.743 176.888h1V168.5h-1z"/></clipPath><clipPath id="S"><path d="M105.757 267.562h288.486V86.215H105.757z"/></clipPath><clipPath id="T"><path d="M328.88 241.746h37.333v-37.333H328.88z"/></clipPath><clipPath id="U"><path d="M133.787 204.413h57.425V162.38h-57.425z"/></clipPath><clipPath id="V"><path d="M133.787 246.333H220.1v-9.175h-86.314z"/></clipPath><clipPath id="W"><path d="M133.787 141.524h48.153v-19.746h-48.153z"/></clipPath><clipPath id="X"><path d="M195.21 141.524h48.153v-19.746H195.21z"/></clipPath><clipPath id="Y"><path d="M256.635 141.524h48.153v-19.746h-48.153z"/></clipPath><clipPath id="Z"><path d="M318.06 141.524h48.153v-19.746H318.06z"/></clipPath><clipPath id="a"><path d="M0 500h500V0H0z"/></clipPath><clipPath id="b"><path d="M271.956 343.272h24.114v-31.43h-24.114z"/></clipPath><clipPath id="c"><path d="M279.635 337.7h16.433v-25.857h-16.433z"/></clipPath><clipPath id="d"><path d="M282.035 345.386h46.694v-66.384h-46.694z"/></clipPath><clipPath id="e"><path d="M273.98 279.002h58.853V101.485H273.98z"/></clipPath><clipPath id="f"><path d="M294.252 259.167H324.5V101.5h-30.238z"/></clipPath><clipPath id="g"><path d="M298.415 279.002h25.793V100.875h-25.793z"/></clipPath><clipPath id="h"><path d="M319.615 340.75h8.467v-33.43h-8.467z"/></clipPath><clipPath id="i"><path d="M318.792 116.292h14.64V100.92h-14.64z"/></clipPath><clipPath id="j"><path d="M305.667 106.028h16.194v-5.153h-16.194z"/></clipPath><clipPath id="k"><path d="M318.026 343.6h24.872v-33.783h-24.872z"/></clipPath><clipPath id="l"><path d="M300.563 340.646h5.895v-6.38h-5.895z"/></clipPath><clipPath id="m"><path d="M296.352 334.927h7.94v-46.72h-7.94z"/></clipPath><clipPath id="n"><path d="M303.556 347.292h13.838V334.54h-13.838z"/></clipPath><clipPath id="o"><path d="M296.85 346.14h6.705v-11.212h-6.705z"/></clipPath><path id="p" d="M415.356 374.875c4.792-74.556-85.193-155.02-150.066-176.03-62.515-20.246-187.515-12.692-193.9 75.114-2.4 33.005 16.673 69.013 44.926 86.198 45.437 27.637 81.065-9.237 125.854-15.163 35.585-4.71 63.152 11.152 89.844 32.828 22.246 18.065 79.747 52.98 83.34-2.946"/><path id="q" d="M161.406 284.144c6.725-29.147-11.452-58.228-40.6-64.953s-58.228 11.453-64.953 40.6 11.452 58.228 40.6 64.953 58.228-11.452 64.953-40.6"/><path id="r" d="M154.046 279.986c5.42-23.495-9.23-46.936-32.726-52.356s-46.936 9.23-52.357 32.725 9.23 46.936 32.726 52.357 46.936-9.23 52.357-32.726"/><path id="s" d="M126.612 276.138l2.848-12.344c.222-.962.053-1.88-.505-2.752a3.63 3.63 0 0 0-2.321-1.653l-10.86-2.505 2.005-8.696a3.49 3.49 0 0 0-.477-2.769c-.547-.857-1.302-1.395-2.264-1.616-1.017-.236-1.96-.09-2.826.442a3.48 3.48 0 0 0-1.643 2.279l-2.026 8.78-10.775-2.486c-.96-.222-1.876-.07-2.743.462a3.49 3.49 0 0 0-1.643 2.278 3.53 3.53 0 0 0 .458 2.765 3.52 3.52 0 0 0 2.284 1.621l25.196 5.814-1.184 5.133-25.11-5.795c-.99-.228-1.9-.083-2.76.436s-1.39 1.288-1.626 2.305L87.8 280.14c-.228 1-.076 1.91.457 2.764s1.294 1.393 2.285 1.62l10.7 2.467-2.007 8.696a3.63 3.63 0 0 0 .419 2.733c.502.86 1.318 1.42 2.45 1.68.96.222 1.87.067 2.722-.466s1.393-1.295 1.62-2.284l2.007-8.696 10.944 2.524c1 .23 1.927.073 2.81-.468s1.438-1.29 1.66-2.252a3.6 3.6 0 0 0-.491-2.817c-.554-.887-1.327-1.445-2.316-1.673l-25.198-5.814 1.175-5.1 25.112 5.794c1 .228 1.928.07 2.81-.47s1.438-1.292 1.66-2.253"/><path id="t" d="M231.988 330.26c-5.08-20.247-25.6-32.543-45.857-27.464s-32.543 25.6-27.464 45.857 25.6 32.543 45.857 27.464 32.543-25.6 27.464-45.857"/><path id="u" d="M226.093 330.014c-4.094-16.32-20.644-26.232-36.964-22.138s-26.232 20.643-22.138 36.964 20.643 26.232 36.964 22.138 26.232-20.643 22.138-36.964"/><path id="v" d="M207.825 336.336l-2.15-8.575a2.43 2.43 0 0 0-1.188-1.55c-.624-.365-1.28-.46-1.967-.29l-7.544 1.893-1.515-6.04c-.173-.688-.565-1.21-1.177-1.57s-1.25-.453-1.92-.286c-.707.178-1.247.568-1.617 1.173s-.47 1.25-.296 1.938l1.53 6.1-7.485 1.877c-.668.168-1.187.554-1.557 1.16a2.43 2.43 0 0 0-.297 1.937c.172.688.56 1.212 1.162 1.572a2.46 2.46 0 0 0 1.934.283l17.503-4.39.895 3.566-17.444 4.375a2.49 2.49 0 0 0-1.576 1.147c-.364.593-.457 1.243-.28 1.95l2.144 8.545a2.46 2.46 0 0 0 3.096 1.854l7.425-1.863 1.516 6.04c.167.668.543 1.2 1.128 1.565s1.27.464 2.056.267c.667-.167 1.182-.553 1.543-1.155s.455-1.247.282-1.933l-1.515-6.04 7.602-1.907a2.54 2.54 0 0 0 1.598-1.184c.378-.617.483-1.26.316-1.927a2.51 2.51 0 0 0-1.2-1.594c-.626-.376-1.283-.477-1.97-.305l-17.503 4.39-.887-3.536 17.444-4.376c.688-.172 1.22-.568 1.598-1.184s.483-1.26.316-1.927"/><path id="w" d="M379.19 86.215H120.808c-8.28 0-15.052 6.773-15.052 15.052V252.5c0 8.28 6.773 15.052 15.052 15.052H379.19c8.278 0 15.052-6.773 15.052-15.052V101.267c0-8.28-6.774-15.052-15.052-15.052"/><path id="x" d="M184.73 162.38h-44.457c-3.566 0-6.484 2.918-6.484 6.484v29.066c0 3.565 2.918 6.483 6.484 6.483h44.457c3.566 0 6.484-2.918 6.484-6.483v-29.066c0-3.566-2.918-6.484-6.484-6.484"/><path id="y" d="M215.514 237.158h-77.14c-2.523 0-4.587 2.064-4.587 4.588s2.064 4.587 4.587 4.587h77.14c2.523 0 4.588-2.065 4.588-4.587s-2.065-4.588-4.588-4.588"/><path id="z" d="M175.2 121.777h-34.692c-3.702 0-6.73 3.03-6.73 6.73v6.287a6.75 6.75 0 0 0 6.73 6.729H175.2a6.75 6.75 0 0 0 6.73-6.729v-6.287c0-3.7-3.028-6.73-6.73-6.73"/><path id="AA" d="M236.634 121.777h-34.692c-3.702 0-6.73 3.03-6.73 6.73v6.287a6.75 6.75 0 0 0 6.73 6.729h34.692a6.75 6.75 0 0 0 6.73-6.729v-6.287c0-3.7-3.028-6.73-6.73-6.73"/><path id="AB" d="M298.058 121.777h-34.692c-3.702 0-6.73 3.03-6.73 6.73v6.287c0 3.7 3.03 6.73 6.73 6.73h34.692a6.75 6.75 0 0 0 6.73-6.729v-6.287c0-3.7-3.028-6.73-6.73-6.73"/><path id="AC" d="M359.48 121.777H324.79c-3.702 0-6.73 3.03-6.73 6.73v6.287a6.75 6.75 0 0 0 6.73 6.729h34.692a6.75 6.75 0 0 0 6.73-6.729v-6.287c0-3.7-3.028-6.73-6.73-6.73"/><path id="AD" d="M295.8 338.007c2.27-6.633-11.066-26.166-11.066-26.166l-12.788 7.08s3.48 9.935 7.68 17.802c4.505 8.442 13.686 8.565 16.174 1.285"/><path id="AE" d="M287.183 343.08s-9.526-22.387-2.66-64.078h39.652c.485 6.087-2.3 35.78 4.556 64.46 0 0-6.75 1.364-13.216 1.677-5.06.244-12.388.405-16.856-.001-5.89-.536-11.475-2.058-11.475-2.058"/><path id="AF" d="M284.522 279.002s-7.8-54.058-10.476-83.485c-2.138-23.603 48.912-94.032 48.912-94.032l9.876 9.292s-37.29 63.11-34.418 89.4c2.78 25.453 12.205 78.835 12.205 78.835z"/><path id="AG" d="M298.62 279.002s-.706-56.656.497-77.88c1.316-23.244 7.9-100.246 7.9-100.246h13.578l.413 98.138 3.19 79.99z"/><path id="AH" d="M328.73 343.463c6.98-1.02 14.17-25.325 14.17-25.325l-15.02-8.32s-6.086 11.56-8.99 20.144c-3.04 8.994 2.356 14.596 9.84 13.502"/><path id="AI" d="M302.292 334.926s-5.693-23.568-5.917-28.468c-.307-6.736 2.514-18.25 2.514-18.25s4 9.57 4.82 18.458c.808 8.76.21 23.27.584 28.26z"/><path id="AJ" d="M303.556 340.646c1.826-2.674 1.928-6.107 1.928-6.107s12.473 4.4 11.9 10.847l-2.894 1.906c0 0-.424-4.064-10.924-6.646"/><path id="AK" d="M303.556 340.646c-1.826-2.674-2.433-5.72-2.433-5.72s-5.65 3.824-3.954 10.198a21.18 21.18 0 0 0 3.194 1.015s-.742-4.114 3.193-5.493"/></defs><g transform="matrix(1.333333 0 0 -1.333333 0 666.66667)"><path d="M125.046 329.962l215.663.107H125.046zm148.058-4.57h14.84v.108h-14.84zM164.6 325.34h8.35v.108h-8.35zm51.783.252h16.925v.108h-16.925zm-7.997 1.534h7.566v.108h-7.566zm76.927-.054h22.854v.108h-22.854z" class="L"/><g transform="matrix(.431325 0 0 .431325 125.04555 279.34462)"><g clip-path="url(#A)"><g class="L"><path d="M43.915 444.797c-3 0-5.458-2.448-5.458-5.458V167.91c0-3 2.448-5.458 5.458-5.458h193.1c3.008 0 5.457 2.448 5.457 5.458v271.43c0 3-2.45 5.458-5.457 5.458zm193.1-282.597h-193.1c-3.147 0-5.708 2.56-5.708 5.708v271.43c0 3.147 2.56 5.708 5.708 5.708h193.1c3.146 0 5.707-2.56 5.707-5.708v-271.43c0-3.148-2.56-5.708-5.707-5.708m23.197 282.597c-3 0-5.457-2.448-5.457-5.458V167.91a5.47 5.47 0 0 1 5.457-5.458h193.1c3 0 5.458 2.448 5.458 5.458v271.43c0 3-2.45 5.458-5.458 5.458zM453.3 162.2H260.2c-3.146 0-5.707 2.56-5.707 5.708v271.43c0 3.147 2.56 5.708 5.707 5.708h193.1c3.147 0 5.708-2.56 5.708-5.708v-271.43c0-3.148-2.56-5.708-5.708-5.708"/></g><path d="M423.03 267.573H286.75V426.37h136.28z" class="D"/><path d="M426.734 267.573H288.48V426.37h138.254z" class="G"/><path d="M423.03 258.675H286.75v8.897h136.28z" class="D"/><path d="M443.667 258.675H313.52v8.897h130.148z" class="G"/><path d="M293.666 419.633H421.55V274.308H293.666z" class="H"/><g class="C"><path d="M312.065 274.308L342.5 419.633h39.896L351.96 274.308zm46.355 0l30.435 145.325h18.018l-30.435-145.325z"/></g><g class="D"><path d="M282.858 426.598V370.06h14.96s26.877 17.532 32.984 53.595c.62 3.662-2.183 7.013-5.898 7.013H286.93a4.07 4.07 0 0 1-4.07-4.071m-.001-147.17v86.07h14.96s8.6-17.374 17.176-37.357c9.894-23.054-7.048-48.712-32.135-48.712"/></g><path d="M297.377 365.497h-13.97a1.5 1.5 0 0 0-1.498 1.499v1.567a1.5 1.5 0 0 0 1.498 1.498h13.97a1.5 1.5 0 0 0 1.499-1.498v-1.567a1.5 1.5 0 0 0-1.499-1.499" class="G"/><g class="D"><path d="M430.97 426.598V370.06H416s-26.877 17.532-32.984 53.595c-.62 3.662 2.183 7.013 5.898 7.013H426.9a4.07 4.07 0 0 0 4.07-4.071m.13-147.184v86.07h-14.958s-8.6-17.374-17.177-37.357c-9.893-23.054 7.048-48.712 32.135-48.712"/></g><path d="M416.45 365.497h13.97a1.5 1.5 0 0 1 1.498 1.499v1.567a1.5 1.5 0 0 1-1.498 1.498h-13.97a1.5 1.5 0 0 1-1.498-1.498v-1.567a1.5 1.5 0 0 1 1.498-1.499" class="G"/><path d="M200.89 290.692h-60.03v65.713h60.03z" class="D"/><path d="M209.326 290.692h-65.22v65.713h65.22z" class="H"/><path d="M150.833 349.68H202.6v-52.26h-51.767z" class="C"/><path d="M162.984 323.548h0c0 6.816 5.525 12.342 12.34 12.342h2.782c6.816 0 12.34-5.526 12.34-12.342s-5.525-12.34-12.34-12.34h-2.782c-6.816 0-12.34 5.525-12.34 12.34" class="G"/><path d="M92.245 340.73c-17.387 0-31.482 14.095-31.482 31.482s14.095 31.483 31.482 31.483h5.684V340.73z" class="D"/><path d="M129.41 372.21c0-17.387-14.095-31.482-31.482-31.482s-31.483 14.095-31.483 31.482 14.095 31.482 31.483 31.482 31.482-14.095 31.482-31.482" class="H"/><path d="M121.666 372.21c0-13.11-10.627-23.737-23.737-23.737s-23.737 10.628-23.737 23.737 10.628 23.737 23.737 23.737 23.737-10.628 23.737-23.737" class="C"/><g class="D"><path d="M107.708 363.333l-11.655 8.13 3.694 17.984 3.303-.678-3.246-15.8 9.834-6.86zM352.343 114.06h-42.9v115.938h42.9z"/></g><path d="M340.885 114.06h11.458v19.202H328.87z" class="H"/><path d="M95.086 114.06h-42.9v115.938h42.9z" class="D"/><g class="H"><path d="M352.343 120.668H85.087v109.328h267.256z"/><path d="M96.545 114.06H85.087v19.202h23.472z"/></g><g class="M"><path d="M343.454 180.353H93.975v40.243h249.48zm0-49.963H93.975v40.243h249.48z"/></g><path d="M306.873 180.353H93.976v40.243h212.897z" class="D"/><path d="M159.543 215.167H146.6s2.25-7.765 2.25-12.334-9.852-22.48 4.227-22.48 4.228 17.91 4.228 22.48 2.25 12.334 2.25 12.334" class="H"/><path d="M108.56 201.667v-7.07c0-7.834 7.577-14.243 16.837-14.243h8.358c9.26 0 16.836 6.41 16.836 14.243v7.07z" class="M"/><path d="M306.873 130.39H93.976v40.243h212.897z" class="D"/><path d="M213.544 131.114h19.942v33.214h-19.942z" class="C"/><path d="M230.383 130.596h1.355V163.8h-1.355z" class="L"/><path d="M231.843 130.343h3.48c.266 0 .482.216.482.482v32.756c0 .267-.216.483-.482.483h-3.48c-.266 0-.482-.216-.482-.483v-32.756c0-.266.216-.482.482-.482" fill="#ececec"/><g class="C"><path d="M231.36 148.484h4.443v7.88h-4.443zm0-7.287h4.443v4.858h-4.443z"/></g><path d="M212.538 130.343H230.5c.266 0 .482.216.482.482v32.756c0 .267-.216.483-.482.483h-17.963c-.266 0-.482-.216-.482-.483v-32.756c0-.266.216-.482.482-.482" fill="#ececec"/><path d="M203.827 131.194h22v36.64h-22z" class="C"/><path d="M222.403 130.622h1.495v36.64h-1.495z" class="L"/><path d="M224.014 130.343h3.837a.53.53 0 0 1 .532.532v36.134a.53.53 0 0 1-.532.532h-3.837a.53.53 0 0 1-.532-.532v-36.134a.53.53 0 0 1 .532-.532" class="M"/><g class="C"><path d="M223.482 154.424h4.9v1.267h-4.9zm0-3.674h4.9v1.266h-4.9zm0-3.673h4.9v1.267h-4.9z"/></g><path d="M202.717 130.343h19.816a.53.53 0 0 1 .532.532v36.134a.53.53 0 0 1-.532.532h-19.816a.53.53 0 0 1-.532-.532v-36.134a.53.53 0 0 1 .532-.532" class="M"/><g class="H"><path d="M176.718 143.106a5.64 5.64 0 0 0-5.636-5.636 5.64 5.64 0 0 0-5.636 5.636 5.64 5.64 0 0 0 5.636 5.636 5.64 5.64 0 0 0 5.636-5.636"/><path d="M167.107 140.42c0-2.434-1.973-4.406-4.406-4.406s-4.406 1.972-4.406 4.406 1.973 4.405 4.406 4.405 4.406-1.972 4.406-4.405m19.258 0a5.64 5.64 0 0 0-5.636-5.637 5.64 5.64 0 0 0-5.636 5.637 5.64 5.64 0 0 0 5.636 5.636 5.64 5.64 0 0 0 5.636-5.636"/><path d="M195.608 142.074a5.64 5.64 0 0 0-5.636-5.636 5.64 5.64 0 0 0-5.636 5.636 5.64 5.64 0 0 0 5.636 5.637 5.64 5.64 0 0 0 5.636-5.637"/></g><path d="M147.18 141.34s.774-10.996 30.44-10.996 30.44 10.996 30.44 10.996z" class="G"/><path d="M230.383 191.35s1.227-10.996 48.243-10.996 48.243 10.996 48.243 10.996z" class="C"/></g><g clip-path="url(#B)"><use xlink:href="#p" class="B"/><g opacity=".8" clip-path="url(#C)" class="C"><use xlink:href="#p"/></g></g><g clip-path="url(#D)" class="G"><path d="M443.89 83.762c0-6.254-86.807-11.323-193.89-11.323S56.112 77.508 56.112 83.762 142.918 95.085 250 95.085s193.89-5.07 193.89-11.323"/></g><g clip-path="url(#E)"><use xlink:href="#q" class="B"/><g opacity=".4" clip-path="url(#F)"><use xlink:href="#q"/></g><g clip-path="url(#G)" class="I"><path d="M152.95 282.193c5.647-24.477-9.617-48.896-34.093-54.543s-48.896 9.616-54.543 34.092 9.616 48.896 34.093 54.543 48.896-9.616 54.543-34.092"/></g><use xlink:href="#r" class="B"/><g opacity=".4" clip-path="url(#H)"><use xlink:href="#r"/></g><use xlink:href="#s" class="B"/><g clip-path="url(#I)" class="J C"><use xlink:href="#s"/></g><use xlink:href="#t" class="B"/><g opacity=".4" clip-path="url(#J)"><use xlink:href="#t"/></g><g clip-path="url(#K)" class="I"><path d="M226.112 331.733c-4.265-17.002-21.506-27.328-38.508-23.062s-27.328 21.505-23.063 38.507 21.506 27.328 38.51 23.063 27.327-21.506 23.062-38.508"/></g><use xlink:href="#u" class="B"/><g opacity=".4" clip-path="url(#L)"><use xlink:href="#u"/></g><use xlink:href="#v" class="B"/><g clip-path="url(#M)" class="J C"><use xlink:href="#v"/></g></g></g><path d="M169.152 322.365h.43v4.87h-.43z" class="B"/><g clip-path="url(#N)" transform="matrix(.431325 0 0 .431325 125.04555 279.34462)"><g opacity=".1" clip-path="url(#O)"><path d="M103.257 99.74h-1v11.288h1z"/></g></g><path d="M296.17 359.14h.43v6.675h-.43zm0-7.117h.43v3.618h-.43z" class="B"/><g transform="matrix(.431325 0 0 .431325 125.04555 279.34462)"><g clip-path="url(#P)"><g opacity=".1" clip-path="url(#Q)"><path d="M397.743 185h-1v15.475h1z"/></g><g opacity=".1" clip-path="url(#R)"><path d="M397.743 168.5h-1v8.388h1z"/></g><use xlink:href="#w" class="B"/><g clip-path="url(#S)" class="I"><use xlink:href="#w"/></g><g clip-path="url(#T)" class="I"><path d="M328.88 223.08a18.67 18.67 0 0 1 18.666-18.667 18.67 18.67 0 0 1 18.667 18.667 18.67 18.67 0 0 1-18.667 18.666 18.67 18.67 0 0 1-18.666-18.666"/></g><g class="B"><path d="M304.788 223.08a18.67 18.67 0 0 1 18.666-18.667 18.67 18.67 0 0 1 18.666 18.667 18.67 18.67 0 0 1-18.666 18.666 18.67 18.67 0 0 1-18.666-18.666"/><use xlink:href="#x"/></g><g clip-path="url(#U)" class="E C"><use xlink:href="#x"/></g><use xlink:href="#y" class="B"/><g clip-path="url(#V)" class="E C"><use xlink:href="#y"/></g><use xlink:href="#z" class="B"/><g clip-path="url(#W)" class="E C"><use xlink:href="#z"/></g><use xlink:href="#AA" class="B"/><g clip-path="url(#X)" class="E C"><use xlink:href="#AA"/></g><use xlink:href="#AB" class="B"/><g clip-path="url(#Y)" class="E C"><use xlink:href="#AB"/></g><use xlink:href="#AC" class="B"/><g clip-path="url(#Z)" class="E C"><use xlink:href="#AC"/></g></g><g clip-path="url(#a)"><path d="M293 333.18c-2.37-6.7-4.957-13.162-7.79-19.635-2.878-6.452-5.885-12.837-9.705-19.14-.482-.79-1.02-1.58-1.53-2.37l-.387-.59-.535-.727c-.353-.456-.692-.863-1.03-1.248-1.337-1.52-2.67-2.774-4.007-4.014-2.665-2.465-5.39-4.71-8.14-6.913a246.44 246.44 0 0 0-17.01-12.379l-3.492 4.334 14.768 14.497c2.43 2.41 4.833 4.842 7.086 7.27 1.115 1.21 2.195 2.456 3.083 3.597.215.28.412.557.573.798l.214.338.295.516 1.177 2.075c3.06 5.752 5.757 12.045 8.355 18.334l7.504 19.07z" class="F"/><use xlink:href="#AD" class="B"/><g clip-path="url(#b)" class="J C"><use xlink:href="#AD"/></g><g clip-path="url(#c)" class="E B"><path d="M296.004 337.17c-2.86 1.376-6.158.225-9.62-5.253-3.42-5.423-6.424-14.636-6.747-17.247l5.11-2.827s12.313 18.036 11.26 25.327"/></g><use xlink:href="#AE" class="B"/><g clip-path="url(#d)" class="J C"><use xlink:href="#AE"/></g><g class="F"><path d="M338.215 101.373l-5.878-5.26-11.184 11.648 5.878 5.258zm-20.13-10.948h-7.413l-.963 17.168h7.413z"/></g><g fill="#e87064"><path d="M321.158 107.76l5.764-6.004 5.88 5.26-5.764 6.005zm-4.034-.172h-7.416l.5-8.85h7.416z"/></g><use xlink:href="#AF" class="B"/><g clip-path="url(#e)" class="J"><use xlink:href="#AF"/></g><g clip-path="url(#f)" class="I"><path d="M298.42 200.17c1.43 13.1 4.63 33.65 7.38 50.47-1.44 2.82-5.478 8.527-5.478 8.527-3.62-12.51-11.49-59.667-.26-123.356 11.7-18.86 22.9-34.32 22.9-34.32l1.53 24.32c-10.8 20.34-28.06 56.17-26.07 74.36"/></g><use xlink:href="#AG" class="B"/><g clip-path="url(#g)" class="J"><use xlink:href="#AG"/></g><g class="K"><path d="M310.283 91.283h8.33a.53.53 0 0 0 .549-.507l.404-6.6c.042-.682-.6-1.33-1.298-1.318l-7.947.22c-2.254 0-11.834-.234-14.945-.234-3.044 0-3.023 3.076-1.704 3.356 5.913 1.25 13.242 2.972 15.335 4.616.378.297.834.456 1.277.456"/><path d="M330.716 98.225l7.146 4.81c.267.18.607.17.817-.024l5.46-5.512c.485-.447.326-1.216-.263-1.67-4.557-3.5-7.85-6.16-10.445-9.08-3.033-3.413-4.625-3.894-11.625-3.894-3.238 0-5.07 2.726-3.75 3.144 11.666 3.695 8.547 5.3 11.38 10.71.307.588.714 1.136 1.278 1.516"/></g><g class="F"><path d="M241.11 271.444l-7.73-.278 1.62-6.055s8.083-.716 8.803 1.718z"/><path d="M225.042 267.562l5.416-3.167 4.542.716-1.618 6.055z"/></g><g clip-path="url(#h)" class="E B"><path d="M319.87 336.382c-.823-4.72.273-16.014 4.315-29.063.363 10.043 1.372 21.688 3.895 33.29l.002.056c-2.604.267-7.426.14-8.212-4.284"/></g><path d="M314.502 364.12c-1.25-5.424-2.657-15.36 1.012-18.98 0 0-1.583-4.493-11.66-4.493-11.08 0-5.196 4.492-5.196 4.492 6.1 1.444 6.098 5.932 5.19 10.146z" class="F"/><path d="M303.556 340.646l-2.993-3.2 1.466-3.075 2.386-.115 2.043 2.94z" class="B"/><path d="M310.158 360.514l-6.306-5.226c.22-.997.38-2.008.416-2.99 2.323.333 5.584 2.87 5.913 5.29.164 1.206.155 2.366-.023 2.928" fill="#e87064"/><path d="M301.354 382.502c-3.797-1.3-6.82-11.338-2.404-13.993s9.597 16.437 2.404 13.993" class="K"/><path d="M316.872 369.802c-2.26-7.023-3.223-11.236-7.78-14.097-6.855-4.305-14.877.893-14.774 8.375.093 6.734 3.772 17.088 11.518 18.385 7.632 1.277 13.294-5.64 11.035-12.663" class="F"/><g class="K"><path d="M322.466 381.496c-2.254-5.454 3-.898 1.648-7.37-.888-4.225-8.5-14.336-11.444-13.412s-2.907 8.083.845 13.155c2.152 2.9-2.52 6.2-13.018 5.865s-16.83 5.545-2.885 9.88c0 0-5.14-2.973-2.088-4.056 4.325-1.536 31.463 6.88 26.942-4.06"/><path d="M320.466 378.97c-.103.048 2.352.613 3.66 4.96 0 0-.423-6.468-3.66-4.96m-19.623 9.67c-6.45-2.04-3.78-4.25-1.113-4.805l6.117 2.395c-9.292-1.178-5.004 2.4-5.004 2.4"/></g><path d="M318.107 361.246c-1.436-1.414-3.38-2.063-5.022-2.063-2.47.002-2.967 2.338-1.664 4.293 1.174 1.76 3.874 3.88 6.056 2.937 2.15-.928 2.272-3.55.63-5.167" class="F"/><g class="K"><path d="M305.482 370.193c-.148-.58-.578-.982-.96-.898s-.57.62-.423 1.2.577.982.96.9.57-.62.424-1.2m-6.603 1.443c-.147-.58-.577-.982-.96-.898s-.57.62-.423 1.2.577.982.96.898.57-.62.423-1.2"/></g><path d="M300.905 370.9s-2.183-3.054-4.058-4.348c.79-1.183 2.66-1.13 2.66-1.13z" fill="#fe5652"/><g class="K"><path d="M302.03 363.303a5.72 5.72 0 0 0-1.225.135c-.094.02-.155.115-.134.2s.117.156.2.134c2.57-.56 4.22.958 4.238.972.072.066.183.063.248-.008s.062-.18-.008-.248c-.06-.057-1.3-1.194-3.328-1.194m6.07 8.556a.35.35 0 0 0-.322.211c-.605 1.392-1.85 1.6-1.902 1.6-.2.03-.322.208-.294.4a.35.35 0 0 0 .398.296c.068-.01 1.678-.265 2.442-2.025.077-.178-.005-.385-.182-.462-.045-.02-.093-.03-.14-.03m-11.45 2.66a.35.35 0 0 0-.27.576c1.257 1.505 2.872 1.376 2.943 1.37a.351.351 0 1 0-.063-.699c-.062.004-1.33.088-2.34-1.122a.35.35 0 0 0-.27-.126"/></g><path d="M330.646 338.347l2.095-3.436 1.906-3.436 3.428-7.088c2.087-4.845 3.908-9.874 4.957-15.346l.1-.51.052-.255.07-.417c.097-.608.12-1.157.127-1.692-.006-1.05-.13-1.97-.303-2.818-.363-1.688-.89-3.115-1.46-4.456-1.14-2.675-2.552-4.98-3.994-7.214-2.956-4.43-6.22-8.37-9.88-12.128l-4.387 3.427c2.427 4.225 4.834 8.6 6.855 12.894 1.02 2.137 1.904 4.316 2.535 6.342.307 1.008.522 1.99.587 2.78.035.39.035.724.002.93-.02.1-.037.17-.057.18-.008.018.003-.024-.017.045l-.06.203-.118.405c-.578 2.153-1.414 4.334-2.25 6.504-.88 2.167-1.865 4.328-2.89 6.477-1.046 2.144-2.148 4.276-3.284 6.393-.564 1.06-1.145 2.113-1.74 3.153l-1.757 3.034z" class="F"/><g class="C"><path d="M306.8 91.52c-.082 0-.153-.01-.214-.034s-.152-.076-.19-.24c-.06-.273-.02-.474.122-.615.343-.34 1.315-.383 2.638-.122-.752.478-1.787 1.01-2.357 1.01m.865-1.53c-.576 0-1.098.098-1.393.39-.233.23-.306.547-.217.94.053.24.192.41.403.49.916.358 3.008-1.08 3.244-1.243a.18.18 0 0 0 .073-.178c-.014-.068-.066-.122-.133-.138-.533-.124-1.292-.264-1.977-.264"/><path d="M308.578 93.255a.56.56 0 0 1-.08-.006c-.25-.03-.306-.148-.327-.25-.112-.527.62-1.697 1.262-2.243.02.704-.04 1.918-.485 2.347-.105.1-.227.15-.37.15m1.014-3.006c-.032 0-.063.01-.1.026-.74.44-1.846 2-1.675 2.798.064.297.287.484.63.526a.87.87 0 0 0 .734-.242c.75-.723.583-2.856.575-2.947a.17.17 0 0 0-.094-.14c-.026-.013-.053-.02-.08-.02m18.46 5.41c-1.236 0-2.52-.114-2.813-.468a.18.18 0 0 1-.04-.182c.05-.2.157-.317.326-.387.558-.232 1.816.147 3.4 1.018l-.882.02m-2.127-1.454a1.39 1.39 0 0 0-.536.093.88.88 0 0 0-.53.62c-.048.18-.01.353.1.497.67.807 4.185.57 4.583.54.077-.006.14-.06.158-.135s-.015-.152-.082-.2c-.973-.572-2.612-1.425-3.702-1.425"/><path d="M327.216 97.673c-.16 0-.32-.035-.486-.113-.214-.103-.31-.207-.288-.313.1-.47 1.713-1.13 2.777-1.266-.316.543-1.093 1.692-2.003 1.692m2.313-2.07h-.004c-1.023.023-3.254.765-3.427 1.57-.042.195.008.476.48.702 1.724.816 3.053-1.904 3.11-2.02.026-.055.022-.12-.01-.17s-.088-.08-.147-.08"/></g><g class="F"><path d="M325.34 284.62l-7.382 1.286 3.79-8.544s6.738.04 6.43 3.512z"/><path d="M312.45 281.613l3.468-6.903 5.828 2.653-3.79 8.544z"/></g><path d="M333.434 111.343l-11.076-10.423-3.566 3.83 12.666 11.542z" class="B"/><g opacity=".6" clip-path="url(#i)" class="C"><path d="M333.434 111.343l-11.076-10.423-3.566 3.83 12.666 11.542z"/></g><path d="M321.153 100.875H306.48l-.813 5.152 16.194-.804z" class="B"/><g opacity=".6" clip-path="url(#j)" class="C"><path d="M321.153 100.875H306.48l-.813 5.152 16.194-.804z"/></g><use xlink:href="#AH" class="B"/><g clip-path="url(#k)" class="J C"><use xlink:href="#AH"/></g><g clip-path="url(#l)" class="I"><path d="M303.556 340.646l-2.993-3.2 1.466-3.075 2.386-.115 2.043 2.94z"/></g><use xlink:href="#AI" class="B"/><g clip-path="url(#m)" class="I"><use xlink:href="#AI"/></g><use xlink:href="#AJ" class="B"/><g opacity=".6" clip-path="url(#n)" class="C"><use xlink:href="#AJ"/></g><use xlink:href="#AK" class="B"/><g opacity=".6" clip-path="url(#o)" class="C"><use xlink:href="#AK"/></g></g></g></g></svg>