<svg xmlns="http://www.w3.org/2000/svg" width="600" viewBox="0 0 75 37.5" height="300" xmlns:v="https://vecta.io/nano"><path fill="#f82f45" d="M38.376 33.697c-7.033-2.68-12.222-8.75-13.772-16.115l-1.81-8.603.777-.07a22.12 22.12 0 0 0 9.533-3.155l5.274-3.223 5.274 3.222a22.12 22.12 0 0 0 9.533 3.155l.777.07-1.81 8.603c-1.55 7.364-6.74 13.436-13.772 16.115z"/><path fill="#d22435" d="M52.15 17.582l1.81-8.603-.777-.07a22.12 22.12 0 0 1-9.533-3.155L38.376 2.53v31.166c7.033-2.68 12.222-8.75 13.772-16.115z"/><path fill="#4bbee5" d="M44.287 18.114H32.466c-.594 0-1.075-.48-1.075-1.075V10.59c0-.594.48-1.075 1.075-1.075h11.822c.594 0 1.075.48 1.075 1.075v6.448c0 .594-.48 1.075-1.075 1.075z"/><path fill="#3c7eb0" d="M31.39 11.665h13.97v2.15H31.39z"/><path fill="#fda22e" d="M34.615 20.8h7.523v6.448h-7.523z"/><path d="M22.744 8.443c-.153.014-.292.092-.383.216s-.125.28-.093.43l1.8 8.603c1.595 7.58 6.87 13.75 14.107 16.507a.53.53 0 0 0 .191.035c.065 0 .13-.01.2-.035a22.57 22.57 0 0 0 14.107-16.507l1.8-8.603c.032-.15-.002-.306-.093-.43s-.23-.202-.383-.216l-.777-.07c-3.275-.298-6.5-1.373-9.3-3.08L38.658 2.07a.54.54 0 0 0-.56 0l-5.274 3.222a21.7 21.7 0 0 1-9.302 3.078zm10.64-2.232l4.993-3.052L43.37 6.21a22.79 22.79 0 0 0 9.764 3.232l.176.016-1.687 8.012c-1.506 7.152-6.45 12.988-13.246 15.65a21.49 21.49 0 0 1-13.246-15.65l-1.688-8.01.175-.016c3.44-.313 6.817-1.43 9.765-3.232zm-.918 12.44H35.7v1.612h-1.075c-.297 0-.537.24-.537.537v6.448c0 .297.24.537.537.537h7.523c.297 0 .537-.24.537-.537V20.8c0-.297-.24-.537-.537-.537h-1.075V18.65h3.224c.9 0 1.612-.723 1.612-1.612V10.6c0-.9-.723-1.612-1.612-1.612h-11.83c-.9 0-1.612.723-1.612 1.612v6.448c0 .9.723 1.612 1.612 1.612zM41.6 26.7h-6.448v-5.374H41.6zm-1.612-6.448h-3.224V18.65h3.224zm4.3-2.687h-7.424a1.61 1.61 0 0 1 1.513-1.075v-1.075a2.69 2.69 0 0 0-2.632 2.15h-3.278a.54.54 0 0 1-.537-.537V14.35h12.896v2.687a.54.54 0 0 1-.537.537zm-12.36-4.3V12.2h12.896v1.075zm.537-3.224h11.822a.54.54 0 0 1 .537.537v.537H31.928v-.537a.54.54 0 0 1 .537-.537zm5.374 15.585h1.075v-2.15h.537V22.41h-2.15v1.075h.537zm5.9-3.76h1.075v1.075H43.75zm2.15 0h1.075v1.075H45.9zm0-2.15h1.075V20.8H45.9zm0 4.298h1.075V25.1H45.9zm-13.972-2.15h1.075v1.075h-1.075zm-2.148 0h1.075v1.075H29.78zm0-2.15h1.075V20.8H29.78zm0 4.298h1.075V25.1H29.78z" fill="#171526"/></svg>