<svg xmlns="http://www.w3.org/2000/svg" xmlns:xlink="http://www.w3.org/1999/xlink" height="300" width="600" xmlns:v="https://vecta.io/nano"><style><![CDATA[.B{fill:#e8505b}.C{fill:#263238}.D{fill:#fff}.E{fill:#ebebeb}.F{fill:#f5f5f5}.G{fill:#e0e0e0}.H{fill:#455a64}]]></style><defs><clipPath id="A"><path d="M0 500h500V0H0z"/></clipPath><clipPath id="B"><path d="M0 500h500V0H0z"/></clipPath><clipPath id="C"><path d="M0 500h500V0H0z"/></clipPath><clipPath id="D"><path d="M0 500h500V0H0z"/></clipPath><clipPath id="E"><path d="M0 500h500V0H0z"/></clipPath><clipPath id="F"><path d="M0 500h500V0H0z"/></clipPath><clipPath id="G"><path d="M246.725 277.632h92.134v-88.198h-92.134z"/></clipPath><clipPath id="H"><path d="M99.503 375.232H173.1V227.98H99.503z"/></clipPath><clipPath id="I"><path d="M326.99 221.135h9.88v-17.31h-9.88z"/></clipPath><clipPath id="J"><path d="M119.877 351.467h59.803V228.422h-59.803z"/></clipPath><clipPath id="K"><path d="M218.693 184.616h46.366v-42.674h-46.366z"/></clipPath><path id="L" d="M336.52 222.845L324.662 200.3c-5.03-9.567-16.67-13.52-26.49-8.998l-51.448 17.926 29.963 68.404L328.1 250.24c9.867-5.26 13.634-17.498 8.43-27.394"/><path id="M" d="M120.2 308.876c-18.274-40.46-25.88-76.515-17-80.53s30.9 25.53 49.184 65.99 25.88 76.515 16.99 80.53-30.91-25.53-49.185-66"/><path id="N" d="M292.372 467.353l.468-.856.856-.468-.856-.468-.468-.856-.468.856-.856.468.856.468z"/></defs><g transform="matrix(1.333333 0 0 -1.333333 0 666.66667)"><g transform="matrix(.414586 0 0 .414586 123.78869 280.72447)"><g clip-path="url(#A)"><path d="M136.306 373.63h0c-18.92 0-34.26 15.338-34.26 34.26s15.338 34.26 34.26 34.26 34.26-15.34 34.26-34.26-15.338-34.26-34.26-34.26" class="E"/><g class="D"><path d="M120.772 392.62h7.1v22.906h-7.1zm3.51 25.905c2.316 0 4.193 1.894 4.193 4.228s-1.877 4.226-4.193 4.226-4.193-1.893-4.193-4.226 1.877-4.228 4.193-4.228m14.913-13.882c0 3.22 1.48 5.14 4.32 5.14 2.607 0 3.86-1.842 3.86-5.14V392.62h7.057v14.503c0 6.135-3.478 9.102-8.334 9.102s-6.903-3.785-6.903-3.785v3.086h-6.802V392.62h6.802z"/></g><path d="M182.22 476.114l4.69-8.578 8.578-4.69-8.578-4.69-4.69-8.578-4.69 8.578-8.578 4.69 8.578 4.69z" class="F"/><path d="M377.87 243.727l3.518-6.434 6.433-3.517-6.433-3.52-3.518-6.433-3.52 6.433-6.433 3.52 6.433 3.517z" class="E"/><g class="G"><path d="M387.822 275.492l1.588-2.902 2.902-1.588-2.902-1.588-1.588-2.902-1.587 2.902-2.903 1.588 2.903 1.588zM148.714 472.887l1.587-2.902 2.903-1.588-2.903-1.587-1.587-2.903-1.587 2.903-2.903 1.587 2.903 1.588zm-79.58-269.645c3.58 1.557 6.1 5.3 6.055 9.674-.05 5.73-4.446 10.338-9.82 10.293s-9.684-4.726-9.633-10.454c.038-4.414 2.665-8.137 6.322-9.604C47.12 200.702 48 184.444 48 184.444l35.394.295s.595 16.455-14.27 18.503"/></g><path d="M408.635 96.062c-.5 2.547-3.013 4.538-5.605 4.444-2.57-.092-4.91-2.222-5.26-4.767-.372 2.542-2.73 4.65-5.3 4.72-2.595.07-5.09-1.942-5.566-4.493-.35-1.857.288-3.79 1.334-5.365s2.473-2.85 3.885-4.106l5.784-5.175 5.593 5.225c1.4 1.27 2.818 2.557 3.85 4.14s1.65 3.523 1.287 5.377" class="E"/><g class="G"><path d="M431.687 306.85l3.793.752 6 13.176-1.5 7.57s5.8 1.523 7.067-8.527 1.522-7.378 1.522-7.378 12.457 2.42 13.705 1.544c.908-.636 3.7-12.933 5.16-19.613.735-3.363-.714-6.913-3.694-8.334-.424-.202-.86-.358-1.305-.445-3.103-.616-19.466-1.238-19.466-1.238l-6.552-1.3zm-11.267-.075l7.477-25.478 6.495 1.3-5.04 25.418z"/></g></g><g clip-path="url(#B)" class="F"><path d="M469.896 313.823c-2.6 27.477-8.956 52.63-22.483 73.468s-39.62 31.82-63.713 37.88-44.24.342-61.718-17.316c-18.298-18.488-23.864-46.938-28.96-72.446s-15.047-58.566-35.764-74.296c-23.6-17.926-60.702-8.237-90.006-3.76s-61.753 8.8-86.458-7.594c-20.264-13.44-30.5-38.992-29.277-63.275s8.728-46.736 20.95-67.755c16.84-28.964 66.47-64.172 99.892-53.48l144.125 8.12c27.168 12.468 20.956-6.767 65.342 19.05 25.84 15.03 65.68 69.46 77.4 106.905 10.273 32.85 13.9 80.235 10.68 114.5M182.864 465.18l-9.172 3.8c-36.056 12.218-79.95-8.55-93.367-44.177s5.872-80.2 41.03-94.792 80.34 3.187 96.1 37.838-.498 80.403-34.602 97.322"/></g><g clip-path="url(#C)" class="C"><path d="M470.47 30.677c0-.145-99.17-.26-221.473-.26l-221.493.26c0 .144 99.148.26 221.493.26l221.473-.26"/></g><g clip-path="url(#D)"><path d="M393.432 316.85h0c-20.18-9.814-44.494-1.412-54.31 18.767s-1.412 44.494 18.768 54.31 44.494 1.412 54.31-18.767 1.412-44.495-18.768-54.31" class="B"/><path d="M365.62 344.306c.684.043 1.087.517.945 1.23l-.465 2.25c-.136.708-.307.894-1.034 1.214-1.58.696-2.967 1.918-4.022 4.1-3.064 6.3-1.094 14.23 6.466 17.906 6.693 3.256 12.36.954 15.017-4.51 3.495-7.186 3.265-14.8-1.457-17.095-2.608-1.27-5.608-.062-6.27 2.886-.785 3.524-.993 7.636-2.102 9.917-.992 2.04-2.915 3.21-5.182 2.107-2.666-1.297-3.466-5.096-1.67-8.8 1.144-2.353 2.714-3.558 2.714-3.558l3.4-15.142c1.007-4.494 4.22-9.043 4.532-9.508.186-.277.6-.16.662.145.09.44 1.36 5.905.53 10.346-.232 1.257-1.577 7.703-1.577 7.703 1.67-1.23 4.908-1.453 7.6-.144 8.014 3.897 9.897 13.846 5.14 23.623-3.596 7.394-13.206 11.235-22.724 6.605-11.843-5.76-13.686-17.155-10.24-24.235 2.085-4.288 5.563-7.312 9.735-7.04" class="D"/><path d="M434.012 202.245h0c-14.457 5.524-21.698 21.722-16.174 36.18s21.722 21.7 36.18 16.175 21.698-21.722 16.175-36.18-21.723-21.698-36.18-16.175" class="B"/><g fill-rule="evenodd" class="D"><path d="M439.924 216.93c-2.4.92-4.374 2.488-5.777 4.437l-5.1.3 3.148 3.803c-.677 2.483-.606 5.186.378 7.76.146.383.313.758.496 1.118 2.855 5.732 9.707 8.46 15.85 6.113 6.224-2.377 9.5-9.117 7.67-15.357-.1-.314-.192-.622-.3-.933-2.48-6.487-9.814-9.728-16.347-7.23m18.72 6.732c2.698 7.637-1.212 16.1-8.88 19.02-7.577 2.894-16.022-.678-19.196-7.996l-.248-.6a14.87 14.87 0 0 1-.742-7.999l-5.408-6.533 8.756-.5c1.596-1.88 3.677-3.402 6.145-4.345 7.8-2.976 16.5.877 19.444 8.605l.13.358m-8.853-.275l-1.937 2.02c-.272.24-.483.38-.844.126s-1.324-.773-1.6-.92c-.292-.154-.5-.105-.784.2-.278.303-1.257 1.085-2.128 2.764-.677 1.295-.948 2.685-1.015 3.103s.18.536.42.642c.218.098.497.27.75.4l.188.117c.127.096.23.192.374.326.207.186.224.407.203.6s-.067 2.16-.096 2.957c-.02.794-.357.786-.56.864l-.648.285c-.23.1-.64.147-1.087-.075s-1.657-.714-2.303-2.403a4.67 4.67 0 0 1-.268-1.237c-.112-1.34.26-2.625.326-2.847.086-.3.937-4.714 3.92-7.436 2.995-2.7 3.17-2.254 3.827-2.437.653-.2 2.36.044 2.952.74.595.687.857 1.374.827 1.552-.032.17-.232.345-.508.648"/></g><path d="M69.63 331.76h0c-11.8 0-21.368 9.567-21.368 21.368s9.567 21.37 21.368 21.37S91 364.93 91 353.128s-9.567-21.368-21.37-21.368" class="B"/><path d="M58.246 345.974c2.067-1.326 4.523-2.1 7.16-2.1 8.673 0 13.573 7.326 13.278 13.897.913.658 1.705 1.48 2.33 2.418a9.37 9.37 0 0 0-2.683-.736c.964.578 1.705 1.493 2.054 2.585-.903-.535-1.903-.924-2.966-1.134a4.67 4.67 0 0 1-3.411 1.475 4.68 4.68 0 0 1-4.55-5.736c-3.883.195-7.325 2.055-9.63 4.88a4.68 4.68 0 0 1 1.446-6.237c-.766.024-1.487.235-2.116.584a4.68 4.68 0 0 1 3.746-4.64 4.67 4.67 0 0 0-2.108-.079c.593-1.857 2.32-3.206 4.363-3.245a9.39 9.39 0 0 0-6.916-1.934" class="D"/><path d="M108.032 92.386h0c-19.773-4.7-39.62 7.5-44.33 27.273s7.5 39.62 27.273 44.33h0c19.773 4.71 39.62-7.5 44.33-27.273s-7.5-39.62-27.272-44.33" class="H"/><g class="D"><path d="M94.827 147.818l-8.066-2.046c-2.066-.594-3.414-1.266-4.547-2.048a9.89 9.89 0 0 1-2.938-3.092 9.92 9.92 0 0 1-1.435-4.017c-.188-1.363-.18-2.87.222-4.982l1.8-8.122 2.047-8.065c.592-2.066 1.264-3.414 2.047-4.547a9.89 9.89 0 0 1 3.092-2.938 9.89 9.89 0 0 1 4.017-1.436c1.364-.187 2.87-.18 4.982.223l8.122 1.8 8.065 2.046c2.066.593 3.414 1.265 4.547 2.048a9.88 9.88 0 0 1 2.938 3.092 9.89 9.89 0 0 1 1.436 4.016c.187 1.365.18 2.87-.223 4.983l-1.8 8.12-2.046 8.066c-.593 2.067-1.265 3.414-2.048 4.547a9.89 9.89 0 0 1-3.092 2.938c-1.35.83-2.606 1.242-4.016 1.435-1.365.188-2.87.18-4.983-.22l-8.12-1.8m.842-3.536l7.96 1.774c1.934.37 3.05.297 3.806.193a6.26 6.26 0 0 0 2.607-.931 6.26 6.26 0 0 0 2.006-1.906c.433-.63 1-1.592 1.544-3.486l2.005-7.904 1.774-7.96c.37-1.934.297-3.05.193-3.806a6.25 6.25 0 0 0-.931-2.607c-.523-.85-1.076-1.432-1.907-2.006-.628-.433-1.6-1-3.484-1.545l-7.905-2.003-7.96-1.776c-1.935-.368-3.05-.296-3.806-.2-1.002.137-1.757.407-2.608.93a6.25 6.25 0 0 0-2.006 1.907c-.433.628-1 1.6-1.544 3.484l-2.004 7.905-1.775 7.96c-.37 1.936-.296 3.05-.193 3.807.138 1 .408 1.757.93 2.606s1.076 1.433 1.908 2.007c.627.434 1.6 1 3.484 1.544l7.904 2.005m5.394-22.63a6.73 6.73 0 0 0-8.102 4.985 6.73 6.73 0 0 0 4.985 8.102c3.613.86 7.24-1.37 8.1-4.984a6.73 6.73 0 0 0-4.984-8.103m-3.96 16.624c-5.567-1.326-9.005-6.914-7.68-12.48s6.915-9.005 12.482-7.68a10.36 10.36 0 0 1 7.678 12.48c-1.327 5.566-6.914 9.005-12.48 7.68m12.74 3.456c.3-1.3-.494-2.607-1.794-2.917a2.42 2.42 0 0 0-2.917 1.795 2.43 2.43 0 0 0 1.794 2.917 2.42 2.42 0 0 0 2.917-1.795"/></g><path d="M386.807 124.778h0c-9.48 0-17.164 7.685-17.164 17.164s7.685 17.163 17.164 17.163 17.163-7.684 17.163-17.163-7.684-17.164-17.163-17.164" class="H"/><path d="M384.19 131.567h4.18v10.463h2.915l.3 3.503h-3.225v1.995c0 .826.166 1.152.964 1.152h2.26v3.636h-2.893c-3.11 0-4.51-1.37-4.51-4v-2.793h-2.173v-3.547h2.173z" class="D"/></g><g clip-path="url(#E)"><path d="M328.27 29.954l-137.887.082c-16.583.008-30.02 13.457-30.018 30.04l.068 345.685c.003 16.593 13.46 30.04 30.053 30.03l137.888-.08c16.583-.01 30.02-13.46 30.017-30.042l-.067-345.687c-.003-16.592-13.46-30.04-30.054-30.03" class="C"/><path d="M328.227 423.485l-26.733.016c-3.585.002-6.494-3.036-6.494-6.783l-.002-4.85c.001-3.748-2.907-6.785-6.492-6.782l-52.1.03c-3.585.002-6.49 3.042-6.5 6.8l.001 4.85c.001 3.75-2.906 6.79-6.49 6.79l-32.8.02a21.04 21.04 0 0 1-21.047-21.032l-.066-337.414a21.04 21.04 0 0 1 21.023-21.041l137.61-.08a21.04 21.04 0 0 1 21.048 21.031l.066 337.415a21.04 21.04 0 0 1-21.023 21.04" class="D"/><g class="C"><path d="M330.24 396.073c0-.1-3.477-.193-7.765-.228s-7.766.01-7.767.1 3.475.192 7.764.228l7.768-.1m.033-3.973c.001-.1-3.476-.192-7.764-.228s-7.766.01-7.767.1 3.474.192 7.764.228l7.767-.1m.033-3.974c.001-.1-3.476-.192-7.765-.228s-7.766.01-7.766.1 3.474.192 7.764.228l7.767-.1M184.02 384.25c.008.008.147.017.407.027l1.132.038 4.18.1-.115-.117-.05 3.03.006 1.745a1.61 1.61 0 0 0 1.402 1.288l1.997.01c.753-.092 1.394-.816 1.37-1.614l.05-4.42-.194.2 5.272.053-.2-.204-.073 8.243c-.002.515-.316.86-.74 1.245l-5.606 5.53c-.37.356-.66.725-1.1.813-.416.112-.875.024-1.2-.23-.32-.27-.66-.652-.98-.965l-1.892-1.908-3.33-3.433c-.38-.6-.237-1.3-.265-1.967l-.004-1.858-.018-2.992-.022-1.914-.025-.7c-.01-.01-.02.208-.036.634l-.053 1.884-.068 3.017-.035 1.894-.016 1.036c-.003.375.093.76.3 1.104.975 1.195 2.14 2.253 3.338 3.525l1.877 1.923 1.017 1.008a1.79 1.79 0 0 0 1.529.301c.56-.123.926-.583 1.266-.905l3.312-3.247 2.3-2.267c.185-.196.408-.362.6-.637a1.73 1.73 0 0 0 .276-.89l.015-1.68.052-6.772-.203-.001-5.465-.035-.024 4.612c.022.637-.473 1.2-1.065 1.28l-1.912.006c-.567-.047-1.04-.502-1.137-1.025-.05-.53-.012-1.148-.023-1.684l.001-3.15h-.116l-4.25.03-1.106.02-.365.02"/></g><g class="H"><path d="M274.98 120.593c0-.036-.514-.07-1.444-.102l-3.94-.082-12.998-.076-13 .076-3.94.082-1.445.102s.515.07 1.445.102l3.94.083 13 .076 12.998-.076 3.94-.083 1.444-.102m57.8-9.043c0-.145-21.17-.26-47.277-.26l-47.283.26c0 .144 21.165.26 47.283.26l47.277-.26m-29.55-8.5c0-.145-14.555-.26-32.504-.26l-32.506.26c0 .144 14.55.26 32.506.26l32.504-.26"/></g><g class="C"><path d="M331.703 89.788l.092-.092 2.587-2.595.01 7.697-5.215.01-.012-7.55zm2.938-3.313l-2.938 2.946-2.798-2.8.013 8.434 5.735-.008zm-80.656 6.712a2.69 2.69 0 0 1-2.662-2.704c.013-1.48 1.225-2.673 2.705-2.66.38.004.802.136 1.292.407l.043.024.764-.34-.173.75.034.038a2.67 2.67 0 0 1 .7 1.824c-.012 1.48-1.224 2.673-2.703 2.66m2.424-5.616l-1.037.463c-.5-.272-.94-.406-1.343-.4-1.588-.013-2.9 1.27-2.902 2.856s1.268 2.9 2.856 2.903 2.9-1.27 2.902-2.856c.006-.707-.248-1.387-.716-1.92zm3.753 5.184l1.897-1.742 1.013-2.47 1.698 4.25zm2.912-4.737l-1.188 2.9-2.23 2.03 5.405.043z"/><path d="M262.114 90.908l-.107.166L264.954 93l.108-.165z"/></g><path d="M247.904 92.34c-.155.772-.92 1.374-1.706 1.343a1.73 1.73 0 0 1-1.59-1.452c-.116.77-.834 1.408-1.614 1.426a1.73 1.73 0 0 1-1.684-1.37c-.104-.563.092-1.15.4-1.626s.754-.862 1.184-1.242l1.76-1.563 1.69 1.59c.423.386.852.78 1.163 1.26s.498 1.07.385 1.633" class="B"/><path d="M340.662 79.012l-.018.94-.018 2.737-.042 10.558-.094 39.334.172-.172-159.926-.088.26.26-.01-53.57-.25.252 159.126-.236.8-.016s-.254-.01-.768-.016l-2.294-.016-8.9-.032-33.348-.07-114.86-.117-.008 54.082h.27l160.088-.09v-.172l-.094-39.437-.06-13.226-.018-.906" class="C"/><path d="M231.685 123.38l-.2-35.416-44.3.252.2 35.415z" class="E"/><path d="M231.685 123.38c-.005-.005-.08-.01-.222-.013l-.628-.01-2.42-.014-9.083-.01-31.948.066.234.23-.174-35.412c.054-.063-.486.492-.25.258h.084l.096-.001.576-.003.767-.005 22.02-.137 20.747-.15-.218-.216.258 25.65.097 7.19.035 1.904.028.67s.015-.204.02-.623l.014-1.863.015-7.143-.034-26.005-44.51.21c.228-.233-.325.317-.267.266l.23 35.645 32.332-.3 9.03-.114 2.372-.04.602-.016.195-.015" class="C"/><path d="M188.725 90.436l41.187-.234.175 30.957-41.186.234z" class="G"/><g class="F"><path d="M188.725 90.436l14.495 19.16 8.842-12.1 6.08 6.402 11.77-13.707zm27.202 21.446c-.01-1.8-1.47-3.234-3.262-3.225a3.24 3.24 0 0 0-3.224 3.262c.01 1.792 1.47 3.234 3.26 3.225s3.235-1.47 3.225-3.262"/></g><g class="C"><path d="M262.087 353.128c0-.018-.163-.036-.474-.052l-1.356-.05-4.988-.083-16.46-.076-16.463.076-5 .083-1.356.05c-.3.016-.473.034-.473.052s.163.036.473.053l1.356.05 5 .082 16.463.076 16.46-.076 4.988-.082 1.356-.05c.3-.017.474-.035.474-.053m61.08-190.858l.137-.136 3.843-3.856.018 11.438-7.752.012-.017-11.22zm4.364-4.924l-4.365 4.38L319 157.58l.02 12.535 8.523-.014zM211.904 169.72a5.28 5.28 0 0 1-5.238-5.32 5.29 5.29 0 0 1 5.322-5.239c.748.007 1.58.27 2.543.802l.085.048 1.504-.672-.34 1.48.07.075c.9.988 1.4 2.265 1.378 3.6-.023 2.912-2.4 5.26-5.322 5.237m4.77-11.054l-2.04.9c-.986-.534-1.852-.796-2.642-.803-3.126-.026-5.7 2.497-5.714 5.622a5.68 5.68 0 0 0 5.623 5.714c3.125.025 5.688-2.497 5.713-5.622a5.65 5.65 0 0 0-1.411-3.781zm7.386 10.2l3.736-3.43 1.992-4.862 3.343 8.363zm5.732-9.325l-2.338 5.708-4.387 3.997 10.64.086z"/><path d="M227.905 165.234l-.212.326 5.802 3.773.212-.327z"/></g><path d="M199.933 168.054c-.305 1.52-1.81 2.704-3.358 2.643-1.535-.06-2.928-1.338-3.13-2.86-.227 1.518-1.64 2.773-3.177 2.81-1.55.036-3.034-1.17-3.314-2.696-.205-1.1.18-2.264.808-3.202s1.484-1.696 2.33-2.444l3.465-3.078 3.33 3.133c.834.76 1.677 1.533 2.3 2.48s.98 2.108.757 3.214" class="B"/><path d="M206.18 353.128a7.22 7.22 0 0 0-7.216-7.216 7.22 7.22 0 0 0-7.217 7.216 7.22 7.22 0 0 0 7.217 7.216 7.22 7.22 0 0 0 7.216-7.216" class="E"/><g class="H"><path d="M324.807 198.745c0-.144-30.26-.26-67.58-.26l-67.586.26c0 .145 30.254.26 67.586.26l67.58-.26m0 11.255c0-.144-30.26-.26-67.58-.26l-67.586.26c0 .144 30.254.26 67.586.26l67.58-.26m-61.593-22.66c0-.144-16.47-.26-36.783-.26l-36.788.26c0 .144 16.467.26 36.788.26l36.783-.26"/></g><g class="C"><path d="M254.135 64.7c-.007-1.608-1.3-2.906-2.884-2.9s-2.866 1.318-2.86 2.926 1.298 2.9 2.884 2.9 2.865-1.318 2.86-2.928m8.9-.028c-.008-1.608-1.3-2.907-2.884-2.9s-2.866 1.317-2.86 2.926 1.298 2.908 2.884 2.9 2.865-1.318 2.86-2.927m8.896-.04c-.007-1.608-1.298-2.908-2.884-2.9s-2.866 1.316-2.86 2.926 1.298 2.907 2.884 2.9 2.866-1.318 2.86-2.927"/></g><path d="M181.708 241.02l159.928.047-.03 97.803-159.926-.046z" class="G"/><g class="F"><path d="M196.457 241.025l45.828 61.337 28.4-38.358 19.256 20.516 37.765-43.457zm86.28 68.862a10.34 10.34 0 0 0-10.332-10.338 10.34 10.34 0 0 0-10.339 10.332c-.001 5.708 4.624 10.337 10.332 10.338a10.34 10.34 0 0 0 10.339-10.332"/></g><path d="M341.2 150.147l-.236 221.24.236-.236-159.926-.024.26.26-.05-221.24-.21.21 159.926-.21-160.138-.213-.05 221.713 160.423-.024v-.237l-.236-221.24" class="C"/></g><g clip-path="url(#F)"><path d="M266.044 122.703l3.537 11.888 2.54 9.09c.99 3.12 3.535 6.395 5.856 8.755 3.61 3.673 5.33 3.698 7.756 5.647.22.142.468.345.676.457.503.272.87.633 1.18 1.02 2.092 2.263.083 5.765-4.166 5.432-3.198-.25-8.414-1.166-16.896-9.916-.105-.133-.216-.244-.32-.38-4.45-5.786-8.632 10.732-9.386 16.88-.49 3.99-4.804 6.44-8.708 4.998l-20.66-9.664c-1.706.6-3.732.5-6.032-.204-3.042-1.125-4.73-4.253-3.936-7.288l8.38-33.452-24.612-81.893H254.3z" fill="#ffbe9d"/><g class="B"><path d="M306.796 197.916l-16.398-32.133-8.2 2.278-41.215-33.526c-3.508-2.853-8.65-2.396-11.598 1.03l-15.69 18.235s31.642 13.63 37.494 24.913-.9 13.842-.9 13.842l14.892 16.923zm-21.27 65.64s-24.004 5.3-57.783 37.792-49.65 75.617-53.785 75.407-22.188 8.172-56.524-66.52-20.8-92.035-13.98-91.896 53.227 13.07 82.205 9.775 66.225-18.396 66.225-18.396z"/><use xlink:href="#L"/></g><g opacity=".4" clip-path="url(#G)"><use xlink:href="#L"/></g><use xlink:href="#M" class="B"/><g opacity=".5" clip-path="url(#H)"><use xlink:href="#M"/></g><path d="M340.935 200.347l-13.944 4.38 8.63 16.408 10.46-6.502z" class="B"/><g opacity=".6" clip-path="url(#I)"><path d="M335.62 221.135l-8.63-16.408 2.865-.9 7.016 16.53z"/></g><g class="B"><path d="M326 217.35c-.204-.45-7.164 2.254-15.543 6.042-8.385 3.788-15.012 7.225-14.808 7.675s7.162-2.255 15.545-6.043 15-7.224 14.806-7.674m4.3 9.773c-.22-.445-6.518 2.2-14.067 5.927s-13.495 7.094-13.276 7.538 6.514-2.2 14.067-5.93 13.494-7.1 13.276-7.534m-9.698-20.024c-.074-.237-1.73.145-4.373.96l-4.615 1.522c-1.72.624-3.504 1.527-5.416 2.393-7.63 3.54-13.454 7-13.265 7.42.226.485 6.453-2.285 14.012-5.792 1.895-.86 3.653-1.806 5.3-2.498 1.665-.673 3.158-1.3 4.405-1.855 2.494-1.107 4.013-1.915 3.94-2.15M157.465 317.874s-20.863 12.937-32.278-15.25 10.537-32.822 10.537-32.822c8.983 13.93 16.28 29.893 21.74 48.072"/></g><g opacity=".5" clip-path="url(#J)"><path d="M179.654 351.467c.122-.02-.175-1.935-.817-5.385l-2.932-14.583-2.88-9.864-2.473-8.366-1.08-2.88-4.713-12.162-1.242-3.19c-.405-1.077-.98-2.1-1.466-3.15l-3.1-6.394-3.1-6.392-1.57-3.102-1.74-2.95-6.648-11.226-1.597-2.63-1.735-2.45-3.32-4.678-5.982-8.37c-3.99-4.834-7.334-8.647-9.633-11.294-2.312-2.635-3.635-4.055-3.73-3.976s1.047 1.648 3.194 4.42l9.2 11.653 5.758 8.437 4.903 7.133c.55.84 1.027 1.746 1.555 2.632l8.228 14.14c.586.98 1.023 2.052 1.55 3.087l6.166 12.695c.488 1.052 1.06 2.057 1.468 3.125l1.247 3.16 4.78 12.042c.37.963.786 1.897 1.108 2.85l.883 2.842 1.696 5.433 3.074 9.75 3.472 14.397c.85 3.398 1.38 5.27 1.5 5.25"/></g><g opacity=".4" clip-path="url(#K)"><path d="M218.693 156.04c1.903-3.454 3.845-6.963 6.662-9.725s6.684-4.716 10.61-4.322 7.642 3.655 7.685 7.6c1.883-1.415 4.77-.65 6.33 1.117s2.067 4.22 2.254 6.567c2.558-1.508 6.116-.312 7.823 2.118s1.814 5.705.986 8.557-2.48 5.383-4.108 7.866c1.97-.16 4.057-.297 5.82.597s2.952 3.225 1.923 4.912c-.603 1-1.76 1.483-2.868 1.83-3.087.966-5.253 1.74-8.467 1.366-.746-.006 1.287-8.475-18.883-20.057-11.907-6.838-15.766-8.424-15.766-8.424"/></g><path d="M264.114 143.803c-.014-.093-1.356.164-3.533.105-2.164-.048-5.19-.523-8.176-1.956a20.42 20.42 0 0 1-6.647-5.15c-1.41-1.66-2.05-2.868-2.13-2.82-.03.015.1.332.395.875s.77 1.303 1.45 2.177c1.345 1.748 3.633 3.915 6.707 5.387s6.195 1.902 8.4 1.856c1.107-.017 2-.12 2.606-.234s.936-.208.93-.24" fill="#eb996e"/><g fill="#ffbe9d"><path d="M220.008 161.4c3.25-3.12 5.47-6.566 8.88-9.7 1.548-1.428 3.954-4.134 6.03-4.493s3.405-.085 4.227 1.855c.665 1.572-.53 3.718-1.355 5.013-2.17 3.405-4.247 6.068-5.873 8.716-.762 1.24.224 1.496.584.922 1.564-1.62 3.897-3.026 5.297-4.8 1.92-2.417 2.267-5.618 7.285-4.606.663.134 1.325.364 1.863.775 1.89 1.445 1.968 3.96 1.173 5.973-.623 1.578-1.716 2.917-2.794 4.228 2.136-2.412 4.47-4.953 7.864-5.227 1.976-.16 3.958.76 4.757 2.574 1.005 2.282-.436 4.488-1.882 6.272-2.563 3.162-5.423 6.083-8.53 8.714a6.51 6.51 0 0 1-4.146 1.537c-1.756.01-3.955-.32-5.04-1.848-1.97-2.774-1.364-5.226-1.364-5.226s-4.406 2.233-7.946-.103-4.416-6.352-4.416-6.352z"/><path d="M243.453 180.13c-1.364 1.373-1.68 3.885-.624 5.96.75 1.47 1.695 2.895 2.654 3.22 4.19 1.414 22.502-1.754 22.335-5.818-.17-4.173-1.504-6.01-11.442-4.575l-4.49.598-2.4-3.6z"/></g><g fill="#eb996e"><path d="M246.733 163.113c-.146-.1-1.54 2.755-4.384 5.304-2.816 2.583-5.78 3.7-5.707 3.844.02.058.786-.14 1.94-.683s2.67-1.467 4.118-2.776 2.515-2.733 3.164-3.826.925-1.837.87-1.863m3.08 12.487c-.1-.086-1.3.9-2.95 1.9l-2.15 1.185c-.566.265-.94.34-.94.417-.003.066.43.12 1.067-.072.636-.18 1.454-.57 2.296-1.087 1.7-1.034 2.797-2.244 2.675-2.353"/><path d="M252.887 179.38c-.012-.1-1.606-.155-3.527.397-.954.292-1.76.752-2.256 1.183-.503.428-.713.785-.663.828.096.1 1.234-.992 3.073-1.512 1.816-.527 3.4-.723 3.373-.896M235.1 158.082c-.06-.042-.707.785-1.67 2.17-.983 1.353-2.233 3.372-4.274 4.857s-4.444 1.84-6.054 1.604c-1.643-.23-2.5-.906-2.55-.8-.017.024.175.2.584.462.405.26 1.057.542 1.907.712 1.685.347 4.25.034 6.417-1.544 2.157-1.576 3.372-3.676 4.278-5.077l1.363-2.374m14.01-40.5c.015-.143-3.336-.625-7.484-1.075l-7.54-.56c-.016.144 3.335.625 7.484 1.076l7.54.558"/></g></g></g><g class="B"><use xlink:href="#N"/><use xlink:href="#N" x="9.788" y="-21.213"/><use xlink:href="#N" x="-147.065" y="-77.813"/><path d="M279.533 462.08l1.08-1.976 1.976-1.08-1.976-1.08-1.08-1.976-1.08 1.976-1.976 1.08 1.976 1.08zM154.08 402.987l1.078-1.972 1.972-1.078-1.972-1.078-1.078-1.972-1.08 1.973-1.972 1.078 1.972 1.078zm150.74-47.042l1.08-1.972 1.97-1.078-1.97-1.08-1.08-1.972-1.078 1.972-1.972 1.08 1.972 1.078z"/></g></g></svg>