<svg xmlns="http://www.w3.org/2000/svg" width="600" viewBox="0 0 601.984 300.992" height="300" xmlns:v="https://vecta.io/nano"><g transform="matrix(.442882 0 0 .442882 206.33888 36.887915)"><path fill="#dff6fd" d="M376.84 17.046v489.15H23.48a9.55 9.55 0 0 1-9.54-9.55v-377.56h103a9.99 9.99 0 0 0 10-9.99V7.496h240.34a9.55 9.55 0 0 1 9.55 9.55z"/><path fill="#c8effe" d="M376.84 82.64h-6.862a3.26 3.26 0 0 1-2.88-1.721c-6.143-11.545-18.296-19.426-32.262-19.426h-29.73c-20.173 0-36.527 16.354-36.527 36.527v115.22c0 20.173 16.354 36.527 36.527 36.527l22.84-.053c5.344-.018 9.682 4.31 9.682 9.653v51.82c0 8.557 1.813 16.825 5.376 24.545l7.094 15.427v133.47c0 7.64 1.835 14.995 5.28 21.57h21.46V82.64z"/><path fill="#dc8758" d="M430.7 158.106v153.08c0 4.87-1.05 9.68-3.1 14.1l-9.38 20.4v138.94a21.57 21.57 0 0 1-21.56 21.57c-5.95 0-11.35-2.4-15.25-6.32a21.5 21.5 0 0 1-6.32-15.25v-138.94l-9.38-20.4c-2.04-4.42-3.1-9.23-3.1-14.1v-153.08z"/><path fill="#d77f4a" d="M391.93 158.106h-29.3v153.08c0 4.87 1.05 9.68 3.1 14.1l9.38 20.4v138.94a21.5 21.5 0 0 0 6.32 15.25c3.9 3.9 9.3 6.32 15.25 6.32 6.678 0 12.643-3.04 16.598-7.807-2.586-3.555-4.133-7.918-4.133-12.656v-138.94l-9.38-20.4c-2.04-4.42-3.1-9.23-3.1-14.1v-60.31c0-12.905 10.462-23.367 23.367-23.367H430.7v-70.512h-38.77z"/><path fill="#e19974" d="M310.54 107.64h172.927v95.978H310.54z"/><path fill="#d77f4a" d="M430.7 255.556v38.37h-68.07v-38.37h66.74z"/><path fill="#c86d36" d="M396.666 293.926v-38.37H362.63v38.37h1.33z"/><path fill="#dff6fd" d="M126.95 7.496v101.6a9.99 9.99 0 0 1-10 9.99h-103a9.53 9.53 0 0 1 2.8-6.74l102.04-102.05c1.8-1.8 4.22-2.8 6.75-2.8z"/><path d="M74.716 185.544h11.917" fill="none" stroke="#000" stroke-width="15" stroke-linecap="round" stroke-linejoin="round" stroke-miterlimit="10"/><path fill="#dc8758" d="M371.364 139.89V107.64H310.54v95.978h172.927v-34.95h-83.322c-15.896-.001-28.78-12.886-28.78-28.78z"/><path d="M334.837 224.766h-29.73a11.53 11.53 0 0 1-11.527-11.527V98.02a11.53 11.53 0 0 1 11.527-11.527h29.73a11.53 11.53 0 0 1 11.527 11.527v115.22a11.53 11.53 0 0 1-11.527 11.527zm123.66 0h29.73a11.53 11.53 0 0 0 11.527-11.527V98.02a11.53 11.53 0 0 0-11.527-11.527h-29.73a11.53 11.53 0 0 0-11.527 11.527v115.22a11.53 11.53 0 0 0 11.527 11.527z" fill="#d77f4a"/><path fill="#c8effe" d="M126.95 7.496v101.6a9.99 9.99 0 0 1-10 9.99H13.94v377.56c0 5.274 4.276 9.55 9.55 9.55h116.24a9.55 9.55 0 0 1-9.54-9.55V155.24c0-7.323 3.135-14.383 8.817-19.005 7.89-6.42 12.942-16.2 12.942-27.14V7.496z"/><path fill="#fee45a" d="M326.634 419.216H72.625a4.81 4.81 0 0 1-4.808-4.808v-53.105a4.81 4.81 0 0 1 4.808-4.808h254a4.81 4.81 0 0 1 4.808 4.808v53.105a4.81 4.81 0 0 1-4.809 4.808z"/><path fill="#fedf30" d="M72.625 356.495a4.81 4.81 0 0 0-4.808 4.808v53.105a4.81 4.81 0 0 0 4.808 4.808h57.567v-62.72z"/><path d="M488.226 78.993h-29.73c-10.5 0-19.027 8.535-19.027 19.026v2.12h-85.605v-2.12c0-10.5-8.536-19.026-19.027-19.026h-29.73c-10.5 0-19.027 8.535-19.027 19.026v115.22c0 10.5 8.536 19.027 19.027 19.027h29.73c10.5 0 19.027-8.536 19.027-19.027v-2.12h1.268v100.067c0 5.993 1.27 11.793 3.774 17.237l8.697 18.907v68.938a7.5 7.5 0 1 0 15 0v-70.58a7.5 7.5 0 0 0-.687-3.135l-9.384-20.4c-1.593-3.464-2.4-7.153-2.4-10.968v-9.76h53.07v9.76a26.07 26.07 0 0 1-2.401 10.968l-9.384 20.4a7.49 7.49 0 0 0-.687 3.135V484.63c0 7.755-6.3 14.063-14.063 14.063s-14.063-6.3-14.063-14.063v-36.4a7.5 7.5 0 1 0-15 0v36.4c0 16.025 13.038 29.063 29.063 29.063s29.063-13.038 29.063-29.063v-137.3l8.698-18.908a40.97 40.97 0 0 0 3.774-17.236V211.118h1.268v2.12c0 10.5 8.536 19.026 19.027 19.026h29.73c10.5 0 19.027-8.535 19.027-19.026V98.02c0-10.492-8.535-19.027-19.027-19.027zM338.864 213.24c0 2.22-1.807 4.027-4.027 4.027h-29.73c-2.22 0-4.027-1.807-4.027-4.027V98.02c0-2.22 1.807-4.026 4.027-4.026h29.73c2.22 0 4.027 1.807 4.027 4.026zm31.268 73.186V263.06h53.07v23.365zm53.07-38.365h-53.07v-36.94h53.07zm69.052-34.82c0 2.22-1.807 4.026-4.027 4.026h-29.73c-2.22 0-4.027-1.807-4.027-4.026v-61.5a7.5 7.5 0 1 0-15 0v44.37h-85.605v-80.98h85.605v4.645a7.5 7.5 0 1 0 15 0V98.02c0-2.22 1.807-4.026 4.027-4.026h29.73c2.22 0 4.027 1.807 4.027 4.026zM340.252 498.693H23.486a2.05 2.05 0 0 1-2.045-2.046V126.6h95.514c9.65 0 17.5-7.85 17.5-17.498V15h232.842a2.05 2.05 0 0 1 2.045 2.046V66.2a7.5 7.5 0 1 0 15 0V17.046A17.07 17.07 0 0 0 367.295 0H125.53c-4.553 0-8.833 1.773-12.053 4.992L11.433 107.037A16.93 16.93 0 0 0 6.44 119.09v377.558c0 9.4 7.646 17.046 17.045 17.046h316.767a7.5 7.5 0 1 0 0-15.001zM119.452 20.23v88.86a2.5 2.5 0 0 1-2.5 2.498h-88.86zM74.716 193.044h11.917a7.5 7.5 0 1 0 0-15H74.716a7.5 7.5 0 1 0 0 15zm182.52 0a7.5 7.5 0 1 0 0-15H121.13a7.5 7.5 0 1 0 0 15zm13.12 40.822H74.716a7.5 7.5 0 1 0 0 15h195.64a7.5 7.5 0 1 0 0-15zm54.844 55.822H74.716a7.5 7.5 0 1 0 0 15H325.2a7.5 7.5 0 1 0 0-15zm-221.086 74.307a7.5 7.5 0 1 0 0-15h-31.5c-6.787 0-12.308 5.52-12.308 12.308v53.105c0 6.787 5.52 12.3 12.308 12.3h254c6.787 0 12.308-5.52 12.308-12.3v-53.105c0-6.786-5.52-12.308-12.308-12.308h-190.56a7.5 7.5 0 1 0 0 15H323.93v47.722H75.317v-47.722z"/></g></svg>