<svg xmlns="http://www.w3.org/2000/svg" height="300" width="600" xmlns:v="https://vecta.io/nano"><defs><clipPath id="A"><path d="M0 800h800V0H0z"/></clipPath><clipPath id="B"><path d="M259.653 131.47h277.913v-26.633H259.653z"/></clipPath><clipPath id="C"><path d="M537.566 118.153c0-7.355-62.213-13.317-138.957-13.317s-138.956 5.962-138.956 13.317 62.213 13.316 138.956 13.316 138.957-5.962 138.957-13.316"/></clipPath><radialGradient id="D" spreadMethod="pad" gradientTransform="matrix(137.80008,0,0,-15.632618,398.60986,118.15234)" gradientUnits="userSpaceOnUse" r="1" cy="0" cx="0" fy="0" fx="0"><stop offset="0" stop-color="#8e9092"/><stop offset=".109" stop-color="#8e9092"/><stop offset="1" stop-color="#fff"/></radialGradient></defs><g transform="matrix(1.333333 0 0 -1.333333 0 1066.6667)"><g clip-path="url(#A)" transform="matrix(.282648 0 0 .282648 112.07868 572.90411)"><path d="M644.784 428.562c0-135.507-109.85-245.356-245.356-245.356S154.07 293.055 154.07 428.562s109.85 245.356 245.357 245.356 245.356-109.85 245.356-245.356" fill="#2fc0f2"/><path d="M399.556 256.798l54.11-67.132s155 28.336 188 199L523.6 540.993z" fill="#28aace"/><path d="M481.302 554.65h-161.13S307.868 533.02 291 531.064c-59.84-207.113 109.644-258.27 109.738-258.3h.01c.107.03 169.6 51.188 109.75 258.3-16.917 1.966-29.197 23.586-29.197 23.586" fill="#1c89a3"/><path d="M472.783 541.597H326.24s-11.2-19.544-26.533-21.3c-54.42-187.127 99.72-233.346 99.804-233.376h.01c.096.03 154.236 46.25 99.816 233.376-15.388 1.776-26.556 21.3-26.556 21.3" fill="#f7b541"/><g fill="#fff"><path d="M399.512 272.763c-22.552 7.67-164.214 64.167-110.133 255.08 14.17 4.222 24.425 16.653 29.094 23.33h162.08c4.67-6.678 14.914-19.12 29.095-23.33 54.077-190.925-87.604-247.4-110.135-255.08m125.54 263.28l-1.463 4.95-5.767.66c-10.953 1.237-21.7 15.605-24.574 20.555l-2.432 4.118h-182.64l-2.4-4.128c-2.884-4.94-13.535-19.298-24.58-20.545l-5.783-.66-1.458-4.95c-65.907-222.784 121.2-278.1 123.115-278.6l2.485-.643 2.496.66c1.894.52 188.42 57.5 123 278.583M374.923 454c0 23 12.248 28.142 24.388 28.142S423.7 477 423.7 454zm33.768-64h-18.76l3.603 26.212c-3.688 2.07-6.18 6.502-6.18 11.03 0 6.67 5.404 12.325 12.076 12.325s12.077-5.286 12.077-11.956c0-4.616-2.592-9.55-6.402-11.582zm31.893 64h-5.627c0 25-15 39.398-35.646 39.398S363.667 479 363.667 454h-5.63c-8.3 0-11.038-3.084-11.038-11.374v-52.53c0-8.3 2.75-16.097 11.038-16.097h82.546c8.3 0 13.416 7.808 13.416 16.097v52.53c0 8.3-5.127 11.374-13.416 11.374"/></g><g opacity=".7" clip-path="url(#B)"><g clip-path="url(#C)"><path d="M537.566 118.153c0-7.355-62.213-13.317-138.957-13.317s-138.956 5.962-138.956 13.317 62.213 13.316 138.956 13.316 138.957-5.962 138.957-13.316" fill="url(#D)"/></g></g><g fill="#838889"><path d="M402.03 30.037h.625v.787c0 .823.102 1.473.312 1.96s.56.835 1.055 1.055 1.18.33 2.042.33c1.533 0 2.295-.372 2.295-1.127a.88.88 0 0 0-.239-.621c-.16-.173-.35-.26-.565-.26a3.96 3.96 0 0 0-.532.06 4.68 4.68 0 0 1-.634.057c-.472 0-.775-.142-.913-.42-.13-.277-.197-.676-.197-1.197v-.624h.638c1.002 0 1.5-.3 1.5-.906 0-.425-.132-.698-.4-.815s-.632-.172-1.1-.172h-.638v-6.95c0-.516-.124-.9-.375-1.18-.244-.276-.56-.4-.954-.4a1.2 1.2 0 0 0-.928.411c-.246.27-.367.665-.367 1.18v6.95h-.72c-.394 0-.693.085-.904.264a.88.88 0 0 0-.316.686c0 .63.435.943 1.316.943m8.58-6.648v-2.193c0-.53-.13-.93-.377-1.194s-.564-.398-.95-.398a1.18 1.18 0 0 0-.933.405c-.243.267-.367.663-.367 1.187V28.5c0 1.18.424 1.77 1.275 1.77.44 0 .753-.138.946-.413s.3-.68.318-1.223c.313.542.633.945.962 1.223s.77.413 1.32.413a3.38 3.38 0 0 0 1.607-.413c.518-.278.78-.643.78-1.097 0-.318-.112-.587-.333-.8-.222-.2-.456-.314-.713-.314-.1 0-.333.06-.697.18-.372.115-.697.174-.978.174-.383 0-.697-.103-.94-.3-.243-.206-.435-.502-.568-.896-.134-.4-.226-.874-.276-1.42s-.077-1.216-.077-2.003m6.93 2.39h4.755c-.064.895-.304 1.567-.725 2s-.97.668-1.658.668c-.65 0-1.2-.223-1.608-.677s-.675-1.118-.764-2m5.13-1.5h-5.13c.007-.594.124-1.122.36-1.576s.545-.794.932-1.028a2.49 2.49 0 0 1 1.283-.344c.317 0 .602.035.86.112a2.68 2.68 0 0 1 .755.345 5.58 5.58 0 0 1 .672.504l.798.73c.137.114.326.174.577.174.268 0 .487-.073.653-.223s.25-.355.25-.624c0-.238-.092-.514-.276-.83s-.468-.622-.843-.915-.848-.535-1.414-.723c-.567-.193-1.22-.3-1.955-.3-1.686 0-2.994.477-3.927 1.44s-1.408 2.266-1.408 3.9c0 .775.12 1.496.35 2.16s.567 1.23 1 1.706a4.34 4.34 0 0 0 1.632 1.09c.647.253 1.363.38 2.152.38 1.024 0 1.904-.216 2.635-.652.734-.43 1.288-1 1.65-1.674s.548-1.384.548-2.097c0-.656-.2-1.083-.57-1.28s-.9-.294-1.594-.294m5.788 1.498h4.757c-.065.895-.3 1.567-.726 2-.422.447-.972.668-1.66.668-.652 0-1.188-.223-1.6-.677s-.675-1.118-.762-2m5.13-1.5h-5.13c.005-.594.127-1.122.36-1.576s.543-.794.928-1.028a2.43 2.43 0 0 1 1.285-.344 2.99 2.99 0 0 1 .857.112c.262.07.5.188.758.345a5.59 5.59 0 0 1 .673.504l.795.73c.137.114.33.174.577.174.27 0 .488-.073.657-.223s.244-.355.244-.624c0-.238-.1-.514-.28-.83-.18-.32-.46-.622-.84-.915-.372-.3-.846-.535-1.4-.723-.564-.193-1.218-.3-1.958-.3-1.68 0-3 .477-3.927 1.44s-1.404 2.266-1.404 3.9a6.51 6.51 0 0 0 .35 2.16 4.79 4.79 0 0 0 1.008 1.706c.44.476.986.838 1.633 1.1s1.364.38 2.152.38c1.023 0 1.9-.216 2.643-.652.73-.43 1.28-1 1.642-1.674s.548-1.384.548-2.097c0-.656-.2-1.083-.566-1.28s-.912-.294-1.595-.294m10.888.69c0 .692-.105 1.286-.316 1.782s-.505.876-.877 1.14a2.12 2.12 0 0 1-1.248.402c-.72 0-1.334-.287-1.83-.853-.497-.575-.745-1.4-.745-2.52 0-1.04.245-1.855.74-2.436s1.1-.868 1.834-.868a2.13 2.13 0 0 1 1.212.377c.373.254.67.633.894 1.14s.335 1.12.335 1.836m-5.143 3.8v-.315c.492.608 1.008 1.055 1.542 1.34.527.286 1.132.43 1.804.43a4.2 4.2 0 0 0 2.23-.626c.678-.418 1.213-1.026 1.6-1.827s.593-1.748.593-2.844c0-.806-.114-1.55-.34-2.226s-.54-1.24-.937-1.7a4.23 4.23 0 0 0-1.408-1.057c-.546-.244-1.124-.367-1.746-.367-.748 0-1.38.15-1.888.45s-.994.744-1.458 1.323V17.44c0-1.15-.42-1.73-1.256-1.73-.496 0-.82.15-.982.445-.156.303-.24.73-.24 1.305v11.32c0 .5.108.87.324 1.12.22.243.52.37.897.37a1.17 1.17 0 0 0 .907-.378c.233-.252.35-.617.35-1.096m11.717-.016v-7.584c0-.523-.127-.92-.377-1.187s-.567-.405-.952-.405-.693.135-.937.4c-.238.28-.362.672-.362 1.182v7.5c0 .518.124.908.362 1.168.244.268.55.396.937.396a1.24 1.24 0 0 0 .952-.396c.25-.26.377-.63.377-1.093m-1.3 2.7c-.367 0-.678.114-.936.337s-.393.54-.393.947c0 .372.136.68.402.92a1.34 1.34 0 0 0 .927.36 1.38 1.38 0 0 0 .904-.323c.26-.22.395-.54.395-.957 0-.403-.13-.718-.386-.944s-.56-.34-.913-.34M459.5 20.8l-2.313 3.8-1.422-1.345v-2.088c0-.505-.135-.893-.4-1.163a1.22 1.22 0 0 0-.918-.4c-.403 0-.72.133-.95.405s-.35.663-.35 1.187v11.188c0 .578.116 1.023.337 1.328s.55.457.962.457c.406 0 .722-.138.96-.415s.36-.682.36-1.217v-6.363l2.95 3.097.836.787a1.16 1.16 0 0 0 .697.211c.33 0 .602-.106.825-.312a1.06 1.06 0 0 0 .323-.782c0-.384-.355-.9-1.066-1.54l-1.393-1.275 2.7-4.23.427-.713a1.01 1.01 0 0 0 .13-.469c0-.417-.115-.743-.34-.986s-.53-.357-.898-.357c-.32 0-.57.082-.743.26s-.4.5-.702.938m5.708-1.21c-.396 0-.738.128-1.027.385s-.434.613-.434 1.076c0 .4.143.727.415 1.007.278.282.618.423 1.022.423s.743-.14 1.032-.416a1.39 1.39 0 0 0 .429-1.014c0-.456-.148-.816-.43-1.07a1.45 1.45 0 0 0-1.008-.39m13.033 3.245c0-.324-.1-.675-.294-1.047s-.493-.724-.894-1.06-.903-.6-1.514-.813-1.294-.3-2.055-.3c-1.62 0-2.887.474-3.8 1.418-.905.945-1.36 2.213-1.36 3.8 0 1.08.206 2.028.624 2.856s1.016 1.464 1.805 1.916 1.732.676 2.82.676c.683 0 1.307-.098 1.876-.298s1.043-.456 1.44-.766c.4-.32.693-.65.9-1.005s.313-.688.313-.998a1.04 1.04 0 0 0-.35-.794 1.2 1.2 0 0 0-.849-.33c-.22 0-.402.058-.545.167-.146.115-.307.294-.483.55-.32.484-.656.85-1.008 1.092s-.8.367-1.33.367c-.772 0-1.397-.303-1.872-.908s-.7-1.437-.7-2.483c0-.493.062-.95.183-1.363s.293-.764.528-1.055.508-.5.833-.663a2.51 2.51 0 0 1 1.075-.227c.53 0 .977.122 1.352.365s.7.614.998 1.114c.16.294.333.524.516.692a1 1 0 0 0 .684.252c.32 0 .588-.124.796-.368.214-.24.32-.505.32-.777m8.687 2.085c0 1.07-.236 1.9-.706 2.5s-1.102.895-1.898.895c-.514 0-.964-.134-1.355-.4s-.688-.656-.902-1.177-.32-1.124-.32-1.817c0-.688.103-1.282.312-1.794s.507-.908.896-1.18.845-.4 1.368-.4c.796 0 1.43.3 1.898.9s.706 1.427.706 2.482m2.634 0c0-.78-.124-1.503-.363-2.163-.248-.66-.6-1.228-1.062-1.697-.456-.476-1.012-.838-1.65-1.093-.646-.25-1.363-.378-2.164-.378-.794 0-1.507.128-2.143.385-.63.253-1.186.622-1.645 1.094a4.85 4.85 0 0 0-1.062 1.696c-.234.65-.358 1.37-.358 2.156a6.35 6.35 0 0 0 .366 2.182c.243.66.592 1.225 1.05 1.7a4.72 4.72 0 0 0 1.65 1.083c.65.252 1.362.378 2.143.378.796 0 1.517-.126 2.164-.386.644-.254 1.198-.62 1.66-1.092a4.73 4.73 0 0 0 1.052-1.69c.24-.658.36-1.377.36-2.166m10.006-.193v-3.485c0-.553-.123-.96-.377-1.242-.25-.275-.578-.4-1-.4-.395 0-.72.135-.96.4-.248.28-.377.7-.377 1.242v4.177l-.063 1.542c-.047.36-.17.663-.367.895s-.513.353-.94.353c-.86 0-1.42-.294-1.697-.888-.27-.585-.408-1.43-.408-2.537v-3.542c0-.544-.124-.957-.37-1.237s-.573-.415-.975-.415-.722.138-.978.415-.38.693-.38 1.237v7.504c0 .493.115.87.343 1.124s.53.385.9.385a1.24 1.24 0 0 0 .9-.36c.24-.24.36-.57.36-.995v-.248c.46.54.944.943 1.462 1.195.52.262 1.094.4 1.73.4.658 0 1.226-.133 1.7-.395s.863-.66 1.174-1.2c.44.534.917.933 1.42 1.195a3.65 3.65 0 0 0 1.681.39c.72 0 1.34-.145 1.858-.424a2.7 2.7 0 0 0 1.157-1.209c.227-.478.338-1.223.338-2.242v-5.12c0-.553-.127-.96-.37-1.242-.25-.275-.58-.4-.992-.4-.397 0-.723.138-.975.415s-.378.693-.378 1.237v4.412c0 .563-.027 1.013-.073 1.353a1.55 1.55 0 0 1-.39.856c-.2.23-.534.346-.964.346-.344 0-.67-.105-.983-.3s-.55-.48-.728-.823c-.188-.44-.286-1.225-.286-2.35"/><g fill-rule="evenodd"><path d="M383.865 18.686s-1.432.227-2.826 1.755c-1.4 1.542-1.646 3.173-1.646 3.173s1.785-.42 3.068-.563c2.258-.254 4.3-.112 5.25-.01 2.08.23 3.184.613 3.63.723 2.65.636 5.203 2.354 5.203 2.354s.32-1.994-1.175-4.203c-.586-.865-1.748-1.856-3.088-2.54-4.593-1.957-8.415-.7-8.415-.7m8.25 9a1.72 1.72 0 0 0-1.829 1.605c-.06.944.668 1.76 1.618 1.822a1.72 1.72 0 0 0 1.828-1.604c.062-.945-.667-1.763-1.617-1.823m-7.72-1.94c-1.5-.1-2.812 1.042-2.905 2.546s1.055 2.8 2.57 2.893a2.72 2.72 0 0 0 2.904-2.542c.097-1.505-1.055-2.803-2.568-2.897M394.712 30c-.495.595-2.14 3.413-5.465 3.82-.85.104-5.345-.07-8.043-2.57-.266-.25-1.638-1.454-2.092-3.694-.353-1.73.226-3.68.226-3.68s3-.622 5.248-.565c3.574.1 5.372.406 7.24.97 2.753.836 4.698 2.23 4.698 2.23s-1.317 2.886-1.812 3.488"/><path d="M393.415 31.957l.87 1.042s1.198-.6 1.97-1.7 1.27-2.122 1.27-2.122l-1.435-.872s-.445 1.07-1.112 1.927c-.66.856-1.563 1.725-1.563 1.725"/><path d="M396.143 31.232c.225.135.603.156.58.475-.016.314-.23.94.394 1.154.632.2.276-.187.06-.46s-.146-.445-.12-.852c.024-.4-.257-.534-.684-.73-.425-.204-.454.282-.23.415m-15.943-.642s-1.006-1.167-1.26-2.223-.204-2.336-.204-2.336l-1.5.515s-.087 1.464.592 2.648c.753 1.3 1.716 1.9 1.716 1.9z"/><path d="M378.02 29.264c-.243.158-.266.535-.455.78-.192.252-.24.1-.678.1s-.45.207-.574.312-.182-.328-.182-.328.08-.372.55-.4.454.2.656-.22.598-.744.598-.744.33.34.086.498m7.9 5.548c2.446.612 3.974-.094 3.974-.094l-.134-.702s-1.784.12-3.197-.092c-1.418-.202-2.06-.65-2.06-.65l-.307.702s.67.57 1.725.835"/><path d="M386.655 35.814l.34.124.454-1.218-.34-.127zM397.4 33.55c.347.02.64-.24.664-.587.023-.342-.242-.636-.588-.658a.62.62 0 0 0-.66.583c-.022.343.238.635.584.662"/><path d="M375.964 31.2a.62.62 0 0 0 .66-.583c.02-.345-.24-.633-.588-.658a.62.62 0 0 0-.66.581c-.023.344.243.635.587.66m11 6.177a.99.99 0 0 0 1.056-.925 1 1 0 0 0-.935-1.051.99.99 0 0 0-1.055.927c-.034.544.384 1.017.934 1.05"/></g><path d="M305.65 25.348c-.955 0-1.425-1.003-1.425-1.87 0-.853.47-1.847 1.425-1.847 1.002 0 1.438 1.02 1.438 1.9s-.46 1.806-1.438 1.806m3.274-4.302c0-.612-.386-1.018-.922-1.018-.505 0-.8.277-.914.766-.344-.562-1.055-.84-1.68-.84-1.85 0-3.02 1.714-3.02 3.447 0 1.787.982 3.63 2.955 3.63.636 0 1.26-.218 1.743-.638V28.9c0 .608.38 1.015.914 1.015s.922-.407.922-1.015zm5.396 3.057c-.103.804-.6 1.397-1.466 1.397-.814 0-1.363-.62-1.45-1.397zm-2.88-1.22c.133-.904.88-1.326 1.734-1.326.94 0 1.592.738 2.074.738.395 0 .75-.394.75-.8 0-.8-1.626-1.548-3-1.548-2.065 0-3.437 1.5-3.437 3.523 0 1.858 1.35 3.552 3.283 3.552 1.985 0 3.297-1.808 3.297-3.336 0-.546-.243-.812-.8-.812zm9.216 2c-.344 0-1.042.534-1.643.534-.33 0-.624-.153-.624-.5 0-.853 3.185-.726 3.185-2.814 0-1.22-1.033-2.147-2.6-2.147-1.033 0-2.56.583-2.56 1.4 0 .28.28.813.8.813.714 0 1.03-.62 1.898-.62.56 0 .725.18.725.523 0 .84-3.183.7-3.183 2.813 0 1.27 1.03 2.138 2.48 2.138.904 0 2.294-.422 2.294-1.326 0-.417-.32-.812-.752-.812m1.532 1.03c0 .612.38 1.02.913 1.02s.918-.407.918-1.02v-4.887c0-.612-.38-1.018-.918-1.018s-.913.406-.913 1.018zm1.945 2.765c0-.577-.457-1.058-1.032-1.058-.546 0-1.028.498-1.028 1.058 0 .52.482 1.002 1.028 1.002s1.032-.468 1.032-1.002m3.897-3.35c-.955 0-1.426-.993-1.426-1.847 0-.977.47-1.87 1.426-1.87.98 0 1.437.916 1.437 1.813 0 .885-.432 1.904-1.437 1.904m3.27-4.7c0-2.2-1.44-3.3-3.528-3.3-.748 0-2.886.373-2.886 1.377 0 .344.38.803.74.803.584 0 1.234-.57 2.3-.57.892 0 1.552.516 1.552 1.45v.43h-.024c-.38-.56-1.005-.863-1.845-.863-1.922 0-2.83 1.7-2.83 3.5 0 1.847 1.173 3.566 3.018 3.566.625 0 1.336-.28 1.68-.837.115.48.407.76.917.76.537 0 .917-.407.917-1.02zm1.042 5.285c0 .612.38 1.02.917 1.02.473 0 .776-.252.84-.677.358.5.904.755 1.77.755 1.436 0 2.506-.918 2.506-2.47v-3.515c0-.612-.38-1.018-.913-1.018s-.918.406-.918 1.018v3.197c0 .85-.537 1.256-1.198 1.256-.75 0-1.17-.545-1.17-1.256v-3.197c0-.612-.385-1.018-.918-1.018s-.917.406-.917 1.018zm11.43-1.83c-.103.804-.612 1.397-1.464 1.397-.813 0-1.364-.62-1.452-1.397zm-2.877-1.22c.127-.904.88-1.326 1.733-1.326.94 0 1.6.738 2.074.738.394 0 .752-.394.752-.8 0-.8-1.632-1.548-2.992-1.548-2.064 0-3.44 1.5-3.44 3.523 0 1.858 1.352 3.552 3.285 3.552 1.985 0 3.297-1.808 3.297-3.336 0-.546-.243-.812-.802-.812zm8.35 2.466c-.956 0-1.424-1.003-1.424-1.87 0-.853.468-1.847 1.424-1.847 1.003 0 1.44 1.02 1.44 1.9s-.46 1.806-1.44 1.806m3.27-4.302c0-.612-.38-1.018-.918-1.018-.507 0-.798.277-.913.766-.344-.562-1.058-.84-1.682-.84-1.846 0-3.016 1.714-3.016 3.447 0 1.787.982 3.63 2.955 3.63.633 0 1.257-.218 1.743-.638V28.9c0 .608.38 1.015.913 1.015s.918-.407.918-1.015zm7.726.585c.955 0 1.427.994 1.427 1.847 0 .867-.472 1.87-1.427 1.87-.98 0-1.44-.913-1.44-1.806s.434-1.9 1.44-1.9m-3.27 7.26c0 .608.382 1.014.917 1.014s.915-.406.915-1.014v-2.498c.484.42 1.108.637 1.743.637 1.976 0 2.954-1.84 2.954-3.628 0-1.733-1.17-3.447-3.018-3.447-.62 0-1.335.278-1.68.84-.112-.5-.405-.767-.915-.767-.535 0-.917.407-.917 1.02zm6.85-3.197c-.054.138-.092.282-.092.468 0 .46.483.8.864.8.445 0 .765-.243.92-.647l1.257-3.453 1.35 3.453c.152.404.472.647.918.647.382 0 .864-.328.864-.8 0-.186-.025-.33-.087-.468l-3.067-7.64c-.156-.38-.436-.727-.867-.727-.624 0-.955.397-.955.8a1.6 1.6 0 0 0 .112.537l.806 1.984z"/></g></g><path d="M188.7 587.566h97.56V577.26H188.7z" fill="#fff" fill-rule="evenodd" stroke="#fffffe" stroke-width=".585"/></g></svg>