<?xml version="1.0" encoding="UTF-8" standalone="no"?>
<svg
   xmlns:dc="http://purl.org/dc/elements/1.1/"
   xmlns:cc="http://creativecommons.org/ns#"
   xmlns:rdf="http://www.w3.org/1999/02/22-rdf-syntax-ns#"
   xmlns:svg="http://www.w3.org/2000/svg"
   xmlns="http://www.w3.org/2000/svg"
   xmlns:sodipodi="http://sodipodi.sourceforge.net/DTD/sodipodi-0.dtd"
   xmlns:inkscape="http://www.inkscape.org/namespaces/inkscape"
   inkscape:version="1.0 (4035a4fb49, 2020-05-01)"
   sodipodi:docname="forbes-logo.svg"
   id="svg1506"
   version="1.1"
   width="600"
   height="300">
  <metadata
     id="metadata1512">
    <rdf:RDF>
      <cc:Work
         rdf:about="">
        <dc:format>image/svg+xml</dc:format>
        <dc:type
           rdf:resource="http://purl.org/dc/dcmitype/StillImage" />
        <dc:title></dc:title>
      </cc:Work>
    </rdf:RDF>
  </metadata>
  <defs
     id="defs1510" />
  <sodipodi:namedview
     inkscape:current-layer="svg1506"
     inkscape:window-maximized="1"
     inkscape:window-y="-9"
     inkscape:window-x="-9"
     inkscape:cy="181.5"
     inkscape:cx="512"
     inkscape:zoom="1.1796875"
     showgrid="true"
     id="namedview1508"
     inkscape:window-height="1001"
     inkscape:window-width="1920"
     inkscape:pageshadow="2"
     inkscape:pageopacity="0"
     guidetolerance="10"
     gridtolerance="10"
     objecttolerance="10"
     borderopacity="1"
     bordercolor="#666666"
     pagecolor="#ffffff">
    <inkscape:grid
       id="grid2075"
       type="xygrid" />
  </sodipodi:namedview>
  <path
     style="stroke-width:0.834841"
     id="path1504"
     d="m 102.09511,104.57124 h 10.39795 a 35.023268,35.023268 0 0 1 18.69711,2.37179 33.108141,33.108141 0 0 1 14.95785,19.97441 c 1.5503,4.37791 1.5503,4.37791 5.29039,2.82761 h 2.91861 V 95.086608 H 56.491062 v 6.111042 h 4.013082 a 11.674423,11.674423 0 0 1 9.120643,4.28691 c 3.74009,6.0192 4.377908,12.7689 4.377908,47.884 0,37.30405 -0.820649,46.42553 -4.377908,51.0756 a 9.850294,9.850294 0 0 1 -7.570342,4.01308 c -5.563383,1.00348 -5.563383,0.91248 -5.563383,3.37443 a 3.6482571,3.6482571 0 0 0 0,2.55378 h 61.747378 a 5.7462136,5.7462136 0 0 0 0,-5.19856 31.466843,31.466843 0 0 0 -4.56074,-0.91248 30.463364,30.463364 0 0 1 -4.92556,-1.00348 16.417157,16.417157 0 0 1 -6.65786,-14.86686 c -0.91249,-6.0192 -1.36914,-17.05581 -1.36914,-26.17645 v -7.20468 h 3.64825 a 49.25147,49.25147 0 0 1 13.49855,1.4593 16.87298,16.87298 0 0 1 7.84417,12.03925 l 0.82065,2.82761 h 5.56338 v -40.40466 h -5.10756 l -0.82064,3.92209 a 16.235161,16.235161 0 0 1 -8.3,12.03924 15.231682,15.231682 0 0 1 -6.65786,0.45583 h -10.48644 v -9.85113 c 0,-10.21512 0.54766,-31.74067 0.91248,-35.1151 z m 426.84941,72.32732 a 33.108141,33.108141 0 0 0 -18.87994,-14.3192 45.603213,45.603213 0 0 1 -16.32616,-9.12064 9.1206426,9.1206426 0 0 1 -2.64477,-8.11716 10.853773,10.853773 0 0 1 3.19243,-7.66134 11.035769,11.035769 0 0 1 10.94477,-3.00961 22.984019,22.984019 0 0 1 16.14333,17.14681 c 1.4593,4.10408 1.6413,4.10408 4.28691,3.0096 l 1.64213,-0.63865 v -22.71019 l -1.18547,-0.54682 a 70.503194,70.503194 0 0 0 -28.00058,-3.83109 32.834313,32.834313 0 0 0 -21.88954,9.12064 25.172974,25.172974 0 0 0 -7.93517,19.70059 21.615714,21.615714 0 0 0 6.20203,14.95786 A 37.030226,37.030226 0 0 0 490,180 c 14.13721,5.56338 18.24129,9.12064 18.24129,15.59651 a 12.039248,12.039248 0 0 1 -9.12064,11.94825 22.528196,22.528196 0 0 1 -9.6683,0 28.091579,28.091579 0 0 1 -17.05581,-19.24477 l -1.18548,-2.9186 h -1.6413 a 7.2965141,7.2965141 0 0 0 -2.27995,0.54682 h -0.91248 v 25.90262 h 1.5503 a 94.034869,94.034869 0 0 0 18.97094,4.19592 h 9.12064 a 35.752919,35.752919 0 0 0 11.76542,-1.09448 28.365407,28.365407 0 0 0 21.52472,-18.24129 21.159891,21.159891 0 0 0 1.64213,-8.20899 22.710191,22.710191 0 0 0 -2.00696,-11.58343 z m -85.9177,-47.15435 a 42.046789,42.046789 0 0 0 -34.38545,0.82065 40.03983,40.03983 0 0 0 -20.88607,24.89915 48.704649,48.704649 0 0 0 -2.46278,18.24128 49.890124,49.890124 0 0 0 0.82065,10.03313 40.495653,40.495653 0 0 0 32.74332,32.65232 63.845333,63.845333 0 0 0 15.96133,0 43.779085,43.779085 0 0 0 15.50551,-5.92821 27.361928,27.361928 0 0 0 9.6683,-9.12065 4.5607387,4.5607387 0 0 0 -2.18896,-2.8276 11.76542,11.76542 0 0 0 -2.9186,1.5503 26.085455,26.085455 0 0 1 -15.32268,4.28691 24.352325,24.352325 0 0 1 -19.42676,-7.66134 21.798545,21.798545 0 0 1 -4.65174,-6.20204 42.411614,42.411614 0 0 1 -4.4689,-18.24128 v -3.55726 h 50.52877 v -1.82413 a 44.782564,44.782564 0 0 0 0,-5.47239 36.482571,36.482571 0 0 0 -18.51511,-31.64884 z m -25.44597,31.55701 h -6.38487 v -5.38139 c 2.09796,-13.77238 7.29652,-21.98137 13.68138,-21.98137 6.38487,0 9.12065,8.11716 10.30612,22.98318 v 4.19591 H 429.7111 Z M 286.42476,126.73378 a 19.153767,19.153767 0 0 0 -9.12065,1.91512 30.554362,30.554362 0 0 0 -14.1372,14.13721 l -1.18548,2.18895 v -18.24128 h -0.45582 c -1.09364,0 -34.84127,6.74969 -35.93575,7.20468 -1.09448,0.45499 -0.72965,0.54765 -0.72965,2.18895 0,1.6413 0,1.91513 0.72965,2.00696 l 3.55643,0.72965 a 6.5668627,6.5668627 0 0 1 5.10756,2.64478 c 2.27911,3.0096 2.73661,8.29999 2.73661,30.82819 a 176.12065,176.12065 0 0 1 -1.27648,30.37236 7.4793444,7.4793444 0 0 1 -6.29303,5.92821 l -3.10144,0.63866 h -1.18547 v 2.55461 a 3.6482571,3.6482571 0 0 0 0,2.64478 h 50.98376 v -2.64478 a 6.6578604,6.6578604 0 0 0 0,-2.64478 50.984601,50.984601 0 0 1 -9.12064,-1.18547 9.1206426,9.1206426 0 0 1 -4.83373,-9.12064 c -0.72965,-5.29039 -1.09364,-20.7959 -0.91248,-32.65232 0.18116,-11.85642 0,-12.58691 1.00348,-13.40755 a 16.417157,16.417157 0 0 1 10.67094,-3.37443 23.804669,23.804669 0 0 1 10.39795,2.64477 13.681381,13.681381 0 0 0 3.55726,1.36831 l 9.12064,-23.07502 a 10.762776,10.762776 0 0 0 -9.57646,-3.64825 z m -61.47355,38.30669 a 40.952312,40.952312 0 0 0 -18.78894,-32.46948 47.427342,47.427342 0 0 0 -42.68461,-1.18548 41.225305,41.225305 0 0 0 -19.97442,23.71367 60.926728,60.926728 0 0 0 0,35.02327 38.215701,38.215701 0 0 0 9.7593,16.50815 37.030226,37.030226 0 0 0 21.06889,10.21512 91.936913,91.936913 0 0 0 15.32268,0 48.248826,48.248826 0 0 0 5.56339,-1.18547 40.587486,40.587486 0 0 0 29.09505,-32.37849 79.714834,79.714834 0 0 0 0.63866,-18.24129 z m -37.94188,45.60322 c -9.12064,2.73661 -15.96216,-6.11104 -18.24128,-24.71715 a 170.9221,170.9221 0 0 1 0,-29.27789 c 1.82413,-14.95786 6.47586,-22.5282 13.68138,-22.5282 a 9.1206426,9.1206426 0 0 1 7.66134,3.37443 c 6.11104,6.11104 9.12064,18.24129 9.12064,36.48257 a 67.584588,67.584588 0 0 1 -4.74273,30.28054 13.863377,13.863377 0 0 1 -7.47935,5.9282 z M 351.1809,128.55707 a 30.372366,30.372366 0 0 0 -7.75234,0 34.476447,34.476447 0 0 0 -14.3192,3.10144 l -2.8276,1.18547 v -19.79159 a 135.98983,135.98983 0 0 0 0,-20.065408 c -1.09365,0 -35.93575,6.657858 -36.48257,6.931688 a 2.8276079,2.8276079 0 0 0 0,2.09796 c 0,1.91512 0,1.82413 4.10408,2.73661 a 11.76542,11.76542 0 0 1 3.28343,1.27647 11.218599,11.218599 0 0 1 3.37443,6.29303 104.43198,104.43198 0 0 1 1.00348,20.9779 v 80.07966 l 2.46278,0.54682 c 3.64825,0.82065 13.95437,2.55461 17.32964,2.9186 a 127.68983,127.68983 0 0 0 20.24824,0 41.317137,41.317137 0 0 0 34.11162,-25.62879 62.841854,62.841854 0 0 0 3.46626,-13.86338 82.086618,82.086618 0 0 0 -0.63865,-19.24476 35.1151,35.1151 0 0 0 -27.36193,-29.55089 z m -23.8965,80.53548 -0.72965,-57.0948 v -12.49424 l 2.64478,-0.63865 a 18.970937,18.970937 0 0 1 5.38138,0 9.1206426,9.1206426 0 0 1 5.65522,1.2773 27.361928,27.361928 0 0 1 11.76542,20.79507 100.3279,100.3279 0 0 1 0,19.97441 43.870917,43.870917 0 0 1 -10.57994,26.17646 12.677902,12.677902 0 0 1 -6.47587,3.28343 16.235161,16.235161 0 0 1 -5.56338,0 c -1.73313,0 -1.73313,-0.54682 -1.73313,-1.27731 v 0 z" />
</svg>
