<?xml version="1.0" encoding="UTF-8" standalone="no"?>
<svg
   xmlns:dc="http://purl.org/dc/elements/1.1/"
   xmlns:cc="http://creativecommons.org/ns#"
   xmlns:rdf="http://www.w3.org/1999/02/22-rdf-syntax-ns#"
   xmlns:svg="http://www.w3.org/2000/svg"
   xmlns="http://www.w3.org/2000/svg"
   xmlns:sodipodi="http://sodipodi.sourceforge.net/DTD/sodipodi-0.dtd"
   xmlns:inkscape="http://www.inkscape.org/namespaces/inkscape"
   inkscape:version="1.0 (4035a4fb49, 2020-05-01)"
   sodipodi:docname="Innovation-Group-logo.svg"
   id="svg2093"
   version="1.1"
   width="600"
   height="300"
   viewBox="-2.429 -2.429 141.80684 70.928926">
  <metadata
     id="metadata2099">
    <rdf:RDF>
      <cc:Work
         rdf:about="">
        <dc:format>image/svg+xml</dc:format>
        <dc:type
           rdf:resource="http://purl.org/dc/dcmitype/StillImage" />
        <dc:title></dc:title>
      </cc:Work>
    </rdf:RDF>
  </metadata>
  <defs
     id="defs2097" />
  <sodipodi:namedview
     inkscape:current-layer="svg2093"
     inkscape:window-maximized="1"
     inkscape:window-y="-9"
     inkscape:window-x="-9"
     inkscape:cy="181.5"
     inkscape:cx="512"
     inkscape:zoom="1.1796875"
     showgrid="true"
     id="namedview2095"
     inkscape:window-height="1001"
     inkscape:window-width="1920"
     inkscape:pageshadow="2"
     inkscape:pageopacity="0"
     guidetolerance="10"
     gridtolerance="10"
     objecttolerance="10"
     borderopacity="1"
     bordercolor="#666666"
     pagecolor="#ffffff">
    <inkscape:grid
       id="grid2662"
       type="xygrid" />
  </sodipodi:namedview>
  <path
     style="stroke-width:0.586149"
     id="path2089"
     d="m 13.527728,33.345178 a 1.9594964,1.9594964 0 0 0 1.945429,-1.966531 1.9594964,1.9594964 0 0 0 -1.961841,-1.950704 1.9594964,1.9594964 0 0 0 -1.955393,1.957738 1.950118,1.950118 0 0 0 0.575598,1.390932 1.9548072,1.9548072 0 0 0 1.395621,0.568565"
     fill="#00bef0" />
  <path
     style="stroke-width:0.586149"
     id="path2091"
     d="m 30.909979,40.138645 c -1.086134,-0.06037 -2.118929,0.46892 -2.708009,1.384484 v -1.184021 h -2.32115 v 9.407693 h 2.32115 v -4.95296 c -0.051,-0.662348 0.191671,-1.315904 0.662349,-1.781893 a 2.2625354,2.2625354 0 0 1 1.785996,-0.651212 4.3257802,4.3257802 0 0 1 0.910876,0.08968 h 0.07268 v -2.255501 h -0.04806 a 5.0309175,5.0309175 0 0 0 -0.674658,-0.05803 m 6.087158,7.750649 a 2.8604075,2.8604075 0 0 1 -2.858649,-2.858649 2.858649,2.858649 0 0 1 2.858649,-2.856304 2.854546,2.854546 0 0 1 2.856305,2.856304 2.858649,2.858649 0 0 1 -2.856305,2.858649 m 0,-7.845605 c -2.738488,0.0803 -4.898447,2.350457 -4.843936,5.087774 a 4.993404,4.993404 0 0 0 5.040296,4.895517 c 2.735558,-0.02579 4.942995,-2.250813 4.945926,-4.989887 a 5.0115746,5.0115746 0 0 0 -1.518126,-3.583716 5.0057131,5.0057131 0 0 0 -3.623574,-1.417308 m 12.340783,5.753639 c 0,1.318835 -0.702207,2.039799 -1.969461,2.039799 A 1.8170621,1.8170621 0 0 1 45.905433,47.284973 1.8270267,1.8270267 0 0 1 45.399,45.806119 V 40.31566 h -2.366284 v 5.67744 c 0,2.426657 1.693971,3.995778 4.314057,3.995778 2.620087,0 4.347468,-1.569121 4.347468,-4.05322 v -5.62117 h -2.366284 l 0.01172,5.472874 z m 8.543709,-3.538582 a 2.787725,2.787725 0 0 1 0,5.567244 2.783622,2.783622 0 0 1 0,-5.567244 m 0.296005,-2.134755 c -1.348143,0 -2.454206,0.512881 -2.909058,1.330559 v -1.131268 h -2.366283 v 13.294447 h 2.366283 V 48.61729 c 0.448404,0.815919 1.562088,1.330558 2.909058,1.330558 a 4.7706673,4.7706673 0 0 0 3.403768,-1.463028 4.7753565,4.7753565 0 0 0 1.331144,-3.454763 4.7753565,4.7753565 0 0 0 -1.331144,-3.454762 4.7595305,4.7595305 0 0 0 -3.403768,-1.460684 m -33.39174,3.247266 v -1.259634 h -6.597108 v 2.285981 h 3.981124 a 4.113008,4.113008 0 0 1 -7.938216,0.134228 c -0.515812,-1.784238 0.228598,-3.690394 1.814717,-4.656954 1.58612,-0.96656 3.623574,-0.748513 4.967614,0.532223 l 1.774859,-1.774859 a 6.6023832,6.6023832 0 0 0 -8.321558,-0.742065 c -2.598399,1.764309 -3.594267,5.109462 -2.385627,8.007969 a 6.6023832,6.6023832 0 0 0 7.369652,3.935991 6.6070724,6.6070724 0 0 0 5.333957,-6.432986 v -0.04103 m 60.87744,-25.632297 v 2.727937 h -1.62246 v 2.889715 h 1.62246 v 9.862544 h 3.163447 v -9.86313 h 2.722658 v -2.889715 h -2.729106 v -4.554378 l -3.163446,1.827027 z m 6.975175,15.479024 h 3.1652 V 20.446381 h -3.1652 v 12.750501 z m 1.52047,-17.909785 c -1.08144,0.007 -1.95305,0.88743 -1.94836,1.969461 a 1.9577379,1.9577379 0 0 0 1.96653,1.948359 1.9594964,1.9594964 0 0 0 1.9507,-1.964185 c 0,-0.521672 -0.20808,-1.022244 -0.57735,-1.386828 -0.36928,-0.364585 -0.87102,-0.57091 -1.39152,-0.56622 m -82.277745,0.148295 v 12.750501 h 3.161688 V 15.435979 Z m 64.266556,15.15254 c -0.991764,0.0094 -1.941325,-0.388031 -2.631809,-1.100202 a 3.6165398,3.6165398 0 0 1 -1.018727,-2.664634 c -0.03986,-0.987075 0.328243,-1.948359 1.014038,-2.6576 a 3.625332,3.625332 0 0 1 2.624775,-1.104891 c 1.003488,-0.02345 1.973564,0.367516 2.685735,1.076756 a 3.6868777,3.6868777 0 0 1 1.077342,2.685735 c 0.02345,1.005246 -0.368101,1.975322 -1.077342,2.68808 -0.70924,0.712757 -1.682247,1.100202 -2.685735,1.076756 m 3.549719,-8.614633 c -0.59201,-1.107822 -2.107206,-1.77486 -3.940094,-1.77486 A 6.4558459,6.4558459 0 0 0 71.1708,22.177865 c -1.197502,1.244981 -1.844611,2.920195 -1.798305,4.648163 a 6.4476398,6.4476398 0 0 0 1.793616,4.666918 c 1.201606,1.251429 2.851615,1.966531 4.585444,1.984701 1.834647,0 3.325224,-0.697517 3.940094,-1.774859 v 1.527504 h 3.165205 v -12.77805 h -3.165205 l -0.0047,1.527505 z m 24.25133,8.698452 a 3.7578017,3.7578017 0 0 1 -2.7338,-1.118959 c -0.72096,-0.727997 -1.11251,-1.72152 -1.08145,-2.744936 -0.0211,-1.019899 0.37397,-2.00463 1.0961,-2.725593 a 3.7578017,3.7578017 0 0 1 2.71974,-1.104891 c 1.02224,-0.0047 2.00462,0.402098 2.71973,1.129509 a 3.7912122,3.7912122 0 0 1 1.09551,2.7338 3.7912122,3.7912122 0 0 1 -1.10724,2.710353 3.798246,3.798246 0 0 1 -2.708,1.118958 m 0,-10.615159 a 6.7524373,6.7524373 0 0 0 -6.549627,6.879631 c 0.0721,3.701532 3.112447,6.654551 6.815147,6.616451 3.7027,-0.0381 6.6821,-3.043286 6.68503,-6.745403 a 6.7758833,6.7758833 0 0 0 -2.06383,-4.825766 6.7776417,6.7776417 0 0 0 -4.8879,-1.908501 m 15.01011,0.12485 a 4.2783021,4.2783021 0 0 0 -3.73905,1.809442 v -1.562087 h -3.13589 v 12.748742 h 3.13589 v -7.321588 c -0.034,-0.761994 0.25205,-1.506403 0.79248,-2.047419 a 2.7214901,2.7214901 0 0 1 2.04742,-0.79306 c 1.62246,0 2.59077,1.018727 2.59077,2.715629 v 7.449955 h 3.16169 v -7.851467 c 0,-3.212097 -1.81706,-5.122943 -4.85331,-5.122943 m -48.957514,0.224495 h -3.28009 l -3.489932,8.411239 -3.521583,-8.411239 h -3.273643 l 5.460565,12.751673 h 2.631809 l 5.474632,-12.751673 z m -46.13169,-0.246182 a 4.2730267,4.2730267 0 0 0 -3.739045,1.809442 V 20.448139 H 16.977215 V 33.19864 h 3.135898 v -7.326863 a 2.7214901,2.7214901 0 0 1 2.840478,-2.840479 c 1.61953,0 2.590779,1.018727 2.590779,2.715629 v 7.449955 h 3.172825 v -7.851467 c 0,-3.212097 -1.812959,-5.122943 -4.853314,-5.122943 m 13.32903,-0.02345 a 4.2783021,4.2783021 0 0 0 -3.743734,1.805339 v -1.556808 h -3.13707 v 12.750501 h 3.135897 v -7.326277 a 2.7121118,2.7121118 0 0 1 0.792474,-2.047419 2.716801,2.716801 0 0 1 2.047419,-0.79306 c 1.61953,0 2.590779,1.018727 2.590779,2.715629 v 7.449955 h 3.159343 v -7.851467 c 0,-3.212097 -1.808856,-5.122943 -4.85097,-5.122943 m 12.868317,10.449866 a 3.7624909,3.7624909 0 0 1 -2.733799,-1.118959 c -0.719205,-0.727997 -1.112511,-1.72152 -1.081445,-2.744936 -0.01876,-1.019899 0.376894,-2.00463 1.096099,-2.725593 a 3.7578017,3.7578017 0 0 1 2.719731,-1.104891 c 1.022244,-0.0047 2.00463,0.402098 2.722663,1.129509 0.718032,0.727411 1.112511,1.713314 1.094926,2.733799 a 3.8005906,3.8005906 0 0 1 -1.10958,2.710354 3.7912122,3.7912122 0 0 1 -2.708009,1.118958 m 0,-10.615159 a 6.7489204,6.7489204 0 0 0 -6.554319,6.87377 6.7536096,6.7536096 0 0 0 6.805777,6.627001 c 3.700359,-0.03282 6.68503,-3.036252 6.694995,-6.736611 a 6.7870201,6.7870201 0 0 0 -6.946453,-6.74599"
     fill="#464b50" />
</svg>
