<?xml version="1.0" encoding="UTF-8" standalone="no"?>
<svg
   xmlns:dc="http://purl.org/dc/elements/1.1/"
   xmlns:cc="http://creativecommons.org/ns#"
   xmlns:rdf="http://www.w3.org/1999/02/22-rdf-syntax-ns#"
   xmlns:svg="http://www.w3.org/2000/svg"
   xmlns="http://www.w3.org/2000/svg"
   xmlns:sodipodi="http://sodipodi.sourceforge.net/DTD/sodipodi-0.dtd"
   xmlns:inkscape="http://www.inkscape.org/namespaces/inkscape"
   inkscape:version="1.0 (4035a4fb49, 2020-05-01)"
   sodipodi:docname="Monetary-Authority-of-Singapore-logo.svg"
   id="svg2728"
   version="1.1"
   width="600"
   height="300">
  <metadata
     id="metadata2734">
    <rdf:RDF>
      <cc:Work
         rdf:about="">
        <dc:format>image/svg+xml</dc:format>
        <dc:type
           rdf:resource="http://purl.org/dc/dcmitype/StillImage" />
        <dc:title></dc:title>
      </cc:Work>
    </rdf:RDF>
  </metadata>
  <defs
     id="defs2732" />
  <sodipodi:namedview
     inkscape:current-layer="svg2728"
     inkscape:window-maximized="1"
     inkscape:window-y="-9"
     inkscape:window-x="-9"
     inkscape:cy="181.5"
     inkscape:cx="512"
     inkscape:zoom="1.1796875"
     showgrid="true"
     id="namedview2730"
     inkscape:window-height="1001"
     inkscape:window-width="1920"
     inkscape:pageshadow="2"
     inkscape:pageopacity="0"
     guidetolerance="10"
     gridtolerance="10"
     objecttolerance="10"
     borderopacity="1"
     bordercolor="#666666"
     pagecolor="#ffffff">
    <inkscape:grid
       id="grid3297"
       type="xygrid" />
  </sodipodi:namedview>
  <path
     style="stroke-width:0.808436"
     id="path2700"
     fill="#131c47"
     fill-rule="evenodd"
     d="M 54.017162,58.09704 V 229.8113 H 225.52688 V 58.09704 Z" />
  <path
     style="stroke-width:0.808436"
     id="path2702"
     fill="#9e7d26"
     d="m 140,80 v 0 c -35.11442,0 -63.611793,28.78033 -63.611793,63.97155 0,35.14919 28.497373,63.67485 63.611793,63.67485 35.14676,0 63.90688,-28.52566 63.90688,-63.67485 C 203.90688,108.78841 175.14757,80 140,80 Z" />
  <g
     transform="matrix(0.80843613,0,0,0.80843613,-136.34772,2.939868)"
     id="g2710"
     fill="#f9f8f8"
     fill-rule="evenodd">
    <path
       id="path2704"
       d="m 290.496,200 v -51.752 h 0.284 l 15.518,55.402 h 2.107 l 14.9,-53.577 V 200 h -6.078 v 2.717 H 335.46 V 200 H 330 v -52.644 h 5.47 v -2.758 h -13.087 l -13.047,46.277 -12.763,-46.277 h -13.37 v 2.758 h 4.862 V 200 h -4.862 v 2.717 h 13.654 V 200 Z" />
    <path
       id="path2706"
       d="m 358.28,179.924 v 0 l -5.794,-24.984 -6.685,24.984 z M 337.9,200 v 0 l 14.9,-56.294 h 4.538 L 370.436,200 h 4.862 v 2.717 H 356.741 V 200 h 6.078 l -3.93,-17.36 H 345.194 L 340.616,200 h 6.402 v 2.717 H 335.47 V 200 Z" />
    <path
       id="path2708"
       d="m 375.298,200 v 0 c 3.647,2.433 10.332,3.65 14.262,3.65 8.51,0 15.194,-4.583 14.586,-16.75 -0.608,-21.9 -23.986,-15.818 -24.3,-30.418 -0.284,-6.408 4.254,-10.95 8.51,-10.95 5.794,0 10.332,5.15 11.264,14.276 h 2.107 V 147.03 c -3.322,-2.11 -9.116,-3.326 -12.763,-3.326 -6.97,0 -14.586,4.867 -13.978,16.1 0.608,20.117 23.703,14.317 24.3,30.135 0.324,7.625 -4.254,11.56 -9.4,11.56 -7.617,0 -11.872,-6.084 -12.763,-16.426 H 375.3 Z" />
  </g>
  <g
     id="g2726"
     fill="#9e7d26"
     fill-rule="evenodd"
     transform="matrix(3.2765755,0,0,3.2765755,54.017041,58.097193)">
    <path
       id="path2712"
       d="m 61.622,46.772 v 0 c 0,1.2 0.6,3.082 2.4,3.082 1.8,0 2.4,-1.88 2.4,-3.082 0,-1.202 -0.6,-3.072 -2.4,-3.072 -1.8,0 -2.4,1.87 -2.4,3.072 z m 1.2,0 v 0 c 0,-1.27 0,-2.772 1.2,-2.772 1.2,0 1.2,1.5 1.2,2.772 0,1.28 0,2.782 -1.2,2.782 -1.2,0 -1.2,-1.5 -1.2,-2.782 z M 67.7,44.15 v 0 5.254 h -0.9 v 0.37 h 2.78 v -0.37 H 68.75 V 44.15 h 0.98 v -0.3 H 68.75 V 42.5 c 0,-0.75 0.08,-1.2 0.6,-1.2 0.45,0 0.6,0.23 0.6,0.76 0,0.45 0.15,0.6 0.45,0.6 0.3,0 0.45,-0.15 0.45,-0.53 0,-0.9 -0.9,-1.13 -1.5,-1.13 -0.82,0 -1.65,0.3 -1.65,1.66 v 1.2 h -0.9 v 0.3 z m 5.328,5.174 v 0 c 0.67,0.38 1.72,0.53 2.4,0.53 1.42,0 2.55,-0.6 2.55,-2.482 0,-3.222 -3.98,-2.322 -3.98,-4.503 0,-0.97 0.83,-1.58 1.5,-1.58 0.98,0 1.73,0.68 1.88,2.1 h 0.3 l -0.08,-1.96 c -0.52,-0.3 -1.35,-0.45 -1.95,-0.45 -1.2,0 -2.47,0.68 -2.47,2.332 0,3.002 3.97,2.182 3.97,4.503 0,1.2 -0.82,1.73 -1.65,1.73 -1.35,0 -2.1,-0.9 -2.25,-2.402 h -0.3 z m 6.37,0.08 v 0 h -0.9 v 0.37 h 2.78 v -0.37 h -0.83 V 43.85 h -1.95 v 0.3 h 0.9 z m -0.15,-7.435 v 0 c 0,0.38 0.3,0.68 0.68,0.68 0.3,0 0.6,-0.3 0.6,-0.68 0,-0.45 -0.3,-0.75 -0.6,-0.75 -0.38,0 -0.68,0.22 -0.68,0.75 z m 2.18,7.435 v 0 0.37 h 2.7 v -0.37 h -0.75 v -3.082 c 0,-1.12 0.45,-2.172 1.42,-2.172 0.68,0 0.83,0.6 0.83,1.27 v 3.983 h -0.83 v 0.37 h 2.7 v -0.37 h -0.82 V 45.35 c 0,-1.2 -0.53,-1.65 -1.5,-1.65 -0.9,0 -1.5,0.45 -1.8,1.27 v -1.12 h -1.95 v 0.3 h 0.9 v 5.254 z M 89.975,43.7 v 0 c -0.83,0 -1.65,0.67 -1.65,1.8 a 2.41,2.41 0 0 0 0.3,1.271 c -0.45,0.23 -0.9,0.68 -0.9,1.35 0,0.68 0.45,1.28 1.05,1.43 -0.53,0.07 -0.98,0.45 -0.98,1.12 0,1.43 1.5,1.73 2.4,1.73 1.06,0 2.4,-0.53 2.4,-2.182 0,-1.35 -0.75,-1.87 -1.73,-1.87 h -1.8 c -0.6,0 -0.9,-0.08 -0.9,-0.53 0,-0.37 0.45,-0.75 0.75,-0.75 0.3,0.23 0.75,0.38 1.2,0.38 0.9,0 1.73,-0.75 1.73,-1.95 0,-0.38 -0.08,-0.68 -0.3,-1.05 0,-0.15 0.22,-0.3 0.3,-0.3 0.37,0 0.07,0.75 0.6,0.75 0.22,0 0.37,-0.23 0.37,-0.53 0,-0.45 -0.37,-0.67 -0.67,-0.67 -0.38,0 -0.6,0.22 -0.75,0.45 -0.38,-0.38 -0.9,-0.45 -1.43,-0.45 z m -0.68,1.72 v 0 c 0,-0.75 0.08,-1.42 0.83,-1.42 0.75,0 0.75,0.9 0.75,1.65 0,0.6 -0.08,1.5 -0.83,1.5 -0.75,0 -0.75,-1.05 -0.75,-1.73 z m 1.43,4.133 v 0 c 0.98,0 1.5,0.15 1.5,0.97 0,0.9 -0.82,1.58 -1.95,1.58 -1.05,0 -1.73,-0.38 -1.73,-1.35 0,-1.13 0.75,-1.2 2.18,-1.2 z m 5.477,-0.6 v 0 c 0.22,0.75 0.6,0.82 1.12,0.82 h 0.83 v -0.37 c -0.6,0 -0.83,0.15 -0.83,-0.75 v -3.232 c 0,-0.97 -0.37,-1.72 -1.95,-1.72 -0.82,0 -1.95,0.22 -1.95,1.42 0,0.38 0.23,0.45 0.45,0.45 0.3,0 0.53,-0.22 0.53,-0.67 0,-0.75 0.45,-0.9 0.97,-0.9 0.68,0 0.9,0.52 0.9,1.35 v 0.52 c -1.27,0.45 -3.15,0.45 -3.15,2.252 0,1.13 0.38,1.73 1.43,1.73 0.67,0 1.27,-0.15 1.65,-0.9 z m 0.07,-2.782 v 0 1.43 c 0,0.82 -0.37,1.87 -1.27,1.87 -0.6,0 -0.68,-0.6 -0.68,-1.35 0,-1.2 0.45,-1.42 1.05,-1.65 z m 1.95,6.234 h 2.85 v -0.3 h -0.9 v -3.082 c 0.23,0.6 0.75,0.83 1.35,0.83 1.58,0 2.25,-1.43 2.25,-3.082 0,-2.172 -0.97,-3.072 -2.1,-3.072 -0.67,0 -1.12,0.22 -1.5,0.97 v -0.82 H 98.3 v 0.3 h 0.82 v 7.956 h -0.9 z m 1.95,-6.154 v 0 c 0,-1.8 0.75,-2.182 1.2,-2.182 0.98,0 1.28,1.2 1.28,2.702 0,1.73 -0.45,2.702 -1.28,2.702 -1.05,0 -1.2,-1.2 -1.2,-2.252 z m 4.35,0.52 v 0 c 0,1.2 0.53,3.082 2.4,3.082 1.8,0 2.4,-1.88 2.4,-3.082 0,-1.202 -0.6,-3.072 -2.4,-3.072 -1.87,0 -2.4,1.87 -2.4,3.072 z m 1.2,0 v 0 c 0,-1.27 0,-2.772 1.2,-2.772 1.2,0 1.2,1.5 1.2,2.772 0,1.28 0,2.782 -1.2,2.782 -1.2,0 -1.2,-1.5 -1.2,-2.782 z m 4.877,2.632 v 0 h -0.9 v 0.37 h 2.77 v -0.37 h -0.82 v -2.702 c 0,-1.28 0.6,-2.552 1.12,-2.552 0.15,0 0.23,0.15 0.23,0.3 v 0.6 c 0,0.37 0.22,0.45 0.52,0.45 0.38,0 0.53,-0.3 0.53,-0.75 0,-0.68 -0.38,-1.05 -0.98,-1.05 -0.75,0 -1.2,0.75 -1.42,1.42 v -1.27 h -1.95 v 0.3 h 0.9 z m 8.177,-3.002 v 0 c 0,-1.58 -0.75,-2.702 -2.18,-2.702 -1.5,0 -2.4,1.42 -2.4,3.072 0,1.73 0.6,3.082 2.25,3.082 1.13,0 1.73,-0.38 2.18,-1.8 l -0.3,-0.08 c -0.23,0.83 -0.68,1.5 -1.58,1.5 -1.35,0 -1.35,-1.12 -1.35,-2.852 v -0.22 z m -3.38,-0.3 v 0 c 0,-0.75 0.22,-2.1 1.05,-2.1 1.05,0 1.13,1.2 1.13,2.1 z M 62.904,37.615 V 29.8 l 2.77,8.256 h 0.23 l 2.7,-8.256 h 0.07 v 7.805 h -1.2 v 0.37 h 3.3 v -0.37 h -0.97 V 29.66 h 0.97 v -0.3 h -2.32 l -1.88,5.474 -0.37,1.35 -0.38,-1.27 -1.87,-5.554 h -2.33 v 0.3 h 0.9 v 7.956 h -0.9 v 0.37 h 2.4 v -0.37 z m 8.318,-2.632 v 0 c 0,1.2 0.6,3.082 2.4,3.082 1.88,0 2.4,-1.88 2.4,-3.082 0,-1.202 -0.52,-3.072 -2.4,-3.072 -1.8,0 -2.4,1.87 -2.4,3.072 z m 1.2,0 v 0 c 0,-1.27 0,-2.772 1.2,-2.772 1.2,0 1.28,1.5 1.28,2.772 0,1.28 -0.08,2.782 -1.28,2.782 -1.2,0 -1.2,-1.5 -1.2,-2.782 z m 4.047,2.632 v 0 0.37 h 2.7 v -0.37 h -0.82 v -3.082 c 0,-1.12 0.52,-2.172 1.42,-2.172 0.75,0 0.83,0.6 0.83,1.27 v 3.983 h -0.75 v 0.37 h 2.63 v -0.37 h -0.83 v -4.053 c 0,-1.2 -0.45,-1.65 -1.5,-1.65 -0.83,0 -1.43,0.45 -1.73,1.27 h -0.07 v -1.12 h -1.88 v 0.3 h 0.83 v 5.254 z m 11.027,-3.002 v 0 c 0,-1.58 -0.82,-2.702 -2.25,-2.702 -1.42,0 -2.32,1.42 -2.32,3.072 0,1.73 0.6,3.082 2.17,3.082 1.2,0 1.8,-0.38 2.25,-1.8 l -0.3,-0.08 c -0.3,0.83 -0.75,1.5 -1.57,1.5 -1.35,0 -1.43,-1.12 -1.43,-2.852 v -0.22 z m -3.45,-0.3 v 0 c 0,-0.75 0.23,-2.1 1.13,-2.1 1.05,0 1.12,1.2 1.12,2.1 z m 3.75,-1.952 h 0.83 v 4.203 c 0,0.75 0.07,1.42 1.12,1.42 0.83,0 1.2,-0.37 1.43,-1.05 l -0.3,-0.07 c -0.15,0.37 -0.3,0.75 -0.68,0.75 -0.45,0 -0.52,-0.38 -0.52,-1.05 v -4.203 h 1.12 v -0.3 h -1.12 v -1.65 h -1.05 v 1.65 h -0.83 z" />
    <path
       id="path2714"
       d="m 94.242,37.166 v 0 c 0.23,0.75 0.6,0.82 1.13,0.82 h 0.82 v -0.37 c -0.6,0 -0.82,0.15 -0.82,-0.75 v -3.232 c 0,-0.97 -0.38,-1.72 -1.95,-1.72 -0.83,0 -1.95,0.22 -1.95,1.42 0,0.38 0.22,0.45 0.45,0.45 0.3,0 0.52,-0.22 0.52,-0.67 0,-0.75 0.45,-0.9 0.98,-0.9 0.67,0 0.9,0.52 0.9,1.35 v 0.52 c -1.28,0.45 -3.15,0.45 -3.15,2.252 0,1.13 0.37,1.73 1.42,1.73 0.68,0 1.28,-0.15 1.65,-0.9 z m 0.08,-2.782 v 0 1.43 c 0,0.82 -0.38,1.87 -1.28,1.87 -0.52,0 -0.67,-0.6 -0.67,-1.35 0,-1.2 0.45,-1.42 1.05,-1.65 z m 2.848,3.232 v 0 h -0.9 v 0.37 h 2.77 v -0.37 h -0.82 v -2.702 c 0,-1.28 0.52,-2.552 1.12,-2.552 0.15,0 0.23,0.15 0.23,0.3 v 0.6 c 0,0.37 0.22,0.45 0.52,0.45 0.38,0 0.53,-0.3 0.53,-0.75 0,-0.68 -0.38,-1.05 -0.98,-1.05 -0.82,0 -1.2,0.75 -1.42,1.42 v -1.27 h -1.95 v 0.3 h 0.9 z" />
    <path
       id="path2716"
       d="m 102.87,38.667 v 0 c -0.3,1.12 -0.68,1.57 -0.98,1.57 -0.3,0 -0.37,-0.3 -0.37,-0.6 0,-0.3 -0.08,-0.6 -0.45,-0.6 -0.3,0 -0.45,0.23 -0.45,0.68 0,0.45 0.37,0.97 0.97,0.97 1.35,0 1.5,-1.87 1.8,-2.702 l 1.88,-5.704 h 0.75 v -0.22 h -2.1 v 0.22 h 0.97 l -1.05,3.302 c -0.15,0.45 -0.22,0.9 -0.22,0.9 h -0.08 c 0,0 0,-0.45 -0.15,-0.9 l -1.05,-3.302 h 0.98 v -0.22 h -2.93 v 0.22 h 0.75 l 1.95,5.704 z m 5.248,-1.05 v 0 h -0.82 v 0.37 h 2.32 v -0.37 h -1.12 l 0.82,-2.702 h 1.95 l 0.75,2.702 h -1.05 v 0.37 h 3.3 v -0.37 h -0.97 l -2.48,-8.406 h -0.3 z m 3,-3.082 v 0 h -1.8 l 0.68,-2.172 0.22,-1.05 h 0.08 l 0.22,1.05 z" />
    <path
       id="path2718"
       d="m 117.645,37.986 h 1.95 v -0.37 h -0.9 v -5.554 h -1.95 v 0.3 h 0.9 v 3.152 c 0,1.12 -0.45,2.172 -1.43,2.172 -0.67,0 -0.82,-0.67 -0.82,-1.35 v -4.273 h -1.8 v 0.3 h 0.82 v 4.053 c 0,1.2 0.45,1.65 1.5,1.65 0.83,0 1.43,-0.45 1.73,-1.28 z m 2.1,-5.624 h 0.82 v 4.203 c 0,0.75 0.08,1.42 1.2,1.42 0.75,0 1.13,-0.37 1.35,-1.05 l -0.22,-0.07 c -0.23,0.37 -0.38,0.75 -0.75,0.75 -0.45,0 -0.53,-0.38 -0.53,-1.05 v -4.203 h 1.13 v -0.3 h -1.13 v -1.65 h -1.05 v 1.65 h -0.82 z" />
    <path
       id="path2720"
       d="m 123.043,37.616 v 0 0.37 h 2.77 v -0.37 h -0.82 v -3.082 c 0,-1.12 0.45,-2.172 1.42,-2.172 0.75,0 0.83,0.6 0.83,1.27 v 3.983 h -0.83 v 0.37 h 2.7 v -0.37 h -0.82 v -4.053 c 0,-1.2 -0.53,-1.65 -1.5,-1.65 -0.83,0 -1.5,0.45 -1.8,1.27 V 29.36 h -1.95 v 0.3 h 0.9 v 7.956 z m 6.447,-2.632 v 0 c 0,1.2 0.6,3.082 2.4,3.082 1.8,0 2.4,-1.88 2.4,-3.082 0,-1.202 -0.6,-3.072 -2.4,-3.072 -1.8,0 -2.4,1.87 -2.4,3.072 z m 1.2,0 v 0 c 0,-1.27 0,-2.772 1.2,-2.772 1.2,0 1.2,1.5 1.2,2.772 0,1.28 0,2.782 -1.2,2.782 -1.2,0 -1.2,-1.5 -1.2,-2.782 z m 4.88,2.632 v 0 h -0.9 v 0.37 h 2.85 v -0.37 h -0.9 v -2.702 c 0,-1.28 0.6,-2.552 1.12,-2.552 0.15,0 0.3,0.15 0.3,0.3 v 0.6 c 0,0.37 0.23,0.45 0.45,0.45 0.38,0 0.53,-0.3 0.53,-0.75 0,-0.68 -0.38,-1.05 -0.98,-1.05 -0.75,0 -1.2,0.75 -1.42,1.42 v -1.27 h -1.95 v 0.3 h 0.9 z" />
    <path
       id="path2722"
       d="m 139.988,37.616 v 0 h -0.9 v 0.37 h 2.85 v -0.37 h -0.9 v -5.554 h -1.95 v 0.3 h 0.9 z m -0.07,-7.435 v 0 c 0,0.38 0.3,0.68 0.6,0.68 0.37,0 0.67,-0.3 0.67,-0.68 0,-0.45 -0.3,-0.75 -0.67,-0.75 -0.38,0 -0.6,0.3 -0.6,0.75 z m 2.17,2.18 h 0.83 v 4.203 c 0,0.75 0.07,1.42 1.2,1.42 0.75,0 1.12,-0.37 1.35,-1.05 l -0.3,-0.07 c -0.15,0.37 -0.3,0.75 -0.68,0.75 -0.45,0 -0.52,-0.38 -0.52,-1.05 v -4.203 h 1.12 v -0.3 h -1.12 v -1.65 h -1.05 v 1.65 h -0.83 z" />
    <path
       id="path2724"
       d="m 147.186,38.667 v 0 c -0.22,1.12 -0.67,1.57 -0.97,1.57 -0.3,0 -0.3,-0.3 -0.3,-0.6 0,-0.3 -0.08,-0.6 -0.45,-0.6 -0.3,0 -0.53,0.23 -0.53,0.68 0,0.45 0.38,0.97 0.98,0.97 1.35,0 1.5,-1.87 1.8,-2.702 l 1.87,-5.704 h 0.75 v -0.22 h -2.02 v 0.22 h 0.97 l -1.05,3.302 -0.3,0.9 c 0,0 -0.07,-0.45 -0.22,-0.9 l -1.05,-3.302 h 0.97 v -0.22 h -2.92 v 0.22 h 0.82 l 1.88,5.704 z" />
  </g>
</svg>
