<?xml version="1.0" encoding="UTF-8" standalone="no"?>
<svg
   xmlns:dc="http://purl.org/dc/elements/1.1/"
   xmlns:cc="http://creativecommons.org/ns#"
   xmlns:rdf="http://www.w3.org/1999/02/22-rdf-syntax-ns#"
   xmlns:svg="http://www.w3.org/2000/svg"
   xmlns="http://www.w3.org/2000/svg"
   xmlns:sodipodi="http://sodipodi.sourceforge.net/DTD/sodipodi-0.dtd"
   xmlns:inkscape="http://www.inkscape.org/namespaces/inkscape"
   inkscape:version="1.0 (4035a4fb49, 2020-05-01)"
   sodipodi:docname="New-York-Times-logo.svg"
   id="svg3311"
   version="1.1"
   width="600"
   height="300">
  <metadata
     id="metadata3317">
    <rdf:RDF>
      <cc:Work
         rdf:about="">
        <dc:format>image/svg+xml</dc:format>
        <dc:type
           rdf:resource="http://purl.org/dc/dcmitype/StillImage" />
        <dc:title></dc:title>
      </cc:Work>
    </rdf:RDF>
  </metadata>
  <defs
     id="defs3315" />
  <sodipodi:namedview
     inkscape:current-layer="svg3311"
     inkscape:window-maximized="1"
     inkscape:window-y="-9"
     inkscape:window-x="-9"
     inkscape:cy="181.5"
     inkscape:cx="512"
     inkscape:zoom="1.1796875"
     showgrid="true"
     id="namedview3313"
     inkscape:window-height="1001"
     inkscape:window-width="1920"
     inkscape:pageshadow="2"
     inkscape:pageopacity="0"
     guidetolerance="10"
     gridtolerance="10"
     objecttolerance="10"
     borderopacity="1"
     bordercolor="#666666"
     pagecolor="#ffffff">
    <inkscape:grid
       id="grid3880"
       type="xygrid" />
  </sodipodi:namedview>
  <path
     style="stroke-width:0.611879"
     id="path3309"
     d="m 89.14865,125.36523 c 0,-5.28786 -5.02353,-6.60952 -8.9885,-6.60952 v 0.79299 c 2.38021,0 4.22992,0.793 4.22992,2.64332 0,1.05733 -0.793,2.64332 -3.1726,2.64332 -1.85093,0 -5.81652,-1.05733 -8.72539,-2.11527 -3.43693,-1.32166 -6.60952,-2.38021 -9.25344,-2.38021 -5.28785,0 -8.988499,3.96498 -8.988499,8.46045 0,3.96498 2.908259,5.28786 3.964979,5.81652 l 0.26433,-0.52866 c -0.52866,-0.52866 -1.32166,-1.05733 -1.32166,-2.64332 0,-1.05732 1.05733,-2.90826 3.70187,-2.90826 2.3802,0 5.55218,1.05733 9.7821,2.38021 3.70186,1.05733 7.66684,1.85093 9.78211,2.11526 v 8.1955 l -3.96498,3.43693 v 0.26433 l 3.96498,3.43692 v 11.3687 c -2.11527,1.32166 -4.49426,1.58599 -6.60952,1.58599 -3.96498,0 -7.40251,-1.05732 -10.31016,-4.2299 l 10.83943,-5.28786 v -18.24195 l -13.21902,5.81652 c 1.05733,-3.43692 3.96497,-5.81652 6.87384,-7.40251 l -0.26433,-0.79299 c -7.93116,2.11526 -15.070572,9.51777 -15.070572,18.50689 0,10.57509 8.725402,18.50688 18.506882,18.50688 10.5751,0 17.44895,-8.46045 17.44895,-17.18461 h -0.52866 c -1.58599,3.43692 -3.96498,6.6095 -6.87385,8.19549 v -10.83942 l 4.22992,-3.43692 v -0.26434 l -4.22992,-3.43692 v -8.19551 c 3.96498,0 7.93118,-2.64331 7.93118,-7.66683 z m -23.00053,29.08259 -3.17259,1.58598 c -1.85093,-2.3802 -2.90825,-5.55218 -2.90825,-10.04704 0,-1.85094 0,-3.96498 0.52866,-5.55219 l 5.55218,-2.38021 z m 28.02404,6.08084 -3.43692,2.64332 0.52866,0.52866 1.58599,-1.32166 5.81652,5.28786 7.93118,-5.28786 -0.26433,-0.52866 -2.11527,1.32166 -2.64332,-2.64332 v -17.97699 l 2.11527,-1.58599 4.49425,3.70187 V 160.793 c 0,10.04705 -2.11527,11.63181 -6.60952,13.21903 v 0.79299 c 7.40252,0.26433 14.27635,-2.11526 14.27635,-15.07058 V 142.2855 l 2.38021,-1.85093 -0.52866,-0.52866 -2.11527,1.58599 -6.6095,-5.55219 -7.40251,5.55219 v -21.67886 h -0.52867 l -9.25344,6.34518 v 0.52866 c 1.05732,0.52867 2.64331,1.05733 2.64331,3.96498 z m 48.38125,-2.90826 -6.60951,5.02353 -6.60951,-5.28786 v -3.17258 l 12.42602,-8.46045 v -0.26433 l -6.34517,-9.51778 -13.7477,7.40251 V 160.793 l -2.64331,2.11526 0.52866,0.52866 2.38021,-1.85093 8.9885,6.60952 11.89736,-9.51778 z m -13.21902,-4.49424 v -12.9547 l 0.52866,-0.26433 5.81652,9.25345 z m 63.71493,-30.13931 c 0,-0.79299 -0.26433,-1.58599 -0.52867,-2.38021 h -0.52866 c -0.79299,2.11527 -1.85093,3.1726 -4.49425,3.1726 -2.38021,0 -3.96497,-1.32166 -5.02353,-2.38021 l -7.66684,8.72539 0.52866,0.52867 2.64332,-2.38022 c 1.58599,1.32166 2.90826,2.38022 6.60952,2.64332 v 21.9438 l -15.59862,-26.70238 c -1.32166,-2.11527 -3.17259,-5.02353 -6.87385,-5.02353 -4.22992,0 -7.93118,3.70187 -7.40251,9.51778 h 0.79299 c 0.26433,-1.58599 1.05733,-3.43692 2.90826,-3.43692 1.32166,0 2.64332,1.32165 3.43693,2.64331 v 8.72538 c -4.75858,0 -7.93118,2.11527 -7.93118,6.08086 0,2.11526 1.05733,5.28786 4.22992,6.08085 v -0.52866 c -0.52866,-0.52867 -0.79299,-1.05733 -0.79299,-1.85094 0,-1.32165 1.05732,-2.38021 2.90826,-2.38021 h 1.32166 v 11.10377 c -5.55219,0 -10.04706,3.17259 -10.04706,8.46044 0,5.02353 4.22992,7.40251 8.9885,7.13818 v -0.52866 c -2.90826,-0.26434 -4.22991,-1.58599 -4.22991,-3.43693 0,-2.38021 1.58599,-3.43692 3.70186,-3.43692 2.11588,0 3.96498,1.32166 5.28786,2.90826 l 7.66683,-8.46044 -0.52866,-0.52866 -1.85092,2.11525 c -2.90826,-2.6433 -4.49425,-3.43691 -7.93118,-3.96496 V 130.9168 l 21.1502,37.01254 h 1.58599 V 130.9168 c 3.96497,-0.26433 7.66684,-3.43692 7.66684,-7.93117 z m 19.29987,34.63355 -6.60952,5.02353 -6.60951,-5.28786 v -3.17258 l 12.42604,-8.46045 v -0.26433 l -6.34519,-9.51778 -13.74768,7.40251 V 160.793 l -2.64332,2.11526 0.52866,0.52866 2.3802,-1.85093 8.9885,6.60952 11.89738,-9.51778 z m -13.21903,-4.49424 v -12.9547 l 0.52866,-0.26433 5.81652,9.25345 z m 56.31303,-14.27636 -1.85093,1.32166 -5.02353,-4.22992 -5.81651,5.28786 2.3802,2.38021 v 19.82854 l -6.34517,-3.96498 v -16.39222 l 2.11526,-1.32166 -6.08085,-5.81652 -5.81652,5.28786 2.38021,2.38021 v 19.02943 l -0.793,0.52866 -5.55219,-3.96498 v -15.86296 c 0,-3.70187 -1.85093,-4.75858 -3.96497,-6.08084 -1.85094,-1.32166 -2.90826,-2.11527 -2.90826,-3.96497 0,-1.58599 1.58599,-2.38021 2.38021,-2.90826 v -0.52867 c -2.11527,0 -7.66685,2.11527 -7.66685,7.13817 0,2.64332 1.32166,3.70187 2.64332,5.02353 1.32166,1.32165 2.64332,2.38021 2.64332,4.75858 v 15.33368 l -2.90825,2.11526 0.52866,0.52866 2.6433,-2.11525 6.08086,5.28784 6.60951,-4.49425 7.40252,4.49425 14.01201,-8.19549 v -17.7139 l 3.43693,-2.64331 z m 49.17485,-14.54067 -2.64331,2.38019 -5.81653,-5.28784 -8.72415,6.35007 v -5.81652 h -0.793 l 0.26433,42.82967 c -0.79299,0 -3.17259,-0.52867 -5.02352,-1.05733 l -0.52867,-35.69087 c 0,-2.64332 -1.85093,-6.34519 -6.60951,-6.34519 -4.75859,0 -7.93117,3.70187 -7.93117,7.40251 h 0.793 c 0.26433,-1.58599 1.05733,-2.90826 2.6433,-2.90826 1.58599,0 2.90826,1.05733 2.90826,4.49425 v 10.31015 c -4.75857,0.26433 -7.66683,2.90826 -7.66683,6.34518 0,2.11527 1.05733,5.28786 4.22991,5.28786 v -0.52866 c -1.05731,-0.52866 -1.32165,-1.32166 -1.32165,-1.85093 0,-1.58599 1.32165,-2.11527 3.43692,-2.11527 h 1.05732 v 16.39223 c -3.96497,1.32165 -5.55217,4.22991 -5.55217,7.40251 0,4.49425 3.43691,7.66684 8.72538,7.66684 3.70187,0 6.87385,-0.52866 10.04705,-1.32166 2.64332,-0.52866 6.08084,-1.32166 7.66683,-1.32166 2.11527,0 2.90826,1.05733 2.90826,2.38021 0,1.85094 -0.79299,2.64332 -1.85093,2.90826 v 0.52867 c 4.22992,-0.793 6.87385,-3.43693 6.87385,-7.40251 0,-3.96559 -3.96498,-6.34519 -8.19551,-6.34519 -2.11525,0 -6.6095,0.793 -9.7821,1.32166 -3.70186,0.79299 -7.40251,1.32166 -8.46045,1.32166 -1.85093,0 -3.96497,-0.793 -3.96497,-3.43693 0,-2.11526 1.85093,-3.96497 6.34518,-3.96497 2.38021,0 5.28786,0.26433 8.19551,1.05733 3.17259,0.79299 6.08084,1.58599 8.72538,1.58599 3.96498,0 7.40251,-1.32166 7.40251,-6.87384 v -32.51891 l 3.1726,-2.64331 z m -10.83882,16.12666 c -0.79298,0.793 -1.85092,1.58599 -3.17258,1.58599 -1.32166,0 -2.64332,-0.79299 -3.17259,-1.58599 v -11.63181 l 2.64331,-1.85093 3.70186,3.43692 z m 0,7.93118 c -0.52865,-0.52866 -1.85092,-1.32166 -3.17258,-1.32166 -1.32166,0 -2.64332,0.793 -3.17259,1.32166 v -6.87385 c 0.52866,0.52866 1.85093,1.32166 3.17259,1.32166 1.32166,0 2.64332,-0.793 3.17258,-1.32166 z m 0,12.42603 c 0,2.11526 -1.32165,4.22991 -4.22991,4.22991 h -2.11526 V 149.4243 c 0.52866,-0.52867 1.85093,-1.32166 3.17259,-1.32166 1.32166,0 2.3802,0.79299 3.17258,1.32166 z m 36.22016,-18.77122 -8.46045,-6.08085 -12.95469,7.40251 v 17.18461 l -2.64331,2.11527 0.26433,0.52866 2.11526,-1.58599 8.46045,6.34519 L 330,160 Z m -14.27634,16.65534 V 139.6477 l 6.6095,4.75857 v 18.77122 z m 39.39274,-22.20814 h -0.52866 c -0.793,0.52866 -1.58599,1.05733 -2.38022,1.05733 -1.05732,0 -2.38021,-0.52867 -2.90826,-1.32166 h -0.52866 l -4.49424,5.02353 -4.49425,-5.02353 -7.93117,5.28786 0.26433,0.52866 2.11526,-1.32166 2.64332,2.90826 v 16.65534 l -3.43692,2.64331 0.52866,0.52867 1.58599,-1.32166 6.34519,5.28786 8.19549,-5.55219 -0.26433,-0.52867 -2.3802,1.32166 -3.17259,-2.64332 V 141.4919 c 1.32166,1.32165 2.90826,2.64331 4.75858,2.64331 3.70186,0.26433 5.81651,-3.43692 6.08084,-7.66684 z m 31.72591,25.38073 -8.9885,6.08085 -12.16169,-18.50688 8.72538,-13.48336 h 0.52866 c 1.05733,1.05732 2.64332,2.11526 4.49425,2.11526 1.85094,0 3.17259,-1.05732 3.96498,-2.11526 h 0.52866 c -0.26433,5.28786 -3.96497,8.46045 -6.60952,8.46045 -2.64454,0 -3.96497,-1.32166 -5.55219,-2.11527 l -0.79299,1.32166 13.21903,19.56421 2.64332,-1.58599 z m -29.08259,-1.32166 -3.43693,2.64332 0.52866,0.52866 1.58599,-1.32166 5.81653,5.28786 7.93117,-5.28786 -0.52866,-0.52866 -2.11527,1.32166 -2.64332,-2.64332 v -40.7144 h -0.26433 l -9.51777,6.34518 v 0.52867 c 1.05732,0.52866 2.64331,0.79299 2.64331,3.96497 z m 72.96897,-35.16282 c 0,-5.28786 -5.0174,-6.60952 -8.9885,-6.60952 v 0.79299 c 2.38021,0 4.22992,0.793 4.22992,2.64332 0,1.05733 -0.793,2.64332 -3.17259,2.64332 -1.85092,0 -5.81651,-1.05733 -8.72539,-2.11527 -3.43692,-1.05732 -6.60951,-2.11526 -9.25344,-2.11526 -5.28786,0 -8.98849,3.96497 -8.98849,8.46045 0,3.96497 2.90825,5.28786 3.96496,5.81651 l 0.26433,-0.52865 c -0.79298,-0.52867 -1.58597,-1.05733 -1.58597,-2.64332 0,-1.05733 1.05731,-2.90826 3.70185,-2.90826 2.38021,0 5.55219,1.05732 9.78211,2.3802 3.70187,1.05732 7.66684,1.85093 9.78211,2.11526 v 8.19551 l -3.96497,3.43692 v 0.26433 l 3.96497,3.43693 v 11.3687 c -2.11527,1.32166 -4.49425,1.58599 -6.60952,1.58599 -3.96497,0 -7.40251,-1.05733 -10.31016,-4.22992 l 10.83944,-5.28785 v -18.50689 l -13.21903,5.81652 c 1.32165,-3.43692 4.22992,-5.81652 6.87384,-7.66684 l -0.26433,-0.52866 c -7.93117,2.11526 -15.07056,9.25344 -15.07056,18.24194 0,10.57509 8.72538,18.50688 18.50687,18.50688 10.57511,0 17.44894,-8.46045 17.44894,-17.18461 h -0.52866 c -1.58599,3.43693 -3.96497,6.60951 -6.87383,8.1955 v -10.83881 l 4.2299,-3.43693 v -0.26433 l -3.96497,-3.43692 v -7.93118 c 3.96497,0 7.93117,-2.64331 7.93117,-7.66683 z m -23.00052,29.08259 -3.17259,1.58598 c -1.85093,-2.3802 -2.90826,-5.55218 -2.90826,-10.04704 0,-1.85094 0.26433,-3.96498 0.793,-5.55219 l 5.55219,-2.38021 z m 32.25458,-31.72591 h -0.26433 l -5.28786,4.49425 v 0.26433 l 4.49425,5.02352 h 0.52866 l 5.28786,-4.49424 v -0.25822 z m 7.93116,39.12841 -2.11525,1.32166 -2.64332,-2.64332 v -18.24193 l 2.64332,-1.85094 -0.52866,-0.52866 -1.85094,1.58599 -4.75858,-5.55219 -7.66684,5.28786 0.52866,0.79299 1.85093,-1.32165 2.38021,2.90826 V 160.793 l -3.43692,2.64331 0.26433,0.52866 1.85094,-1.32165 5.81652,5.28786 7.93116,-5.28786 z m 44.15134,-0.26433 -1.85093,1.32166 -2.90826,-2.64332 v -17.97699 l 2.64331,-2.11526 -0.52866,-0.52867 -2.11527,1.85094 -6.08085,-5.55219 -7.93116,5.55219 -6.08086,-5.55219 -7.40251,5.55219 -4.75858,-5.55219 -7.66683,5.28785 0.26433,0.793 1.85092,-1.32166 2.64332,2.90826 V 160.793 l -2.11527,2.11526 6.08086,5.02353 5.81652,-5.28786 -2.38021,-2.38021 v -17.97699 l 2.38021,-1.58599 3.96497,3.70187 v 15.86295 l -2.11526,2.11526 6.08085,5.02353 5.81652,-5.28786 -2.38021,-2.38021 v -17.44894 l 2.11527,-1.32166 4.2299,3.70187 v 15.86295 l -1.85092,1.85094 6.08084,5.55219 8.19551,-5.55219 z m 23.00052,-3.96497 -6.60952,5.02352 -6.60951,-5.28786 v -3.17259 l 12.42603,-8.46044 v -0.26433 l -6.34518,-9.51778 -13.74769,7.40252 v 17.97699 l 9.25344,6.60951 11.89737,-9.51778 z m -13.21903,-4.49426 v -12.95468 l 0.52866,-0.26434 5.81652,9.25345 z m 37.27748,-2.38019 -5.01739,-3.96498 c 3.43691,-2.90826 4.75857,-6.87385 4.75857,-9.51778 v -1.58599 h -0.52867 c -0.52866,1.32166 -1.58599,2.64332 -3.70185,2.64332 -2.11588,0 -3.43693,-1.05733 -4.75859,-2.64332 l -11.89737,6.60952 v 9.51778 l 4.49425,3.43691 c -4.49425,3.96498 -5.28786,6.60952 -5.28786,8.7254 0,2.64331 1.32166,4.49425 3.43692,5.28785 l 0.26434,-0.52866 c -0.52867,-0.52866 -1.05733,-0.79299 -1.05733,-2.11527 0,-0.79299 1.05733,-2.11526 3.17259,-2.11526 2.64332,0 4.22992,1.85093 5.01741,2.64332 l 11.3687,-6.87385 v -9.51961 z m -2.90826,-7.93118 c -1.85093,3.17259 -5.81652,6.34519 -8.1955,7.93118 l -2.90825,-2.38021 v -9.25222 c 1.05731,2.64331 3.96496,4.75858 6.87383,4.75858 1.85094,0 2.90827,-0.26433 4.22992,-1.05733 z m -4.49425,21.1502 c -1.32166,-2.90826 -4.49425,-5.02353 -7.66683,-5.02353 -0.79299,0 -2.90826,0 -5.01741,1.32166 1.32166,-2.11527 4.75858,-5.81651 9.25345,-8.46044 l 3.17259,2.64332 z" />
</svg>
