<svg xmlns="http://www.w3.org/2000/svg" xmlns:xlink="http://www.w3.org/1999/xlink" width="600" height="300" viewBox="0 0 666.667 666.667" xmlns:v="https://vecta.io/nano"><style><![CDATA[.B{fill:#d6dee8}.C{fill:#555a6d}.D{fill:#16cdc8}.E{fill:#c3ccd5}.F{fill:#2a2d35}]]></style><defs><clipPath id="A"><path d="M0 500h500V0H0z"/></clipPath><clipPath id="B"><path d="M252.87 407.64h3.093v-13.3h-3.093z"/></clipPath><path id="C" d="M366.908 254.94c0-.99-.804-1.795-1.795-1.795s-1.795.804-1.795 1.795.804 1.795 1.795 1.795 1.795-.804 1.795-1.795"/><path id="D" d="M79.814 270.602a2.16 2.16 0 0 0-2.16-2.16 2.16 2.16 0 1 0 0 4.32 2.16 2.16 0 0 0 2.16-2.16"/><path id="E" d="M210.29 137.648c0-1.65-2.95-3-6.588-3s-6.588 1.34-6.588 3 2.95 3 6.588 3 6.588-1.34 6.588-3"/><path id="F" d="M91.81 327.763h-3.627v11.418h3.627z"/><path id="G" d="M142.38 133.048c0-.875-.71-1.584-1.584-1.584s-1.585.71-1.585 1.584.7 1.585 1.585 1.585 1.584-.7 1.584-1.585"/></defs><g transform="matrix(1.333333 0 0 -1.333333 0 666.66667)"><path d="M15.696-2.005H515.48v500H15.696z" fill="#fdfdfd"/><g clip-path="url(#A)" transform="translate(15.696 -2.005)"><g clip-path="url(#B)" opacity=".48" class="E"><path d="M255.964 394.34h-3.093v13.3h3.093z"/></g><path d="M258.943 410.104c0-2.5-2.026-4.526-4.525-4.526s-4.527 2.026-4.527 4.526 2.027 4.526 4.527 4.526 4.525-2.026 4.525-4.526" class="F"/><path d="M292.632 341.083h-76.47a9.65 9.65 0 0 0-9.647 9.646v35.886a9.65 9.65 0 0 0 9.647 9.646h76.47a9.65 9.65 0 0 0 9.646-9.646V350.73a9.65 9.65 0 0 0-9.646-9.646" class="B"/><g class="D"><path d="M240.47 368.4a9.82 9.82 0 0 0-9.817-9.817 9.82 9.82 0 0 0-9.817 9.817 9.82 9.82 0 0 0 9.817 9.817 9.82 9.82 0 0 0 9.817-9.817m47.757 0a9.82 9.82 0 0 0-9.817-9.817 9.82 9.82 0 0 0-9.818 9.817 9.82 9.82 0 0 0 9.818 9.817 9.82 9.82 0 0 0 9.817-9.817"/></g><g class="C"><path d="M192.637 368.672c0-7.665 6.214-13.88 13.878-13.88v27.757a13.88 13.88 0 0 1-13.878-13.878m123.52.001a13.88 13.88 0 0 1-13.879 13.878v-27.757c7.665 0 13.88 6.214 13.88 13.88"/></g><path d="M263.295 352.153H245.06v2.746h18.234z" class="F"/><g class="C"><path d="M238.902 380.748h-18.235v3.973h18.235zm48.625.994h-18.234v3.973h18.234z"/></g><path d="M259.502 336.33h-10.594v4.753h10.594z" class="E"/><path d="M281.273 325.833h-54.108v.282c0 5.642 4.573 10.215 10.215 10.215h33.678c5.642 0 10.215-4.573 10.215-10.215z" class="F"/><path d="M434.69 364.76l-7.847 11.94c0 18.973-16.924 35.467-37.802 35.467s-37.803-15.38-37.803-34.354c-.487-7.674 1.663-16.303 3.35-21.713 1.03-3.304 3.707-5.824 7.064-6.668l23.767-5.973 5.887-10.035a8.74 8.74 0 0 1 7.185-4.311l19.97-.816c4.572-.186 8.38 3.47 8.38 8.045v20.142h4.725c2.663 0 4.82 1.046 4.82 3.708 0 2.02-.59 2.88-1.7 4.567" class="B"/><path d="M387.487 402.492c-13.053 0-23.673-10.62-23.673-23.673s10.62-23.673 23.673-23.673 23.673 10.62 23.673 23.673-10.62 23.673-23.673 23.673m0-50.44c-14.76 0-26.768 12.008-26.768 26.767s12.008 26.768 26.768 26.768 26.768-12.008 26.768-26.768-12.01-26.767-26.768-26.767" class="C"/><g class="D"><path d="M394.474 370.838h-16.06v16.06h16.06zm2.397 18.457h-5.033v3.955h-2.398v-3.955h-5.932v3.955h-2.397v-3.955h-5.094V384.2h-3.954v-2.397h3.954v-5.872h-3.954v-2.397h3.954v-5.093h5.094v-3.955h2.397v3.955h5.932v-3.955h2.398v3.955h5.033v5.093h3.955v2.397h-3.955v5.872h3.955v2.397h-3.955zm-8.09-12.765h-4.675v4.674h4.675zm2.396 7.07H381.7v-9.468h9.468z"/></g><g class="C"><path d="M398.656 274.758l-33.543-15.7 11.636-2.32 26.198 12.088zm3.657 3.572l6.858 6.745h11.3l5.188-7.783v-2.533H424l-5.188 6.995h-8.198l-5.085-5.5zm0-10.03l6.858-6.745h11.3l5.188 7.783v2.533H424l-5.188-6.995h-8.198l-5.085 5.5z"/></g><path d="M408.617 273.018c0-3.482-2.822-6.304-6.304-6.304S396 269.536 396 273.018s2.822 6.304 6.303 6.304 6.304-2.823 6.304-6.304" class="D"/><path d="M424.757 249.552l-2.9-13.18-58.173 11.684a6.75 6.75 0 0 0-5.135 8.044 6.75 6.75 0 0 0 8.045 5.134z" class="B"/><path d="M403.567 214.75l-9.543 9.544 23.636 23.636a6.75 6.75 0 0 0 9.544-9.543z" class="C"/><use xlink:href="#C"/><path d="M404.108 273.018c0-.992-.804-1.795-1.795-1.795s-1.795.803-1.795 1.795.804 1.794 1.795 1.794 1.795-.803 1.795-1.794m19.534-30.374c0-1-.804-1.795-1.795-1.795s-1.795.804-1.795 1.795.804 1.795 1.795 1.795 1.795-.804 1.795-1.795"/><path d="M406.404 201.358h-32.307v19.32c0 3.526 2.858 6.384 6.384 6.384h19.54c3.526 0 6.384-2.858 6.384-6.384z" class="B"/><path d="M401.02 219.37c0-.99-.804-1.795-1.795-1.795s-1.795.804-1.795 1.795.804 1.795 1.795 1.795 1.795-.804 1.795-1.795"/><path d="M417.27 198.73h-54.04c0 2.903 2.352 5.257 5.256 5.257h43.526a5.26 5.26 0 0 0 5.257-5.257" class="F"/><path d="M424.453 136.37c-.21 0-.412-.02-.62-.03-1.718 5.47-6.827 9.438-12.864 9.438-1.288 0-2.53-.192-3.71-.53a14.09 14.09 0 0 1-13.803 11.28c-6.77 0-12.42-4.78-13.772-11.145-1.024.25-2.088.395-3.2.395-6.035 0-11.143-3.967-12.862-9.433-.176.006-.348.026-.525.026-7.447 0-13.483-6.036-13.483-13.483s6.036-13.483 13.483-13.483h61.346c7.446 0 13.483 6.036 13.483 13.483s-6.037 13.483-13.483 13.483" class="B"/><path d="M426.353 86.956c-1.497 0-2.746 1.25-2.746 2.746s1.25 2.746 2.746 2.746 2.746-1.248 2.746-2.746-1.123-2.746-2.746-2.746M407.63 101.7c0 1.497 1.248 2.746 2.746 2.746s2.747-1.25 2.747-2.746-1.25-2.746-2.747-2.746-2.746 1.248-2.746 2.746m-11.976 35.406c0 1.498 1.25 2.746 2.746 2.746s2.746-1.248 2.746-2.746-1.248-2.746-2.746-2.746-2.746 1.25-2.746 2.746m-19.73-49.64c0-1.498-1.248-2.746-2.746-2.746s-2.746 1.248-2.746 2.746 1.248 2.746 2.746 2.746 2.746-1.248 2.746-2.746M357.202 99.19c-1.497 0-2.746 1.248-2.746 2.746s1.25 2.747 2.746 2.747 2.746-1.248 2.746-2.747-1.248-2.746-2.746-2.746m16.476 22.093c-1.498 0-2.746 1.25-2.746 2.746s1.248 2.746 2.746 2.746c1.498.125 2.746-1.123 2.746-2.746 0-1.497-1.248-2.746-2.746-2.746m52.675-26.337c-2.496 0-4.493-1.748-5.117-3.994h-9.612v5.62c2.248.624 3.995 2.62 3.995 5.118a5.28 5.28 0 0 1-5.243 5.243 5.28 5.28 0 0 1-5.243-5.243c0-2.497 1.748-4.494 3.995-5.118v-5.62h-9.487v32.828h.025v2.496h-.025v4.57h.007v1.133c2.247.624 3.995 2.622 3.995 5.118 0 2.87-2.372 5.243-5.243 5.243s-5.242-2.372-5.242-5.243c0-2.496 1.747-4.494 3.994-5.118v-.514h-.007v-50.5c0-.998-.75-1.747-1.872-1.747h-7.115c-.998 0-1.872.874-1.872 1.872v39.693c0 2.497-1.997 4.494-4.495 4.494h-3.12c-.624 2.246-2.62 3.994-5.117 3.994-2.87 0-5.243-2.372-5.243-5.243s2.372-5.242 5.243-5.242c2.496 0 4.493 1.748 5.117 3.994h3.12c1.07 0 2.033-.795 2.11-1.84v-7.147h.012V103.06h-21.72c-.624 2.247-2.62 3.994-5.117 3.994a5.28 5.28 0 0 1-5.244-5.243 5.28 5.28 0 0 1 5.244-5.243c2.496 0 4.493 1.748 5.117 3.995h9.61v-8.114c-2.247-.624-3.994-2.62-3.994-5.117 0-2.87 2.37-5.242 5.242-5.242s5.243 2.37 5.243 5.242c0 2.496-1.748 4.493-3.995 5.117v8.114h9.487V80.84c0-2.37 1.998-4.368 4.37-4.368h7.115c2.37 0 4.368 1.997 4.368 4.368v7.365h21.595c.624-2.247 2.62-3.995 5.117-3.995 2.87 0 5.243 2.372 5.243 5.243s-2.247 5.492-5.243 5.492" class="C"/><path d="M152.895 198.73H73.55a3.44 3.44 0 0 0-3.439 3.438v71.79a3.44 3.44 0 0 0 3.439 3.438h79.345a3.44 3.44 0 0 0 3.438-3.438v-71.79a3.44 3.44 0 0 0-3.438-3.438" class="B"/><path d="M156.333 264.685H70.11v9.272a3.44 3.44 0 0 0 3.439 3.438h79.345a3.44 3.44 0 0 0 3.438-3.438z" class="C"/><g class="D"><use xlink:href="#D"/><path d="M88.42 270.602a2.16 2.16 0 1 0-2.16 2.16 2.16 2.16 0 0 0 2.16-2.16m8.605 0a2.16 2.16 0 1 0-2.16 2.16 2.16 2.16 0 0 0 2.16-2.16m-12.05-20.678c1.195 0 2.2-.997 2.2-2.192a2.21 2.21 0 0 0-2.19-2.19 2.21 2.21 0 0 0-2.19 2.19c0 1.194.896 2.192 2.2 2.192m14.942-11.758c0-1.196-.996-2.193-2.2-2.193s-2.2.997-2.2 2.193a2.21 2.21 0 0 0 2.19 2.19 2.21 2.21 0 0 0 2.19-2.19m9.558-28.257c0-1.195-.996-2.192-2.2-2.192s-2.192.997-2.192 2.192a2.21 2.21 0 0 0 2.192 2.19 2.21 2.21 0 0 0 2.19-2.19m15.746 39.616c0 1.196.996 2.192 2.2 2.192s2.2-.996 2.2-2.192a2.21 2.21 0 0 0-2.19-2.19 2.21 2.21 0 0 0-2.19 2.19m14.942-9.364a2.21 2.21 0 0 0 2.19-2.192 2.21 2.21 0 0 0-2.19-2.19 2.21 2.21 0 0 0-2.19 2.19c0 1.194.996 2.192 2.2 2.192m-13.15-17.632a2.21 2.21 0 0 0 2.19-2.19c0-1.194-.996-2.192-2.2-2.192-1.196-.1-2.192.897-2.192 2.192a2.21 2.21 0 0 0 2.192 2.19m-42.04 21.02c1.992 0 3.586 1.394 4.084 3.187h7.67v-4.486c-1.793-.498-3.188-2.092-3.188-4.084 0-2.3 1.893-4.185 4.184-4.185s4.184 1.894 4.184 4.185c0 1.992-1.394 3.586-3.188 4.084v4.486h7.57v-26.2h-.02v-1.992h.02v-3.648h-.006v-.904c-1.792-.498-3.187-2.092-3.187-4.084 0-2.3 1.893-4.184 4.184-4.184s4.184 1.893 4.184 4.184c0 1.992-1.395 3.586-3.188 4.084v.4h.006v40.3c0 .798.597 1.395 1.494 1.395h5.678c.797 0 1.494-.697 1.494-1.494v-31.68a3.57 3.57 0 0 1 3.586-3.586h2.5c.498-1.792 2.092-3.187 4.084-3.187 2.3 0 4.184 1.893 4.184 4.184a4.21 4.21 0 0 1-4.184 4.183c-1.992 0-3.586-1.394-4.084-3.187h-2.5c-.853 0-1.62.633-1.684 1.467v5.706h-.01v8.566h17.333c.498-1.793 2.092-3.188 4.085-3.188 2.3 0 4.184 1.893 4.184 4.184s-1.893 4.185-4.184 4.185c-1.993 0-3.587-1.395-4.085-3.2h-7.67v6.476c1.793.498 3.188 2.1 3.188 4.084 0 2.3-1.893 4.184-4.184 4.184s-4.184-1.893-4.184-4.184c0-1.993 1.394-3.586 3.188-4.084v-6.476h-7.57v15.74c0 1.893-1.595 3.487-3.487 3.487h-5.678c-1.893 0-3.487-1.594-3.487-3.487v-5.878H89.06c-.498 1.794-2.092 3.188-4.084 3.188a4.21 4.21 0 0 1-4.184-4.184c0-2.3 1.793-4.382 4.184-4.382"/></g><g class="B"><use xlink:href="#E"/><path d="M223.465 137.648c0-1.65-2.95-3-6.588-3s-6.588 1.34-6.588 3 2.95 3 6.588 3 6.588-1.34 6.588-3"/></g><path d="M210.29 123.855c-.814 0-1.474.66-1.474 1.474v20.266c0 .815.66 1.475 1.474 1.475s1.474-.66 1.474-1.475V125.33c0-.814-.66-1.474-1.474-1.474" class="E"/><g class="B"><path d="M298.507 137.648c0-1.65-2.95-3-6.588-3s-6.588 1.34-6.588 3 2.95 3 6.588 3 6.588-1.34 6.588-3"/><path d="M311.682 137.648c0-1.65-2.95-3-6.588-3s-6.588 1.34-6.588 3 2.95 3 6.588 3 6.588-1.34 6.588-3"/></g><g class="E"><path d="M298.507 123.855c-.814 0-1.475.66-1.475 1.474v20.266c0 .815.66 1.475 1.475 1.475s1.474-.66 1.474-1.475V125.33c0-.814-.66-1.474-1.474-1.474m-42.452 3.994h-4.08v18.98h4.08z"/></g><path d="M261.668 151.78c0-4.227-3.427-7.652-7.652-7.652s-7.654 3.425-7.654 7.652 3.427 7.652 7.654 7.652 7.652-3.425 7.652-7.652" class="B"/><path d="M257.925 151.78a3.91 3.91 0 1 0-7.821 0 3.91 3.91 0 1 0 7.821 0" class="D"/><path d="M273.067 125.33h-37.104l2.857 5.958a3.04 3.04 0 0 0 2.74 1.724h25.9a3.04 3.04 0 0 0 2.74-1.724z" class="C"/><path d="M262.73 104.02h-16.774v11.9h16.774z" class="E"/><path d="M271.998 73.565h-35.31c-3.122 0-5.653 2.53-5.653 5.653v21.734c0 3.122 2.53 5.652 5.653 5.652h35.31c3.122 0 5.653-2.53 5.653-5.652V79.218c0-3.122-2.53-5.653-5.653-5.653" class="B"/><g class="D"><path d="M262.73 90.085a8.39 8.39 0 0 0-8.387-8.387 8.39 8.39 0 0 0-8.387 8.387 8.39 8.39 0 0 0 8.387 8.388 8.39 8.39 0 0 0 8.387-8.388m6.784 8.953c0-1.084-.88-1.962-1.963-1.962s-1.962.878-1.962 1.962.88 1.962 1.962 1.962 1.963-.878 1.963-1.962"/></g><g class="B"><path d="M302.8 123.144h-91.545v3.61H302.8z"/><path d="M228.486 123.6h53.056l-3.01-6.273c-.532-1.1-1.653-1.815-2.883-1.815h-41.27c-1.23 0-2.352.705-2.884 1.815z"/></g><g class="C"><path d="M219.033 120.512c0 4.78-3.874 8.653-8.653 8.653s-8.653-3.874-8.653-8.653c0-1.245.268-2.427.742-3.496h-.006l4.915-10.406a3.58 3.58 0 0 1 3.234-2.05 3.6 3.6 0 0 1 3.3 2.177l4.2 9.903a8.6 8.6 0 0 1 .922 3.871m88.206.001c0 4.78-3.874 8.653-8.652 8.653s-8.654-3.874-8.654-8.653a8.62 8.62 0 0 1 .743-3.496h-.007l4.915-10.406a3.58 3.58 0 0 1 3.233-2.05h.001a3.6 3.6 0 0 1 3.3 2.177l4.2 9.903a8.6 8.6 0 0 1 .922 3.871"/></g><g class="F"><path d="M91.8 401.28h-3.627v11.42H91.8zm7.74 0h-3.627v11.42h3.627zm7.736 0h-3.627v11.42h3.627zm7.738 0h-3.627v11.42h3.627zm7.738 0h-3.627v11.42h3.627zm7.738 0h-3.627v11.42h3.627zm7.737 0H134.6v11.42h3.627z"/><use xlink:href="#F"/><path d="M99.55 327.763h-3.627v11.418h3.627zm7.736 0h-3.627v11.418h3.627zm7.738 0h-3.627v11.418h3.627zm7.738 0h-3.627v11.418h3.627zm7.738 0h-3.627v11.418h3.627zm7.737 0H134.6v11.418h3.627zM82.16 345.205H70.743v3.627H82.16zm0 7.738H70.743v3.627H82.16zm0 7.737H70.743v3.628H82.16zm0 7.738H70.743v3.627H82.16zm0 7.737H70.743v3.627H82.16zm0 7.737H70.743v3.628H82.16zm0 7.738H70.743v3.627H82.16zm73.54-46.425h-11.417v3.627H155.7zm0 7.738h-11.417v3.627H155.7zm0 7.737h-11.417v3.628H155.7zm0 7.738h-11.417v3.627H155.7zm0 7.737h-11.417v3.627H155.7zm0 7.737h-11.417v3.628H155.7zm0 7.738h-11.417v3.627H155.7z"/></g><path d="M143.64 333.473H82.782a6.33 6.33 0 0 0-6.33 6.33v60.857a6.33 6.33 0 0 0 6.33 6.33h60.857a6.33 6.33 0 0 0 6.33-6.33v-60.857a6.33 6.33 0 0 0-6.33-6.33" class="B"/><g class="D"><path d="M130.916 369.438c0 1.077.898 1.975 1.975 1.975s1.974-.898 1.974-1.975-.897-1.975-1.974-1.975-1.975.898-1.975 1.975m2.873-3.68c1.615.45 2.872 1.885 2.872 3.68 0 2.064-1.706 3.77-3.77 3.77s-3.77-1.706-3.77-3.77c0-1.795 1.256-3.23 2.872-3.68v-.815h1.796z"/><path d="M108.118 359.202c0-1.077-.897-1.975-1.975-1.975s-1.974.898-1.974 1.975.897 1.975 1.974 1.975 1.975-.898 1.975-1.975m-13.463 8.437c-1.078 0-1.975.897-1.975 1.975s.897 1.975 1.975 1.975 1.974-.898 1.974-1.975-.897-1.975-1.974-1.975m11.847 15.887c-1.077 0-1.974.898-1.974 1.975s.897 1.974 1.974 1.974c1.077.1 1.975-.808 1.975-1.974 0-1.077-.898-1.975-1.975-1.975m27.286-21.81v5.02h-1.795v-5.02h-7.12c-.826 0-1.497-.67-1.497-1.496v-5.684c0-.718-.538-1.257-1.346-1.257h-5.116a1.35 1.35 0 0 0-1.346 1.346v28.543a3.23 3.23 0 0 1-3.231 3.231h-2.244c-.488 1.755-2.14 3.087-4.153 2.844-1.5-.18-2.786-1.298-3.17-2.76-.648-2.476 1.257-4.75 3.64-4.75 1.796 0 3.232 1.257 3.68 2.872h2.244c.768 0 1.46-.57 1.517-1.323v-5.14h.01v-7.718H98.245c-.488 1.755-2.14 3.086-4.152 2.843-1.5-.18-2.787-1.297-3.17-2.76-.648-2.475 1.257-4.75 3.642-4.75 1.795 0 3.23 1.257 3.68 2.872h6.91v-5.834c-1.755-.487-3.086-2.14-2.844-4.152a3.78 3.78 0 0 1 2.761-3.169c2.475-.65 4.75 1.257 4.75 3.64 0 1.796-1.256 3.232-2.872 3.68v5.834h6.822v-14.18a3.15 3.15 0 0 1 3.141-3.141h5.116a3.15 3.15 0 0 1 3.142 3.141v4.85c0 .247.2.447.446.447h13.11v1.974z"/></g><path d="M89.982 395.106c-.924 0-1.674-.75-1.674-1.675v-46.24c0-.924.75-1.674 1.674-1.674h46.24c.924 0 1.675.75 1.675 1.674v46.24c0 .924-.75 1.675-1.675 1.675zm46.24-52.57h-46.24a4.66 4.66 0 0 0-4.655 4.655v46.24c0 2.567 2.088 4.656 4.655 4.656h46.24c2.567 0 4.656-2.09 4.656-4.656v-46.24c0-2.567-2.09-4.655-4.656-4.655" class="C"/><path d="M73.155 111.233L80.7 122.73c0 18.267 16.294 34.146 36.393 34.146s36.394-14.808 36.394-33.074c.47-7.387-1.6-15.695-3.226-20.904-.992-3.18-3.57-5.607-6.8-6.42l-22.88-5.75-5.667-9.66a8.42 8.42 0 0 0-6.917-4.151l-19.228-.785c-4.4-.18-8.067 3.34-8.067 7.746v19.4h-4.55c-2.564 0-4.642 1.007-4.642 3.57 0 1.943.57 2.772 1.636 4.396" class="B"/><path d="M149.84 126.49h-39.9v13.26h39.9a6.63 6.63 0 0 0 0-13.26" class="C"/><g class="B"><use xlink:href="#G"/><path d="M148.867 133.048c0-.875-.7-1.584-1.584-1.584s-1.585.7-1.585 1.584a1.58 1.58 0 0 0 1.585 1.585 1.57 1.57 0 0 0 1.584-1.585m-13.04 0c0-.875-.7-1.584-1.584-1.584s-1.585.7-1.585 1.584a1.58 1.58 0 0 0 1.585 1.585 1.57 1.57 0 0 0 1.584-1.585"/></g><path d="M83.453 152.793l19.276-10v-19.71l-19.276-9.778z" class="C"/><g class="D"><path d="M107.2 123.605h-4.47v19.187h4.47c3.106 0 5.624-2.518 5.624-5.624v-7.94c0-3.106-2.518-5.624-5.624-5.624m-18.903 9.444c0-2.675-2.168-4.843-4.843-4.843s-4.844 2.168-4.844 4.843 2.17 4.844 4.844 4.844 4.843-2.17 4.843-4.844"/></g><g class="E"><path d="M72.45 113.303h11.004v39.5H72.45c-1.367 0-2.474-1.108-2.474-2.474v-34.54c0-1.367 1.107-2.474 2.474-2.474m192.942 85.425h-22v13.62h22z"/></g><path d="M296.038 277.03h-83.28c-3.62 0-6.554-2.935-6.554-6.555v-51.27c0-3.917 3.175-7.092 7.09-7.092H295.5c3.917 0 7.092 3.175 7.092 7.092v51.27c0 3.62-2.935 6.555-6.555 6.555" class="B"/><path d="M294.57 219.807h-80.347v49.38h80.347z" class="C"/><path d="M270.925 203.985H237.87c-2.902 0-5.254-2.353-5.254-5.255h43.564c0 2.902-2.352 5.255-5.254 5.255" class="F"/><g class="D"><path d="M226.615 254.175c0 1.474 1.228 2.7 2.702 2.7s2.7-1.227 2.7-2.7a2.73 2.73 0 0 0-2.701-2.702 2.73 2.73 0 0 0-2.702 2.702m3.923-26.268v13.166h.025v2.456h-.025v4.497h.007v1.114c2.2.614 3.93 2.58 3.93 5.035a5.19 5.19 0 0 1-5.157 5.157 5.19 5.19 0 0 1-5.158-5.157c0-2.456 1.72-4.42 3.93-5.035v-.506h-.007v-28.726h2.456zm27.29 26.268c0 1.474 1.228 2.7 2.7 2.7s2.7-1.227 2.7-2.7a2.73 2.73 0 0 0-2.7-2.702 2.73 2.73 0 0 0-2.701 2.702m3.922-26.268v13.166h.025v2.456h-.025v4.497h.007v1.114c2.2.614 3.93 2.58 3.93 5.035a5.19 5.19 0 0 1-5.157 5.157 5.19 5.19 0 0 1-5.157-5.157c0-2.456 1.72-4.42 3.93-5.035v-.506h-.006v-28.726h2.455z"/></g><path d="M247.102 244.244a2.73 2.73 0 0 0-2.701-2.701 2.73 2.73 0 0 0-2.702 2.701 2.73 2.73 0 0 0 2.702 2.702 2.73 2.73 0 0 0 2.701-2.702m-3.922 24.943v-11.84h-.026V254.9h.026v-4.496h-.007v-1.115c-2.21-.614-3.93-2.58-3.93-5.035a5.19 5.19 0 0 1 5.158-5.157 5.19 5.19 0 0 1 5.157 5.157c0 2.456-1.72 4.42-3.93 5.035v.507h.007v19.4z" class="B"/><path d="M279.925 244.244a2.73 2.73 0 0 0-2.701-2.701 2.73 2.73 0 0 0-2.702 2.701 2.73 2.73 0 0 0 2.702 2.702 2.73 2.73 0 0 0 2.701-2.702m-3.923 24.943v-11.84h-.024V254.9h.024v-4.496h-.007v-1.115c-2.2-.614-3.93-2.58-3.93-5.035 0-2.824 2.334-5.157 5.158-5.157a5.19 5.19 0 0 1 5.157 5.157c0 2.456-1.72 4.42-3.93 5.035v.507h.007v19.4z" class="D"/><path d="M274.522 229.7a2.73 2.73 0 0 0 2.702 2.702c1.474 0 2.7-1.228 2.7-2.702s-1.227-2.7-2.7-2.7a2.73 2.73 0 0 0-2.702 2.701m3.923-6.15h.007v1.115c2.21.613 3.93 2.578 3.93 5.034a5.19 5.19 0 0 1-5.157 5.158c-2.824 0-5.158-2.333-5.158-5.158 0-2.456 1.72-4.42 3.93-5.034v-.507h-.007v-4.352h2.456z" class="B"/><path d="M241.7 229.7a2.73 2.73 0 0 0 2.702 2.702 2.73 2.73 0 0 0 2.701-2.702c0-1.474-1.228-2.7-2.7-2.7s-2.702 1.227-2.702 2.7m3.923-6.15h.006v1.115c2.21.613 3.93 2.578 3.93 5.034a5.19 5.19 0 0 1-5.157 5.158 5.19 5.19 0 0 1-5.158-5.158c0-2.456 1.72-4.42 3.93-5.034v-.507h-.007v-4.352h2.456z" class="D"/></g></g></svg>