<svg xmlns="http://www.w3.org/2000/svg" xmlns:xlink="http://www.w3.org/1999/xlink" height="300" width="600" xmlns:v="https://vecta.io/nano"><defs><clipPath id="A"><path d="M0 500h500V0H0z"/></clipPath><clipPath id="B"><path d="M77.003 256.332h320.92V58.185H77.003z"/></clipPath><clipPath id="C"><path d="M0 500h500V0H0z"/></clipPath><clipPath id="D"><path d="M193.338 204.74h22.405v-76.19h-22.405z"/></clipPath><clipPath id="E"><path d="M193.338 204.74h22.405v-76.19h-22.405z"/></clipPath><clipPath id="F"><path d="M204.487 198.303h11.256V128.55h-11.256z"/></clipPath><clipPath id="G"><path d="M193.338 198.303h11.328V128.55h-11.328z"/></clipPath><clipPath id="H"><path d="M193.517 204.74h22.226v-12.874h-22.226z"/></clipPath><clipPath id="I"><path d="M285.582 185.5l-.008-.076-.017-.063c-.005-.024-.01-.048-.02-.072h0c-.007-.02-.017-.04-.025-.06h0l-.036-.076c-.01-.02-.02-.036-.032-.054h0c-.017-.03-.036-.057-.058-.085h0l-.038-.05a1.54 1.54 0 0 0-.104-.111h0l-.04-.04c-.024-.022-.05-.042-.075-.062h0l-.068-.053c-.027-.02-.058-.04-.088-.06h0l-.092-.06-28.012-16.265c-.106-.06-.22-.113-.34-.16h0l-.097-.036c-.072-.026-.15-.048-.228-.07h0l-.243-.062-.295-.05-.072-.01a3.74 3.74 0 0 0-.41-.022h0c-.02 0-.042-.002-.064 0h0c-.136 0-.27.007-.404.022h0l-.06.006-.39.067-.07.017a3.48 3.48 0 0 0-.337.103h0l-.06.02a2.9 2.9 0 0 0-.373.175h0l-19.55 11.3c-.36.207-.585.463-.674.732h0a.81.81 0 0 0-.044.27h0l-.008-1.122a.89.89 0 0 1 .011-.135h0c.05-.317.288-.626.708-.868h0l19.552-11.288c.1-.064.23-.12.352-.17h0l.02-.007.058-.02.218-.074.12-.028.07-.018.063-.016.24-.042.087-.01.06-.006.1-.01.24-.014.075.001h.065l.108.001.27.017.03.005.072.01.206.027.1.023.243.06.128.032.195.074c.12.048.234.1.34.162h0l28.04 16.282c.022.013.04.027.063.042h0l.086.058c.025.017.046.035.07.053h0l.075.063.015.012c.01.01.017.02.025.027h0a1.17 1.17 0 0 1 .103.111h0c.008.01.017.016.023.024h0l.017.024a.94.94 0 0 1 .058.087h0c.006.012.016.023.023.035h0c.004.005.005.012.01.018h0c.014.026.024.05.035.075h0l.022.046.003.014c.01.024.015.048.02.072h0l.014.05.001.013c.005.025.008.05.01.077h0c.002.016.006.033.006.05h0l.001.02.006 1.12c0-.024-.004-.047-.006-.07"/></clipPath><linearGradient id="J" spreadMethod="pad" gradientUnits="userSpaceOnUse" y2="194.216" x2="257.847" y1="244.754" x1="251.28"><stop offset="0" stop-color="#c6e6ff"/><stop offset="1" stop-color="#8d9fff"/></linearGradient><clipPath id="K"><path d="M263.26 196.4l-26.588-15.45c-.304-.178-.303-.466.005-.642h0l17.612-10.17c.305-.176.8-.176 1.107.001h0l26.586 15.45c.306.178.304.465-.001.64h0L264.37 196.4c-.153.088-.354.132-.554.132h0c-.2 0-.4-.044-.554-.132"/></clipPath><linearGradient id="L" spreadMethod="pad" gradientTransform="matrix(18.736544,41.969952,41.969952,-18.736544,247.1765,156.03845)" gradientUnits="userSpaceOnUse" y2="0" x2="1" y1="0" x1="0"><stop offset="0" stop-color="#1ae5ff"/><stop offset="1" stop-color="#eaeeee"/></linearGradient><clipPath id="M"><path d="M0 500h500V0H0z"/></clipPath><clipPath id="N"><path d="M271.054 447.817c-.124 0-.247-.007-.366-.018h0a3.56 3.56 0 0 1-.407-.059h0l-.01-.003-.012-.002a3.65 3.65 0 0 1-.472-.131h0c-.2-.07-.39-.158-.57-.264h0l-4.684-2.72a3.48 3.48 0 0 0 1.043.394h0l.013.004c.372.075.77.095 1.19.06h0l.032-.004a5.69 5.69 0 0 0 1.305-.284h0c.007-.003.014-.005.02-.007h0a8.2 8.2 0 0 0 1.424-.656h0l130.8-75.518 4.682 2.72-131.6 75.93-.284.12-.285.107-.054.018-.02.008-.208.066-.29.08-.3.065-.3.05-.207.022-.03.003-.075.008-.3.01h-.033"/></clipPath><linearGradient id="O" spreadMethod="pad" gradientUnits="userSpaceOnUse" y2="474.242" x2="325.871" y1="256.6" x1="355.156"><stop offset="0" stop-color="#1ae5ff"/><stop offset=".026" stop-color="#1ae5ff"/><stop offset=".704" stop-color="#eaeeee"/><stop offset="1" stop-color="#eaeeee"/></linearGradient><clipPath id="P"><path d="M400.36 368.608a10.77 10.77 0 0 0 1.406-.975h0l.035-.028c.45-.366.882-.772 1.295-1.21h0l.02-.02c.833-.887 1.582-1.908 2.213-2.995h0l.044-.08c.306-.532.585-1.08.83-1.64h0c.003-.007.006-.013.008-.02h0c.25-.572.465-1.15.64-1.733h0l.008-.023c.175-.583.31-1.167.403-1.744h0v-.006c.092-.583.14-1.158.138-1.717h0l-.253-89.37c-.001-.548-.053-1.054-.143-1.52h0c-.004-.014-.007-.03-.01-.043h0c-.092-.457-.226-.873-.398-1.244h0c-.004-.008-.006-.016-.01-.024h0a4.23 4.23 0 0 0-.53-.82h0l-.196-.243c-.234-.248-.486-.47-.772-.636h0l4.682 2.72c.286.167.538.388.772.637h0c.07.074.13.16.196.242h0c.084.106.18.198.255.316h0a4.53 4.53 0 0 1 .266.482h0l.01.024c.003.007.005.014.01.02h0l.15.357.123.372.095.36.03.155.007.044.03.147.05.337.035.34.022.334.008.342v.02l.232 90.03-.027.344-.038.346-.05.355-.002.01v.007l-.06.34-.075.37-.086.37-.1.376-.085.3-.007.022-.016.06-.118.366-.126.36-.13.345-.137.342-.113.262-.006.017-.026.06-.156.342-.18.37-.22.423-.25.447-.043.08-.053.094-.524.834-.447.637-.313.412-.273.336-.273.32-.274.304-.056.058-.02.02-.212.223-.298.295-.31.288-.315.274-.16.13-.036.03-.12.097-.31.237-.308.218-.3.2-.3.183-.07.04z"/></clipPath><linearGradient id="Q" spreadMethod="pad" gradientUnits="userSpaceOnUse" y2="316.921" x2="400.36" y1="316.921" x1="412.082"><stop offset="0" stop-color="#5155d4"/><stop offset="1" stop-color="#45f7ff"/></linearGradient><clipPath id="R"><path d="M0 500h500V0H0z"/></clipPath><clipPath id="S"><path d="M345.243 392.084h9.644V385.3h-9.644z"/></clipPath><clipPath id="T"><path d="M276.928 386.15h17.234v-12.06h-17.234z"/></clipPath><path id="U" d="M135.606 341.315s-.03-.196.03-.504l1.1-5.258c.16-1.17-1.07-3.267-4.242-3.36s-8.61.97-10.586 4.656c.11.677-.46 7.657-1.077 11.12z"/><path id="V" d="M142.42 364.375c-2.29 9.6-10.238 14.72-18.82 12.263 0 0-9.365-1.407-13.14-9.88s2.7-15.12 6.86-19.3l3.903-3.9c.302-.32.6-.645.914-.933l.09-.092.01.01c2.818-2.553 5.975-3.92 8.285-4.487 3.842-.94 8.288-.075 10.577 2.622s3.615 14.098 1.323 23.698"/></defs><g transform="matrix(1.333333 0 0 -1.333333 0 666.66667)"><path d="M113.226 274.734H337.2v223.973H113.226z" fill="#fff"/><g clip-path="url(#A)" transform="matrix(.447946 0 0 .447946 113.22596 274.73434)"><g opacity=".25" clip-path="url(#B)"><path d="M381.1 111.523c-13.84 7.99-33.253 10.746-50.9 8.27l62.63 36.396c6.84 3.976 6.804 10.42-.082 14.396L249.384 253.35c-6.886 3.975-18.012 3.975-24.853 0l-48.986-28.468c-21.195 9.36-51.526 8.447-70.797-2.752s-20.766-28.783-4.544-41.03L82.1 170.585c-6.84-3.976-6.804-10.42.08-14.397l143.353-82.765c6.885-3.974 18.012-3.974 24.853.001L290.624 96.8c-4.222-10.234.6-21.476 14.43-29.466 21.132-12.2 55.314-12.2 76.3 0s20.86 31.987-.273 44.188" fill="#87aedd"/></g><path d="M164.875 202.926c-.565-6.28-6.477-10.547-11.8-12.846-5.81-2.503-12.195-3.512-18.497-3.43-6.432.083-13 1.313-18.8 4.167-5.06 2.5-10.433 7.007-10.416 13.15-.012-4.474.3-8.17 3.525-11.664 4.15-4.496 10.4-6.918 16.278-8.132 11.47-2.367 27.084-1.224 35.796 7.606 3.505 3.55 3.984 7.295 3.997 12.02a10.16 10.16 0 0 0-.074-.871" fill="#adcdfc"/><path d="M156.147 216.095c11.674-6.74 11.75-17.67.15-24.4s-30.48-6.74-42.155 0-11.722 17.67-.124 24.4 30.454 6.74 42.128 0" fill="#e2edff"/></g><path d="M176.145 377.636l-.033-11.668-2.04-1.186.033 11.668z" fill="#c7d8f2"/><path d="M174.103 376.45l-.033-11.668-2.055 1.186.033 11.668z" fill="#7baeff"/><path d="M176.145 377.636l-2.04-1.186-2.055 1.186 2.04 1.186z" fill="#4da5dc"/><g transform="matrix(.447946 0 0 .447946 113.22596 274.73434)"><g clip-path="url(#C)"><path d="M106.266 314.174s-9.34-2.49-11.83-8.094-1.868-47.944 11.207-65.38 37.36-19.924 42.963-17.433 37.982 18.678 40.473 26.773-9.963 14.32-16.812 17.434-11.208 7.472-14.944 18.68-5.603 30.5-9.962 33.623-14.944 8.094-41.095-5.604" fill="#3aaeef"/><path d="M162.092 325.44s-15.322 12.684-18.437 12.98c-3.737.29-8.4-.98-9.618-6.278s1.606-9.33 4.416-10.873 27.467-13.242 31.825-13.22 7.14 3.773 4.314 8.428-12.5 8.963-12.5 8.963" fill="#e1e8f2"/><use xlink:href="#U" fill="#e16b40"/><use xlink:href="#V" fill="#ff8654"/><path d="M122.626 340.56s-15.084-11.94-16.447-15.733-1.185-14.15 2.378-20.886 3.634-32.16 5.04-37.064 14.863-5.8 23.064-3.8 21.23 8.875 18.61 18.185c-3.867 13.75-2.95 27.6-2.638 31.974s-.798 15.27-3.178 22.493c-.502 1.524-5.875 3.653-5.875 3.653s-5.573 2.593-20.954 1.18" fill="#0046a6"/><path d="M125.36 283.664c-6.227 7.887 2.906 34.868-7.887 42.34-3.29 2.28-6.117 2.854-8.458 2.56-1.447-1.518-2.52-2.85-2.837-3.735-1.363-3.792-1.185-14.15 2.378-20.886s3.635-32.16 5.04-37.064c1.28-4.464 12.536-5.607 20.733-4.262l11.787 12.33s-14.528.83-20.755 8.717" fill="#003783"/><path d="M122.115 338.538c13.114 1.205 19.15-1.05 20.648-1.744.23-2.64.338-6.124-.2-9.314-1.027-6.197-3.496-23.223-3.496-23.223s-8.09 13.988-13.418 19.745l-9.302 9.78a230.77 230.77 0 0 0 5.758 4.755" fill="#e1e8f2"/><use xlink:href="#U" fill="#ff8654"/><use xlink:href="#V" fill="#ff9f75"/><path d="M140.907 324.017l-5.845 5.177-4.676-8.183-4.715 2.977c5.326-5.765 13.405-19.732 13.405-19.732l3.2 21.386z" fill="#cfdae4"/><path d="M140.505 313.99l-2.604 9.192.393 3.15-3.232 2.863-2.27-3.97 2.603-2.377.707-13.648 2.973-4.943 1.43 9.733" fill="#00a5ff"/><path d="M109.38 367.722s-3.736-6.85.934-14 9.675-10.346 10.91-10.155 1.855.504 1.544 1.438-1.868 4.047-1.868 4.047-5.292.623-5.292 4.048 1.868 4.047 4.047 3.113 2.49-2.49 3.736-3.736 1.556-4.36 2.5-4.047 1.557 1.245 1.557 2.802 0 3.424-1.868 5.292.31 4.98-1.557 7.472-3.113 3.424-3.113 3.424 1.246-1.867 7.472-.622 9.03.934 11.52 2.49 1.868 4.98.31 6.226-5.292 1.868-9.65 3.425-6.85.622-12.14-.623-10.274-6.85-9.03-10.585" fill="#e16b40"/><g fill="#382747"><path d="M197.172 180.305s-.208-3.113 3.113-5.396 3.944-3.736 6.642-4.774 5.188-4.566 3.943-7.057-7.056-2.905-10.792-1.868-4.36 4.36-7.887 5.604-4.774 2.698-5.8 3.736-.623 5.2-.623 5.2l12.66 4.15m14.942 12.453s-.208-3.113 3.113-5.396 3.944-3.737 6.642-4.774 5.188-4.566 3.943-7.057-7.056-2.906-10.792-1.868-4.36 4.36-7.887 5.604-4.774 2.698-5.8 3.736-.624 5.2-.624 5.2l12.66 4.15"/></g><g fill="#94a3c0"><path d="M114.568 266.75s.623-2.49.623-4.67-1.557-8.406 1.556-15.878 23.972-9.028 30.82-12.14 10.896-5.915 12.142-6.85 3.01-14.113 8.406-22 14.528-23.66 16.603-30.303c0 0 5.906-1.393 11.208 2.075 2.776 1.817 2.49 2.907 2.49 2.907s-10.793 23.66-13.283 33.623-5.397 21.585-9.963 24.5-19.094 13.284-22.415 15.36-12.27 8.637-14.022 12.62-18.77 10.418-24.167.767"/><path d="M131.7 277.023s.623-2.49.623-4.67-1.557-8.406 1.557-15.877 23.97-9.028 30.82-12.14 10.897-5.916 12.142-6.85 3.01-14.113 8.406-22 14.528-23.66 16.604-30.303c0 0 5.905-1.392 11.207 2.076 2.776 1.816 2.49 2.906 2.49 2.906s-10.792 23.66-13.283 33.623-5.397 21.585-9.963 24.49-19.094 13.283-22.415 15.358-12.27 8.637-14.02 12.62-18.772 10.417-24.168.766"/></g><g clip-path="url(#D)"><g clip-path="url(#E)"><g clip-path="url(#F)"><path d="M215.743 198.303l-.18-63.316-11.077-6.437.18 63.316z" fill="#c7d8f2"/></g><g clip-path="url(#G)"><path d="M204.667 191.865l-.18-63.315-11.15 6.436.18 63.316z" fill="#7baeff"/></g><g clip-path="url(#H)"><path d="M215.743 198.303l-11.077-6.437-11.15 6.437 11.077 6.437z" fill="#4da5dc"/></g></g></g><g fill="#adcdfc"><path d="M397.88 241.675l-.062-.553c-.03-.15-.074-.3-.114-.45l-.15-.524c-.05-.144-.12-.286-.18-.43l-.257-.547c-.07-.132-.155-.26-.235-.4l-.413-.613-.464-.58-.115-.135a10.84 10.84 0 0 0-.74-.726l-.54-.448-.492-.386-.633-.423-.666-.43-142.42-82.765c-1.173-.682-2.47-1.247-3.852-1.694-1.066-.346-2.182-.622-3.327-.828l-2.24-.312-1.95-.13-1.8-.01-1.73.093-.03-10.152 1.73-.1 1.8.007 1.95.13 2.242.313c1.145.206 2.26.482 3.327.828a19.85 19.85 0 0 1 3.851 1.693l142.635 82.893 1.087.724.5.387.65.537.63.637.118.136.34.4c.046.06.078.12.122.18l.413.613c.052.087.124.17.173.258.025.044.04.1.062.133.098.18.177.363.256.547l.15.32c.013.036.018.073.032.1.06.175.104.35.15.526l.1.354c.007.03.005.064.01.095.034.183.047.368.064.554l.04.36.003.154.028 10.152c0-.172-.028-.344-.044-.515m-164.09-92.1l-1.743.303-1.833.45-2.133.72c-.893.352-1.743.757-2.536 1.215L82.2 235.04c-3.464 2-5.194 4.626-5.187 7.248l-.03-10.15c-.007-2.622 1.723-5.248 5.188-7.248l143.353-82.765c.793-.458 1.642-.863 2.535-1.216a23.03 23.03 0 0 1 2.134-.72l1.833-.45 1.742-.302 1.7-.192.028 10.152-1.708.2"/></g><path d="M392.736 249.036c6.886-3.975 6.922-10.42.08-14.396l-142.42-82.766c-6.84-3.975-17.967-3.975-24.852 0L82.19 234.64c-6.886 3.976-6.922 10.42-.08 14.396L224.53 331.8c6.84 3.975 17.967 3.975 24.852 0z" fill="#e2edff"/><path d="M238.664 219.06l39.244-22.807 27.605 15.938-39.244 22.807z" fill="#fff"/><path d="M272.02 224.733l-6.175-3.588-7.818 2.304c2.182 2.497 7.452 3.5 11.77 2.218.864-.255 1.536-.538 2.223-.934" fill="#ff5668"/><path d="M273.434 224.268c4.15-2.396 4.17-6.28.048-8.677s-10.828-2.396-14.978 0c-3.32 1.917-4.1 4.708-1.988 7.123l9.452-2.785z" fill="#b391ff"/><path d="M267.757 207.215c-.345-.2-.347-.516-.005-.714s.89-.198 1.233 0l17.518 10.114c.344.2.346.515.004.714s-.888.2-1.23 0z" fill="#adcdfc"/><g fill="#d4d9df"><path d="M279.86 211.863c-.337-.194-.34-.52-.004-.713.342-.2.9-.2 1.238-.004l7.435 4.292c.344.198.34.52-.003.717a1.36 1.36 0 0 1-1.231 0zm-2.306-3.523c-.344-.198-.352-.52-.01-.717s.894-.195 1.24.003l11.63 6.717c.344.198.346.515.004.713s-.887.2-1.23 0z"/></g><path d="M284.87 186.576c.955-.552.958-1.443.012-1.993l-28.012-16.265c-.95-.55-2.486-.55-3.44 0l-19.552 11.29c-.953.55-.96 1.442-.01 1.992l28.012 16.265c.946.55 2.487.55 3.44 0z" fill="#f2f8fd"/></g><g clip-path="url(#I)"><path d="M285.582 185.5l-.008-.076-.017-.063c-.005-.024-.01-.048-.02-.072h0c-.007-.02-.017-.04-.025-.06h0l-.036-.076c-.01-.02-.02-.036-.032-.054h0c-.017-.03-.036-.057-.058-.085h0l-.038-.05a1.54 1.54 0 0 0-.104-.111h0l-.04-.04c-.024-.022-.05-.042-.075-.062h0l-.068-.053c-.027-.02-.058-.04-.088-.06h0l-.092-.06-28.012-16.265c-.106-.06-.22-.113-.34-.16h0l-.097-.036c-.072-.026-.15-.048-.228-.07h0l-.243-.062-.295-.05-.072-.01a3.74 3.74 0 0 0-.41-.022h0c-.02 0-.042-.002-.064 0h0c-.136 0-.27.007-.404.022h0l-.06.006-.39.067-.07.017a3.48 3.48 0 0 0-.337.103h0l-.06.02a2.9 2.9 0 0 0-.373.175h0l-19.55 11.3c-.36.207-.585.463-.674.732h0a.81.81 0 0 0-.044.27h0l-.008-1.122a.89.89 0 0 1 .011-.135h0c.05-.317.288-.626.708-.868h0l19.552-11.288c.1-.064.23-.12.352-.17h0l.02-.007.058-.02.218-.074.12-.028.07-.018.063-.016.24-.042.087-.01.06-.006.1-.01.24-.014.075.001h.065l.108.001.27.017.03.005.072.01.206.027.1.023.243.06.128.032.195.074c.12.048.234.1.34.162h0l28.04 16.282c.022.013.04.027.063.042h0l.086.058c.025.017.046.035.07.053h0l.075.063.015.012c.01.01.017.02.025.027h0a1.17 1.17 0 0 1 .103.111h0c.008.01.017.016.023.024h0l.017.024a.94.94 0 0 1 .058.087h0c.006.012.016.023.023.035h0c.004.005.005.012.01.018h0c.014.026.024.05.035.075h0l.022.046.003.014c.01.024.015.048.02.072h0l.014.05.001.013c.005.025.008.05.01.077h0c.002.016.006.033.006.05h0l.001.02.006 1.12c0-.024-.004-.047-.006-.07" fill="url(#J)"/></g><g clip-path="url(#K)"><path d="M263.26 196.4l-26.588-15.45c-.304-.178-.303-.466.005-.642h0l17.612-10.17c.305-.176.8-.176 1.107.001h0l26.586 15.45c.306.178.304.465-.001.64h0L264.37 196.4c-.153.088-.354.132-.554.132h0c-.2 0-.4-.044-.554-.132" fill="url(#L)"/></g><g clip-path="url(#M)"><path d="M151.494 278.833l39.244-22.806 27.605 15.937L179.1 294.77z" fill="#fff"/><path d="M184.848 284.508l-6.174-3.588-7.82 2.304c2.182 2.496 7.452 3.5 11.77 2.217a9.74 9.74 0 0 0 2.223-.933" fill="#b391ff"/><path d="M186.263 284.042c4.15-2.396 4.17-6.28.048-8.677s-10.83-2.396-14.978 0c-3.32 1.917-4.1 4.71-1.988 7.124l9.452-2.786z" fill="#05ccff"/><path d="M180.586 266.99c-.344-.2-.346-.515-.004-.713a1.35 1.35 0 0 1 1.232 0l17.518 10.114c.344.2.346.515.004.713s-.888.2-1.23 0z" fill="#adcdfc"/><path d="M192.69 271.638c-.337-.195-.34-.52-.004-.713.342-.2.9-.2 1.238-.004l7.434 4.292c.345.198.34.518-.002.717a1.36 1.36 0 0 1-1.232 0z" fill="#d4d9df"/><path d="M190.383 268.114c-.344-.2-.352-.52-.01-.717s.894-.195 1.238.003l11.632 6.716c.344.2.346.515.004.714a1.35 1.35 0 0 1-1.232 0z" fill="#05ccff"/><path d="M214.606 208.537l-.006-2.357-5.438-3.16.007 2.358z" fill="#540cc7"/><path d="M209.17 205.377l-.006-2.357-46.234 26.692.007 2.357z" fill="#3f0995"/><path d="M214.606 208.537l-5.437-3.16-46.233 26.692 5.437 3.16z" fill="#7974f5"/><path d="M194.058 208.083l-.007-2.357-5.434-3.16.007 2.358z" fill="#2689fd"/><path d="M188.624 204.925l-.007-2.357-36.317 20.967.007 2.358z" fill="#3548db"/><path d="M194.058 208.083l-5.434-3.158-36.317 20.968 5.434 3.158z" fill="#58affb"/><path d="M163.727 213.276l-.007-2.357-5.433-3.158.006 2.358z" fill="#ee2c6a"/><path d="M158.293 210.12l-.007-2.357-16.618 9.594.006 2.358z" fill="#ee428c"/><path d="M163.727 213.276l-5.434-3.157-16.618 9.594 5.433 3.158z" fill="#ff3d9d"/><g fill="#adcdfc"><path d="M127.048 226.3c-.542-.313-.545-.812-.006-1.125s1.4-.312 1.942 0l27.612 15.942c.543.314.546.812.007 1.125s-1.4.314-1.942 0zm19.078 7.326c-.532-.307-.535-.817-.006-1.124.538-.313 1.42-.313 1.95-.006l11.718 6.766c.543.312.535.817-.003 1.13-.53.307-1.4.313-1.942 0zm-3.636-5.554c-.542-.312-.555-.817-.017-1.13a2.15 2.15 0 0 1 1.952.006l18.336 10.586c.54.312.544.8.005 1.124s-1.4.313-1.94 0z"/></g><g fill="#7cccff"><path d="M140.835 253.613l-4.388-2.55c-3.983 2.174-10.242 2.136-14.117-.116-.08-.046-.155-.094-.232-.142l-4.418 2.55.235.14c6.297 3.66 16.5 3.7 22.92.117m.675-.398c5.213-3.264 5.752-8.127 1.603-11.707l-4.554 2.63c1.827 2.093 1.345 4.7-1.443 6.524z"/></g><g fill="#3eabff"><path d="M142.545 241.048a13.87 13.87 0 0 0-1.428-.947c-6.206-3.608-16.203-3.698-22.638-.27l4.393 2.553c4-2.02 10.048-1.933 13.83.266.526.305.978.636 1.362.986zm-21.073 9.332c-2.998-2.258-2.76-5.494.704-7.6l-4.4-2.55c-5.9 3.526-6.158 9.042-.754 12.722z"/></g><path d="M227.764 371.46c2.016-1.164 3.65-3.996 3.644-6.312l-.04-35.29c-.006-2.316-1.652-3.254-3.667-2.1l-9.842 5.682-.48-.668-1.92-2.703-2.378 6.13-9.84 5.682c-2.017 1.163-3.645 3.992-3.64 6.308l.04 35.29c.007 2.316 1.646 3.258 3.662 2.094z" fill="#58affb"/><path d="M210.702 371.08l-.003-.993a.76.76 0 0 0-1.143-.656l-4.684 2.718a.76.76 0 0 0-.378.66l.002.993a.76.76 0 0 0 1.143.655l4.684-2.717c.235-.137.38-.388.38-.66" fill="#fff"/><path d="M225.52 357.59l-.003-.995a.76.76 0 0 0-1.141-.657l-19.516 11.268a.76.76 0 0 0-.381.661l.003.995c.002.584.635.95 1.142.657l19.516-11.268c.235-.137.38-.39.38-.66" fill="#adcdfc"/><g fill="#fff"><path d="M209.52 357.98l-.003-1.138-2.643-9.024-1.132.653 2.632 9.006-3.45 1.992.003 1.163zm5.366-3.1l-.003-1.163-2.983 1.722-.174-3.496c.33.45.83.486 1.516.1 1.307-.755 1.88-2.2 1.876-3.852l-.007-2.277c-.005-1.8-.748-2.524-2.294-1.632-1.557.9-2.283 2.483-2.278 4.272v.775l1.067-.615-.002-.864c-.003-1.05.365-1.902 1.18-2.373.806-.465 1.2-.047 1.192 1.003l.006 2.264c.004 1.05-.376 1.9-1.182 2.374-.62.358-1.045.203-1.146-.6l-.001-.262-1.066.616.3 6.316zm8.42-14.784l.01 3.8c.001.637-.215 1.176-.716 1.465-.5.295-.73.008-.732-.63l-.01-3.8c-.002-.626.215-1.2.726-1.484.5-.3.72.023.722.648m-.703 6.02c1.002-.58 1.446-1.586 1.443-2.7l-.01-3.665c-.003-1.138-.45-1.63-1.453-1.053s-1.456 1.593-1.453 2.73l.01 3.665c.003 1.113.474 1.594 1.464 1.022m-4.27 1.21l.01 3.803c.002.625-.215 1.2-.726 1.484-.523.3-.72-.023-.722-.648l-.01-3.803c-.002-.638.193-1.164.716-1.466.5-.295.73-.008.732.63m.73-.358c-.002-1.126-.473-1.607-1.463-1.035-.98.566-1.446 1.587-1.443 2.712l.01 3.7c.004 1.113.474 1.606 1.454 1.04 1-.572 1.456-1.605 1.453-2.718z"/><path d="M221.744 350.92l.675-.4-4.028-9.364-.686.396z"/></g><path d="M272.374 298.284c11.674-6.74 11.75-17.67.15-24.4s-30.48-6.74-42.154 0-11.722 17.67-.124 24.4 30.454 6.74 42.128 0" fill="#adcdfc"/><g fill="#cc096a"><path d="M272.648 305.504l-.012-4.29-7.42-4.312.012 4.29z"/><path d="M242.807 298.167l.15.062 1.273.436.9.26.7.188.977.2.718.146.298.047 1.23.174.358.043 1.44.12.267.014.973.027.972.004.8-.022.9-.048.82-.07.885-.1.793-.112.94-.163.975-.197.23-.053 1.335-.358.374-.116 1.077-.368.3-.113.94-.4.46-.2 1.3-.68.012 5.005-1.3.68-.456.2-.8.348-.142.053-.308.112-1.078.368-.624.194-1.084.28-.232.052-.533.12-.44.077-.94.163-.376.066-1.3.145-.422.048-1.295.068-.45.025c-.12.003-.24-.004-.36-.002a28.62 28.62 0 0 1-.972-.005c-.16-.002-.322.004-.483-.001l-.5-.025-.268-.014-1.2-.093-.23-.027-.358-.043-1.227-.173-.3-.048-.144-.024-.57-.12-.98-.2-.696-.187-1.1-.317-1.076-.38-.152-.062-1.134-.484-.326-.154-1.196-.628-.216-.128-.194-.122-.322-.204-.282-.2-.3-.212-.263-.196-.28-.218-.244-.203-.36-.315-.1-.088-.4-.4-.13-.135-.46-.536a.22.22 0 0 0-.02-.023l-.1-.126-.25-.343-.125-.2-.194-.314-.053-.085-.066-.13-.138-.267-.104-.223-.163-.4-.12-.366-.068-.233-.097-.4c-.007-.03-.01-.063-.015-.095l-.042-.265-.03-.233-.02-.268-.012-.156-.002-.87L235 289.7l.014.312.02.268.03.233.042.265.05.235.063.26.068.234.085.256.087.23.113.27.104.224.137.266.12.215.194.314.124.2.25.343.112.15.46.536.13.135.4.4.194.18.255.222.245.204.277.217.263.197.3.2.283.192.322.203.4.25 1.197.628.324.153 1.135.485m-2.553-11.503l-.012-4.3-7.42-4.312.013 4.3z"/><path d="M232.825 282.362l-.012-4.292c-5.57 3.217-8.353 7.438-8.34 11.652l.012 4.29c-.012-4.214 2.77-8.435 8.34-11.65"/></g><path d="M272.648 305.504l-7.42-4.312c-6.943 4.01-18.166 4.01-25.065 0s-6.863-10.5.08-14.52l-7.42-4.312c-11.072 6.393-11.127 16.753-.13 23.143s28.883 6.392 39.954 0" fill="#ff5668"/><g fill="#3278cc"><path d="M265.23 299.88l-.012-2.978c3.492-2.016 5.237-4.663 5.23-7.307l.012 4.3c.008 2.644-1.737 3.978-5.23 5.994m7.325-18.953l-.012-2.978-7.468 4.312.012 2.978zm8.4 12.432l-.03-.427-.046-.37-.068-.424-.077-.373-.1-.413-.1-.372-.135-.4-.138-.364-.18-.428-.166-.357-.22-.424-.2-.343-.3-.5-.197-.302-.4-.548-.177-.236-.733-.855-.207-.216-.64-.637-.308-.287-.408-.356-.388-.323-.444-.347-.42-.315-.477-.336-.45-.305-.514-.325-.654-.4-.22-.124-.012-4.3.22.124.345.204.307.195.516.326.448.304.48.337.418.315.444.346.4.324.576.502.14.14.64.636.208.216.764.892.546.747.197.303.394.638.106.206.22.423.167.358.18.427.08.192.058.173.135.4.1.374.154.635.024.15.066.423.047.372.048.676.004.248.012 4.3-.02-.497"/></g><path d="M272.648 304.19c11.068-6.4 11.123-16.75.127-23.14-.073-.043-.147-.082-.22-.124l-7.468 4.312.22.124c6.9 4.01 6.862 10.5-.08 14.517z" fill="#58affb"/><path d="M268.36 275.99l.916.368.54.23.946.44.448.213 1.333.71.01.957-1.332-.708-.45-.215-.945-.437-.54-.23-.916-.368-.57-.214-.96-.332-.608-.2-.467-.14-.857-.246-.482-.13-.918-.227-.425-.1-1.37-.285v-.957l1.357.285.424.1.92.227.48.13.857.246.708.215.368.127.958.332.57.214" fill="#e2a029"/><path d="M272.555 278.905c-3.162-1.8-6.874-3.076-10.826-3.834l-3.453 5.77c2.483.465 4.82 1.26 6.81 2.377z" fill="#ffbe3d"/><path d="M260.51 275.693l-.85-.136-1-.128-.853-.1-1.6-.14-.143-.012-1.77-.084-.45-.008-1.31-.01-.542.006-1.445.044-.276.01-1.7.12-.446.043-1.308.145-.47.06-1.68.255-1.65.323-.578.13-1.11.267-.6.16-.945.274-.857.266-.86.295-.83.303-1.236.496-.122.05-1.393.648-.33.165-1.343.722-.012-1.787 1.343-.722.33-.165 1.394-.648.12-.05.907-.375.33-.12.833-.304.856-.293.86-.268.523-.162.418-.11.603-.16 1.107-.268.578-.13.252-.057 1.406-.267 1.383-.217.3-.038.472-.06 1.308-.145.446-.043.23-.023 1.47-.097 1.31-.05.953-.01 1.31.01.45.01.182.004 1.59.08.142.012 1.4.116.188.023.855.1 1 .128.85.136.733.117.485.1.012 1.788-1.218-.208" fill="#7974f5"/><path d="M258.275 281.675l3.453-5.77c-9.808-1.884-21.065-.57-28.903 3.957l7.42 4.312c4.89-2.824 11.904-3.655 18.03-2.5" fill="#b391ff"/></g><g clip-path="url(#N)"><path d="M271.054 447.817c-.124 0-.247-.007-.366-.018h0a3.56 3.56 0 0 1-.407-.059h0l-.01-.003-.012-.002a3.65 3.65 0 0 1-.472-.131h0c-.2-.07-.39-.158-.57-.264h0l-4.684-2.72a3.48 3.48 0 0 0 1.043.394h0l.013.004c.372.075.77.095 1.19.06h0l.032-.004a5.69 5.69 0 0 0 1.305-.284h0c.007-.003.014-.005.02-.007h0a8.2 8.2 0 0 0 1.424-.656h0l130.8-75.518 4.682 2.72-131.6 75.93-.284.12-.285.107-.054.018-.02.008-.208.066-.29.08-.3.065-.3.05-.207.022-.03.003-.075.008-.3.01h-.033" fill="url(#O)"/></g><g clip-path="url(#P)"><path d="M400.36 368.608a10.77 10.77 0 0 0 1.406-.975h0l.035-.028c.45-.366.882-.772 1.295-1.21h0l.02-.02c.833-.887 1.582-1.908 2.213-2.995h0l.044-.08c.306-.532.585-1.08.83-1.64h0c.003-.007.006-.013.008-.02h0c.25-.572.465-1.15.64-1.733h0l.008-.023c.175-.583.31-1.167.403-1.744h0v-.006c.092-.583.14-1.158.138-1.717h0l-.253-89.37c-.001-.548-.053-1.054-.143-1.52h0c-.004-.014-.007-.03-.01-.043h0c-.092-.457-.226-.873-.398-1.244h0c-.004-.008-.006-.016-.01-.024h0a4.23 4.23 0 0 0-.53-.82h0l-.196-.243c-.234-.248-.486-.47-.772-.636h0l4.682 2.72c.286.167.538.388.772.637h0c.07.074.13.16.196.242h0c.084.106.18.198.255.316h0a4.53 4.53 0 0 1 .266.482h0l.01.024c.003.007.005.014.01.02h0l.15.357.123.372.095.36.03.155.007.044.03.147.05.337.035.34.022.334.008.342v.02l.232 90.03-.027.344-.038.346-.05.355-.002.01v.007l-.06.34-.075.37-.086.37-.1.376-.085.3-.007.022-.016.06-.118.366-.126.36-.13.345-.137.342-.113.262-.006.017-.026.06-.156.342-.18.37-.22.423-.25.447-.043.08-.053.094-.524.834-.447.637-.313.412-.273.336-.273.32-.274.304-.056.058-.02.02-.212.223-.298.295-.31.288-.315.274-.16.13-.036.03-.12.097-.31.237-.308.218-.3.2-.3.183-.07.04z" fill="url(#Q)"/></g><g clip-path="url(#R)"><path d="M400.36 368.608c3.902-2.253 7.052-7.71 7.04-12.193l-.253-89.37c-.013-4.484-3.183-6.29-7.086-4.038l-130.8 75.518c-3.902 2.253-7.052 7.71-7.04 12.193l.253 89.37c.014 4.485 3.184 6.292 7.086 4.04z" fill="#343996"/><path d="M362.458 405.253c1.227-.708 2.216-2.423 2.212-3.833l-.08-28.09c-.004-1.41-1-1.977-2.228-1.27l-41.113 23.737c-1.227.708-2.217 2.423-2.213 3.832l.08 28.092c.005 1.41 1 1.977 2.228 1.27z" fill="#2689fd"/><path d="M284.626 417.72l-.003-1.275a.98.98 0 0 0-1.467-.843l-6.015 3.5a.98.98 0 0 0-.487.848l.004 1.275a.98.98 0 0 0 1.467.842l6.015-3.5c.3-.175.487-.498.486-.847" fill="#fff"/><path d="M303.654 400.395l-.004-1.278a.98.98 0 0 0-1.465-.843l-25.06 14.47c-.304.175-.5.5-.49.85l.003 1.278a.98.98 0 0 0 1.466.842l25.06-14.468a.98.98 0 0 0 .488-.849" fill="#1ae5ff"/><path d="M273.096 358.635l9.977 5.088 6.526-10.54 7.278-7.404 7.28 4.392 15.56 5.02 7.027-10.04 7.028-5.773 6.4-9.412 8.66 18.197 10.542-5.02 5.522 4.518 11.42-3.012 16.94 1.506" fill="none" stroke="#16c5dc" stroke-miterlimit="10"/><path d="M332.1 416.07c-3.787 2.187-7.373 1.63-8.854-1.817-1.853-4.31.254-11.566 4.716-16.586l1.035 2.4c-3.022 3.527-4.43 8.512-3.147 11.49 1.045 2.43 3.57 2.82 6.24 1.28.65-.376 1.3-.866 1.958-1.47l1.035 2.41c-.985.948-1.992 1.7-2.984 2.283" fill="#f1f1f1"/><path d="M335.074 413.788l-1.034-2.408.487-.478c3.436-3.54 5.114-8.978 3.75-12.15-.05-.113-.103-.223-.16-.33-.02-.038-.04-.075-.064-.113-.994-1.75-2.897-2.177-5.007-1.33a7.77 7.77 0 0 0-1.004.49c-.1.052-.18.107-.27.163a12.41 12.41 0 0 0-.415.272l-.056.04a11.15 11.15 0 0 0-.811.631l-.103.09c-.1.087-.2.177-.298.27-.037.034-.075.067-.11.104-.13.122-.26.25-.388.38-.208.215-.408.435-.603.66l-1.035-2.4c.197-.22.396-.44.602-.652.185-.19.37-.37.556-.546l.158-.15a18.96 18.96 0 0 1 .427-.384 5.35 5.35 0 0 1 .144-.125c.383-.326.77-.627 1.153-.896.03-.023.06-.043.092-.063a13.59 13.59 0 0 1 .525-.348l.06-.037a11.3 11.3 0 0 1 .358-.215c.284-.164.567-.313.85-.447a10.25 10.25 0 0 1 .612-.266c3.22-1.277 6.104-.47 7.392 2.53 1.934 4.5-.448 12.218-5.32 17.238-.163.166-.325.326-.488.48" fill="#fdb913"/><g fill="#fff"><path d="M349.883 400.506l-.003-.737c-.001-.434-.472-.704-.848-.487l-3.476 2.017a.57.57 0 0 0-.28.5l.002.738c.002.434.472.704.848.486l3.477-2.017a.57.57 0 0 0 .28-.5m10.997-10.012l-.002-.74c-.001-.433-.47-.704-.847-.487l-14.484 8.363a.56.56 0 0 0-.282.49l.002.74c.001.434.47.704.846.487l14.485-8.362c.175-.102.283-.3.282-.5"/></g><g opacity=".53" clip-path="url(#S)"><path d="M354.888 386.603l-.002-.74c-.002-.434-.472-.704-.847-.487l-8.513 4.915c-.175.1-.283.288-.283.5l.002.74c.002.434.472.704.848.487l8.513-4.915c.175-.1.282-.288.282-.5" fill="#fff"/></g><path d="M358.623 388.12l-.002-.74c-.001-.434-.47-.704-.847-.487l-12.238 7.066c-.175.1-.283.288-.282.5l.002.74c.001.434.47.704.846.487l12.24-7.066a.56.56 0 0 0 .281-.49" fill="#58affb"/><path d="M393.292 355.42c-4.22 2.436-7.662.474-7.676-4.374s3.407-10.752 7.626-13.188 7.644-.485 7.658 4.364-3.388 10.762-7.608 13.198" fill="#ff4272"/><path d="M393.273 350.6c-1.907 1.1-3.464.214-3.47-1.978s1.54-4.86 3.45-5.962 3.456-.22 3.46 1.973-1.532 4.865-3.44 5.967" fill="#212973"/><g fill="#1ce5ff"><path d="M285.153 401.204v-1.315a1.01 1.01 0 0 0-1.511-.873l-6.215 3.58c-.312.18-.504.512-.504.873v1.315a1.01 1.01 0 0 0 1.51.873l6.215-3.58c.313-.18.505-.513.505-.873m19.682-17.808v-1.318a1.01 1.01 0 0 0-1.509-.874l-25.895 14.844a1.01 1.01 0 0 0-.506.874l-.001 1.318a1.01 1.01 0 0 0 1.509.875l25.895-14.845c.314-.18.507-.513.507-.874"/></g><g opacity=".53" clip-path="url(#T)"><path d="M294.16 376.418V375.1a1.01 1.01 0 0 0-1.508-.874l-15.22 8.724c-.313.18-.506.513-.506.874v1.318a1.01 1.01 0 0 0 1.507.875l15.22-8.725a1.01 1.01 0 0 0 .506-.874" fill="#1ce5ff"/></g><path d="M300.82 379.148v-1.318a1.01 1.01 0 0 0-1.509-.874l-21.88 12.543c-.312.18-.506.512-.506.873l-.001 1.318a1.01 1.01 0 0 0 1.509.875l21.88-12.543a1.01 1.01 0 0 0 .506-.874" fill="#1ce5ff"/><path d="M374.5 289.78l3.53 2.052-.068-23.97-3.53-2.052z" fill="#00a935"/><path d="M381.7 290.42v.028l-.002.03-.002.03-.003.03-.01.06-.006.032-.007.03-.018.064-.01.032-.01.03-.012.03-.012.03c-.005.01-.01.02-.013.03l-.015.032-.016.032v.001l-11.034 21.96c-.017.03-.035.058-.054.085l-.036.05-.025.034-.025.03-.023.027-.014.016-.036.038-.026.026-.028.026-.028.024-.027.023-.028.02-.027.02c-.01.006-.017.012-.027.017l-.026.017-.026.014c-.008.005-.017.01-.025.013l-.025.013c-.01.003-.017.006-.025.01l-.026.01c-.008.002-.016.005-.025.008s-.018.005-.025.007l-.027.006c-.008.002-.017.003-.027.004l-.01.001-.046.003c-.01 0-.02-.001-.03-.002l-.035-.004c-.015-.003-.03-.007-.043-.012a.35.35 0 0 1-.052-.024l-3.53-2.052c.06.036.132.047.207.04h.001c.075-.008.155-.036.235-.083a1.07 1.07 0 0 0 .259-.214 1.44 1.44 0 0 0 .22-.322l10.99-21.88c.054-.107.1-.21.112-.307v-.002c.022-.097.03-.186.023-.267v-.001a.54.54 0 0 0-.056-.208.33.33 0 0 0-.125-.138l3.53 2.052c.043.025.08.06.108.104a.16.16 0 0 1 .015.029c.015.027.02.04.025.053l.012.033c.003.01.005.022.007.033s.005.02.007.03l.004.03c.002.01.002.02.003.028l.001.006.001.023c.001.01.001.02.001.03" fill="#61e041"/><path d="M366.572 311.308c.178-.103.354-.29.48-.536l10.99-21.88c.325-.65.035-1.176-.484-.876l-3.057 1.765-.068-23.97-16.056 9.27.068 23.97-2.956 1.706c-.524.303-.81 1.16-.477 1.43l11.08 9.14c.125.1.302.085.48-.018" fill="#00cc41"/><path d="M252.612 260.203l31.764-32.423 30.85 8.02-31.763 32.423z" fill="#fff"/><g fill="#e2edff"><path d="M286.717 258.216l-3.04-1.15c-2.288 1.793-6.248 2.427-8.934 1.412l-.16-.066-2.523 2.077.163.064c4.364 1.65 10.815.602 14.496-2.337m.384-.323c2.95-2.6 2.78-5.74-.218-7.566l-2.6 2.14c1.374 1.13 1.342 2.822-.226 4.275z"/></g><g fill="#3eabff"><path d="M286.477 250.096a9.1 9.1 0 0 0-1.002-.448c-4.302-1.627-10.628-.633-14.334 2.2l3.044 1.15c2.3-1.697 6.146-2.278 8.77-1.287.364.138.684.3.963.48zM274.14 258.2c-2.132-1.112-2.32-3.182-.355-4.882l-3.04-1.15c-3.358 2.85-2.94 6.363.86 8.12z"/></g><path d="M283.565 99.827s-2.5-1.712-.155-5.76 4.358-1.556 9.65-5.604 7.16-4.825 9.962-4.514 4.515 1.712 4.98 3.27-.934 4.203-.934 4.203z" fill="#94a3c0"/><path d="M305.98 99.672l1.712-9.34c.155-1.868-2.335-4.4-5.915-4.255s-5.605 1.245-6.85 2.802-9.028 4.566-10.428 5.812-1.713 4.98-1.1 5.915 2.957 2.49 5.448 1.4 4.514-3.113 9.495-3.425 7.628 1.1 7.628 1.1" fill="#382747"/><path d="M308.263 113.318s-2.5-1.713-.155-5.76 4.358-1.556 9.65-5.603 7.16-4.826 9.962-4.515 4.515 1.713 4.98 3.27-.934 4.202-.934 4.202z" fill="#94a3c0"/><path d="M330.68 113.162l1.712-9.34c.155-1.868-2.335-4.41-5.915-4.255s-5.604 1.245-6.85 2.802-9.028 4.565-10.428 5.812-1.713 4.98-1.1 5.915 2.958 2.5 5.448 1.4 4.514-3.113 9.495-3.424 7.628 1.09 7.628 1.09" fill="#382747"/><path d="M311.324 156.23c1.245-9.962 6.227-36.113 7.057-45.245 0 0 2.076-3.32 8.3-2.49l2.956 1.23c1.19.496 1.905 1.72 1.746 3-.626 5.036-2.035 17.718-1.38 25.242.83 9.547-1.66 15.36-1.66 15.36.207 3.113.622 13.906-5.605 16.81 0 0-15.255 2.802-11.415-13.906" fill="#14347c"/><path d="M323.985 165.568l-1.66-3.32s-25.528-1.245-32.377-8.717c0 0-4.566-.83-3.32-10.793s6.226-36.113 7.056-45.246c0 0 2.075-3.32 8.302-2.5l2.956 1.23c1.19.496 1.904 1.72 1.745 3-.626 5.036-2.034 17.717-1.38 25.24.83 9.548-1.66 15.36-1.66 15.36s11.207-2.077 23.245-7.057 22.415.83 26.982 3.32 6.226 4.152 6.226 4.152 5.812 0 11.207 4.565 6.227 16.605.416 23.66-47.736-2.906-47.736-2.906" fill="#18388f"/><path d="M333.117 228.664s4.125 1.528 3.854 7.04c-1.252 5.426-2.766 5.79-2.766 5.79s5.77 5.333 12.73 3.652c0 0 4.3-8.723 9.163-12.46 0 0-3.887-10.25-22.982-4.022" fill="#ce7c56"/><path d="M342.146 225.55s15.255 12.764 18.368 13.075c3.736.312 8.405-.933 9.652-6.226s-1.557-9.34-4.36-10.897-27.396-13.387-31.755-13.387-7.16 3.737-4.358 8.406 12.453 9.03 12.453 9.03" fill="#e2a029"/><path d="M346.815 234.06s-16.188-5.396-20.755-12.868-3.736-15.774-.415-27.397-3.32-22-1.66-28.226 13.282-12.037 30.302-9.132 18.264 9.547 19.51 13.283-3.32 21.585.83 36.113-4.152 24.492-7.472 26.982-9.963 5.81-20.34 1.245" fill="#ffbe3d"/><path d="M367.155 232.815c-3.32 2.49-9.963 5.812-20.34 1.245 0 0-16.188-5.395-20.755-12.868a20.96 20.96 0 0 1-2.404-5.614c6.555 8.52 15.858 12.26 21.914-2.273 5.65-13.563-8.727-53.43-21.29-40.897-.528-2.614-.805-4.924-.294-6.84 1.66-6.227 13.282-12.037 30.302-9.132s18.264 9.547 19.5 13.283-3.322 21.585.83 36.114-4.152 24.49-7.472 26.98" fill="#e2a029"/><path d="M331.353 227.003s4.36-2.802 15.255-1.245 11.52 9.34 10.585 9.963-2.802 3.112-2.802 3.112-11.518-5.292-15.566-6.85l-6.226-2.5z" fill="#fff"/><path d="M324.192 260.938s-.934-11.208 4.98-18.68 11.83-3.113 15.567-1.245 5.292 4.982 6.537 14 1.245 17.745-5.292 20.547-13.698 3.425-17.746-3.424-4.047-11.208-4.047-11.208" fill="#ffaa83"/><path d="M328.55 274.324s-5.292-4.047-4.98-9.962-1.556-6.85-.934-9.962 5.603-4.048 5.915-8.406 6.85-5.915 10.273-7.16 9.03 2.803 10.586 4.98 1.245 7.783 3.113 12.765.934 11.207-.622 15.566-4.67 5.292-4.67 5.292-1.557 3.425-5.293 4.048-15.255 0-13.387-7.16" fill="#4d2c63"/><path d="M378.443 90.227c-.565-6.28-6.477-10.547-11.81-12.846-5.808-2.503-12.194-3.512-18.497-3.43-6.43.083-13 1.313-18.798 4.167-5.062 2.5-10.433 7.007-10.416 13.15-.012-4.474.3-8.17 3.525-11.664 4.15-4.496 10.4-6.918 16.278-8.132 11.468-2.367 27.084-1.224 35.795 7.606 3.506 3.55 3.985 7.296 3.998 12.02a10.16 10.16 0 0 0-.074-.871" fill="#adcdfc"/><path d="M369.715 103.396c11.674-6.74 11.75-17.67.15-24.4s-30.48-6.74-42.154 0-11.723 17.67-.124 24.4 30.453 6.74 42.128 0" fill="#e2edff"/><path d="M354.028 117.02l-.074-26.048-4.557-2.647.074 26.047z" fill="#c7d8f2"/><path d="M349.472 114.37l-.074-26.047-4.587 2.648.074 26.047z" fill="#7baeff"/><path d="M354.028 117.02l-4.557-2.648-4.587 2.648 4.557 2.648z" fill="#4da5dc"/><path d="M407.152 205.955a5.36 5.36 0 0 1-7.125 4.868c-14.9-5.222-49.02-17.592-51.21-21.977-2.1-4.18-8.84-27.523-12.165-39.217a5.36 5.36 0 0 0-7.881-3.142l-20.627 12.164c-3.924 2.315-8.763-1.008-8.015-5.5l3.312-19.87a5.36 5.36 0 0 1 2.619-3.769l22.07-12.68a42.44 42.44 0 0 1 40.122-1.159l17.013 8.507c14.88 7.44 24.04 22.887 23.434 39.512z" fill="#3278cc"/><path d="M348.816 188.846c-2.1-4.18-8.84-27.522-12.165-39.217a5.36 5.36 0 0 0-7.881-3.141l-20.627 12.164c-3.924 2.314-8.764-1.008-8.015-5.5l3.312-19.87c.077-.464.23-.902.42-1.32l.797-1.238c.397-.472.854-.896 1.402-1.21l22.07-12.68c4.676-2.686 9.745-4.412 14.93-5.178 17.903 13.892 15.646 71.877 9.154 76.747-.962.72-1.81 1.17-2.557 1.412-.405-.353-.695-.678-.84-.966" fill="#3aaeef"/><path d="M308.938 206.456s15.255 12.764 18.368 13.075c3.736.312 8.406-.933 9.652-6.226s-1.557-9.34-4.36-10.897-27.396-13.387-31.756-13.387-7.16 3.737-4.358 8.407 12.453 9.028 12.453 9.028" fill="#ffbe3d"/><path d="M287.456 226.69s-.778 1.557-.934 2.646.467 2.492-.156 4.982-1.712 4.67-2.18 6.382c-1.245 1.556-2.335-1.245-1.4-3.58s.623-3.736-.31-3.892-4.826 2.18-5.915 3.425-7.316 7.316-7.94 6.538-.623-1.557 1.557-3.892 2.958-3.424 3.113-4.047 0-1.246.778-3.114.156-3.113 1.557-4.825 4.047-2.023 5.293-3.113l1.245-1.1z" fill="#ffaa83"/><path d="M300.843 189.022s-6.537-1.245-10.065 6.02-9.548 26.773-10.378 28.64c0 0 2.075 4.566 7.264 4.36 0 0 5.812-11.416 9.132-16.605s15.15-20.34 4.047-22.415" fill="#ffbe3d"/><path d="M204.633 312.77s2.03 1.292 3.228.922 5.35-1.014 6.64-1.107 3.874 2.214 4.335 2.583.738 1.2 1.292 1.753.83.46.83 1.475 1.014 1.937 1.475 2.398 2.306 1.568 2.122 2.398-1.107.37-1.66.185-2.675-2.12-3.596-2.675-3.137-1.383-4.244-1.383-2.12.276-2.12.276-.277 0 .83.37 1.753.093 2.675.277 1.383.738 1.29 1.2-1.29.46-1.752.46-3.228-.092-4.335.093-2.95-1.66-3.32-2.03-2.305-.922-3.32-1.014-.37-6.18-.37-6.18" fill="#ff9f75"/><g fill="#e1e8f2"><path d="M164.94 313.757s1.93-6.37 10.002-6.125 28.147 3.965 30.187 4.096c0 0 3.082 3.957.5 8.457 0 0-12.808-.148-18.946.386s-25.047 3.985-21.734-6.814m-42.726-12.753s-3.374 19.603-5.546 21.854c-2.647 2.655-7.014 4.727-11.388 1.497s-4.855-8.13-3.726-11.13 12.23-27.932 15.553-30.752 7.876-1.784 8.76 3.6-3.654 14.94-3.654 14.94"/></g><path d="M156.233 290.565l3.58-.155c.934 0 8.094.622 9.34.622s1.245-1.4 1.245-1.4 1.246-2.024 1.246-2.802 0-1.868.31-2.646-.156-1.4-.467-2.024-1.1-.933-1.868-1.4-1.713-.466-2.335-.155-.623.467.156.934 1.4 1.1 1.4 1.1-.934-.935-2.335-1.1-3.58-.156-4.825.467l-3.425 1.712-2.5.31z" fill="#ff9f75"/><path d="M116.58 285.115s1.93-6.37 10.002-6.125 28.147 3.965 30.187 4.096c0 0 3.082 3.957.49 8.458 0 0-12.808-.15-18.946.386s-25.047 3.985-21.734-6.815" fill="#e1e8f2"/></g></g></g></svg>