<svg xmlns="http://www.w3.org/2000/svg" xmlns:xlink="http://www.w3.org/1999/xlink" width="600" height="300" xmlns:v="https://vecta.io/nano"><style><![CDATA[.B{fill:#00dfbf}.C{fill:#fff}.D{fill:#1a2e35}.E{opacity:.3}.F{fill:#e1e1e1}.G{fill:#2b454e}.H{fill:#375a64}.I{fill:#ffaaa8}.J{opacity:.4}.K{fill:#fafafa}]]></style><defs><clipPath id="A"><path d="M0 500h500V0H0z"/></clipPath><clipPath id="B"><path d="M0 500h500V0H0z"/></clipPath><clipPath id="C"><path d="M0 500h500V0H0z"/></clipPath><clipPath id="D"><path d="M0 500h500V0H0z"/></clipPath><clipPath id="E"><path d="M63.566 287.605H301.58V130.232H63.566z"/></clipPath><clipPath id="F"><path d="M71.497 451.497h222.15v-281.94H71.497z"/></clipPath><clipPath id="G"><path d="M0 500h500V0H0z"/></clipPath><clipPath id="H"><path d="M100.538 462.6h236.62V325.714h-236.62z"/></clipPath><clipPath id="I"><path d="M99.634 327.895h4.68v-14.808h-4.68z"/></clipPath><clipPath id="J"><path d="M126.133 227.877h18.913V208.22h-18.913z"/></clipPath><clipPath id="K"><path d="M239.692 302.2h18.913v-19.658h-18.913z"/></clipPath><clipPath id="L"><path d="M239.692 293.447h18.913v-19.66h-18.913z"/></clipPath><clipPath id="M"><path d="M239.692 284.703h18.913v-19.658h-18.913z"/></clipPath><clipPath id="N"><path d="M239.692 275.96h18.913v-19.658h-18.913z"/></clipPath><clipPath id="O"><path d="M145.046 265.032h18.912v-19.658h-18.912z"/></clipPath><clipPath id="P"><path d="M182.924 330.603h18.912v-19.658h-18.912z"/></clipPath><clipPath id="Q"><path d="M277.57 332.79h18.912V313.13H277.57z"/></clipPath><clipPath id="R"><path d="M0 500h500V0H0z"/></clipPath><clipPath id="S"><path d="M319.227 219.45h40.285V196.2h-40.285z"/></clipPath><clipPath id="T"><path d="M0 500h500V0H0z"/></clipPath><clipPath id="U"><path d="M319.227 207.843h20.144V170.02h-20.144z"/></clipPath><clipPath id="V"><path d="M0 500h500V0H0z"/></clipPath><clipPath id="W"><path d="M292.727 215.028h40.285v-23.26h-40.285z"/></clipPath><clipPath id="X"><path d="M0 500h500V0H0z"/></clipPath><clipPath id="Y"><path d="M312.87 203.424h20.145V154.72H312.87z"/></clipPath><clipPath id="Z"><path d="M0 500h500V0H0z"/></clipPath><clipPath id="a"><path d="M292.727 203.422h20.144V154.72h-20.144z"/></clipPath><clipPath id="b"><path d="M0 500h500V0H0z"/></clipPath><clipPath id="c"><path d="M266.228 175.752h40.285v-23.26h-40.285z"/></clipPath><clipPath id="d"><path d="M0 500h500V0H0z"/></clipPath><clipPath id="e"><path d="M286.37 164.15h20.145v-24.73H286.37z"/></clipPath><clipPath id="f"><path d="M0 500h500V0H0z"/></clipPath><clipPath id="g"><path d="M266.227 164.146h20.145V139.42h-20.145z"/></clipPath><clipPath id="h"><path d="M0 500h500V0H0z"/></clipPath><clipPath id="i"><path d="M136.662 92.747h36.897V63.083h-36.897z"/></clipPath><clipPath id="j"><path d="M172.48 95.784h41.745V62.747H172.48z"/></clipPath><clipPath id="k"><path d="M149.3 109.31h23.142V88.33H149.3z"/></clipPath><clipPath id="l"><path d="M136.66 107.855h36.9V70.7h-36.9z"/></clipPath><clipPath id="m"><path d="M172.48 103.404h41.742V70.367H172.48z"/></clipPath><clipPath id="n"><path d="M168.945 92.397h4.615V63.08h-4.615z"/></clipPath><clipPath id="o"><path d="M198.04 126.288h10.083v-5.82H198.04z"/></clipPath><clipPath id="p"><path d="M203.08 123.384h5.042v-5.832h-5.042z"/></clipPath><clipPath id="q"><path d="M198.04 123.383h5.042v-5.83h-5.042z"/></clipPath><clipPath id="r"><path d="M209.397 119.73h10.083v-5.82h-10.083z"/></clipPath><clipPath id="s"><path d="M214.438 116.827h5.042v-5.832h-5.042z"/></clipPath><clipPath id="t"><path d="M209.397 116.826h5.042v-5.83h-5.042z"/></clipPath><clipPath id="u"><path d="M220.754 113.174h10.083v-5.822h-10.083z"/></clipPath><clipPath id="v"><path d="M220.754 110.27h5.042v-5.83h-5.042z"/></clipPath><clipPath id="w"><path d="M0 500h500V0H0z"/></clipPath><clipPath id="x"><path d="M387.97 203.523h13.82v-32.607h-13.82z"/></clipPath><clipPath id="y"><path d="M368.557 264.522h37.106V204.51h-37.106z"/></clipPath><clipPath id="z"><path d="M331.187 278.068h10.9v-6.502h-10.9z"/></clipPath><clipPath id="AA"><path d="M367.266 228.322h40.003v-62.75h-40.003z"/></clipPath><path id="AB" d="M67.794 135.317L297.35 267.85c2.335 1.348 4.23 4.628 4.23 7.324V461.48c0 2.696-1.894 3.79-4.23 2.44L67.796 331.39c-2.335-1.348-4.228-4.627-4.228-7.324l-.003-186.307c0-2.696 1.894-3.79 4.23-2.44"/><path id="AC" d="M71.498 171.367l.001 150.065c0 1.618 1.137 3.585 2.538 4.394L291.104 451.15c1.4.81 2.538.153 2.538-1.465l.007-150.07c0-1.617-1.136-3.585-2.537-4.394L74.035 169.902c-1.4-.81-2.537-.153-2.537 1.465"/><path id="AD" d="M143.485 331.87l.001-3.44 7.572 4.372v3.44z"/><path id="AE" d="M126.133 295.632l18.913 10.92v-8.72l-18.913-10.937z"/><path id="AF" d="M239.692 282.527l18.912 10.92v-8.72l-18.912-10.937z"/><path id="AG" d="M272.672 368.624c-.63-.364-1.142-1.25-1.142-1.983s.51-1.027 1.142-.66 1.14 1.253 1.14 1.982-.51 1.026-1.14.662"/><path id="AH" d="M284.022 361.856c-.63-.364-1.14-1.25-1.14-1.982s.51-1.028 1.14-.662a2.54 2.54 0 0 1 1.142 1.982c0 .73-.512 1.026-1.142.662"/><path id="AI" d="M173.56 84.78l-4.613-21.696c-18.826 1.836-32.433 11.36-32.274 22.246l-.01-.02v7.437c0-10.8 13.57-20.223 32.283-22.05l3.168 14.912z"/><path id="AJ" d="M172.48 70.446v-7.62c8.22-.387 15.737.64 22.922 3.135 8.88 3.08 15.146 7.97 17.653 13.772.76 1.764 1.148 3.548 1.166 5.32l.001 7.874s-2.15.168-4.67 2.856l-32.456-11.258z"/><path id="AK" d="M136.95 95.496c-2.533-11.91 11.707-22.816 31.995-24.797l4.614 21.697-26.776 15.46c-5.59-3.5-8.812-7.555-9.833-12.36"/><path id="AL" d="M172.615 71.08l-.135-.635c8.22-.387 15.737.642 22.923 3.135 8.878 3.082 15.146 7.97 17.652 13.772 2.36 5.468 1.113 11.128-3.504 16.052l-32.456-11.26z"/><path id="AM" d="M403.777 218.414c-1.116 2.757-1.74 4.6-4.955 9.908 4.898 15.776 6.467 21.09 5.515 27.835-.605 4.29-3.977 8.58-8.156 8.357 0 0-2.258-.004-3.208 0-.187-2.992-8.496-3.137-11.648-1.08l-2.902-.077c-2.052-.727-9.035-10.954-9.804-17.744-.625-5.517 3.696-10.298 3.696-10.298.167-2.192-.4-6.994-.4-6.994v-19.987s1.62-5.117 18.434-3.516c14.958 1.424 15.324 6.535 15.324 6.535s-.435 3.477-1.886 7.06"/><path id="AN" d="M398.822 228.322s-11.215-6.625-26.917 0c0 0-2.186-12.282-2.848-24.886l-1.79-33.408s4.638-5.406 21.176-4.3c15.895 1.054 18.702 5.197 18.702 5.197l.12 29.42c.107 11.445-1.498 17.7-8.442 27.986"/></defs><g transform="matrix(1.333333 0 0 -1.333333 0 666.66667)"><g transform="matrix(.40671 0 0 .40671 131.2308 287.4582)"><g clip-path="url(#A)" class="K"><path d="M419.21 257.026c93.977-54.257 93.976-142.226-.001-196.484s-246.344-54.258-340.32 0-93.976 142.226.001 196.484 246.344 54.257 340.32 0"/></g><g clip-path="url(#B)" class="F"><path d="M414.962 116.894c18.827-10.87 18.827-28.494 0-39.364s-49.354-10.87-68.18 0-18.827 28.494 0 39.364 49.354 10.87 68.18 0m-347.497-7.218L27.933 132.5c-2.228 1.286-2.228 3.373 0 4.66l229.94 132.756c2.23 1.287 5.842 1.287 8.07.001l39.533-22.823c2.23-1.287 2.23-3.374 0-4.66L75.536 109.676c-2.23-1.287-5.842-1.287-8.07 0"/></g><g clip-path="url(#C)" fill="#ececec"><path d="M94.025 447.26l-8.94-5.162.075 1.184v2.6c0 4.6-3.235 6.477-7.227 4.173-1.616-.933-3.103-2.412-4.307-4.142-.654 5.794-5.2 7.954-10.723 4.765-5.97-3.448-10.812-11.832-10.812-18.727v-3.874c0-1.786.33-3.3.915-4.5L45.58 419.3c-2.214-1.28-4-4.387-4-6.944s1.795-3.592 4-2.314L94.025 438c2.214 1.28 4 4.387 4 6.944s-1.795 3.592-4 2.314m46.295-21.418l-6.747-3.896.057.894v1.954c0 3.48-2.442 4.888-5.455 3.15-1.22-.705-2.342-1.82-3.25-3.126-.494 4.373-3.925 6.003-8.093 3.596-4.507-2.602-8.16-8.93-8.16-14.134v-2.924c0-1.347.25-2.483.7-3.387l-5.604-3.235c-1.67-.965-3.025-3.3-3.025-5.24s1.354-2.7 3.025-1.747l36.56 21.1c1.67.965 3.025 3.3 3.025 5.24s-1.354 2.712-3.025 1.747"/></g><g clip-path="url(#D)"><path d="M209.56 150.354l33.984 19.65c3.503 2.022 5.254 4.673 5.255 7.323l.014 4.728-35.26 19.882c-1.868 1.08-3.383 3.702-3.383 5.86v41.9l-59.358-34.3-.002-41.9c0-2.158 1.515-4.78 3.383-5.86l29.994-17.283c7.007-4.045 18.367-4.045 25.373 0" class="D"/><path d="M165.064 166.077v-4.707l-10.88 6.27c-1.856 1.075-3.38 3.692-3.38 5.86v41.895l11.31 6.523.722-8.73-7.93-4.6v-32.735c0-2.167 1.504-4.785 3.38-5.86z"/><path d="M154.905 175.855c0-2.158 1.515-4.78 3.383-5.86l25.895-14.917c7.007-4.045 18.367-4.046 25.374-.002l34 19.647c7.007 4.044 7.008 10.6.002 14.646l-25.912 14.927c-1.868 1.08-3.383 3.702-3.383 5.86l-.001 32.74-59.36-34.3z" class="G"/><path d="M224.54 200.314v.005l-6.9 3.978c-1.87 1.08-3.383 3.702-3.383 5.86v32.74l-59.36-34.3v-32.74c0-2.158 1.514-4.78 3.383-5.86l6.77-3.9z" class="D"/><g class="H"><path d="M248.807 182.05v-4.727c0-2.656-1.758-5.293-5.254-7.324l-34-19.638c-3.36-1.954-7.714-2.93-12.1-3.008v4.706c4.395.06 8.75 1.075 12.1 3l34 19.657c3.496 2.013 5.254 4.67 5.254 7.325m-189.2-46.89c2.2-1.265 5.86-1.197 8.196.15L297.35 267.845c2.336 1.348 4.228 4.627 4.228 7.323v186.307c0 2.697-1.775 5.9-3.966 7.173s-5.86 1.197-8.195-.15L59.862 335.964c-2.335-1.348-4.23-4.627-4.23-7.324l-.003-186.306c0-2.697 1.777-5.908 3.967-7.173"/></g><use xlink:href="#AB" class="B"/><use xlink:href="#AB" class="G"/><path d="M67.172 130.49c-2.344-1.036-5.586-.996-7.578.156-2.188 1.27-3.965 4.473-3.965 7.188v16.908l7.93-4.59v-16.91c0-2.46 1.562-3.574 3.613-2.754" class="D"/><path d="M63.56 150.154l.007-16.903c0-2.696 1.893-3.79 4.23-2.44l229.557 132.532c2.335 1.348 4.228 4.627 4.228 7.324v16.94z" class="G"/><g clip-path="url(#E)" opacity=".2"><path d="M63.566 150.19V133.25c0-2.696 1.893-3.8 4.23-2.44l229.557 132.53c2.335 1.35 4.228 4.628 4.228 7.325v16.94z"/></g><use xlink:href="#AC" class="B"/><g clip-path="url(#F)" class="E"><use xlink:href="#AC"/></g><path d="M182.57 213.5c-2.19-1.266-3.968-4.342-3.968-6.873s1.777-3.555 3.968-2.3 3.968 4.342 3.968 6.872-1.777 3.556-3.968 2.29" class="H"/><path d="M64.81 328.25c-.762-1.328-1.23-2.832-1.25-4.18V150.154l-7.93 4.59V328.64c0 1.347.49 2.85 1.25 4.18z" class="D"/></g><g clip-path="url(#G)"><path d="M333.546 462.363c-.553.332-1.308.32-2.158-.17L102.602 330.06c-1.637-.945-2.963-3.242-2.963-5.132V170.683c0-1.15.493-2.17 1.25-2.574l3.785-2.148c.485-.26 1.078-.27 1.717.098l228.782 132.183c1.638.942 2.966 3.238 2.966 5.128v154.965c0 .974-.354 1.65-.92 1.946l-3.673 2.082" class="B"/><path d="M105.412 166.273c-.82 0-1.487 1.015-1.487 2.263V322.78c0 1.698 1.242 3.85 2.713 4.7l228.786 132.132c.383.222.754.338 1.073.338.714 0 1.14-.604 1.14-1.615V303.37c0-1.7-1.243-3.848-2.715-4.695L106.14 166.492c-.252-.145-.498-.22-.73-.22" class="K"/><path d="M336.497 460.45c-.397 0-.848-.13-1.323-.405L106.388 327.912c-1.637-.944-2.963-3.242-2.963-5.132V168.535c0-1.494.83-2.762 1.987-2.762.306 0 .635.09.98.286l228.78 132.183c1.637.94 2.966 3.237 2.966 5.127v154.965c0 1.34-.668 2.116-1.64 2.116m.001-1h0c.557 0 .64-.7.64-1.116V303.37c0-1.54-1.13-3.492-2.467-4.262l-228.78-132.18c-.177-.102-.338-.153-.48-.153-.526 0-.987.823-.987 1.762V322.78c0 1.542 1.128 3.495 2.463 4.266L335.674 459.18c.387.224.662.27.824.27" class="F"/><path d="M100.883 168.11l3.634-2.06c-.68.485-1.04 1.32-1.1 2.49v144.55l-3.793 2.22V170.68c0-1.146.494-2.17 1.25-2.572" fill="#f0f0f0"/><path d="M338.135 458.357c-.01 1.872-1.33 2.63-2.96 1.688L106.388 327.913c-1.637-.946-2.963-3.243-2.963-5.133l.002-9.693L338.135 448.63z" class="B"/><g clip-path="url(#H)" class="J C"><path d="M335.173 460.046L106.39 327.913c-.81-.475-1.556-1.277-2.088-2.2l-3.765 2.182c.53.913 1.26 1.705 2.06 2.162L331.4 462.2c.847.494 1.602.503 2.152.177l3.616-2.06c-.522.252-1.22.177-1.985-.26"/></g><g clip-path="url(#I)" opacity=".15"><path d="M99.634 315.297v9.634c0 .96.354 2.023.904 2.964l3.775-2.172c-.55-.93-.886-1.985-.886-2.945v-9.69z"/></g><path d="M103.427 313.087l-.003-17.454 234.71 135.516v17.482z" fill="#ececec"/><g class="F"><path d="M113.2 314.384l15.18 8.72v-8.7l-15.184-8.767zm18.928 10.93l.001-3.44 7.57 4.372v3.438zm0-5.31l.001-3.44 7.57 4.372v3.44z"/><use xlink:href="#AD"/><path d="M143.485 326.56l.001-3.44 7.572 4.372v3.438zm11.357 11.87l.001-3.44 7.572 4.372v3.44zm0-5.3l.001-3.44 7.572 4.372v3.438zm34.058 24.976v-3.44l7.572 4.372v3.44zm0-5.31v-3.44l7.572 4.372v3.44zm11.367 11.87l.001-3.44 7.572 4.372v3.438zm0-5.3l.001-3.44 7.572 4.372v3.44zm11.357 11.87l.001-3.44 7.572 4.372v3.438zm0-5.31l.001-3.44 7.572 4.372v3.44zm-45.428-20.92l18.93 10.93v-8.743L166.2 336.242zm56.79 32.785l15.18 8.72v-8.7l-15.185-8.767zm18.928 10.928l.001-3.44 7.572 4.372v3.44zm0-5.3l.001-3.44 7.572 4.372v3.44zm11.357 11.87l.001-3.44 7.57 4.372v3.438zm0-5.31l.001-3.44 7.57 4.372v3.44zm11.356 11.87l.002-3.44 7.57 4.372v3.44zm0-5.3l.002-3.44 7.57 4.372v3.438zm34.07 24.98l.001-3.44 7.572 4.372v3.44zm0-5.3l.001-3.44 7.572 4.372v3.44zm11.358 11.87l.001-3.44 7.57 4.372v3.438zm0-5.312l.001-3.44 7.57 4.372v3.44zm11.356 11.87l.002-3.44 7.57 4.372v3.44zm0-5.3l.002-3.44 7.57 4.372v3.438zm-45.426-20.933l18.93 10.93v-8.743L276 399.627zm-172.56-95.28l-3.793 2.22v-17.5l3.8-2.183z"/></g><path d="M277.565 420.537v-.644c0-1.03.723-1.446 1.614-.93l45.986 26.55c.89.514 1.614 1.766 1.615 2.796v.644c0 1.03-.723 1.446-1.614.932l-45.986-26.55c-.89-.515-1.614-1.767-1.615-2.796" fill="#f5f5f5"/><path d="M326.78 448.308v.644c0 1.03-.723 1.447-1.614.932l-5.957-3.44-.001-4.37 5.957 3.44c.89.515 1.614 1.767 1.615 2.796" class="H"/><path d="M107.2 293.456l227.144 131.12v-8.72L126.132 295.633l-.003-113.655-18.92-10.922z" fill="#f0f0f0"/><g class="B"><use xlink:href="#AE"/><path d="M126.133 225.7l18.913 10.92v-8.72l-18.913-10.937z"/><path d="M126.133 216.958l18.913 10.92v-8.72l-18.913-10.937z"/></g><g clip-path="url(#J)" opacity=".8" class="C"><path d="M126.133 216.958l18.913 10.92v-8.72l-18.913-10.937z"/></g><path d="M239.692 291.27l18.912 10.92v-8.72l-18.912-10.938z" class="B"/><g clip-path="url(#K)" class="E"><path d="M239.692 291.27l18.912 10.92v-8.72l-18.912-10.938z"/></g><use xlink:href="#AF" class="B"/><g clip-path="url(#L)" class="J"><use xlink:href="#AF"/></g><path d="M239.692 273.784l18.912 10.92v-8.72l-18.912-10.937z" class="B"/><g clip-path="url(#M)" opacity=".5"><path d="M239.692 273.784l18.912 10.92v-8.72l-18.912-10.937z"/></g><path d="M239.692 265.04l18.912 10.92v-8.72l-18.912-10.937z" class="B"/><g clip-path="url(#N)" class="E"><path d="M239.692 265.04l18.912 10.92v-8.72l-18.912-10.937z"/></g><g class="B"><path d="M220.78 350.284l18.913 10.92V317.5l-18.913-10.937zm0-52.46l18.913 10.92v-61.198L220.78 236.61zm-75.735-43.71l18.913 10.92v-8.72l-18.913-10.937z"/></g><g clip-path="url(#O)" class="E"><path d="M145.045 254.113l18.913 10.92v-8.72l-18.913-10.937z"/></g><path d="M182.924 319.684l18.913 10.92v-8.72l-18.913-10.938z" class="B"/><g clip-path="url(#P)" opacity=".6" class="C"><path d="M182.924 319.684l18.913 10.92v-8.72l-18.913-10.938z"/></g><path d="M277.57 321.87l18.912 10.92v-8.72L277.57 313.13z" class="B"/><g clip-path="url(#Q)" opacity=".8" class="C"><path d="M277.57 321.87l18.912 10.92v-8.72L277.57 313.13z"/></g><path d="M277.57 304.377l18.912 10.92v-8.72l-18.912-10.937z" class="B"/><path d="M315.896 292.074v7.64l17.99 10.386v-7.638zm-208.22-112.576l17.996 10.39v-7.64l-17.996-10.4zm17.996 124.07v-7.664l-17.994-10.39v7.663zm208.215 112.55l-17.99-10.387v7.664l17.99 10.388zm0-8.745l-17.99-10.387v7.668l17.99 10.387zm0-8.745l-17.99-10.387v7.668l17.99 10.387zm0-8.745l-17.99-10.387v7.668l17.99 10.388zm-.001-8.745l-18-10.387v7.668l17.99 10.387zm0-8.746l-18-10.387v7.67l18 10.386zm0-8.745l-18-10.386v7.668l18 10.387zm0-8.745l-18-10.387v7.67l18 10.387zm0-8.744l-18-10.387v7.668l18 10.387zm0-8.746l-18-10.387v7.67l18 10.387zm0-8.745l-18-10.387v7.67l18 10.386zm0-8.745l-18-10.387v7.67l18 10.387zm-36.92-30.06v7.668l17.998 10.39v-7.67zm0-1.077l17.998 10.39v-7.64l-17.998-10.39zm-18.928-10.928l17.997 10.4v-7.64l-17.997-10.39zm-18.93-10.93l17.998 10.39v-7.64l-17.998-10.39zm-18.93-10.93l17.997 10.4v-7.64l-17.997-10.39zm-18.93-10.928l17.997 10.4v-7.64l-17.997-10.39zm-18.93-10.93l17.997 10.39v-7.64L202.32 226.5zm-18.93-10.93l17.997 10.39v-7.64l-17.997-10.39zm-18.93-10.93l17.998 10.39v-7.64l-17.998-10.39zm-18.928-10.928l17.996 10.4v-7.64l-17.996-10.39zm-.932-.538v-7.642l-17.998-10.39v7.642zm-17.998-1.647l17.998 10.39v-7.67l-17.998-10.39zm-18.928-10.928l17.996 10.4v-7.67l-17.996-10.39zm0 8.746l17.996 10.4v-7.67l-17.996-10.4zm0 8.745l17.996 10.4v-7.67l-17.996-10.4zm.001 8.745l17.995 10.39V217.2l-17.996-10.4zm0 8.745l17.995 10.4v-7.67l-17.995-10.4zm0 8.745l17.995 10.39v-7.67l-17.995-10.39zm0 8.745l17.995 10.4v-7.67l-17.995-10.4zm0 8.746l17.995 10.39v-7.67l-17.995-10.39zm0 8.744l17.995 10.4v-7.67l-17.995-10.4zm0 8.746l17.995 10.39v-7.67l-17.995-10.39zm.001 8.745l17.994 10.388v-7.668l-17.995-10.39zm36.924 30.063v-7.67l-17.998-10.39v7.67zm0 1.076l-17.998-10.39v7.664l17.998 10.39zm18.928 10.928l-17.996-10.4v7.664l17.996 10.4zm18.93 10.93l-17.998-10.39v7.664l17.998 10.39zm18.93 10.93l-17.997-10.39v7.664l17.997 10.39zm18.93 10.93l-17.997-10.39v7.664l17.997 10.39zm18.93 10.928l-17.997-10.4v7.664l17.997 10.39zm18.93 10.93l-17.997-10.39v7.665l17.997 10.39zm18.93 10.93l-17.998-10.39v7.665L277.106 391zm18.93 10.928l-17.997-10.4v7.665l17.997 10.39zm.93.54v7.665l17.998 10.4v-7.664zm0-8.746v7.67l17.998 10.39v-7.668zm0-8.744v7.668l17.998 10.39v-7.67zm0-8.745v7.668l17.998 10.39v-7.668zm0-8.745v7.67l17.998 10.4v-7.668zm0-8.746v7.67l17.998 10.392v-7.67zm0-8.745V350l17.998 10.39v-7.67zm0-8.744v7.668l17.998 10.39v-7.67zm0-8.745v7.668l17.998 10.39v-7.668zm0-8.746v7.67l17.998 10.39v-7.67zm0-8.745v7.67l17.998 10.39v-7.67zm0-1.076l17.998 10.39v-7.67l-17.998-10.39zm-18.928-18.597v7.668l17.997 10.39v-7.67zm0-1.077l17.997 10.39v-7.668l-17.997-10.39zm-18.93-10.928l17.998 10.4v-7.668l-17.998-10.39zm-18.93-10.93l17.997 10.39v-7.67l-17.997-10.39zm-18.93-10.928l17.997 10.4v-7.67l-17.997-10.4zm-18.93-10.93l17.997 10.4v-7.668l-17.997-10.39zm-18.93-10.93l17.997 10.4v-7.67l-17.997-10.4zm-18.93-10.93l17.998 10.39v-7.67l-17.998-10.39zm-.932-.538v-7.67l-17.996-10.39v7.67zm-17.996-1.645l17.996 10.4v-7.67l-17.996-10.39zm-.932-.54v-7.67l-17.998-10.39v7.67zm0 8.746v-7.67l-17.998-10.39v7.67zm0 8.745v-7.67l-17.998-10.39v7.67zm0 8.745v-7.67l-17.998-10.39v7.67zm0 8.744v-7.67l-17.998-10.39v7.67zm0 8.746v-7.67l-17.998-10.39v7.67zm0 8.745v-7.67l-17.998-10.39v7.67zm0 8.745v-7.67l-17.998-10.39v7.67zm0 8.744v-7.67l-17.998-10.39v7.67zm0 1.077l-17.998-10.39v7.668l17.998 10.39zm18.928 18.597v-7.67l-17.996-10.4v7.67zm0 1.076l-17.996-10.4v7.67l17.996 10.4zm18.93 10.93l-17.998-10.392v7.67l17.998 10.39zm18.93 10.928l-17.997-10.4v7.668l17.997 10.4zm18.93 10.93l-17.997-10.39v7.668l17.997 10.39zm18.93 10.928l-17.997-10.4V350l17.997 10.4zm18.93 10.93l-17.997-10.4v7.668l17.997 10.4zm18.93 10.93l-17.998-10.39v7.668l17.998 10.392zm.932.538v7.67l17.997 10.4v-7.67zm0-8.745v7.67l17.997 10.4v-7.668zm0-8.745v7.67l17.997 10.4v-7.668zm0-8.745v7.67l17.997 10.4v-7.67zm0-8.745v7.67l17.997 10.4v-7.67zm0-8.745v7.67l17.997 10.4v-7.67zm0-8.745v7.668l17.997 10.39v-7.668zm0-8.745v7.67l17.997 10.4v-7.668zm0-8.745v7.67l17.997 10.4v-7.67zm0-1.076l17.997 10.4v-7.67l-17.997-10.4zm-18.93-18.6v7.67l17.998 10.39v-7.67zm0-1.075l17.998 10.4v-7.67l-17.998-10.39zm-18.93-10.93l17.997 10.39v-7.67l-17.997-10.4zm-18.93-10.93l17.997 10.39v-7.67L221.25 254.9zm-18.93-10.928l17.997 10.39v-7.67l-17.997-10.39zm-18.93-10.93l17.997 10.39v-7.67l-17.997-10.39zm-.932-.538v-7.67l-17.998-10.39v7.67zm-17.998-1.646l17.998 10.39v-7.67l-17.998-10.39zm-.932-.538v-7.67l-17.996-10.39v7.67zm0 8.745v-7.67l-17.996-10.4v7.67zm0 8.745v-7.67l-17.996-10.39v7.67zm0 8.745v-7.67l-17.996-10.4v7.668zm0 8.745v-7.67l-17.996-10.39v7.67zm0 8.745v-7.67l-17.996-10.39v7.67zm0 8.745v-7.67l-17.996-10.4v7.67zm0 1.076l-17.996-10.4v7.668l17.996 10.39zm18.93 18.598v-7.67l-17.998-10.39v7.67zm0 1.076l-17.998-10.39v7.67l17.998 10.39zm18.93 10.93l-17.997-10.4v7.668l17.997 10.39zm18.93 10.93l-17.997-10.39v7.67l17.997 10.4zm18.93 10.93l-17.997-10.39v7.67l17.997 10.4zm18.93 10.928l-17.997-10.4v7.668l17.997 10.39zm.932.538v7.67l17.998 10.4v-7.668zm0-8.745v7.67l17.998 10.39v-7.67zm0-8.745v7.67l17.998 10.39v-7.67zm0-8.745v7.67l17.998 10.39v-7.67zm0-8.746v7.67l17.998 10.4v-7.668zm0-8.744v7.67l17.998 10.4v-7.668zm0-8.745v7.67l17.998 10.39v-7.67zm0-1.076l17.998 10.39v-7.67l-17.998-10.39zm-18.93-18.598v7.67l17.997 10.39v-7.67zm0-1.076l17.997 10.39v-7.67l-17.997-10.4zm-18.93-10.928l17.997 10.4v-7.67l-17.997-10.4zm-18.93-10.93l17.997 10.39v-7.67l-17.997-10.39zm-.932-.538v-7.67l-17.997-10.4v7.67zm-17.997-1.646l17.997 10.39v-7.67l-17.997-10.4zm-.932-.538v-7.67l-17.998-10.39v7.67zm0 8.745v-7.67l-17.998-10.39v7.67zm0 8.745v-7.67l-17.998-10.39v7.67zm0 8.745v-7.67l-17.998-10.392v7.67zm0 8.746v-7.67l-17.998-10.39v7.67zm0 1.075l-17.998-10.39v7.67l17.998 10.39zm18.93 18.598v-7.67l-17.997-10.39v7.67zm0 1.076l-17.997-10.39v7.67l17.997 10.39zm18.93 10.93l-17.997-10.39v7.67l17.997 10.39zm18.93 10.928l-17.997-10.4v7.67l17.997 10.4zm.932.538v7.67l17.997 10.4v-7.67zm0-8.745v7.67l17.997 10.39v-7.67zm0-8.745v7.67l17.997 10.4v-7.67zm0-8.745v7.67l17.997 10.39v-7.67zm0-8.745v7.67l17.997 10.39v-7.67zm0-1.076l17.997 10.39v-7.67l-17.997-10.39zm-18.93-18.597v7.67l17.997 10.4v-7.67zm0-1.076l17.997 10.4v-7.67l-17.997-10.4zm-.932-.54v-7.668L202.32 261.45v7.67zm-17.997-1.645l17.997 10.39v-7.67l-17.997-10.39zm-.932-.538v-7.67l-17.997-10.4v7.67zm0 8.745v-7.67l-17.997-10.39v7.67zm0 8.745v-7.67l-17.997-10.4v7.67zm0 1.075l-17.997-10.4v7.67l17.997 10.4zm18.93 18.6v-7.67L202.32 296.43v7.67zm0 1.076l-17.997-10.39v7.67l17.997 10.39zm.932.538v7.67l17.997 10.4v-7.67zm0-8.745v7.67l17.997 10.39v-7.67zm0-8.745v7.668l17.997 10.39v-7.67zm0-1.076l17.997 10.4v-7.67l-17.997-10.4zm-18.93-9.854v7.67l17.997 10.39v-7.67zM220.318 297v-7.668l-17.997-10.39v7.67zm-112.64-12.563l17.994 10.39v-7.668l-17.994-10.39zm226.207 26.738l-17.99-10.387v7.67l18 10.387zM106.98 293.85l-.233-.134-.002-123.476 228.074 131.682.002 123.473z" class="F"/><path d="M258.604 372.15l75.75 43.7v-43.725l-75.75-43.687z" class="K"/><g fill="none" stroke-miterlimit="10"><path d="M258.604 372.15l75.75 43.7v-43.725l-75.75-43.687z" stroke="#e1e1e1"/><path d="M262.435 339.346l10.237 27.955 11.32-6.768 11.38 11.593 11.35-7.482 11.35 27.947 11.35-5.822" stroke="#375a64" stroke-width=".75" stroke-linecap="round" stroke-linejoin="round"/></g><g class="B"><use xlink:href="#AG"/><use xlink:href="#AH"/><path d="M295.372 373.445c-.63-.364-1.142-1.25-1.142-1.983s.5-1.027 1.142-.66 1.14 1.253 1.14 1.982-.5 1.026-1.14.662m11.35-7.476a2.53 2.53 0 0 1-1.14-1.982c0-.732.5-1.028 1.14-.662a2.54 2.54 0 0 1 1.142 1.982c0 .73-.512 1.026-1.142.662m11.35 27.944a2.53 2.53 0 0 1-1.142-1.982c0-.732.5-1.028 1.142-.662s1.14 1.253 1.14 1.982-.5 1.026-1.14.662m11.35-5.822a2.53 2.53 0 0 1-1.14-1.983c0-.733.5-1.027 1.14-.66s1.14 1.253 1.14 1.982-.5 1.026-1.14.662"/></g></g></g><path d="M280.033 391.1l-8.192-4.73 8.192-4.73 8.192 4.73z" class="H"/><path d="M288.227 386.37l-.001-18.812-8.192-4.73-.001 18.8z" class="G"/><path d="M280.033 381.63l.001-18.8-8.193 4.73v18.8z" class="D"/><path d="M269.255 376.7l-8.192-4.73 8.193-4.73 8.192 4.73z" class="B"/><g clip-path="url(#R)" transform="matrix(.40671 0 0 .40671 131.2308 287.4582)" class="C"><g clip-path="url(#S)" class="E"><path d="M339.368 219.45l-20.142-11.628 20.144-11.63 20.142 11.63z"/></g></g><g class="B"><path d="M277.45 371.99v-10.655l-8.192-4.73-.001 10.644z"/><path d="M269.256 367.25v-10.643l-8.192 4.73-.001 10.653z"/></g><g clip-path="url(#T)" transform="matrix(.40671 0 0 .40671 131.2308 287.4582)"><g clip-path="url(#U)" opacity=".1"><path d="M339.37 196.19v-26.17l-20.143 11.63-.002 26.194z"/></g></g><path d="M258.477 374.912l-8.192-4.73 8.193-4.73 8.192 4.73z" class="B"/><g clip-path="url(#V)" transform="matrix(.40671 0 0 .40671 131.2308 287.4582)" class="C"><g clip-path="url(#W)" opacity=".88"><path d="M312.868 215.028L292.726 203.4l20.144-11.63 20.142 11.63z"/></g></g><path d="M266.67 370.193v-15.08l-8.192-4.73v15.068z" class="B"/><g clip-path="url(#X)" transform="matrix(.40671 0 0 .40671 131.2308 287.4582)" class="C"><g clip-path="url(#Y)" opacity=".75"><path d="M333.015 203.424l-.001-37.075-20.143-11.63v37.048z"/></g></g><path d="M258.478 365.452l.001-15.068-8.192 4.73-.001 15.078z" class="B"/><g clip-path="url(#Z)" transform="matrix(.40671 0 0 .40671 131.2308 287.4582)" class="C"><g clip-path="url(#a)" opacity=".6"><path d="M312.87 191.767V154.72l-20.143 11.63-.002 37.072z"/></g></g><path d="M247.7 358.938l-8.192-4.73 8.192-4.73 8.192 4.73z" class="B"/><g clip-path="url(#b)" transform="matrix(.40671 0 0 .40671 131.2308 287.4582)"><g clip-path="url(#c)" class="E"><path d="M286.37 175.752l-20.142-11.628 20.143-11.63 20.143 11.63z"/></g></g><path d="M255.894 354.22l-.001-5.328-8.192-4.73v5.317z" class="B"/><g clip-path="url(#d)" transform="matrix(.40671 0 0 .40671 131.2308 287.4582)"><g clip-path="url(#e)" class="J"><path d="M306.516 164.15l-.002-13.1-20.142-11.63-.002 13.072z"/></g></g><path d="M247.7 349.478v-5.317l-8.193 4.73v5.326z" class="B"/><g clip-path="url(#f)" transform="matrix(.40671 0 0 .40671 131.2308 287.4582)"><g clip-path="url(#g)" opacity=".55"><path d="M286.37 152.492l.002-13.072-20.144 11.63-.001 13.096z"/></g></g><path d="M203.077 325.85v-3.1l-3.063 8.324v3.097l.004-.004z" class="D"/><path d="M203.08 325.85v-3.1l12.633 4.382v3.1z" class="G"/><g transform="matrix(.40671 0 0 .40671 131.2308 287.4582)"><g clip-path="url(#h)"><path d="M169.123 114.856l7.534-20.464 31.06 10.775c-8.528 7.44-23.352 11.162-38.595 9.69" class="H"/><g class="B"><path d="M136.67 92.98c-.01-.074-.01-.158-.01-.233v.233z"/><use xlink:href="#AI"/></g><g clip-path="url(#i)" class="J"><use xlink:href="#AI"/></g><use xlink:href="#AJ" class="B"/><g clip-path="url(#j)" opacity=".6" class="C"><use xlink:href="#AJ"/></g><path d="M149.3 101.69l23.142-13.36v7.62L149.3 109.31z" class="B"/><g clip-path="url(#k)" opacity=".1"><path d="M149.3 101.69l23.142-13.36v7.62L149.3 109.31z"/></g><use xlink:href="#AK" class="B"/><g clip-path="url(#l)" class="E"><use xlink:href="#AK"/></g><use xlink:href="#AL" class="B"/><g clip-path="url(#m)" opacity=".75" class="C"><use xlink:href="#AL"/></g><g class="B"><path d="M149.3 109.3l23.142-13.36-6.805 18.482c-6.437-.932-11.475-2.5-16.337-5.12m24.26-24.536v7.62l-4.614-21.698v-7.62z"/></g><g clip-path="url(#n)" opacity=".55"><path d="M173.56 84.776v7.62l-4.614-21.698v-7.62z"/></g><path d="M203.08 126.29l-5.042-2.91 5.042-2.91 5.042 2.91z" class="B"/><g clip-path="url(#o)" class="E"><path d="M203.08 126.29l-5.042-2.91 5.042-2.91 5.042 2.91z"/></g><path d="M208.123 123.384v-2.92l-5.042-2.91v2.914z" class="B"/><g clip-path="url(#p)" class="J"><path d="M208.123 123.384v-2.92l-5.042-2.91v2.914z"/></g><path d="M203.08 120.466l.001-2.914-5.042 2.91v2.92z" class="B"/><g clip-path="url(#q)" opacity=".55"><path d="M203.08 120.466l.001-2.914-5.042 2.91v2.92z"/></g><path d="M210.777 128.546l18.68 10.784c1.114.644 2.865.676 3.9.072s1-1.614-.125-2.257l-18.678-10.785c-1.115-.643-2.866-.675-3.91-.072s-.99 1.615.125 2.258" class="F"/><path d="M214.438 119.73l-5.042-2.9 5.042-2.91 5.042 2.9z" class="B"/><g clip-path="url(#r)" opacity=".88" class="C"><path d="M214.438 119.73l-5.042-2.9 5.042-2.91 5.042 2.9z"/></g><path d="M219.48 116.827v-2.92l-5.042-2.91v2.915z" class="B"/><g clip-path="url(#s)" opacity=".75" class="C"><path d="M219.48 116.827v-2.92l-5.042-2.91v2.915z"/></g><path d="M214.438 113.91v-2.914l-5.04 2.91-.001 2.92z" class="B"/><g clip-path="url(#t)" opacity=".6" class="C"><path d="M214.438 113.91v-2.914l-5.04 2.91-.001 2.92z"/></g><path d="M222.135 121.99l18.678 10.784c1.115.643 2.865.676 3.91.072s1-1.614-.125-2.258l-18.678-10.784c-1.115-.643-2.866-.675-3.91-.072s-1 1.614.125 2.258" class="F"/><path d="M225.795 113.174l-5.042-2.91 5.042-2.9 5.042 2.9z" class="B"/><g clip-path="url(#u)" class="E C"><path d="M225.795 113.174l-5.042-2.91 5.042-2.9 5.042 2.9z"/></g><g class="B"><path d="M230.838 110.27v-2.92l-5.042-2.91v2.915z"/><path d="M225.796 107.352v-2.914l-5.042 2.91v2.92z"/></g><g clip-path="url(#v)" opacity=".1"><path d="M225.796 107.352v-2.914l-5.042 2.91v2.92z"/></g><path d="M233.493 115.432l18.678 10.784c1.115.643 2.865.675 3.91.072s1-1.614-.125-2.258l-18.678-10.784c-1.115-.644-2.866-.676-3.91-.072s-.99 1.614.125 2.258" class="F"/><path d="M237.153 106.617l-5.042-2.91 5.042-2.91 5.042 2.91z" class="H"/><path d="M242.195 103.712v-2.92l-5.042-2.91v2.915z" class="G"/><path d="M237.153 100.795V97.88l-5.042 2.912v2.92z" class="D"/><path d="M244.85 108.875l18.68 10.784c1.114.643 2.865.675 3.9.072s.99-1.614-.125-2.258l-18.678-10.784c-1.115-.643-2.866-.675-3.91-.072s-1 1.614.125 2.258" class="F"/></g><g clip-path="url(#w)"><path d="M395.232 264.523c6.933.038 10.22-1.95 12.716-8.587s9.115-21.847 9.244-26.37c.134-4.7-14.967-18.907-14.427-18.663.167.076-4.6 8.617-4.6 8.617l8.493 10.41-4.87 14.133z" class="I"/><path d="M403.812 109.148c.424-.405.505-.798.49-2.275s.612-3.13-.148-4.51c-.57-1.03-3.464-1.74-4.936-.977-1.224.636-2.445 2.05-3.394 3.053s-1.867 2.05-2.974 2.874c-1.247.93-2.697 1.548-4 2.4-2.04 1.336-3.437 3.552-3.626 6-.056.725.065 1.674.465 2.28.533.81 1.653 1.008 2.6.854 1.4-.225 6.186-2.895 7.29-3.658 1.385-.957 7.782-5.612 8.22-6.03" class="D"/><path d="M396.79 115.273c-.046-1.062-4.52 1.422-6.353 1.18-.018-.003-.034-.016-.05-.024-1.7-.82-.3-3.206 1.297-4.428l6.756-5.022 1.06 6.133z" class="I"/><path d="M377.395 97.997c.83.003 1.198-2.714 1.35-4.81.12-1.62.732-4.262.16-5.452s-2.757-1.934-6.127-1.865c-2.184.045-5.605-1.393-7.95-2.663-2.423-1.312-5.034-1.282-7.575-.95-2.994.39-6.08 2.17-6.547 3.42s.162 1.837 7.27 4.757c.065.026 7.496 3.268 10.965 6.997z" class="D"/><g class="I"><path d="M357.973 90.43l-2.582-1.083c-.192-.672.065-1.736 3.205-2.26 4.786-.798 18.85 9.787 18.85 9.787s-2.016-.555-2.395.598l-6.112-.046c-3.47-3.73-10.9-6.97-10.966-6.997"/><path d="M406.657 143.93c0 8.55-1.374 13.87-1.374 13.87l.93 29.082c.19 22.197-.236 25.457-5.145 35.034 0 0-28.67 3.355-29.877-10.616-1.504-17.4-3.253-46.516-3.207-54.803.034-6.17.733-12.857 1.073-26.847.218-8.96 1.163-21.62-.12-32.224 1.622-2.716 6.008-2.668 8.507-.552.72 10.38 5.872 30.26 6.67 37.196.826 7.18-.612 14.986-.612 14.986l4.465 34.147s1.724-8.305 1.663-14.475c-.02-1.968.68-8.57 1.807-19.672.686-6.76 5.47-33.18 6.506-41.672 2.4-2.318 5.5-.72 5.64.29.802 10.364 3.07 29.79 3.07 36.256"/></g><g clip-path="url(#x)" opacity=".15"><path d="M387.97 183.206l2.534 14.392s5.876.47 11.285 5.925c0 0-1.518-5.755-8.968-7.714l-2.965-13.02-.5-11.872z"/></g><path d="M380.775 269.353l1.196-13.045 11.46.693-.88 14.467z" class="I"/><use xlink:href="#AM" class="B"/><g clip-path="url(#y)" class="E"><use xlink:href="#AM"/></g><path d="M382.514 299.87s-5.408.948-9.215-3.338c-5.863-6.605.567-11.463.567-11.463l8.648 14.8" class="D"/><path d="M372.315 283.687s-2.548-3.83-2.218-4.235 1.942-.843 1.942-.843z" fill="#ff9090"/><path d="M380.1 295.82c-2.47-1.268-6.738-3.61-7.858-12.693-1.15-9.324.918-12.57 2.185-13.796.857-.827 5.284-1.138 7.596-.427 2.893.9 9.163 3.967 12.11 8.773 3.47 5.654 4.202 13.2.224 16.17-5.6 4.18-12.167 3.046-14.258 1.973" class="I"/><path d="M378.865 285.094c-5.165 2.63-3.85 9.49-3.85 9.49s7.383 10.545 20.997 3.724c4.7-2.36 7.538-7.72 7.422-13.995a14.78 14.78 0 0 0-14.777-14.778c-4.76 0-8.615 3.857-8.615 8.615v.57l.436-.14c.746-.2 2.36-.357 4.022 1.075 2.265 1.952 2.54 5.78-.332 6.748-2.852.96-4.368-2.356-4.368-2.356L378.686 281a2.17 2.17 0 0 0-1.296 2.781c.25.686.822 1.132 1.475 1.312" class="D"/><path d="M347.624 282.988l-24.582-12.312 11.56-33.31 22.954 12.36z" class="B"/><path d="M346.45 279.766l-20.622-10.33 10.243-28.644 19.257 10.37z" fill="#f5f5f5"/><g clip-path="url(#z)" opacity=".15"><path d="M342.087 276.766l-.38 1.02c-.2.563-1.917.257-3.813-.682l-3.63-1.8c-1.897-.94-3.265-2.158-3.056-2.72l.38-1.02z"/></g><path d="M341.76 280.825c-.13.352-.87.307-1.656-.1l-1.422-.737s-.833 2.202-4.1.742-2.57-4.008-2.57-4.008l-1.5-.8c-.834-.442-1.433-1.09-1.34-1.446l.172-.647 12.662 6.34-.237.655" class="G"/><path d="M340.38 279.377c-1.178-.555-1.642-.824-1.32-1.692l.713-1.704-5.602-2.812-.636 1.746c-.194.487-.596.724-1.488.277l-.323.353 8.832 4.32z" class="D"/><path d="M342.324 276.7l-.38 1.02c-.2.563-1.917.258-3.813-.682l-3.63-1.798c-1.897-.94-3.265-2.158-3.056-2.72l.38-1.02z" class="G"/><g class="I"><path d="M378.424 263.358c-3.87.064-6.2-.28-11.493-8.12l-16.226-24.146c-1.597-2.6-1.958-6.592-.656-9.03 1.215-2.274 3.35-3.064 9.437 3.403 4.507 4.8 13.98 17.512 13.98 17.512s7.37 13.74 4.958 20.38"/><path d="M352.447 220.418c-3.19-.985-14.895 12.947-18.15 17.137-3.607 4.642-6.505 7.258-9.14 9.274-4.51 3.448-3.758 8.618-1.688 13.335.718 1.633 3.04.524 3.04.524l2.15-6.193c.952-.914 1.498-1.216 1.566-.95.13.502-.667 2.615-.6 4.802.068 2.63 1.882.87 2.418-.06s1.153-2.444 1.872-4.38c.88-2.37.46-4.748 1.554-6.372s17-14.83 17-14.83z"/></g><use xlink:href="#AN" class="B"/><g clip-path="url(#AA)" opacity=".5"><use xlink:href="#AN"/></g><path d="M404.034 288.7l2.623 2.402c-.856.935-2.3 1-3.244.142a2.29 2.29 0 0 1-.639-2.361l-.986.05v-21.085c0-6.048 4.903-10.952 10.952-10.952v21.086c0 5.278-3.735 9.682-8.706 10.72" class="D"/></g></g></g></svg>