<svg xmlns="http://www.w3.org/2000/svg" xmlns:xlink="http://www.w3.org/1999/xlink" width="600" height="300" xmlns:v="https://vecta.io/nano"><style><![CDATA[.B{fill:#263238}.C{fill:#e8505b}.D{opacity:.3}.E{fill:#e0e0e0}.F{fill:#fff}.G{fill:#f5f5f5}.H{fill:#455a64}.I{fill:#fafafa}.J{fill:#ebebeb}.K{fill:#b78876}.L{fill:#aa6550}]]></style><defs><clipPath id="A"><path d="M0 500h750V0H0z"/></clipPath><clipPath id="B"><path d="M0 500h750V0H0z"/></clipPath><clipPath id="C"><path d="M0 500h750V0H0z"/></clipPath><clipPath id="D"><path d="M0 500h750V0H0z"/></clipPath><clipPath id="E"><path d="M376.627 386.545h19.825v-24.14h-19.825z"/></clipPath><clipPath id="F"><path d="M398.5 386.484h19.9v-24.02h-19.9z"/></clipPath><clipPath id="G"><path d="M390.156 303.528h4.594v-33.882h-4.594z"/></clipPath><clipPath id="H"><path d="M407.895 318.974h4.595v-49.328h-4.595z"/></clipPath><clipPath id="I"><path d="M425.634 296.045h4.595v-26.4h-4.595z"/></clipPath><clipPath id="J"><path d="M443.374 307.388h4.594v-37.742h-4.594z"/></clipPath><clipPath id="K"><path d="M461.113 299.878h4.594v-30.232h-4.594z"/></clipPath><clipPath id="L"><path d="M0 500h750V0H0z"/></clipPath><clipPath id="M"><path d="M539.88 49.95h4.762v-3.37h-4.762z"/></clipPath><clipPath id="N"><path d="M522.838 48.564h21.71V46.27h-21.71z"/></clipPath><clipPath id="O"><path d="M588.216 47.987h15.87v-2.024h-15.87z"/></clipPath><clipPath id="P"><path d="M563.682 179.097h18.553V90.193h-18.553z"/></clipPath><clipPath id="Q"><path d="M0 500h750V0H0z"/></clipPath><clipPath id="R"><path d="M428.25 63.03h19.888V47.3H428.25z"/></clipPath><clipPath id="S"><path d="M432.138 67.304h12.923v-9.85h-12.923z"/></clipPath><clipPath id="T"><path d="M370.212 48.443h25.115v-2.54h-25.115z"/></clipPath><clipPath id="U"><path d="M380.308 53.344h15.02v-1.892h-15.02z"/></clipPath><clipPath id="V"><path d="M431.587 186.596h34.507v-38.518h-34.507z"/></clipPath><clipPath id="W"><path d="M0 500h750V0H0z"/></clipPath><clipPath id="X"><path d="M149.94 137.47h4.8v-21.373h-4.8z"/></clipPath><clipPath id="Y"><path d="M132.107 106.4h5.37V85.237h-5.37z"/></clipPath><clipPath id="Z"><path d="M159.5 150.79h10.295v-19.04H159.5z"/></clipPath><clipPath id="a"><path d="M140.827 111.163h17.4V98.32h-17.4z"/></clipPath><path id="b" d="M505.59 200.58c.146 0 .265-1.18.265-2.632s-.12-2.632-.265-2.632-.264 1.18-.264 2.632.118 2.632.264 2.632"/><path id="c" d="M396.452 370.517l-.104 16.03c-4.72-.028-9.533-1.894-13.224-5.156-4.348-3.842-7.13-9.62-6.372-16.6a22.55 22.55 0 0 1 .374-2.329c.004-.02.006-.037.01-.056l.002.001 19.313 4.345z"/><path id="d" d="M416.358 375.45c-2.7 5.637-8.017 10.153-15.59 10.913l-.61.053-.4.03c-.382.02-.77.032-1.163.034-.018 0-.035.001-.053.001h-.003c-.016 0-.032.002-.048.002v-.003l.128-19.796 19.343-4.22c.296 1.354.437 2.75.43 4.156-.015 3.004-.713 6.05-2.043 8.83"/><path id="e" d="M472.667 367.635c0-.144-9.986-.26-22.3-.26l-22.303.26c0 .144 9.984.26 22.303.26l22.3-.26"/><path id="f" d="M399.15 261.828c0-.104-1.824-.19-4.074-.19l-4.075.19c0 .104 1.824.188 4.075.188l4.074-.188"/><path id="g" d="M124.596 360.735c0-2.503-2.03-4.532-4.532-4.532a4.53 4.53 0 1 0 0 9.064c2.503 0 4.532-2.03 4.532-4.532"/><path id="h" d="M634.75 359.25c0-.144-21.543-.26-48.11-.26l-48.118.26c0 .144 21.54.26 48.118.26l48.11-.26"/><path id="i" d="M638.51 296.728c0-.144-26.264-.26-58.654-.26l-58.66.26c0 .144 26.257.26 58.66.26l58.654-.26"/><path id="j" d="M331.745 202.204c0-.252.205-.456.457-.456s.456.204.456.456-.205.457-.456.457-.457-.205-.457-.457"/><path id="k" d="M152.724 116.097s5.32 12.806-1.372 21.195a.46.46 0 0 1-.804-.154c-.593-2.14-1.69-8.727 2.176-21.04"/><path id="l" d="M136.246 85.237s4.264 13.195-3.086 21.015a.46.46 0 0 1-.789-.22c-.417-2.182-.976-8.834 3.875-20.795"/><path id="m" d="M159.5 131.748s11.36 7.953 10.214 18.623a.46.46 0 0 1-.762.301c-1.648-1.488-6.107-6.458-9.452-18.924"/><path id="n" d="M140.826 98.32s13.702 2.136 17.373 12.22a.46.46 0 0 1-.552.605c-2.136-.6-8.327-3.107-16.82-12.826"/></defs><g transform="matrix(1.333333 0 0 -1.333333 0 666.66667)"><path d="M277.097 370.9h-16.928v2.26h16.928z" class="E"/><g transform="matrix(.402615 0 0 .402615 72.228893 292.32115)"><g clip-path="url(#A)"><g class="I"><path d="M472.526 200.58c.146 0 .265-1.18.265-2.632s-.12-2.632-.265-2.632-.265 1.18-.265 2.632.12 2.632.265 2.632m-.916.115c.146 0 .264-1.18.264-2.632s-.118-2.632-.264-2.632-.265 1.18-.265 2.632.12 2.632.265 2.632"/><use xlink:href="#b"/><path d="M504.676 200.695c.146 0 .265-1.18.265-2.632s-.12-2.632-.265-2.632-.264 1.18-.264 2.632.118 2.632.264 2.632m-5.49-2.86c0-.146-4.816-.265-10.755-.265s-10.756.12-10.756.265 4.815.265 10.756.265 10.755-.12 10.755-.265"/></g><path d="M508.66 164.3h-42.045v11.233h42.045z" class="E"/><path d="M509.2 167.45c.004-.01-.073-.053-.228-.13a10.3 10.3 0 0 0-.701-.32c-.625-.256-1.568-.617-2.85-.816-1.26-.18-2.95-.23-4.625.657-.822.44-1.604 1.105-2.198 1.99-.58.882-.955 2.036-.764 3.235a3.4 3.4 0 0 0 .772 1.674c.41.487 1.07.847 1.774.805.704-.032 1.34-.436 1.782-.96s.75-1.202.813-1.916c.166-1.425-.433-2.902-1.45-3.982-1-1.12-2.495-1.8-4.04-1.974-1.556-.185-3.164.06-4.7.582-1.527.526-3.033 1.383-4.098 2.754-.522.68-.9 1.528-.955 2.425-.078.895.207 1.857.895 2.524.34.332.82.556 1.315.577s.975-.138 1.375-.387c.81-.504 1.33-1.365 1.547-2.266.394-1.837-.332-3.75-1.658-4.95-1.33-1.208-3.072-1.746-4.734-1.926-1.673-.168-3.356-.043-4.907.483-1.544.514-2.934 1.53-3.733 2.902-.813 1.34-1.08 3.04-.467 4.462.287.706.937 1.332 1.715 1.453.757.14 1.533-.07 2.118-.512 1.186-.942 1.385-2.556 1-3.785-.39-1.264-1.24-2.232-2.12-2.985-1.798-1.517-3.925-2.175-5.766-2.24a9.24 9.24 0 0 0-4.568 1.038 9.11 9.11 0 0 0-2.382 1.766l-.504.584c-.106.138-.155.212-.15.218.054.073.842-1.227 3.126-2.384 1.134-.55 2.666-1.018 4.463-.926 1.78.1 3.828.754 5.536 2.228.84.73 1.63 1.665 1.972 2.817.343 1.113.12 2.555-.875 3.32a2.27 2.27 0 0 1-1.767.417c-.624-.104-1.12-.578-1.375-1.193-.53-1.248-.298-2.794.46-4.027.743-1.26 2.017-2.2 3.48-2.674 1.46-.493 3.085-.612 4.688-.446 1.6.175 3.224.693 4.435 1.8 1.195 1.072 1.848 2.832 1.496 4.44-.2.786-.64 1.523-1.3 1.936-.657.436-1.515.422-2.05-.124-.543-.524-.806-1.338-.734-2.105.047-.78.373-1.526.847-2.15.964-1.254 2.396-2.086 3.848-2.59 1.47-.506 3.008-.743 4.47-.576s2.826.78 3.757 1.81c.95.995 1.496 2.344 1.355 3.617-.103 1.235-1.045 2.44-2.18 2.516-.56.038-1.097-.238-1.46-.657-.37-.417-.602-.946-.696-1.475-.184-1.085.142-2.154.678-2.992.547-.838 1.282-1.485 2.056-1.915 1.57-.866 3.218-.86 4.456-.7 1.26.163 2.207.488 2.84.71l.967.353" class="I"/><path d="M508.66 175.544h-38.3v19.5h38.3z" class="J"/><g class="E"><path d="M476.733 194.365c.146 0 .265-4.224.265-9.433l-.265-9.433c-.146 0-.265 4.222-.265 9.433l.265 9.433m2.902.242c.146 0 .265-4.17.265-9.313l-.265-9.312c-.146 0-.265 4.17-.265 9.312l.265 9.313m24.698.626c.146 0 .265-4.4.265-9.807l-.265-9.806c-.146 0-.265 4.4-.265 9.806l.265 9.807m-3.413-.263c.146 0 .265-4.277.265-9.554l-.265-9.554c-.146 0-.264 4.277-.264 9.554l.264 9.554m-.4 50.746H242.395v171.227H500.53z"/></g><path d="M100.863 405.477c-.185 11.583-9.716 20.855-21.246 20.67s-20.76-9.76-20.575-21.344 9.717-20.856 21.247-20.67 20.76 9.762 20.574 21.345m-64.644-1.043c-.387 24.225 18.917 44.25 43.03 44.64s44.05-19.004 44.436-43.23-18.916-44.25-43.03-44.64-44.048 19.004-44.436 43.23" class="G"/><path d="M36.22 404.433c-.387 24.226 18.916 44.252 43.03 44.64l.367-22.928c-11.53-.186-20.76-9.76-20.575-21.344s9.717-20.855 21.247-20.67l.367-22.93c-24.115-.39-44.05 19.004-44.436 43.23" class="E"/><path d="M75.324 452.6c28.212.455 50.718-21.44 51.17-49.782l-26.7-.43c-.217 13.55-10.528 22.083-24.017 21.865z" class="J"/><path d="M245.453 52.027c-1.124.964-3.63 4.018-1.698 7.57.71 1.303 2.215 1.948 3.577 2.52s2.796 1.073 3.923 2.032c2.127 1.8 2.714 4.815 4.126 7.23 1.62 2.77 4.645 4.846 7.84 4.7 3.66-.166 6.712-3.156 8.096-6.564s1.432-7.192 1.46-10.873c.015-2.035-.075-4.33-1.57-5.704-1.378-1.267-3.452-1.283-5.32-1.225l-20 .614" class="G"/><g class="E"><path d="M281.338 91.316h-5.293l1.297 15.185h5.778zM276.82 52.8h-4.065l1.217 14.244h4.52zm-39.723 53.7c.208-1.098 1.168-7.073 2.454-15.185h-5.28l-2.547 15.185zm31.965-15.185l.504 15.185h7.252l-1.297-15.185zm-1.28-38.505l.473 14.244h5.193L272.23 52.8zm-24.407 14.244l2.232-14.244h-4.877l-2.4 14.244zm-.618 3.933h-5.075l-2.75 16.396h5.242l2.583-16.396m7.024 16.396l1.274-16.396h-7.77l-2.583 16.396zm-.305 3.932h-9.395l-.933 5.868-1.554 9.317h10.702zm9.403 0H250l-1.18 15.185h9.7zm.522 0l-.35 15.185h9.992l-.504-15.185zm.468-20.328l-.378 16.396h8.917l-.545-16.396zm-8.3 0l-1.275 16.396h8.665l.378-16.396zm.9-18.177h-6.333l-2.232 14.244h7.458zm-.584 14.244h7.554l.327-14.244h-6.774zm8.404-14.244l-.328 14.244h7.773l-.473-14.244zm15.42 34.573h5.168l-1.924-16.396h-4.645zm-1.925-16.396h-5.398l.545 16.396h6.254zm9.923 36.037H231.1l9.474-56.496a6.31 6.31 0 0 1 4.49-5.03c.06-.02.123-.034.184-.05.157-.04.308-.093.47-.12a6.48 6.48 0 0 1 1.069-.123l.01-.054.256.04h23.444a6.58 6.58 0 0 1 1.288.129 6.33 6.33 0 0 1 5.32 5.52l4.568 38.927.206 1.548h-.025l1.8 15.416zm380.637 237.98H653v45.243h11.325zm16.656 0h-11.325v35.374H681zm16.912 0h-11.326v27.293h11.326zm15.655 0h-11.325v16.208h11.325z"/></g><path d="M682.344 247.792c-7.016-7.466-18.834-7.865-26.344-.892s-7.913 18.72-.897 26.186 18.834 7.865 26.344.89 7.913-18.72.897-26.185m12.99 40.962c-15.707 14.585-40.424 13.748-55.096-1.865s-13.83-40.18 1.877-54.765 40.423-13.75 55.096 1.865 13.83 40.18-1.877 54.765" class="G"/><path d="M640.237 286.89c14.673 15.613 39.4 16.45 55.097 1.865l-13.887-14.777c-7.5 6.974-19.328 6.573-26.344-.89S648.5 253.874 656 246.9l-13.888-14.776c-15.707 14.585-16.55 39.15-1.876 54.765" class="J"/><path d="M693.742 295.087c19.242-17.867 21.546-46.912 3.57-66.037l-19.52 16.908c8.595 9.146 10.462 21.356 1.26 29.9z" class="I"/><path d="M272.62 193.548H168.628a3.23 3.23 0 0 0-3.231 3.23v24.65a3.23 3.23 0 0 0 3.231 3.231H272.62a3.23 3.23 0 0 0 3.23-3.231v-24.65a3.23 3.23 0 0 0-3.23-3.23" class="E"/><path d="M188.68 203.914a6.71 6.71 0 0 0-9.461-1.045c-2.9 2.336-3.366 6.592-1.04 9.505a6.71 6.71 0 0 0 9.46 1.045c2.9-2.336 3.366-6.59 1.04-9.505" class="G"/><path d="M187.212 210.44c.1-.103-1.52-1.854-3.62-3.9l-1.072-1.038-.174.18c-1.635 1.68-2.788 2.986-2.7 3.073s1.386-1.074 3.06-2.716l-.357.003.88.87 3.983 3.538" class="E"/><g class="I"><path d="M264.978 211.483c0-.145-14.825-.26-33.1-.26l-33.112.26c0 .144 14.823.26 33.112.26l33.1-.26m.292-5.635c0-.144-14.825-.26-33.108-.26l-33.112.26c0 .145 14.822.26 33.112.26l33.108-.26"/></g><path d="M614.072 201.748l-2.02-157.002h90.33v154.86z" class="G"/><g class="E"><path d="M662.736 200.568l-.8-155.822h40.445v154.86zm-45.824-1.646V166.8H659.7v30.594z"/></g><g class="G"><path d="M631.663 190.088v-4.743h13.1v5.174zm0-8.732h13.52v-1.94h-13.52z"/></g><path d="M616.912 86.392V54.28H659.7v30.594z" class="E"/><g class="G"><path d="M631.663 77.558v-4.743h13.1v5.174zm0-8.73h13.52v-1.94h-13.52z"/></g><path d="M616.912 162.72V130.61H659.7v30.594z" class="E"/><g class="G"><path d="M631.663 153.887v-4.743h13.1v5.174zm0-8.73h13.52v-1.94h-13.52z"/></g><path d="M616.354 92.16h42.787v32.112h-42.787z" class="E"/><g class="G"><path d="M631.393 109.8v-4.46H643.7v4.863zm0-8.2h12.7v-1.823h-12.7z"/></g></g><g clip-path="url(#B)" class="J"><path d="M586.827 200.3c23.267 9.666 43.678 23.318 59.267 40.243 19.434 21.1 26.582 32.884 34.946 54.37 14.503 37.255 3.03 71.243-7.717 102.184-11.424 32.89-47.757 58.797-89.29 65.87s-86.636-4.114-117.75-27.35c-19.76-14.755-34.352-34-56.55-46.3-36.444-20.21-84.983-17.516-128.55-11.22s-88.834 15.33-131.302 5.3c-53.32-12.607-87.163-57.312-87.416-102.092-.338-59.692 62.786-101.405 120.344-114.89 35.49-8.315 93.722-19.184 164.92-17.654 105.716 2.272 195.46 33.43 239.1 51.56"/></g><g clip-path="url(#C)" class="B"><path d="M705.776 46.107c0-.144-148.105-.26-330.76-.26l-330.792.26c0 .144 148.073.26 330.792.26l330.76-.26"/></g></g><path d="M271.22 387.862H163.6v70.596h107.63z" class="I"/><g transform="matrix(.402615 0 0 .402615 72.228893 292.32115)"><g clip-path="url(#D)"><path d="M494.25 237.3l-.207 175.345.207-.207-267.33-.053.26.26-.02-175.345-.24.24 267.33-.24-267.568-.24-.022 175.844 267.797-.053v-.207L494.25 237.3" class="B"/><path d="M308.62 315.816l26.294-.362c-.2-14.013-12.008-25.433-26.294-25.433h-.154z" class="H"/><g class="B"><path d="M352.096 280.213c0-.016-.194-.03-.562-.045l-1.608-.042-5.95-.07-.048.06-8.674 10.93-6.992 8.916.135-.066-7.74.072-2.164.048-.765.053s.266.036.765.053l2.164.047 7.822.073.053-.067 7.037-8.88 8.602-10.986-.122.06 5.875-.068 1.608-.042.562-.045m9.434-3.032c0-.1-3.8-.202-8.507-.202l-8.508.202c0 .1 3.8.2 8.508.2l8.507-.2m0-3.152c0-.112-3.8-.202-8.507-.202l-8.508.202c0 .1 3.8.2 8.508.2l8.507-.2"/></g><path d="M304.46 319.557l-.37-25.792c-14.285.196-25.927 11.778-25.927 25.792 0 14.15 11.87 25.795 26.296 25.795s26.297-11.644 26.297-25.795z" class="C"/><g class="B"><path d="M294.194 327.993c.002-.017-.156-.054-.457-.107l-1.308-.2-4.8-.674-.058.057-6.3 6.13-7.707 7.644-2.304 2.35-.806.9s.345-.26.916-.788l2.393-2.258 7.8-7.56 6.25-6.18-.136.046 4.74.522 1.32.12c.304.022.467.026.47.01M263.8 345.218c0-.1-3.8-.202-8.507-.202l-8.508.202c0 .1 3.808.2 8.508.2l8.507-.2"/><path d="M263.79 342.068c0-.11-3.81-.202-8.507-.202l-8.508.202c0 .11 3.808.2 8.508.2l8.507-.2"/></g><use xlink:href="#c" class="C"/><g clip-path="url(#E)" class="D F"><use xlink:href="#c"/></g><use xlink:href="#d" class="C"/><g clip-path="url(#F)" class="D"><use xlink:href="#d"/></g><path d="M397.487 364.75l-19.313-4.346c1.98-8.842 9.873-15.452 19.313-15.452 9.487 0 17.41 6.674 19.344 15.583l-19.32 4.215" class="C"/><g class="B"><use xlink:href="#e"/><path d="M472.667 372.72c0-.144-9.986-.26-22.3-.26l-22.303.26c0 .144 9.984.26 22.303.26l22.3-.26m0 5.083c0-.144-9.986-.26-22.3-.26l-22.303.26c0 .144 9.984.26 22.303.26l22.3-.26m0-14.898c0-.144-9.986-.26-22.3-.26l-22.303.26c0 .144 9.984.26 22.303.26l22.3-.26m-13.812-5.148c0-.144-6.858-.26-15.316-.26s-15.32.117-15.32.26 6.857.26 15.32.26 15.316-.116 15.316-.26"/></g><g class="C"><path d="M385.88 269.646h-4.594v51.3h4.594zm8.87 0h-4.595v33.882h4.595zm8.87-.26h-4.594v45.192h4.594zm8.88.26h-4.595v49.327h4.595zm8.86 0h-4.594v32.84h4.594zm8.87 0h-4.595v26.4h4.595zm8.868 0h-4.594v46.042h4.594zm8.87 0h-4.595v37.74h4.595zm8.87 0h-4.595v44.375h4.595zm8.87 0h-4.595v30.23h4.595zm8.87 0h-4.594v35.984h4.594z"/></g><g class="B"><path d="M476.453 266.072c0-.104-21.793-.2-48.67-.2l-48.673.2c0 .104 21.788.2 48.673.2l48.67-.2m-88.613-4.038c0-.104-1.526-.188-3.4-.188s-3.4.084-3.4.188 1.526.2 3.4.2 3.4-.085 3.4-.2"/><use xlink:href="#f"/><path d="M408.796 261.828c0-.104-1.825-.2-4.075-.2l-4.074.2c0 .104 1.824.188 4.074.188l4.075-.188m9.644 0c0-.104-1.824-.2-4.074-.2l-4.075.2c0 .104 1.824.188 4.075.188l4.074-.188m9.648 0c0-.104-1.824-.2-4.074-.2l-4.075.2c0 .104 1.824.188 4.075.188l4.074-.188m9.646 0c0-.104-1.825-.2-4.075-.2l-4.074.2c0 .104 1.823.188 4.074.188l4.075-.188m9.646 0c0-.104-1.824-.2-4.074-.2l-4.075.2c0 .104 1.824.188 4.075.188l4.074-.188m9.646 0c0-.104-1.824-.2-4.074-.2l-4.075.2c0 .104 1.824.188 4.075.188l4.074-.188m9.647 0c0-.104-1.825-.2-4.075-.2l-4.074.2c0 .104 1.824.188 4.074.188l4.075-.188m9.645 0c0-.104-1.824-.2-4.074-.2l-4.075.2c0 .104 1.824.188 4.075.188l4.074-.188"/></g><g clip-path="url(#G)" class="D F"><path d="M394.75 269.646h-4.595v33.882h4.595z"/></g><g clip-path="url(#H)" class="D F"><path d="M412.5 269.646h-4.595v49.327h4.595z"/></g><g clip-path="url(#I)" class="D F"><path d="M430.23 269.646h-4.595v26.4h4.595z"/></g><g clip-path="url(#J)" class="D F"><path d="M447.968 269.646h-4.595v37.74h4.595z"/></g><g clip-path="url(#K)" class="D F"><path d="M465.708 269.646h-4.595v30.23h4.595z"/></g><g class="C"><path d="M259.4 379.688c0-2.442-1.98-4.422-4.422-4.422s-4.422 1.98-4.422 4.422 1.98 4.422 4.422 4.422 4.422-1.98 4.422-4.422m76.028 3.488c0-.144-14.9-.26-33.3-.26l-33.303.26c0 .144 14.908.26 33.303.26l33.3-.26"/><path d="M295.564 377.828c0-.036-.368-.07-1.032-.1l-2.813-.083-9.28-.076-9.283.076-2.813.083c-.664.03-1.03.065-1.03.1s.367.07 1.03.102l2.813.082 9.283.077 9.28-.077 2.813-.082c.664-.032 1.032-.066 1.032-.102"/></g><path d="M221.475 237.095H81.563v159.678h139.912z" class="I"/><path d="M221.475 237.095l-.013.76-.013 2.22-.027 8.618-.06 32.58-.116 115.502.23-.23-139.912-.03.26.26-.04-159.678-.22.22 137.332-.196 2.58-.024-2.532-.024-7.437-.026-130.163-.17-.04 160.16 140.403-.03v-.23l-.23-159.678" class="B"/><g class="C"><path d="M209.448 315.24c-.046-.095-1.55.776-4.5 1.7a28.9 28.9 0 0 1-12.902.958c-2.7-.434-5.644-1.253-8.5-2.734-2.886-1.447-5.636-3.6-8.367-6.018-2.744-2.422-5.468-5.17-8.6-7.712-3.143-2.5-6.748-4.867-10.988-5.947-2.105-.542-4.3-.683-6.416-.387-2.1.288-4.105.98-5.945 1.836-3.685 1.736-6.836 4.018-9.958 5.92-3.1 1.94-6.214 3.48-9.366 4.2-3.13.762-6.173.916-8.9.683-5.506-.48-9.672-2.43-12.298-4.004-2.638-1.612-3.883-2.826-3.954-2.74-.022.025.285.326.894.88.598.563 1.553 1.322 2.863 2.178 2.6 1.7 6.802 3.782 12.432 4.36 2.797.283 5.922.167 9.157-.585 3.254-.704 6.507-2.28 9.64-4.217 3.163-1.903 6.315-4.155 9.892-5.823 3.54-1.705 7.704-2.464 11.733-1.373 4.03 1.023 7.546 3.305 10.636 5.75 3.092 2.484 5.828 5.215 8.612 7.642 2.773 2.43 5.602 4.604 8.592 6.064 2.968 1.493 5.992 2.296 8.77 2.696 5.605.76 10.186-.245 13.116-1.273 1.48-.512 2.58-1.035 3.305-1.422s1.093-.612 1.078-.64m-89.38-53.618h11.895v32.17h-11.895z"/><path d="M170.547 261.624h11.895v32.17h-11.895zm16.825 0h11.895v51.062h-11.895zm-82.692-.7h11.895v10.827H104.68zm32.218.7h11.895v17.643h-11.895zm16.824 0h11.895v21.692h-11.895z"/></g><g class="B"><path d="M132.447 257.832c0-.264-2.877-.478-6.426-.478s-6.427.214-6.427.478 2.877.478 6.427.478 6.426-.214 6.426-.478m-14.8 0c0-.264-2.878-.478-6.426-.478s-6.427.214-6.427.478 2.877.478 6.427.478 6.426-.214 6.426-.478m83.964 0c0-.264-3.253-.478-7.264-.478s-7.265.214-7.265.478 3.25.478 7.265.478 7.264-.214 7.264-.478m-17.67 0c0-.264-3.253-.478-7.265-.478s-7.265.214-7.265.478 3.252.478 7.265.478 7.265-.214 7.265-.478"/><path d="M165.617 257.832c0-.265-2.878-.48-6.427-.48s-6.426.214-6.426.48 2.877.478 6.426.478 6.427-.214 6.427-.478m-17.383 0c0-.265-2.878-.48-6.426-.48s-6.427.214-6.427.48 2.877.478 6.427.478 6.426-.214 6.426-.478"/></g><path d="M201.6 333.124h-97.2v40.37h97.2z" class="E"/><g class="B"><use xlink:href="#g"/><path d="M160.704 362.112h-31.577v1.753h31.577z"/></g><path d="M190.553 358.128h-61.426v1.753h61.426z" class="F"/><g class="C"><path d="M124.596 346.803c0-2.503-2.03-4.532-4.532-4.532a4.532 4.532 0 1 0 0 9.064c2.503 0 4.532-2.03 4.532-4.532m20.656 1.377h-16.125v1.753h16.125z"/></g><path d="M190.553 344.196h-61.426v1.753h61.426z" class="F"/><path d="M661.005 250.09h-153.64v175.346h153.64z" class="I"/><path d="M661.006 250.09l-.014.833-.012 2.435-.028 9.46-.176 162.617.23-.23-153.64-.03.26.26-.04-175.346-.22.22 153.64-.22-2.783-.024-8.168-.026-142.9-.17-.04 175.826 154.13-.03v-.23l-.23-175.346" class="B"/><path d="M644.12 311.572H519.656v99.845H644.12z" class="E"/><g class="B"><path d="M532.44 328.146h-4.085v1.177h4.085zm10.38-6.293h-5.225v1.177h5.225zm18.185 0h-5.224v1.177h5.224zm18.195 0h-5.224v1.177h5.224zm18.176 0h-5.225v1.177h5.225zm18.184 0h-5.224v1.177h5.224zm18.186 0h-5.224v1.177h5.224zM532.44 343.868h-4.085v1.177h4.085zm0 29.59h-4.085v1.177h4.085zm0 14.87h-4.085v1.177h4.085zm.206-29.664h-4.085v1.177h4.085zM633.6 328.146c0-.01-.148-.018-.438-.026l-1.286-.026-4.942-.05-18.178-.083-59.973-.076-14.47.004v.256l.088 50.353.077 14.87.045 4.003.023 1.036.024.352s.016-.12.024-.352l.023-1.036.044-4.003.078-14.87.088-50.353-.257.257 14.212.004 59.973-.076 18.178-.083 4.942-.05 1.286-.026.438-.027"/><use xlink:href="#h"/><path d="M634.75 374.046c0-.144-21.543-.26-48.1-.26l-48.118.26c0 .144 21.54.26 48.118.26l48.1-.26m0 14.87c0-.144-21.543-.26-48.1-.26l-48.118.26c0 .144 21.54.26 48.118.26l48.1-.26m0-44.46c0-.144-21.543-.26-48.1-.26l-48.118.26c0 .144 21.54.26 48.118.26l48.1-.26"/></g><path d="M539.513 331.33v13.126l8.182 12.702 5.55-4.26 11.396 17.7 6.72-4.733 9.35 16.33 7.597-6.2 11.395 21.662 12.273-24.21 9.934 12.114 11.688 3.345V331.33z" class="H"/><g class="C"><path d="M634.75 393.576c0-.006-.07-.013-.206-.02l-.61-.02-2.372-.038-8.968-.068.114.057-9.658-12.652h-.102l-24.062-.044.215.12-20.245-33.674-.222.306-13.026 17.928.35.01-11.9-18.512-3.328-5.113-.887-1.332-.32-.445s.08.17.266.48l.834 1.366 3.232 5.175 11.923 18.873.184-.252 13.087-17.883-.417-.018 20.122 33.47.142-.001 24.062-.044-.163-.08 9.738 12.554.07-.001 8.968-.068 2.372-.037.61-.02c.137-.006.206-.013.206-.02"/><path d="M559.725 361.4c0-.5-.413-.9-.923-.9s-.924.398-.924.9.413.9.924.9.923-.398.923-.9m27.755 15.776c0-.5-.413-.9-.923-.9s-.923.398-.923.9.413.9.923.9.923-.398.923-.9m21.575 3.876c0-.5-.413-.9-.923-.9s-.923.398-.923.9.413.9.923.9.923-.398.923-.9"/></g><g class="B"><use xlink:href="#i"/><path d="M638.5 290.386c0-.144-26.264-.26-58.654-.26l-58.66.26c0 .144 26.257.26 58.66.26l58.654-.26m0-6.342c0-.144-26.264-.26-58.654-.26l-58.66.26c0 .144 26.257.26 58.66.26l58.654-.26m0-6.344c0-.144-26.264-.26-58.654-.26l-58.66.26c0 .144 26.257.26 58.66.26l58.654-.26"/></g></g><g clip-path="url(#L)"><path d="M592.184 280.19c3.2 5.388 4.146 12.574 4.972 18.79.388 2.926 1.068 7.09-.985 8.928-2.2 1.968-2.402 4.992-4.93 6.513s-5.966 1.657-8.36-.07" class="B"/><path d="M583.28 261.1h0c-4.898-.376-9.127 3.395-9.315 8.304l-.34 9.48s-7.144.67-7.66 7.738-.283 23.39-.283 23.39a24.64 24.64 0 0 0 24.898-1.6l-.44-24.882v-13.386c-.047-4.5-2.38-8.7-6.858-9.045" fill="#ffbe9d"/><path d="M573.008 295.253c1.22 1.512 3.202 2.113 4.83 1.055s2.255-3.4 1.37-5.138c-.625-1.22-2.05-2.325-3.47-2.623-1.335-.28-2.28-1.568-2.126-2.923.205-1.774 3.157-2.44 4.49-3.9 2.072-2.284 6.62-3.25 9.682-3.613 3.012-.356 2.65-.385 4.4 2.09 1.275 1.8 1.675 3.535 1.72 5.74l.324 15.638c.038 1.88.075 3.782-.357 5.61s-1.39 3.607-2.96 4.64c-1.72 1.132-3.897 1.228-5.856 1.862-2.448.792-4.527 2.416-6.818 3.588s-5.1 1.872-7.4.717c-1.65-.828-2.758-2.476-4.363-3.39-2.285-1.3-5.397-1.005-6.507-4.365-.384-1.162-.355-2.437.038-3.595 1.55-4.574 7.215-6.418 11.294-4.44.08-.775-.683-2.5.134-4.946.26-.782.353-1.975 1.575-1.997" class="B"/><path d="M574.273 290.84c.054.045.295-.374.884-.337.563.026 1.297.695 1.322 1.614.07.93-.64 1.574-1.214 1.76-.582.214-1 .104-1.017.186-.03.048.388.32 1.12.167.354-.075.77-.267 1.1-.638.345-.364.557-.927.522-1.5-.033-1.177-1.045-2.03-1.84-1.956-.4.024-.667.23-.8.397-.126.173-.125.297-.096.308" fill="#eb996e"/><g class="H"><path d="M581.632 312.156c-.018.015.153.27.592.6s1.17.693 2.147.835a6.18 6.18 0 0 0 3.384-.516c1.198-.545 2.292-1.546 3.12-2.788 1.66-2.527 1.975-5.3 2.196-7.158l.187-3.087c-.077-.01-.273 1.158-.552 3.04-.3 1.853-.686 4.526-2.263 6.917-.785 1.176-1.8 2.12-2.892 2.644s-2.222.665-3.137.583c-1.878-.175-2.728-1.168-2.78-1.068m-19.912-7.233c-.003-.015-.096-.02-.27.02a2.06 2.06 0 0 0-.704.316 2.57 2.57 0 0 0-.82.922 2.37 2.37 0 0 0-.222 1.637 2.69 2.69 0 0 0 1.147 1.65c.642.437 1.484.45 2.236.44.77-.02 1.522.04 2.135.54.627.47 1.104 1.195 1.727 1.864 1.252 1.353 2.874 2.177 4.403 2.54 1.536.38 2.987.338 4.148.092s2.05-.647 2.607-1 .825-.603.807-.624c-.054-.1-1.205.884-3.48 1.263-1.123.2-2.5.192-3.964-.195-1.45-.37-2.967-1.163-4.137-2.428-.6-.625-1.08-1.38-1.805-1.92a2.9 2.9 0 0 0-1.218-.547c-.43-.08-.844-.072-1.23-.065-.767.026-1.473.016-2-.324a2.33 2.33 0 0 1-1.018-1.372c-.283-1.072.34-1.94.805-2.3.5-.4.868-.45.85-.5m18.918-19.67c-.017.043.356.175.934.564a5.84 5.84 0 0 1 1.928 2.149c.573 1.07.828 2.607.325 4.144a5.33 5.33 0 0 1-1.285 2.125c-.612.624-1.38 1.138-2.2 1.616l-2.434 1.45c-.77.522-1.443 1.156-1.957 1.844-1.035 1.383-1.522 2.906-1.655 4.185a7.75 7.75 0 0 0 .231 3.021 4.52 4.52 0 0 0 .283.773c.078.17.127.256.144.25.124-.02-.646-1.512-.292-3.996.172-1.22.675-2.655 1.67-3.94.498-.642 1.124-1.22 1.863-1.715s1.57-.933 2.4-1.422 1.653-1.027 2.313-1.7a5.81 5.81 0 0 0 1.376-2.338c.52-1.674.197-3.342-.46-4.462-.653-1.14-1.52-1.805-2.146-2.147-.633-.35-1.033-.415-1.04-.4m12.26 10.372c.006-.035-.316-.106-.9-.203a13.2 13.2 0 0 0-2.542-.077c-2.14.1-5.148.836-7.886 2.7-2.73 1.852-4.623 4.38-5.174 6.5-.288 1.06-.243 1.972-.105 2.562.144.594.33.88.35.87.107-.008-.543-1.3.1-3.33.606-2 2.466-4.386 5.112-6.18a16.58 16.58 0 0 1 7.624-2.775c2.1-.23 3.412.02 3.422-.087"/></g><path d="M594.02 300.472c2.45 2.76 6.062 4.622 9.746 4.415s7.278-2.753 8.178-6.332c.677-2.693-.15-5.5-.498-8.257s-.012-5.977 2.236-7.61c1.355-.984 3.108-1.163 4.734-1.56s3.366-1.2 3.925-2.788c.642-1.8-.674-3.866-2.434-4.63s-3.79-.533-5.657-.078c.852-2.028-.196-4.56-2.096-5.667s-4.404-.885-6.28.262-3.163 3.105-3.835 5.2c-1.21-2.13-4.392-2.577-6.43-1.222s-2.917 4.037-2.6 6.464 1.65 4.615 3.258 6.462c.81.93 1.703 1.807 2.276 2.898s.774 2.474.143 3.532-2.268 1.495-3.146.632" class="B"/><path d="M598.274 293.054c.044-.04-.815-.46-2.125.024-1.278.433-2.774 1.942-3.083 4.025a5.27 5.27 0 0 0 .336 2.87c.35.83.86 1.47 1.354 1.92 1.005.906 1.852 1.085 1.86 1.036.043-.083-.728-.384-1.6-1.298-.87-.878-1.762-2.546-1.434-4.446.285-1.894 1.576-3.284 2.7-3.765 1.147-.527 1.977-.273 1.983-.365" class="C"/><path d="M573.388 279c-.003-.057-.633-.09-1.614.16s-2.282.84-3.448 1.866-1.917 2.252-2.28 3.2c-.37.942-.415 1.572-.358 1.582.083.02.255-.568.693-1.43a10.22 10.22 0 0 1 2.29-2.953c1.104-.97 2.305-1.58 3.214-1.904.91-.328 1.515-.426 1.504-.51" fill="#eb996e"/><g class="H"><path d="M600.606 273.205c-.004-.018-.122 0-.347.05s-.543.18-.92.4c-.74.468-1.635 1.507-2.008 3.055-.182.765-.256 1.65-.087 2.57.15.916.486 1.855.933 2.782.9 1.865 2.297 3.635 3.336 5.692.516 1.028.905 2.088 1.046 3.147s.018 2.097-.34 3.007c-.708 1.84-2.188 3.07-3.588 3.547a6.51 6.51 0 0 1-3.499.218c-.83-.174-1.25-.408-1.272-.36-.008.016.092.08.292.193a4.9 4.9 0 0 0 .932.364c.827.24 2.147.414 3.666-.065 1.504-.46 3.128-1.75 3.916-3.72.4-.975.545-2.115.4-3.248s-.555-2.254-1.086-3.315c-1.078-2.127-2.5-3.875-3.372-5.67-.914-1.776-1.272-3.595-.917-5.058.3-1.47 1.1-2.476 1.765-2.97.682-.5 1.17-.574 1.15-.627m10.668-5.164c0-.018-.152-.026-.446-.025a4.97 4.97 0 0 0-1.262.225c-1.068.3-2.543 1.197-3.682 2.87-1.172 1.656-1.725 4.114-1.6 6.738.095 2.644.868 5.438 1.363 8.37.24 1.47.382 2.92.298 4.305s-.385 2.7-.906 3.865-1.26 2.14-2.154 2.816c-.877.703-1.878 1.095-2.808 1.326-1.886.44-3.497.205-4.55-.016l-1.648-.43c-.007.017.128.088.395.207s.67.273 1.204.42c1.06.285 2.7.6 4.682.178.975-.217 2.04-.6 3-1.343.965-.707 1.768-1.75 2.327-2.96s.883-2.593.978-4.03c.094-1.444-.05-2.93-.294-4.422-.503-2.98-1.28-5.737-1.396-8.3-.157-2.557.338-4.906 1.416-6.5 1.052-1.626 2.43-2.525 3.44-2.88 1.02-.376 1.65-.33 1.643-.392"/></g><g fill="#ffbe9d"><path d="M613.402 235.835l-15.058-11.747 6.32-10.374 18.133 13.36zm-40.28 39.465s.073 1.256-3.2 1.437l-3.65.122s-1.48 1.893-1.572 3.045.703 3.094.703 3.094l3.324.305-.903 2.256-2.342-.162-6.615-.794-2.632-11.58-18.054-33.702c-2.937-4.394-1.3-10.37 3.447-12.67 4.667-2.256 10.922 2.533 12.65 7.42l9.992 37.486 3.514 2.745 5.036.924M531.966 50.988l24.708 142.062c4.183 16.587 10.632 21.905 10.632 21.905l37.618-2.36c3.198-5.75 3.604-19.544 3.604-19.544.438-1.7-7.948-138.715-7.948-138.715L588 54.68l-6.823 129.64-36.61-133.87z"/></g><path d="M531.673 49.718l.048 1.277 12.94-.374-.11-4.213-.8-.026c-3.56-.088-18.1-.214-20.466.52-2.628.818 8.4 2.816 8.4 2.816" class="C"/><g clip-path="url(#M)" opacity=".6" class="F"><path d="M539.882 46.628c.214.995.842 1.91 1.723 2.5s1.953.9 3.038.79l-.1-3.347z"/></g><g clip-path="url(#N)" opacity=".6" class="F"><path d="M526.284 48.564s-3.868-.926-3.408-1.526 15.17-.988 21.674-.63l-.013.268-17.16.315s-.343 1.523-1.092 1.573"/></g><g class="B"><path d="M544.74 46.678c.001-.005-.076-.01-.222-.017l-.637-.02-2.344-.03c-1.98-.015-4.715 0-7.735.076l-7.73.32-2.34.15-.635.052-.22.03c0 .004.077.004.222.001l.637-.025 2.34-.105 7.727-.277 7.73-.12 2.344-.014.637-.008.222-.013"/><path d="M527.374 46.805c-.048-.005-.07.517-.406 1.05-.327.54-.8.818-.773.854.01.036.556-.204.908-.78.36-.574.3-1.133.27-1.123m3.857 1.692c-.037-.02-.213.2-.393.47s-.294.523-.257.544.213-.2.392-.47.295-.524.258-.545m1.058.486c-.03-.028-.23.103-.445.294s-.367.37-.338.4.23-.102.445-.294.368-.37.338-.4m.694 1.113c-.001-.04-.303-.067-.675-.062s-.673.043-.672.083.303.068.675.062.673-.043.672-.083"/><path d="M533.232 50.887c.014-.036-.318-.165-.756-.183s-.78.08-.77.117.348.008.763.03c.416.016.752.078.764.037m-2.41-1.334c.001-.017-.318-.044-.827.026-.255.036-.555.1-.876.204-.16.058-.327.103-.5.207-.08.053-.17.126-.197.245s.04.244.134.303a1.59 1.59 0 0 0 1.865-.462 1.32 1.32 0 0 0 .254-.52c.03-.133.025-.207.015-.2-.03-.01-.047.305-.356.667-.154.178-.388.352-.695.445-.3.1-.705.12-.988-.036-.135-.087-.088-.232.056-.316.134-.086.308-.14.46-.198a5.82 5.82 0 0 1 .846-.228l.808-.128"/><path d="M530.608 49.522c-.012-.01-.128.2-.08.537a1.22 1.22 0 0 0 .243.556c.15.167.347.397.7.374.192-.028.28-.234.244-.362-.018-.134-.088-.25-.15-.34-.13-.2-.273-.34-.405-.455-.267-.23-.475-.314-.484-.3s.17.134.405.37c.117.12.246.27.36.453.118.16.205.45-.002.5-.206.024-.424-.162-.555-.312-.135-.163-.213-.34-.25-.494-.073-.312-.002-.514-.03-.52m13.972.434c-.003-.027-.368.042-.952-.007-.578-.044-1.388-.243-2.1-.74a3.91 3.91 0 0 1-1.35-1.67c-.212-.5-.242-.853-.27-.85-.01 0-.012.087.007.242a2.98 2.98 0 0 0 .16.642c.185.527.616 1.23 1.36 1.75a4.19 4.19 0 0 0 2.187.728c.3.01.543-.01.708-.035s.253-.052.25-.06"/><path d="M538.296 47.838c.005-.037-.84-.144-1.886-.124s-1.885.152-1.88.2.845-.028 1.883-.045l1.883-.02m2.524-.074c.03-.03-.074-.164-.166-.342s-.143-.335-.188-.33-.06.192.048.396.28.306.306.277m.985 1.074c.03-.03-.057-.15-.193-.274s-.273-.198-.303-.168.057.15.194.273.273.197.302.17m1.377.467c-.01-.04-.182-.034-.372-.092s-.33-.146-.363-.118.08.2.317.257.433-.01.418-.047m.978.212c.015-.038-.062-.098-.17-.133s-.208-.034-.223.004.062.097.17.133.207.034.222-.004m50.71 221.792s4.62-.46 9.957-3.92c11.895-7.7 31.785-24.015 30.136-31.566-1.405-6.428-16.92-14.232-16.92-14.232l-10.075 12.12 6.176 3.532-15.185 10.102z"/><path d="M601.653 246.773l-.494-1.808-1.75-8.356-.43-12.25c9.023-11.616 9.157-21.398 9.157-21.398l-45.57-5.323c.008 9.002 3.292 20.338 3.292 20.338 2.637 4.473 2.5 17.853 2.017 18.34-2.847 2.82-3.537 4.89-1.264 8.505l-15.582-16.174c-4.992-4.575-9.793-3.3-12.02-1.31-6.24 5.57.166 12.75.166 12.75l23.795 27.273c1.625 1.863 3.78 3.203 6.184 3.77 2.536.6 5.096.904 5.096.904l15.89-.136s3.047-.106 4.734-.578c0 0 5.514-1.77 6.938-8.6s-.156-15.948-.156-15.948"/></g><g class="H"><path d="M602.15 257.698c.036 0 .068-.47.098-1.32l-.087-3.605c-.177-3.04-.698-7.22-1.57-11.78-.297-1.556-.6-3.053-.94-4.44l.007.048-.402-8.776-.163-2.548c-.048-.595-.088-.917-.117-.916s-.047.325-.053.922l.017 2.553.223 8.832a137.58 137.58 0 0 1 .917 4.423c.867 4.543 1.442 8.693 1.713 11.7.136 1.508.2 2.732.25 3.58.034.847.07 1.317.105 1.318m.157-12.252c.08.118 3.807-2.318 8.32-5.44l8.024-5.87c-.082-.118-3.807 2.317-8.32 5.44l-8.022 5.868"/><path d="M572.843 263.305c.013.013.093-.048.234-.177.15-.122.336-.334.568-.618.447-.574.97-1.533 1.232-2.825.27-1.284.25-2.897-.26-4.566-.548-1.644-1.4-3.352-2.556-4.967-.58-.8-1.216-1.546-1.88-2.2-.662-.673-1.37-1.227-2-1.793l-3.245-3.115-2.098-2.2-.795-.788c-.026.022.196.354.642.92l1.983 2.32 3.2 3.218 1.952 1.797a18.3 18.3 0 0 1 1.819 2.155 19.14 19.14 0 0 1 2.52 4.808c.5 1.58.567 3.12.355 4.355-.42 2.53-1.78 3.63-1.672 3.686m-5.292-40.293l.527 6.122h31.08l-.168-4.784zm-26.514 18.273c.058-.078-.785-.588-1.723-1.8-.933-1.183-1.897-3.2-1.8-5.512.1-2.32 1.224-4.244 2.25-5.347 1.032-1.132 1.913-1.57 1.862-1.654-.015-.028-.247.05-.635.264s-.92.58-1.493 1.135c-1.14 1.083-2.397 3.094-2.506 5.582-.093 2.486.997 4.593 2.045 5.765a7.45 7.45 0 0 0 1.397 1.252c.37.252.594.34.6.315"/></g><path d="M600.58 54.335l3.524-8.2-15.772.187-.333 8.36z" class="C"/><g class="B"><path d="M588.216 47.74c-.001-.042.843-.1 2.21-.112l5.333.016 5.325.11 2.206.11c.001.042-.843.088-2.21.108s-3.253.014-5.334-.02l-5.323-.108-2.207-.107"/><path d="M594.792 54.512c-.14-.007-.168-1.497-.066-3.326s.295-3.307.433-3.3.167 1.496.066 3.326-.295 3.307-.433 3.3"/></g><g clip-path="url(#O)" opacity=".6" class="F"><path d="M604.08 45.963l-15.765.528-.1 1.495 15.073-.128.798-1.716"/></g><path d="M607.132 210.86c11.866-37.45-3.432-82.9.236-126.547.362-4.287 2.1-9.417-1.908-11.856-1.078-.657-2.356-.925-3.618-.884-3.204.105-5.88 1.766-8.74 2.908-5.434 2.17-11.615 2.408-17.2.667-3.786-1.18-7.54-3.267-11.46-2.674-5.207.787-8.582 5.935-13.375 8.116-4.488 2.042-9.67 1.28-14.6 1.404l-.148.004c-7.1.22-12.088 7.144-10.214 14.007 7.163 26.235 30.92 111.46 41.435 127.018l31.44 1.338c2.897-3.5 6.62-8.73 8.152-13.5" class="C"/><path d="M596.118 193.23c.052-.048-.6-.87-1.7-2.15-1.118-1.272-2.68-3.033-4.642-4.746-1.97-1.71-3.988-2.955-5.477-3.766-1.498-.805-2.467-1.212-2.496-1.155-.11.18 3.735 1.97 7.632 5.316 1.932 1.685 3.526 3.394 4.712 4.6l1.98 1.9" class="B"/><g clip-path="url(#P)" opacity=".1"><path d="M582.235 179.096c-9.9-25.336-11.768-53.745-5.267-80.16.564-2.29 1.14-4.892-.164-6.856-1.687-2.543-5.772-2.368-8.084-.373s-3.232 5.136-3.81 8.133c-4.317 22.343 3.5 44.795 11.945 65.927"/></g></g></g><g class="B"><path d="M234.85 358.18h-24v1.167h24z"/><path d="M207.143 358.18l-4.5 16.863h18.732l4.074-16.863z"/></g><path d="M224.327 359.457h-16.734l-3.895 14.807h16.82z" class="G"/><path d="M203.977 373.2H220.8l-.283 1.065h-16.82z" class="J"/><g transform="matrix(.402615 0 0 .402615 72.228893 292.32115)"><g clip-path="url(#Q)"><g class="I"><use xlink:href="#j"/><path d="M330.173 202.204c0-.252.204-.456.457-.456s.456.204.456.456-.205.457-.456.457a.46.46 0 0 1-.457-.457m-1.573 0c0-.252.205-.456.457-.456s.456.204.456.456-.205.457-.456.457a.46.46 0 0 1-.457-.457"/></g><path d="M358.633 184.767l4.576-5.235c1.78 1.27 2.818 3.214 2.81 5.264-.014 3.66-3.36 6.66-7.41 6.644s-7.373-3.042-7.36-6.702z" class="C"/><g class="B"><path d="M358.053 183.928c.02.043.487-.433 1.305-1.3l3.54-3.897-.196-.148c-1.854-1.4-4.942-1.98-7.714-.756-1.32.555-2.413 1.487-3.174 2.55-.754 1.08-1.134 2.306-1.177 3.437l-.01.232.23.001 5.258-.017 1.937-.094c-.02-.043-.754-.096-2.014-.155l-5.174-.18.22.233a6.16 6.16 0 0 1 1.14-3.167c.717-.98 1.738-1.844 2.972-2.364 2.6-1.144 5.485-.626 7.252.64l-.04-.324-3.18 3.8-1.175 1.528m-2.99 4.78c.001-.23.187-.414.416-.413s.413.187.413.416-.187.413-.416.413-.414-.187-.413-.416"/><path d="M346.833 191.715c-.001.144 2.212.27 4.943.28h.767l.075-.075c1.708-1.718 2.953-3.107 2.86-3.2s-1.492 1.14-3.224 2.835l.183-.074-.66-.006c-2.73-.01-4.945.097-4.945.24"/><path d="M337.476 186.476c-.027-.034-.192.658-.473 1.93l-1.132 5.398-.05.25.258.003 10.34.1c-.054.047.488-.4.26-.213v-.002-.004-.008l.003-.015.018-.093.07-.37.093-.5.183-.97.353-1.9.703-3.8h-.283l-7.535.082-2.098.055-.7.058s.297.04.8.062l2.144.074 7.397.14-.23-.28-.686 3.523-.734 3.84c-.23.2.312-.256.256-.2l-10.342.008.208.25.9-5.322.288-2.085m16.962-6.067c.001-.23.187-.413.416-.413s.414.187.413.416-.187.414-.416.413-.414-.187-.413-.416"/><path d="M347.35 180.362c0 .145 1.68.268 3.755.275s3.757-.1 3.758-.245-1.68-.267-3.756-.275-3.757.1-3.757.245"/><path d="M337.513 177.098c-.023-.03-.18.46-.455 1.382l-1.124 3.98-.065.24.254.004 10.663.107c-.225.175.3-.238.255-.196v-.002l.001-.003.001-.005.003-.012.006-.022.01-.045.34-1.33.35-1.38.737-2.925-.313.001-7.74.08-2.182.06-.743.062a9.63 9.63 0 0 0 .835.07l2.228.077 7.6.14-.235-.305-1.04 3.992-.182.704-.16.623-.01.045-.01.033-.002.006v.003l-.001.001c-.055.043.48-.37.253-.196-4.102-.015-7.85-.005-10.664.023l.2.245.906-3.93c.207-.95.316-1.498.293-1.53m.785 14.49c-.001.144 1.583.267 3.536.274s3.538-.102 3.54-.246-1.582-.266-3.537-.274-3.538.102-3.538.246m.086-1.16c0 .144 1.592.267 3.557.274s3.56-.102 3.56-.246-1.592-.266-3.557-.274-3.56.102-3.56.246m.21-1.117c0 .144 1.537.267 3.433.274s3.435-.103 3.436-.247-1.537-.266-3.434-.274-3.435.103-3.435.247"/><path d="M338.505 180.456c0 .145 1.5.267 3.37.274s3.373-.103 3.374-.247-1.5-.266-3.372-.273-3.373.102-3.373.246m.42-1.28c0 .144 1.287.266 2.875.27s2.875-.105 2.876-.25-1.286-.265-2.875-.27-2.876.104-2.876.25m-65.16-15.46v-5.492h3.597V47.012h7.38v111.2h39.17v-111.2h7.38v111.2h169.93V47.038h7.38v111.185h3.194v5.492zm160.037-41.44c0-.1 2.15-.2 4.8-.2l4.8.2c0 .1-2.15.2-4.8.2s-4.8-.1-4.8-.2"/></g><path d="M363.894 121.142c-.144 0-.26.057-.26.127s.116.128.26.128.26-.058.26-.128-.116-.127-.26-.127" class="H"/><g class="K"><path d="M410.924 220.13l-27.568 28.007-.597 3.032-.336 1.878c-.125.82-.106 1.656.043 2.467.18.983.474 2.28.85 2.936.464.81-.28 1.79-1.047 1.454s-2.102-2.538-2.39-5.563-2.87.99-3.835 2.435-4.16 5.777-4.825 5.828c-.976.076-1.225-.982-.228-2.403 1-1.44 3.698-5.896 2.934-6.375l-.03.005c-1.554.264-3.088-.505-3.808-1.89-.696-1.336-1.472-3.232-.836-4.105 1.197-1.647 4.395-4.656 4.395-4.656l.923-.794c.002-.002 23.85-34.56 29.05-35.682 3.233-.698 53.213-4.844 53.213-4.844l3.77 13.77z"/><path d="M369.04 248.417l2.55-2.45c.288-.278.587-.562.96-.705s.844-.114 1.115.18c.246.266.27.682.15 1.024s-.356.63-.587.907l-2.48 2.98"/></g><path d="M370.75 250.353c.055.046.534-.428 1.264-1.23l1.26-1.43c.226-.27.503-.55.703-.95.195-.394.275-.956-.07-1.417-.377-.455-.97-.47-1.395-.32-.438.16-.74.452-1 .704l-1.335 1.36c-.75.784-1.187 1.296-1.137 1.348s.578-.365 1.392-1.082l1.41-1.277c.258-.237.53-.468.834-.57.293-.1.66-.053.82.16.17.215.16.586.017.874-.14.305-.388.58-.61.865l-1.175 1.5c-.657.863-1.035 1.42-.98 1.466" class="L"/><path d="M370.85 250.2l2.55-2.45c.29-.276.588-.56.96-.704s.843-.113 1.114.18c.247.265.27.68.15 1.023s-.355.63-.587.908l-2.478 2.978" class="K"/><path d="M372.56 252.135c.055.046.534-.428 1.263-1.23l1.26-1.428c.226-.27.503-.55.703-.952.195-.395.275-.956-.07-1.416-.377-.456-.97-.47-1.395-.32-.438.16-.74.452-1 .703l-1.335 1.36c-.75.785-1.188 1.296-1.138 1.348s.58-.366 1.393-1.082l1.41-1.278c.257-.236.53-.467.834-.568.293-.1.66-.054.82.16.17.215.16.586.017.875-.14.304-.388.58-.61.864l-1.175 1.5c-.657.863-1.035 1.42-.98 1.466" class="L"/><path d="M372.836 251.66l2.55-2.45c.29-.277.588-.56.96-.705s.843-.113 1.114.18c.247.265.27.68.15 1.023s-.355.63-.587.908l-2.478 2.978" class="K"/><g class="L"><path d="M374.546 253.596c.055.046.534-.427 1.263-1.23l1.26-1.428c.226-.27.503-.55.703-.952.195-.394.274-.956-.07-1.416-.378-.456-.973-.47-1.396-.32-.438.16-.74.452-1 .704l-1.335 1.36c-.75.785-1.188 1.296-1.138 1.348s.58-.365 1.393-1.082l1.4-1.277c.258-.237.53-.468.833-.57.294-.1.66-.053.822.16.17.215.16.586.017.875-.14.304-.388.58-.6.864l-1.175 1.5c-.657.863-1.036 1.42-.98 1.466m2.324-6.175c-.007.083.633.2 1.554-.072l-.293-.252c-.12.492-.177 1.1-.066 1.752.145.92.57 1.676.955 2.132.393.458.725.64.766.6.1-.1-.95-1.123-1.207-2.805a5.22 5.22 0 0 1-.015-1.58l.054-.4-.348.15c-.797.34-1.404.385-1.4.487"/></g><path d="M447.035 262.117l.117-38.364-14.96-.714-.605 9.195s-7.217-1.096-8.725 4.333c-.964 3.47-.724 30.272-.724 30.272z" class="K"/><path d="M418.424 263.055c1.108-2.292 6.388-6.487 6.388-6.487l2.384-6.39c2.072 1.62 4.853 1.528 5.38-2.112.38-2.63-2.9-3.162-2.9-3.162 1.904-3.24 3.195-5.862 5.967-8.943 3-3.336 4.68-3.672 7.935-3.726h3.588s7.343 6.135 5.892 22.295-15.98 11.444-19.447 15.482c-5.647 6.575-18.898.697-15.197-6.956" class="B"/><g class="H"><path d="M452.252 241.018s-.64-.13-1.776.08c-1.127.202-2.732.843-4.286 2.206-1.573 1.35-2.954 3.4-4.333 5.73-1.398 2.283-2.924 4.948-5.498 6.723-2.6 1.74-5.66 2.095-8.287 2.633-2.652.498-5.055 1.256-6.692 2.547-1.64 1.275-2.443 2.854-2.682 3.972-.245 1.135-.072 1.774-.072 1.774.037.002-.114-.643.15-1.755.258-1.096 1.07-2.636 2.693-3.874 1.618-1.253 3.992-2 6.638-2.475 2.62-.528 5.707-.873 8.37-2.65 2.626-1.815 4.155-4.5 5.545-6.797 1.37-2.326 2.726-4.373 4.265-5.72 1.523-1.36 3.095-2.012 4.205-2.236.557-.124 1-.138 1.3-.155l.46-.005m.846 13.144l-.773.234c-.506.15-1.254.395-2.25.5-.977.1-2.3.042-3.465-.776-.57-.402-1.075-1.03-1.205-1.82-.135-.766.048-1.697.697-2.3.32-.293.76-.458 1.2-.48s.916.13 1.332.364a4.1 4.1 0 0 1 1.809 2.309c.672 1.96.2 4.516-1.6 6.07a5.75 5.75 0 0 1-3.228 1.438c-1.224.13-2.48-.14-3.717-.488s-2.5-.757-3.85-.925c-1.333-.18-2.7-.187-4.08-.01-1.367.2-2.7.5-3.936 1.1-1.207.572-2.33 1.527-2.693 2.84-.356 1.28-.02 2.725.915 3.624.942.917 2.413 1.03 3.515.52.554-.254 1.038-.684 1.3-1.226.28-.535.35-1.15.277-1.72-.154-1.15-.84-2.162-1.75-2.742-.912-.588-1.968-.804-2.955-.823-.994-.022-1.94.162-2.803.433-1.735.543-3.113 1.522-4.118 2.54a10.56 10.56 0 0 0-2.104 3c-.44.912-.613 1.684-.744 2.196l-.126.8.166-.8c.145-.507.33-1.27.778-2.17.435-.9 1.095-1.955 2.112-2.953 1.002-.998 2.368-1.955 4.08-2.48.85-.262 1.782-.438 2.756-.412.966.023 2 .24 2.864.807a3.74 3.74 0 0 1 1.663 2.62c.173 1.087-.4 2.292-1.477 2.75-1.037.482-2.426.367-3.296-.487-.874-.84-1.197-2.218-.857-3.425.34-1.232 1.408-2.152 2.587-2.7 1.195-.565 2.526-.885 3.872-1.07a15.47 15.47 0 0 1 4.028.01c1.32.164 2.572.566 3.82.915s2.526.626 3.793.5a5.95 5.95 0 0 0 3.335-1.493c1.857-1.614 2.337-4.254 1.636-6.27-.325-1.027-1.024-1.892-1.894-2.393-.436-.243-.927-.402-1.417-.38s-.96.206-1.302.525c-.696.644-.875 1.62-.73 2.42.142.828.678 1.483 1.268 1.9 1.216.833 2.556.875 3.54.76 1.006-.12 1.753-.378 2.256-.54l.76-.274"/></g><path d="M434.085 56.378l-4.9 6.273 11.694 9.234 7.25-9.102-.69-.62c-3.085-2.727-15.878-13.65-18.55-14.7-2.982-1.17 5.186 8.913 5.186 8.913" class="C"/><g clip-path="url(#R)" opacity=".4" class="F"><path d="M430.23 51.278s-2.69-3.755-1.802-3.984 14.23 10.32 19.71 15.49l-.225.246-15.46-12.44s-1.52 1.197-2.223.688"/></g><g class="B"><path d="M448.09 63.18c.004-.005-.06-.066-.184-.18l-.55-.49-2.052-1.77-6.916-5.67-7.104-5.434-2.194-1.592-.604-.422-.217-.137c-.004.005.064.062.196.167l.584.45 2.16 1.637 7.068 5.473 6.946 5.625 2.088 1.727.57.465.208.153"/><path d="M432.6 50.4c-.038-.04-.473.44-1.198.7-.72.272-1.363.185-1.367.24-.02.042.656.218 1.43-.07.777-.28 1.178-.85 1.136-.87m2.065 4.476c-.017-.047-.34.023-.723.157s-.68.28-.664.327.34-.022.724-.156.68-.28.663-.328m.55 1.25c-.003-.05-.285-.073-.63-.05s-.62.08-.617.13.284.072.63.05.62-.08.618-.13m-.275 1.577c.032-.04-.214-.3-.548-.56s-.63-.458-.662-.418.214.3.548.56.63.458.662.42"/><path d="M434.533 58.65c.04-.024-.15-.394-.524-.735s-.755-.505-.777-.462.302.267.655.594.602.632.646.603m-1.07-3.057c.013-.015-.247-.278-.755-.6a5.66 5.66 0 0 0-.94-.456c-.188-.063-.37-.145-.607-.173-.113-.01-.25-.005-.37.086a.38.38 0 0 0-.124.39c.424.94 1.462 1.103 2.022.943a1.72 1.72 0 0 0 .641-.307c.132-.105.188-.18.18-.188-.02-.03-.284.256-.85.37a1.72 1.72 0 0 1-.97-.09c-.328-.13-.722-.408-.848-.768-.05-.183.108-.286.304-.26.186.018.384.096.564.153a8.35 8.35 0 0 1 .933.4l.818.48"/><path d="M433.3 55.402c-.005-.018-.268.087-.5.452a1.58 1.58 0 0 0-.23.71c.001.272-.01.636.324.877.2.116.432-.016.505-.163a1.04 1.04 0 0 0 .137-.437c.037-.276.032-.527.005-.735-.054-.416-.17-.65-.2-.643-.028.007.043.252.062.654a3.32 3.32 0 0 1-.042.7c-.022.24-.177.58-.392.467-.202-.13-.246-.47-.243-.7a1.57 1.57 0 0 1 .173-.656c.185-.352.4-.492.4-.516M445.324 66.2c.02-.028-.36-.232-.84-.713-.476-.472-1.035-1.262-1.27-2.266a4.81 4.81 0 0 1 .137-2.594c.218-.642.467-.992.438-1-.01-.006-.08.074-.187.235s-.243.4-.37.732c-.257.64-.436 1.63-.193 2.678s.844 1.857 1.357 2.318a3.97 3.97 0 0 0 .656.49c.166.096.266.14.27.13"/><path d="M440.267 70.096c.04.03.934-1.008 2-2.32l1.86-2.435c-.038-.03-.933 1.007-2 2.32l-1.86 2.435m1.188-10.593c.034-.032-.63-.76-1.572-1.518s-1.792-1.254-1.818-1.214.772.6 1.704 1.355l1.686 1.377m2.288 1.814c.05-.006.065-.2.126-.447s.14-.426.1-.455-.207.136-.275.4.002.5.05.5m.013 1.76c.05-.005.07-.187.046-.404s-.083-.4-.133-.386-.07.187-.046.405.083.4.133.385m.846 1.468c.023-.046-.133-.167-.257-.363s-.176-.386-.226-.383c-.05-.004-.082.24.075.48s.4.312.408.266m.697.926c.043-.025.023-.138-.044-.252s-.156-.186-.2-.16-.024.138.044.252.156.186.2.16"/></g><g clip-path="url(#S)" class="D"><path d="M445.06 66.49l-11.83-9.037-1.094 1.422 12.43 8.428z"/></g><path d="M380.315 50.08l.02 7.954 14.9.054.092-11.637-.924-.062c-4.1-.244-20.917-.948-23.67-.124-3.068.918 9.58 3.815 9.58 3.815" class="C"/><g clip-path="url(#T)" opacity=".4" class="F"><path d="M374.136 48.443s-4.432-1.296-3.876-2.025 17.567-.657 25.068.032l-.025.333-19.842-.253s-.457 1.88-1.325 1.913"/></g><g class="B"><path d="M395.536 46.794c.001-.007-.088-.017-.256-.03l-.735-.047-2.707-.13-8.94-.195a266.15 266.15 0 0 0-8.942.105l-2.71.102-.735.04-.257.026c.001.006.09.01.258.01l.736-.006 2.71-.044 8.94-.053 8.938.143 2.708.07.737.013.257-.007"/><path d="M375.466 46.298c-.055-.007-.1.64-.5 1.3-.4.658-.958.986-.927 1.032.01.045.65-.232 1.08-.937.438-.7.402-1.396.357-1.386m4.387 2.25c-.042-.027-.254.228-.473.57s-.362.64-.32.667.254-.228.473-.57.362-.64.32-.667m1.203.652c-.033-.037-.27.12-.526.35s-.44.445-.408.482.27-.118.528-.348.44-.446.406-.483m.757 1.4c.001-.05-.348-.096-.777-.103s-.78.03-.78.08.347.094.777.1.78-.028.78-.078"/><path d="M382.07 51.593c.017-.045-.362-.218-.866-.256s-.906.07-.897.115c.008.052.403.025.882.065s.864.126.88.076m-2.73-1.75c.002-.02-.366-.066-.957.002a5.5 5.5 0 0 0-1.021.221c-.186.065-.38.114-.584.237-.095.063-.2.15-.238.297s.036.305.144.383c.913.478 1.83-.033 2.173-.504a1.72 1.72 0 0 0 .315-.638c.04-.163.036-.257.025-.258-.033-.012-.066.376-.44.815-.184.215-.462.423-.82.528-.338.1-.82.123-1.14-.083-.15-.113-.1-.292.078-.392.158-.1.362-.162.54-.227.364-.123.7-.203.988-.253l.938-.128"/><path d="M379.094 49.797c-.014-.01-.156.233-.113.664a1.56 1.56 0 0 0 .258.7c.168.213.384.507.794.5.223-.027.332-.28.298-.44-.017-.168-.1-.312-.16-.43-.14-.24-.302-.433-.45-.58-.3-.295-.535-.408-.546-.4-.017.023.2.172.452.476.13.153.273.345.4.576.13.203.22.567-.02.6-.24.022-.483-.218-.63-.4-.15-.208-.232-.432-.268-.623-.072-.4.018-.64-.013-.646m16.12 1.086c-.003-.034-.427.038-1.1-.044-.667-.077-1.593-.354-2.397-1s-1.274-1.492-1.492-2.127c-.225-.64-.244-1.068-.28-1.064-.01 0-.016.107-.002.3s.06.472.16.805c.192.662.662 1.553 1.5 2.228a4.59 4.59 0 0 0 2.498.986 3.83 3.83 0 0 0 .819-.018c.2-.026.295-.054.293-.065"/><path d="M393.644 57.062c.05.001.113-1.37.142-3.06l-.038-3.063c-.05 0-.114 1.37-.142 3.06l.038 3.063m-5.6-9.07c.007-.046-.963-.2-2.174-.225s-2.184.12-2.18.165c.005.053.978-.002 2.178.016l2.176.044"/><path d="M390.964 48c.037-.037-.078-.207-.177-.43s-.15-.422-.203-.42-.078.236.038.494.3.4.342.356m1.094 1.384c.036-.035-.06-.2-.213-.348s-.307-.256-.343-.22.06.2.214.347.307.255.342.22m1.572.632c-.01-.05-.208-.05-.427-.127s-.376-.195-.415-.162c-.04.027.085.24.357.332s.5.004.485-.043m1.12.3c.018-.047-.067-.124-.2-.172s-.24-.05-.257-.004.067.123.2.172.238.05.257.004"/></g><g clip-path="url(#U)" class="D"><path d="M395.328 51.468l-15.02-.016.016 1.794 14.95.1z"/></g><g class="K"><path d="M417.092 187.362l-5.966-17.965c-1.61-4.85-5.85-5.682-10.963-5.682h-33.186v7.445l30.32 4.33 7.225 18.458z"/><path d="M363.33 172.707l-2.633 1.246s-2.837 5.486-3.49 5.267-.84-1.834.298-4.355l-3.498 1s-7.584-3.504-7.25-3.975.957-1.6 2.61-.745l3.816 1.835 4.086-1.167-5.27-.668-4.956-4.5s1.628-1.217 3.03.075l12.872-2.766 4.032-.228v7.445z"/></g><g class="L"><path d="M350.073 166.7c.055-.036.294.345.758.85.234.248.548.507.937.724.374.2.86.3 1.4.363 2.145.254 3.876.55 3.863.66s-1.763-.005-3.912-.26c-.54-.065-1.088-.172-1.527-.44-.42-.258-.743-.568-.967-.86-.438-.6-.58-1.012-.542-1.035m2.004-.52c.05-.001.1.266.45.343.368.067.954.136 1.564.2 1.236.125 2.253.115 2.263.23.013.108-1.022.3-2.302.17-.644-.07-1.193-.172-1.62-.332-.22-.1-.363-.27-.4-.404s.012-.212.036-.207"/></g><path d="M419.904 191.28l-2.552-8.646-16.198 7.334c.582 1.81 3.262 9.873 8.4 22.667 2.857 7.13 9.214 12.274 16.8 13.535 5.3.88 11.068 1.57 15.51 1.52 9.083-.1 22.455-5.777 24.25-14.68 1.372-6.797.05-18.796.05-33.375l-1.185-27.858-46.545-1.58z" class="C"/><g clip-path="url(#V)" class="D"><path d="M466.094 186.08c-5.664-1.158-11.48.01-17.25.352-3.5.208-7.38.585-10.148-1.565-2.196-1.705-3.08-4.572-3.712-7.28-2.414-10.316-2.854-17.23-3.396-27.81l28.018-1.698z"/></g><g class="B"><path d="M418.7 221.513c-.007-.04.466-.068 1.237-.372.76-.312 1.805-.975 2.68-2.17.9-1.18 1.487-2.892 1.603-4.85.135-1.958-.155-4.126-.5-6.38-.718-4.513-1.816-8.516-2.6-11.4l-.94-3.426c-.218-.812-.326-1.264-.3-1.272s.186.43.45 1.226l1.064 3.394c.855 2.877 2 6.882 2.725 11.426.337 2.267.62 4.457.462 6.47-.137 2.007-.8 3.8-1.745 4.994-.94 1.22-2.053 1.87-2.853 2.146a4.61 4.61 0 0 1-.953.217c-.223.02-.34.023-.34.008m-17.05-29.34c-.024-.048.844-.555 2.282-1.3l5.7-2.765 5.854-2.45 2.5-.844c.02.054-.897.46-2.384 1.107l-5.796 2.554-5.75 2.653-2.408 1.053m-7.418-44.093c-7.93-4.326-10.94-14.202-6.773-22.217l40.512-69.556 18.7 11.3-31.46 62.8 22.8 14.884"/><path d="M443.566 151.527l-55.613-1.968c-9.03-.32-16.14-7.804-16-16.837l2.31-79.43 23.39.05-.78 75.1 46.695 1.23z"/></g><g class="H"><path d="M396.87 125.73c.018 0 .04-.252.066-.734l.09-2.108.2-7.756.283-25.59.167-35.46-.037-.737s-.04.252-.067.734l-.09 2.108-.21 7.755L397 89.537l-.168 35.456.038.736"/><path d="M467.658 201.934h-16.825c-6.774 0-12.264-5.5-12.264-12.264v-58.7h-33.615c-4.69 0-8.492-3.803-8.492-8.493h76.753c0 .017-.002.032-.002.05 3.73.16 6.71 3.225 6.71 6.995v60.15c0 6.774-5.492 12.264-12.264 12.264"/></g><path d="M443.46 199.998c.144 0 .26-17.25.26-38.526l-.26-38.53c-.144 0-.26 17.247-.26 38.53l.26 38.526" class="B"/><path d="M441.335 60.865v61.58h-5.47v-61.58c-3.34-6.584-11.2-11.038-20.754-14.685h48.765c-9.903 4.024-18.84 7.113-22.54 14.685" class="H"/></g><g clip-path="url(#W)"><path d="M133.274 68.836c-.008.005.044.128.152.365l.5 1.045c.416.923.958 2.32 1.44 4.183.953 3.718 1.285 9.4-.123 16.15-.654 3.38-1.71 7.005-2.996 10.85-1.268 3.85-2.74 7.935-3.943 12.35-1.2 4.406-2.128 9.19-1.947 14.202.182 5.023 1.67 10.037 3.305 15.028 1.632 5 3.32 9.886 3.826 14.8.57 4.906-.48 9.722-2.714 13.67-2.165 3.988-4.888 7.4-6.927 10.932-2.07 3.523-3.365 7.144-4.163 10.51-1.547 6.8-1.005 12.512-.264 16.282.804 3.79 1.7 5.75 1.7 5.75.01-.004-.025-.133-.1-.383l-.344-1.1c-.3-.97-.688-2.416-1.056-4.305-.677-3.763-1.156-9.445.422-16.16.814-3.33 2.115-6.904 4.178-10.377 2.033-3.49 4.77-6.89 6.976-10.924 2.282-3.99 3.38-8.963 2.798-13.946-.51-4.998-2.21-9.917-3.838-14.9-1.635-4.987-3.105-9.948-3.3-14.887s.73-9.673 1.9-14.057c1.184-4.394 2.64-8.48 3.89-12.34 1.272-3.856 2.313-7.5 2.947-10.914 1.37-6.8.98-12.54-.042-16.272-.516-1.867-1.09-3.263-1.54-4.176l-.538-1.025c-.124-.23-.19-.345-.2-.34" class="B"/><path d="M126.605 178.926s-4.14 13.235 3.286 20.984a.46.46 0 0 0 .787-.227c.396-2.186.89-8.843-4.073-20.757" class="C"/><path d="M129.085 195.5c.07-.014-.048-.944-.28-2.44l-.944-5.838-.926-5.837-.44-2.416c-.067.005-.06.947.074 2.46l.78 5.877 1.096 5.82.64 2.374" class="B"/><path d="M131.467 147.7s2.53 13.635 12.718 17.012a.46.46 0 0 0 .589-.569c-.672-2.117-3.348-8.233-13.307-16.443" class="C"/><path d="M141.4 161.2c.056-.046-.484-.813-1.388-2.028l-3.565-4.72-3.55-4.726-1.517-1.93c-.057.036.4.865 1.216 2.14l3.437 4.83 3.7 4.633 1.676 1.8" class="B"/><path d="M128.714 113.506s-1.538 13.78 7.23 19.972a.46.46 0 0 0 .729-.373c-.028-2.22-.812-8.85-7.958-19.6" class="C"/><path d="M134.31 129.302c.066-.027-.228-.92-.74-2.344l-2.04-5.55-2.023-5.553-.89-2.288c-.065.017.12.94.542 2.4l1.885 5.62 2.186 5.506 1.08 2.21" class="B"/><path d="M136.388 79.1s-1.043 13.827 7.94 19.7c.316.206.734-.022.715-.4-.107-2.218-1.128-8.816-8.654-19.3" class="C"/><path d="M142.547 94.687c.065-.03-.26-.91-.823-2.315l-2.238-5.474-2.22-5.478-.972-2.254c-.064.02.155.936.628 2.38l2.085 5.55 2.382 5.424 1.16 2.17" class="B"/><path d="M120.657 190.554s-12.292 6.42-12.533 17.148a.46.46 0 0 0 .717.396c1.827-1.263 6.89-5.614 11.816-17.544" class="C"/><path d="M110.676 204.017c.06.04.635-.702 1.532-1.923l3.465-4.792 3.478-4.78 1.4-2.016c-.05-.044-.713.626-1.69 1.8l-3.6 4.702-3.347 4.887-1.23 2.13" class="B"/><path d="M133.857 162.13s-12.66 5.66-13.55 16.356a.46.46 0 0 0 .691.439c1.9-1.15 7.217-5.186 12.86-16.795" class="C"/><path d="M123.077 174.962c.057.044.676-.66 1.645-1.825l3.75-4.572 3.76-4.56 1.52-1.928c-.048-.047-.75.582-1.794 1.685l-3.888 4.473-3.638 4.676-1.356 2.05" class="B"/><path d="M126.572 130.425s-8.692 10.806-4.615 20.732a.46.46 0 0 0 .815.077c1.17-1.89 4.064-7.905 3.8-20.81" class="C"/><path d="M122.82 146.76c.07.012.3-.897.633-2.375l1.256-5.778 1.272-5.773.475-2.408c-.064-.02-.402.86-.83 2.316l-1.424 5.754-1.11 5.82-.273 2.444" class="B"/><path d="M135.182 93.114s-12.563 5.873-13.275 16.58a.46.46 0 0 0 .699.428c1.88-1.182 7.13-5.307 12.576-17.01" class="C"/><g class="B"><path d="M124.62 106.126c.058.042.665-.673 1.615-1.854l3.672-4.634 3.684-4.622 1.488-1.953c-.05-.046-.74.594-1.766 1.714l-3.813 4.54-3.558 4.736-1.322 2.074m35.584 41.508c.012-.001.017-.104.016-.306l-.022-.886-.15-3.363-.658-12.018-.003-.018c-.897-5.017-3.453-10.58-6.885-15.98-2.518-3.978-5.158-7.594-7.434-10.958-2.292-3.354-4.226-6.46-5.574-9.213-1.357-2.75-2.146-5.1-2.607-6.76l-.483-1.917c-.103-.44-.166-.67-.183-.667s.01.24.08.688c.062.45.197 1.105.4 1.947.404 1.675 1.147 4.077 2.473 6.87 1.317 2.797 3.233 5.944 5.507 9.32 2.26 3.388 4.887 7 7.392 10.967 3.414 5.373 5.957 10.85 6.887 15.788l-.004-.028.843 11.996.27 3.354.1.883c.024.2.042.302.054.3"/></g><use xlink:href="#k" class="C"/><path d="M151.756 132.828c.07.008.234-.918.422-2.423l.564-5.896.243-5.923c-.003-1.52-.082-2.457-.15-2.456-.076.001-.127.935-.218 2.445l-.394 5.898-.41 5.898-.057 2.457" class="B"/><g clip-path="url(#X)" class="D"><use xlink:href="#k"/></g><use xlink:href="#l" class="C"/><path d="M133.924 101.835c.07.013.308-.896.617-2.38l1.04-5.83.723-5.884c.12-1.514.118-2.456.05-2.46-.076-.005-.203.923-.415 2.42l-.87 5.846-.9 5.847-.255 2.444" class="B"/><g clip-path="url(#Y)" class="D"><use xlink:href="#l"/></g><use xlink:href="#m" class="C"/><g clip-path="url(#Z)" class="D"><use xlink:href="#m"/></g><path d="M167.658 146.386c.064-.03-.295-.9-.944-2.27l-2.687-5.278-2.973-5.13c-.817-1.28-1.387-2.03-1.443-1.993-.064.04.395.858 1.128 2.18l2.83 5.188 2.818 5.2 1.27 2.104" class="B"/><use xlink:href="#n" class="C"/><g clip-path="url(#a)" class="D"><use xlink:href="#n"/></g><path d="M154.6 107.868c.043-.057-.662-.678-1.848-1.623l-4.737-3.555-4.928-3.296c-1.298-.79-2.14-1.212-2.174-1.153s.733.597 1.974 1.46l4.827 3.41 4.82 3.427 2.067 1.33" class="B"/><path d="M127.756 73.103l-3.997-26.9h24.908l-3.23 26.9z" class="H"/><g class="B"><path d="M146.433 64.767c0-.143-4.498-.26-10.044-.26s-10.044.116-10.044.26 4.496.26 10.044.26 10.044-.116 10.044-.26m.494-2.14c0-.143-4.645-.26-10.373-.26s-10.374.116-10.374.26 4.644.26 10.374.26 10.373-.116 10.373-.26"/></g></g></g></g></svg>