<svg xmlns="http://www.w3.org/2000/svg" xmlns:xlink="http://www.w3.org/1999/xlink" height="300" width="600" xmlns:v="https://vecta.io/nano"><style><![CDATA[.B{font-weight:800}.C{font-family:Montserrat Extra Bold}.D{writing-mode:lr-tb}.E{fill:#ea4a66}.F{fill:#64d0da}.G{fill:#ffc65b}.H{fill:#877beb}.I{fill:#fff}.J{fill:#af2e56}.K{fill:#ff9f2c}.L{fill:#33afaf}.M{fill:none}.N{stroke:#4f4f4f}.O{stroke-miterlimit:10}.P{fill:#5b52af}.Q{fill:#ffb92c}.R{fill:#d14261}.S{font-size:9.633px}.T{font-size:5.777px}.U{fill:#6a6acc}.V{fill:#3dc1c1}.W{fill:#e25488}.X{fill:#fe7297}.Y{stroke-dasharray:1.807, 1.807}.Z{stroke-dasharray:2.008, 2.008}.a{stroke-dasharray:1.959, 1.959}.b{stroke-dasharray:2.175, 2.175}.c{stroke-dasharray:2.17, 2.17}]]></style><defs><clipPath id="A"><path d="M0 500h500V0H0z"/></clipPath><path id="B" d="M64.633 418.214v-9.753l5.17 2.985 1.52-1.514 2.82 4.02 3.87 2.234v9.753z"/><path id="C" d="M223.39 111.982c0-3.276-4.644-5.93-10.372-5.93s-10.372 2.655-10.372 5.93 4.644 5.93 10.372 5.93 10.372-2.655 10.372-5.93"/></defs><g transform="matrix(1.333333 0 0 -1.333333 0 666.66667)"><path d="M104.25 260.287h240v240h-240z" class="I"/><path d="M152.523 456.227v-7.32l21.2 2.948v7.32z" class="J"/><g clip-path="url(#A)" transform="matrix(.48 0 0 .48 104.76303 272.84942)"><path d="M99.5 382.036l44.17 6.142c-4.3 10.07-18.924 17.84-37.13 19.452z" class="E"/><path d="M111.435 380.013V361.76l24.722-21.734v18.253z" class="Q"/><path d="M139.16 369.75l-3.003-11.47v-18.252c12.48 4.617 20.744 12.624 20.744 21.734v17.69z" class="K"/><path d="M136.158 358.278c12.48 4.618 20.744 12.624 20.744 21.734 0 2.117-.456 4.173-1.297 6.142l-44.17-6.142z" class="G"/><path d="M124.223 360.302l-70.19 21.734v-18.253c0-14.305 20.356-25.903 45.467-25.903 9.12 0 17.604 1.536 24.722 4.17z" class="L"/><path d="M106.54 407.625l-7.038.314c-25.11 0-45.467-11.597-45.467-25.903S74.4 356.133 99.5 356.133c9.12 0 17.604 1.536 24.722 4.17L99.5 382.036z" class="F"/><g class="M N O"><path d="M71.323 411.527v-1"/><path d="M71.323 408.52v-23.09" class="Z"/><path d="M71.323 384.426v-1m39.973 29.764v-1"/><path d="M111.296 410.232v-10.776" class="a"/><path d="M111.296 398.477v-1m15.524-5.02v-1"/><path d="M126.82 389.5v-10.776" class="a"/><path d="M126.82 377.744v-1"/></g><use xlink:href="#B" class="F"/><text transform="matrix(.866025 .5 0 -.866025 65.6165 412.2959)" class="B C D I T"><tspan x="0 3.507 7.597" y="0">70%</tspan></text><path d="M104.606 419.642v-9.753l5.17 2.985 1.52-1.514 2.82 4.02 3.87 2.234v9.753z" class="E"/><text transform="matrix(.866025 .5 0 -.866025 105.5898 413.7231)" class="B C D I T"><tspan x="0 2.455 5.945" y="0">15%</tspan></text><path d="M120.13 397.93v-9.753l5.17 2.985 1.52-1.514 2.82 4.02 3.87 2.234v9.753z" class="G"/><text transform="matrix(.866025 .5 0 -.866025 121.1148 392.0127)" class="B C D I T"><tspan x="0 2.455 5.945" y="0">15%</tspan></text><path d="M267.44 374.596v40.008l10.27-5.928v-40.01z" class="U"/><path d="M267.44 414.604l10.27 5.93 10.27-5.93-10.27-5.928z" class="H"/><path d="M277.7 408.676v-40.008l10.27 5.928v40.01z" class="P"/><path d="M249.783 364.42v72.23l10.27-5.93V358.5z" class="V"/><path d="M249.783 436.65l10.27 5.93 10.27-5.93-10.27-5.928z" class="F"/><path d="M260.053 430.72v-72.23l10.27 5.93v72.23z" class="L"/><path d="M232.126 418.12l10.27 5.93 10.27-5.93-10.27-5.928z" class="G"/><path d="M242.395 412.192v-63.875l10.27 5.93v63.875z" class="K"/><path d="M232.126 354.246v63.875l10.27-5.93v-63.875z" class="Q"/><path d="M214.468 383.426l10.27 5.93 10.27-5.93-10.27-5.928z" class="E"/><path d="M224.737 377.497V338.07l10.27 5.928v39.427z" class="J"/><path d="M214.468 344v39.426l10.27-5.928V338.07z" class="R"/><path d="M243.037 332.247l2.543 1.47-4.252.97zm1.145-1.612l.837-1.19-3.32-1.918-4.755 7.737 3.202 1.85 13.55-2.66-3.2-1.848-2.08.475z" class="E"/><path d="M258.927 343.287l1.885 1.088c.793.458.977.922.483 1.207-.53.306-1.36.215-2.153-.243l-1.885-1.088zm3.38-1.952l1.883 1.088c.614.355.718.744.252 1.014-.48.276-1.18.23-1.792-.124l-1.885-1.088zm-1.078-2.954l-9.077 5.24 5.37 3.1c2.513 1.452 5.114 1.815 6.668.918 1.15-.665 1.236-1.663.183-2.54 1.363.474 2.816.43 3.735-.1 1.398-.807.72-2.23-1.73-3.647z" class="G"/><path d="M283.52 351.64c-3.246-1.874-7.595-2.126-10.237-.602-2.68 1.548-2.327 4.056.86 5.895 1.586.916 3.992 1.513 6.19 1.557l-.138-1.994c-1.35-.05-2.738-.372-3.546-.837-1.422-.82-1.488-2.026-.154-2.796s3.408-.724 4.83.097c.867.5 1.36 1.34 1.294 2.137l3.635-.025c-.08-1.18-1.148-2.516-2.734-3.432" class="F"/><path d="M298.045 362.532l1.42.82c1.497.863 1.558 2.02.094 2.865-1.45.837-3.366.838-4.787.017l-1.57-.907zm-.987-3.023l-9.078 5.24 4.487 2.59c3.457 1.996 7.558 2.27 10.29.692s2.288-3.912-1.107-5.872z" class="H"/><path d="M407.815 327.527l-52.027 30.038v12.168l52.027-30.038z" class="V"/><path d="M459.843 369.733l-52.027-30.038v-12.168l52.027 30.038z" class="L"/><path d="M407.815 399.77l-52.027-30.038 52.027-30.038 52.027 30.038z" class="F"/><g class="M N O"><path d="M403.63 423.647v-1"/><path d="M403.63 420.64v-23.09" class="Z"/><path d="M403.63 396.546v-1"/></g><text transform="matrix(.866025 .5 0 -.866025 397.9229 422.52)" class="B C D G T"><tspan x="0 2.455 5.945" y="0">15%</tspan></text><g class="M N O"><path d="M390.882 410.16v-1"/><path d="M390.882 406.984V390.67" class="b"/><path d="M390.882 389.582v-1"/></g><text transform="matrix(.866025 .5 0 -.866025 385.1753 409.0332)" class="B C D E T"><tspan x="0 3.276 6.765" y="0">35%</tspan></text><g class="M N O"><path d="M378.547 397.53v-1"/><path d="M378.547 394.354V378.04" class="b"/><path d="M378.547 376.95v-1"/></g><text transform="matrix(.866025 .5 0 -.866025 372.8395 395.5068)" class="B C D F T"><tspan x="0 3.49 7.58" y="0">50%</tspan></text><path d="M371.908 381.9l35.908 20.73 35.906-20.73-35.906-20.73z" class="E"/><path d="M407.815 361.17v-12.168l35.907 20.73v12.17z" class="J"/><path d="M371.908 369.733V381.9l35.907-20.73v-12.17z" class="R"/><path d="M388.028 394.07l19.787 11.424 19.787-11.424-19.787-11.423z" class="G"/><path d="M407.815 382.646v-12.168l19.787 11.423v12.168z" class="K"/><path d="M388.028 381.902v12.168l19.787-11.423V370.48z" class="Q"/><path d="M133.584 296.563l27.963-46.917-29.18-16.846z" class="J"/><path d="M133.584 296.563l-.974-51.015 23.346 13.478z" class="K"/><path d="M133.584 296.563l-.73-38.267 17.513 10.1z" class="L"/><path d="M133.584 296.563l-.487-25.52 11.678 6.742z" class="P"/><path d="M133.584 296.563l-.244-12.77 5.845 3.374z" class="W"/><path d="M103.185 249.646l30.4 46.917-1.218-63.763z" class="R"/><path d="M133.584 296.563l-24.31-37.518 23.336-13.47z" class="Q"/><path d="M133.584 296.563l-18.253-28.17 17.522-10.115z" class="V"/><path d="M133.584 296.563l-12.197-18.825 11.71-6.76z" class="U"/><path d="M133.584 296.563l-6.14-9.478 5.895-3.404z" class="X"/><path d="M96.16 286.9l43.02-72.183-44.894-25.918z" class="J"/><path d="M96.16 286.9l-1.5-78.487 35.92 20.736z" class="K"/><path d="M96.16 286.9l-1.124-58.874 26.943 15.554z" class="L"/><path d="M96.16 286.9l-.75-39.26 17.968 10.372z" class="P"/><path d="M96.16 286.9l-.375-19.648 8.992 5.19z" class="W"/><path d="M49.4 214.727L96.16 286.9l-1.873-98.1z" class="R"/><path d="M96.16 286.9l-37.4-57.72 35.9-20.726z" class="Q"/><path d="M96.16 286.9l-28.082-43.342 26.957-15.562z" class="V"/><path d="M96.16 286.9l-18.765-28.962 18.013-10.4z" class="U"/><path d="M96.16 286.9l-9.448-14.583 9.07-5.235z" class="X"/><text transform="matrix(.86603 .499992 0 -.86603 96.9352 269.9156)" font-size="4.136" class="B C D I"><tspan x="0 2.498" y="0">5%</tspan></text><text transform="matrix(.866022 .500006 0 -.866022 98.7797 255.0015)" font-size="5.171" class="B C D I"><tspan x="0 2.197 5.858" y="0">10%</tspan></text><text transform="matrix(.866028 .499996 0 -.866028 103.8118 237.8599)" font-size="6.205" class="B C D I"><tspan x="0 2.637 6.385" y="0">15%</tspan></text><text transform="matrix(.866026 .499999 0 -.866026 106.7668 221.1401)" font-size="7.239" class="B C D I"><tspan x="0 4.38 8.752" y="0">25%</tspan></text><text transform="matrix(.866025 .500001 0 -.866025 110.2698 203.9565)" font-size="8.273" class="B C D I"><tspan x="0 5.377 10.374" y="0">45%</tspan></text><path d="M48.094 94.52l10.538 6.084 55.638-30.607-10.538-6.084z" class="G"/><path d="M114.27 69.996v-6.5l-10.537-6.084v6.49z" class="K"/><path d="M48.094 88.03v6.5l55.638-30.606v-6.49z" class="Q"/><path d="M53.363 112.718l10.538 6.084 69.205-37.993-10.537-6.083z" class="F"/><path d="M133.106 80.81v-6.5l-10.537-6.084v6.49z" class="L"/><path d="M53.363 106.228v6.5l69.206-37.992v-6.5z" class="V"/><path d="M97.638 109.582l10.538 6.084 43.767-24.043-10.538-6.084z" class="H"/><path d="M151.943 91.623v-6.5l-10.537-6.084v6.49z" class="P"/><path d="M97.638 103.092v6.5l43.767-24.042v-6.49z" class="U"/><path d="M129.572 113.34l10.538 6.084 30.67-16.986-10.537-6.084z" class="E"/><path d="M170.78 102.436v-6.5l-10.537-6.084v6.49z" class="J"/><path d="M129.572 106.848v6.5l30.67-16.985v-6.49z" class="R"/><path d="M51.622 123.76l.001 9.976-2.174-1.255 5.748 11.077 6.718-3.88-3.11-1.795v-9.976z" class="F"/><path d="M93.578 114.853l.001 9.976-2.174-1.255 5.748 11.077 6.718-3.88-3.11-1.795V119z" class="H"/><path d="M127.223 118.132l.001 9.976-2.174-1.255 5.748 11.077 6.718-3.88-3.11-1.795v-9.976z" class="E"/><path d="M42.33 100.603v9.976l-2.174-1.255 5.748 11.077 6.718-3.88-3.11-1.795v-9.976z" class="G"/><g class="I"><path d="M101.92 70.537l1.736 1.002-2.902.662zm.78-1.1l.572-.813-2.267-1.3-3.245 5.28 2.185 1.26 9.248-1.814L107 70.78l-1.42.324zm15.944 12.588l1.286.742c.542.313.667.63.33.824-.36.2-.928.147-1.47-.166l-1.286-.742zm2.307-1.332l1.286.743c.42.24.5.507.172.7-.327.2-.805.157-1.224-.084L119.9 81.3zm-.735-2.016l-6.195 3.577 3.665 2.116c1.715 1 3.5 1.24 4.55.626.786-.453.844-1.135.126-1.734.93.323 1.92.294 2.55-.07.954-.55.5-1.522-1.182-2.488zm22.316 13.13c-2.215-1.28-5.184-1.45-6.986-.4-1.83 1.056-1.6 2.767.587 4.023 1.082.624 2.724 1.032 4.225 1.062l-.094-1.36c-.923-.034-1.87-.253-2.42-.57-.97-.56-1.015-1.383-.105-1.908s2.326-.494 3.296.066c.592.342.93.913.883 1.46l2.48-.018c-.055-.806-.784-1.717-1.866-2.342m15.564 10.676l.97.56c1.02.6 1.063 1.38.064 1.956a3.36 3.36 0 0 1-3.267.011l-1.072-.62zm-.674-2.063l-6.195 3.577 3.062 1.768c2.36 1.362 5.158 1.55 7.023.472s1.562-2.67-.755-4.007z"/></g><text transform="matrix(.866027 .499998 0 -.866027 280.6549 257.6152)" class="B C D E S"><tspan x="0 5.462 11.28" y="0">35%</tspan><tspan y="-53.992" x="-38.175 -32.347 -25.527">20%</tspan><tspan y="-44.571" x="-81.88 -77.785 -71.967">15%</tspan></text><path d="M276.263 280.34v-53.965l-14.276-14.8-11.084 14.674 1.008 34.895z" class="P"/><path d="M231.913 273.69v-52.603H264v47.34z" class="U"/><path d="M264 255.425l12.273 24.915a77.38 77.38 0 0 1-12.273.971c-12.535 0-23.88-2.915-32.077-7.622z" class="H"/><path d="M287.554 217.433l-3.79-7.657V184.22c15.09 4.198 25.493 13.048 25.493 23.29l-.022 20.835z" class="K"/><path d="M309.26 227.553c0 11.863-13.96 21.855-32.996 24.915L264 227.553l19.618-23.335c15.177 4.18 25.65 13.058 25.65 23.335" class="G"/><path d="M218.72 207.508c0-3.144.982-6.156 2.776-8.943l11.88 14.095-14.655 30.88z" class="R"/><path d="M231.913 261.08c-8.152-4.68-13.192-11.136-13.192-18.264 0-3.144.982-6.156 2.776-8.943L264 242.816z" class="E"/><path d="M221.498 233.872v-35.307L264 190.898v51.917z" class="J"/><path d="M221.498 227.445v-28.88c6.367-9.89 22.99-16.942 42.492-16.942 7.03 0 13.683.916 19.618 2.55v29.09l-61.986 14.363c-.04-.06-.085-.12-.124-.18" class="L"/><path d="M264 210.71c7.03 0 13.683.916 19.618 2.55L264 236.597l-42.492-8.943c6.367-9.89 22.988-16.943 42.492-16.943" class="F"/><g class="M N O"><path d="M289.744 258.64v-1"/><path d="M289.744 255.723v-22.04" stroke-dasharray="1.917, 1.917"/><path d="M289.744 232.724v-1m-44.404 15.752v-1"/><path d="M245.34 244.383v-24.07" stroke-dasharray="2.093, 2.093"/><path d="M245.34 219.266v-1m13.236 68.692v-1"/><path d="M258.576 284.15v-13.554" class="Y"/><path d="M258.576 269.694v-1m-30.894-6.084v-1"/><path d="M227.682 259.8v-13.554" class="Y"/><path d="M227.682 245.344v-1"/></g><text transform="matrix(.866027 .499998 0 -.866027 237.0095 244.3442)" class="B C D F S"><tspan x="0 5.462 12.282" y="0">30%</tspan></text><path d="M296.33 117.21c.33-3.26-4.644-5.93-10.372-5.93s-10.372 2.655-10.372 5.93v33.466h20.744z" class="P"/><path d="M223.39 74.747c.33-3.26-4.644-5.93-10.372-5.93s-10.372 2.655-10.372 5.93v37.235h20.744z" class="K"/><path d="M272.017 103.056c.33-3.26-4.644-5.93-10.372-5.93s-10.372 2.655-10.372 5.93v65.413h20.744z" class="J"/><use xlink:href="#C" class="G"/><path d="M247.704 88.902c.33-3.26-4.644-5.93-10.372-5.93s-10.372 2.655-10.372 5.93v60.576h20.744z" class="L"/><path d="M247.704 149.478c0-3.276-4.644-5.93-10.372-5.93s-10.372 2.655-10.372 5.93 4.644 5.93 10.372 5.93 10.372-2.655 10.372-5.93" class="F"/><path d="M272.017 168.47c0-3.276-4.644-5.93-10.372-5.93s-10.372 2.655-10.372 5.93 4.644 5.93 10.372 5.93 10.372-2.655 10.372-5.93" class="E"/><path d="M296.33 150.677c0-3.276-4.644-5.93-10.372-5.93s-10.372 2.655-10.372 5.93 4.644 5.93 10.372 5.93 10.372-2.655 10.372-5.93" class="H"/><path d="M241.335 64.18l3.103 1.79-5.188 1.184zm1.396-1.966l1.022-1.453-4.052-2.34-5.8 9.437 3.906 2.255 16.53-3.243-3.905-2.254-2.537.58z" class="G"/><path d="M260.72 77.647l2.3 1.327c.968.558 1.192 1.125.6 1.473-.646.373-1.66.262-2.627-.297l-2.3-1.327zm4.124-2.38l2.298 1.327c.748.433.875.908.307 1.236-.584.338-1.438.282-2.187-.15l-2.3-1.326zm-1.314-3.603l-11.074 6.393 6.55 3.783c3.066 1.77 6.238 2.214 8.134 1.12 1.405-.81 1.508-2.03.224-3.1 1.663.577 3.434.524 4.556-.123 1.706-.985.878-2.72-2.112-4.45z" class="F"/><path d="M290.718 87.837c-3.96-2.286-9.265-2.594-12.487-.734-3.27 1.888-2.84 4.948 1.05 7.19 1.935 1.117 4.87 1.845 7.552 1.9l-.168-2.433c-1.65-.06-3.34-.453-4.327-1.02-1.734-1-1.814-2.472-.187-3.41s4.157-.883 5.89.118c1.058.61 1.66 1.633 1.577 2.608l4.435-.03c-.098-1.44-1.4-3.07-3.335-4.187" class="E"/><path d="M308.437 101.123l1.734 1c1.826 1.053 1.9 2.465.114 3.495-1.767 1.02-4.106 1.022-5.84.022l-1.916-1.108zm-1.204-3.687l-11.074 6.393 5.474 3.16c4.217 2.435 9.22 2.77 12.553.844s2.79-4.77-1.35-7.163z" class="H"/><path d="M424.905 298.423l3.47-2.145-3.47-40.835L353.83 214.4v43.76c.807 4.678 1.876 8.206 4.574 12.222 3.162 4.71 8.3 2.777 11.797-.442 4.072-3.75 8.444-4.957 13.554-2.163 6.603 3.612 10.906 10.884 14.867 17.002 1.534 2.37 3.865 6.993 7.433 6.292 2.425-.477 3.238-3.346 5.312-4.4 2.16-1.107 5.163-.64 6.537 1.465 1.546 2.37 1.42 5.48 2.047 8.143.766 3.25 2.337 3.5 4.954 2.145" class="E"/><path d="M428.375 296.278v-42.98L357.3 212.265v43.76c.807 4.678 1.876 8.206 4.574 12.222 3.162 4.71 8.3 2.777 11.797-.442 4.072-3.75 8.444-4.957 13.554-2.163 6.603 3.612 10.906 10.884 14.867 17.002 1.534 2.37 3.865 6.993 7.433 6.292 2.425-.477 3.238-3.346 5.312-4.4 2.16-1.107 5.163-.64 6.537 1.465 1.546 2.37 1.42 5.48 2.047 8.143.766 3.25 2.286 2.698 4.954 2.145" class="J"/><path d="M353.83 257.998v-43.78l3.476-1.953v43.78z" class="R"/><path d="M431.366 291.495c-3.73-.6-3.84-6.71-8.39-5.125-1.28.446-2.323 1.385-3.262 2.363-3.23 3.366-6.97 7.318-11.8 4.013-1.858-1.27-3.144-3.223-4.127-5.248-3.223-6.646-4.364-14.14-7.97-20.605-1.138-2.04-2.257-4.19-4.5-5.172-2.856-1.245-5.598-.1-8.03 1.478-1.496.976-3 2.025-4.88 1.715-4.057-.666-4.845-6.17-6.81-9.03-1.374-2-4.106-5.37-6.773-3.393v-44.246l3.38-2.044 67.695 43.076 2.974 39.05-2.974 1.64c-1.256 1.106-2.89 1.794-4.522 1.527" class="H"/><path d="M364.813 252.49v-44.337l3.476-1.953v44.337z" class="U"/><path d="M434.842 289.45c-3.73-.6-3.84-6.71-8.39-5.125-1.28.446-2.323 1.385-3.262 2.363-3.23 3.366-6.97 7.318-11.8 4.013-1.858-1.27-3.144-3.223-4.127-5.248-3.223-6.646-4.364-14.14-7.97-20.605-1.138-2.04-2.257-4.19-4.5-5.172-2.856-1.245-5.598-.1-8.03 1.478-1.496.976-3 2.025-4.88 1.715-4.057-.666-4.845-6.17-6.81-9.03-1.374-2-4.106-5.278-6.773-3.302V206.2l71.076 41.032v40.692c-1.256 1.106-2.89 1.794-4.522 1.527" class="P"/><path d="M441.896 285.103c-1.084-.762-1.572-1.61-2.298-2.717-1.88-2.87-3.006-6.568-6.034-8.514-.838-.538-1.88-.838-2.842-.582-1.11.296-1.902 1.25-2.888 1.84-3.513 2.1-7.157-1.278-9.144-3.934s-3.377-5.808-5.44-8.37c-2.372-2.943-5.896-5.772-9.927-5.127-1.474.235-4.255 2.614-4.255 2.614l-2.71 1.584c-1.017.506-2.074.74-3.212.4-2.073-.62-3.228-2.938-4.022-4.77-1-2.3-1.712-4.725-2.43-7.13-.318-1.067-.737-2.138-1.497-2.95-1.936-2.072-4.632 3.183-4.632 3.183l-2.666 1.458c-.865.567-1.684.885-3.064.705V202.3l3.476-1.905 67.6 42.938 1.625 40.504-2.74 1.558c-.962.555-2.217.186-2.897-.292" class="F"/><path d="M445.686 283.434c-1.084-.762-1.885-1.845-2.612-2.954-1.88-2.87-3.005-6.568-6.034-8.513-.837-.538-1.88-.84-2.84-.582-1.11.296-1.903 1.25-2.888 1.84-3.513 2.1-7.157-1.28-9.144-3.935s-3.377-5.807-5.442-8.37c-2.37-2.943-5.895-5.772-9.927-5.128-3.533.566-6.407 5.724-10.175 4.598-2.074-.62-3.228-2.938-4.022-4.77-1-2.3-1.713-4.726-2.43-7.13-.32-1.067-.737-2.138-1.497-2.952-1.936-2.072-4.412.615-5.692 2.658-1.104 1.762-2.147 2.97-4.67 2.64v-50.443l71.075 41.032v40.1c-.71 2.797-2.65 2.644-3.7 1.906" class="L"/><path d="M374.834 252.79v-50.443l3.476-1.953v50.443z" class="V"/><path d="M385.29 232.55v-36.08l3.476-1.953 67.6 42.985 3.476 42.136-3.476 1.953c-6.18-1.883-5.37-15.565-7.883-18.47-4.158-4.8-6.974 1.366-10.234.048-2.144-.867-2.385-3.892-3.115-5.916-.502-1.392-1.43-2.833-2.704-3.626-1.702-1.06-3.57-.515-4.89.856-1.644 1.707-3.415 6.17-3.415 6.17l-3.476 1.952c-2.835 1.175-5.698-.958-7.48-3.004-1.766-2.026-2.95-4.507-3.863-7.015-1.55-4.27-2.263-8.784-3.697-13.09-.838-2.52-2.502-6.46-5.25-7.33-2.734-.867-5.277 5.256-5.277 5.256s-2.22 1.076-3.314 1.85-2.343.912-3.62.344c-2.05-.91-2.854-4.976-2.854-7.066" class="G"/><path d="M388.767 230.598c0 2.1.805 6.155 2.854 7.066 2.56 1.137 5.008-.57 6.3-4.48.704-2.127 3.177-3.837 5.91-2.97 2.748.87 4.412 4.8 5.25 7.33 1.434 4.305 2.146 8.82 3.697 13.09.912 2.508 2.097 4.99 3.863 7.015 1.783 2.046 4.646 4.18 7.48 3.004 3.563-1.476 4.417-5.555 6.89-8.123 1.32-1.37 3.19-1.916 4.89-.856 1.274.793 2.202 2.234 2.704 3.626.73 2.024.97 5.05 3.115 5.915 3.26 1.32 6.076-4.857 10.234-.047 2.513 2.906 1.704 16.588 7.883 18.47v-44.09l-71.075-41.032v36.08" class="K"/><path d="M385.29 232.665V196.47l3.476-1.952v36.193z" class="Q"/><path d="M349.54 207.95l-2.656-.606 1.59-.917zm-4.426-1.003l-1.3-.296-2 1.154 8.463 1.66 2-1.154-2.97-4.832-2.074 1.198.523.743z" class="E"/><path d="M354.666 201.66l1.177-.68c.495-.286 1.015-.343 1.345-.152.308.178.194.468-.302.754l-1.177.68zm2.192 1.265l1.177-.68c.383-.22.82-.25 1.12-.077.29.168.226.41-.157.633l-1.177.68zm3.504.546c1.53-.885 1.955-1.774 1.082-2.278-.575-.332-1.482-.36-2.333-.063.657-.548.605-1.172-.114-1.587-.97-.56-2.595-.333-4.165.573l-3.354 1.937 5.67 3.273z" class="H"/><path d="M372.775 194.9l-2.27-.016c.042.5-.266 1.022-.808 1.335-.888.513-2.183.542-3.016.06s-.792-1.234.096-1.746c.505-.29 1.37-.492 2.215-.523l.086-1.245c-1.373.027-2.876.4-3.866.972-1.99 1.148-2.21 2.715-.537 3.68 1.65.953 4.366.795 6.393-.375 1-.572 1.657-1.406 1.707-2.144" class="F"/><path d="M377.116 188.497l.98-.567c.887-.512 2.084-.512 2.99.01.914.528.876 1.25-.058 1.79l-.888.513zm5.276 1.978c2.12-1.225 2.398-2.683.69-3.668s-4.268-.814-6.426.433l-2.803 1.618 5.67 3.273z" class="G"/><path d="M406.347 74.108c-13.42 0-24.3 4.968-24.3 11.096s10.88 11.095 24.3 11.095 24.3-4.967 24.3-11.095-10.88-11.096-24.3-11.096m0 49.936c-25 0-45.27-25.44-45.27-39.736s20.268-25.886 45.27-25.886 45.27 11.6 45.27 25.886-20.268 39.736-45.27 39.736" class="W"/><path d="M451.615 84.308c0-14.296-20.268-25.886-45.27-25.886s-45.268 11.6-45.268 25.886l.03 16.265 15.85-.157s7.113-23.07 25.375-23.07 37.583 22.446 37.583 22.446l11.7-.116z" class="J"/><path d="M388.325 82.723l-3.56-3.226-4.82-16.2c7.433-3.058 16.546-4.865 26.403-4.865 5.872 0 11.476.646 16.625 1.81V75.6l-7.698 4.963c-4.192-1.937-8.596-3.217-12.943-3.217-5.722 0-10.35 2.265-14.006 5.376" class="K"/><path d="M393.567 59.475v15.37l.53 4.23c-12.2 5.35-17.14 21.34-17.14 21.34l-15.85.156-.03-16.264c0-11.758 13.713-21.678 32.49-24.833" class="W"/><path d="M406.347 89.477c-13.42 0-24.3 4.968-24.3 11.096s10.88 11.095 24.3 11.095 24.3-4.967 24.3-11.095-10.88-11.096-24.3-11.096m0 36.086c-25 0-45.27-11.6-45.27-25.886s20.268-25.886 45.27-25.886 45.27 11.6 45.27 25.886-20.268 25.886-45.27 25.886" class="X"/><g class="P"><path d="M415.337 119.335V95.512c8.968-1.633 15.3-5.63 15.3-10.308 0-1.315-.504-2.575-1.423-3.745l6.13-.558 6.672 24.6c-4.757 5.728-26.7 13.825-26.7 13.825m35.5-24.458V79.54c.504 1.547.78 3.14.78 4.768v15.37l-3.584.036z"/></g><path d="M392.72 116.662l-2.28-7.706v-15.37c4.263 1.688 9.822 2.712 15.907 2.712 3.178 0 6.21-.28 8.99-.788v15.37l-14.6 10.873z" class="L"/><path d="M406.347 111.668c3.177 0 6.21-.28 8.99-.788l10.6 12.142c-5.926 1.628-12.567 2.54-19.58 2.54-12.75 0-24.26-3.02-32.487-7.868l16.58-8.74c4.263 1.688 9.82 2.712 15.907 2.712" class="F"/><path d="M450.942 95.25l-21.08 2.516.035.07c-2.397-4.313-10.322-7.617-20.132-8.248l1.46-8.847 4.59-6.38c20.456 2.49 35.803 12.875 35.803 25.314 0-1.5-.24-2.988-.673-4.427" class="E"/><path d="M422.972 75.6l-9.883 14.312a51.74 51.74 0 0 0-6.742-.436l-5.12.25-7.66-14.882c4.054-.68 8.34-1.053 12.78-1.053 5.872 0 11.477.646 16.625 1.8" class="G"/><path d="M425.927 123.022l-10.6-12.14c8.968-1.633 15.3-5.63 15.3-10.308 0-.97-.274-1.91-.786-2.807l21.08-2.516c.434 1.44.673 2.917.673 4.427 0 10.286-10.49 19.17-25.688 23.345" class="H"/><text transform="matrix(.866027 .499998 0 -.866027 364.3027 119.335)" class="B C D S X"><tspan x="0 5.462" y="0">30</tspan></text><g class="M N O"><path d="M368.062 118.512v-1"/><path d="M368.062 115.705V102.15" class="Y"/><path d="M368.062 101.248v-1"/></g><text transform="matrix(.866027 .499998 0 -.866027 384.6213 130.8794)" class="B C D F S"><tspan x="0 5.828" y="0">20</tspan></text><g class="M N O"><path d="M388.38 130.057v-1"/><path d="M388.38 126.887v-7.594" class="c"/><path d="M388.38 118.208v-1"/></g><text transform="matrix(.866027 .499998 0 -.866027 427.0946 128.2959)" class="B C D H S"><tspan x="0 5.828 11.646" y="0">25%</tspan></text><g class="M N O"><path d="M430.854 127.473v-1"/><path d="M430.854 124.304V116.7" class="c"/><path d="M430.854 115.624v-1"/></g><text transform="matrix(.866027 .499998 0 -.866027 401.579 132.6963)" class="B C D G S"><tspan x="0 5.818" y="0">5%</tspan></text><g class="M N O"><path d="M405.337 131.873v-1"/><path d="M405.337 128.89V82.32" stroke-dasharray="1.982, 1.982"/><path d="M405.337 81.33v-1"/></g><text transform="matrix(.866027 .499998 0 -.866027 440.1467 122.2827)" class="B C D E S"><tspan x="0 5.828 12.648" y="0">20%</tspan></text><g class="M N O"><path d="M443.906 121.46v-1"/><path d="M443.906 118.54V92.602" stroke-dasharray="1.921, 1.921"/><path d="M443.906 91.642v-1"/></g></g></g></svg>