<svg xmlns="http://www.w3.org/2000/svg" xmlns:xlink="http://www.w3.org/1999/xlink" height="300" width="600" xmlns:v="https://vecta.io/nano"><defs><clipPath id="A"><path d="M111.38 166.5l17.6-10.23v-29.05l13.3 7.7-.07-19.86L129 107.5V95.96l26.53 15.33-.06-22.85-44.08-25.18z" fill="none"/></clipPath><linearGradient gradientUnits="userSpaceOnUse" y2="114.75" x2="167.52" y1="114.75" x1="59.26" id="B"><stop stop-color="#ff6f00" offset="0"/><stop stop-color="#ffa800" offset="1"/></linearGradient><clipPath id="C"><path d="M107.42 166.5l-17.6-10.23v-60.3L63.27 111.3l.06-22.85 44.1-25.18z" fill="none"/></clipPath><linearGradient xlink:href="#B" x2="166.79" x1="58.53" id="D"/><linearGradient id="E" xlink:href="#B"/></defs><g transform="matrix(.935041 0 0 .935041 -24.75154 37.149331)"><g clip-path="url(#A)"><path d="M59.26 62.88h108.26v103.75H59.26z" fill="url(#E)"/></g><g clip-path="url(#C)"><path d="M58.53 62.88H166.8v103.75H58.53z" fill="url(#D)"/></g></g><path d="M195.385 126.212h-18.44v50.857h-10.2v-50.857h-18.28v-8.284h46.92zm12.24 51.67q-9.35 0-15.213-5.9-5.863-5.9-5.844-15.737V155a26.415 26.415 0 0 1 2.543-11.763 19.355 19.355 0 0 1 7.125-8.06 18.85 18.85 0 0 1 10.285-2.88q8.976 0 13.876 5.722 4.9 5.722 4.9 16.214v3.974h-28.762a13.137 13.137 0 0 0 3.637 8.612 10.903 10.903 0 0 0 8.023 3.17 13.371 13.371 0 0 0 11.099-5.479l5.32 5.077a17.841 17.841 0 0 1-7.05 6.115 22.058 22.058 0 0 1-9.939 2.169zm-1.178-37.654a8.303 8.303 0 0 0-6.545 2.805 14.736 14.736 0 0 0-3.188 7.92h18.84v-.664c-.215-3.3-1.094-5.807-2.646-7.48a8.228 8.228 0 0 0-6.461-2.581zm35.625-7.115l.3 5.087a15.783 15.783 0 0 1 12.791-5.891q13.726 0 13.98 15.718v29.042h-9.874v-28.472c0-2.805-.598-4.853-1.805-6.2s-3.18-2-5.9-2a9.528 9.528 0 0 0-8.902 5.405v31.277h-9.874v-43.947zm59.085 32.015a4.469 4.469 0 0 0-2.169-4.021 23.152 23.152 0 0 0-7.209-2.44 37.028 37.028 0 0 1-8.415-2.684q-7.387-3.562-7.387-10.35a11.707 11.707 0 0 1 4.787-9.509q4.797-3.815 12.156-3.815 7.882 0 12.735 3.9a12.361 12.361 0 0 1 4.853 10.108h-9.865a6.087 6.087 0 0 0-2.113-4.731 8.107 8.107 0 0 0-5.61-1.87 8.752 8.752 0 0 0-5.302 1.505 4.75 4.75 0 0 0-2.057 4.021 3.993 3.993 0 0 0 1.87 3.534c1.272.842 3.843 1.683 7.714 2.543a36.467 36.467 0 0 1 9.117 3.048 12.876 12.876 0 0 1 4.918 4.245 10.772 10.772 0 0 1 1.608 6.012 11.445 11.445 0 0 1-4.918 9.603c-3.273 2.45-7.574 3.675-12.876 3.675a22.75 22.75 0 0 1-9.631-1.945 15.821 15.821 0 0 1-6.545-5.367 12.679 12.679 0 0 1-2.356-7.349h9.594a6.91 6.91 0 0 0 2.637 5.376 10.285 10.285 0 0 0 6.461 1.87q3.9 0 5.928-1.487a4.591 4.591 0 0 0 2.076-3.871zm14.793-10.444a25.835 25.835 0 0 1 2.562-11.632 18.701 18.701 0 0 1 7.19-7.967 20.272 20.272 0 0 1 10.641-2.805q8.892 0 14.446 5.722 5.554 5.722 5.984 15.194l.047 2.32a26.181 26.181 0 0 1-2.497 11.604 18.448 18.448 0 0 1-7.153 7.92 20.412 20.412 0 0 1-10.744 2.805q-9.35 0-14.895-6.2-5.545-6.2-5.6-16.513zm9.874.86q0 6.77 2.805 10.622a9.781 9.781 0 0 0 15.578-.065q2.805-3.9 2.805-11.417 0-6.657-2.86-10.557a9.659 9.659 0 0 0-15.456-.065q-2.88 3.843-2.87 11.482zm60.693-13.408a24.564 24.564 0 0 0-4.021-.327q-6.788 0-9.145 5.2v30.062h-9.874v-43.947h9.425l.252 4.918q3.563-5.722 9.9-5.722a9.35 9.35 0 0 1 3.488.561zm41.29 9.864h-23.825v25.06h-10.285v-59.14h37.58v8.284h-27.303V143.8h23.834zm19.487 25.07h-9.874v-59.272h9.874zm7.228-22.386a25.835 25.835 0 0 1 2.562-11.632 18.701 18.701 0 0 1 7.19-7.967 20.29 20.29 0 0 1 10.641-2.805q8.902 0 14.446 5.722 5.545 5.722 5.994 15.194v2.32a26.181 26.181 0 0 1-2.459 11.604 18.392 18.392 0 0 1-7.153 7.92A20.412 20.412 0 0 1 475 177.845q-9.294 0-14.886-6.2-5.592-6.2-5.6-16.513zm9.874.86q0 6.77 2.805 10.622A9.107 9.107 0 0 0 475 170a9.014 9.014 0 0 0 7.78-3.899q2.805-3.9 2.805-11.417 0-6.657-2.87-10.557a9.659 9.659 0 0 0-15.456-.065q-2.86 3.843-2.86 11.482zm75.543 7.92l6.994-30.35h9.622l-11.978 43.947h-8.126l-9.425-30.183-9.266 30.183h-8.125l-12.025-43.947h9.678l7.106 30.024 9.023-30.024h7.434z" fill="#425066"/></svg>